;Layer: Drill PTH
;EasyEDA v6.3.53, 2020-06-27T20:36:22+08:00
;98c1c5add3144ec4b26582b9c50f015c,0271aa7b776e406f8d319a2d24a91b4c,10
;Gerber Generator version 0.2
M48
METRIC,LZ,000.000
;Holesize 1 = 0.305 METRIC
T01C0.305
;Holesize 2 = 0.600 METRIC
T02C0.600
;Holesize 3 = 0.915 METRIC
T03C0.915
;Holesize 4 = 1.200 METRIC
T04C1.200
;Holesize 5 = 3.000 METRIC
T05C3.000
%
G05
G90
T01
X+007665Y+027821
X+005506Y+025916
X+008763Y+025932
X+069006Y+042680
X+065704Y+040902
X+059989Y+041029
X+054782Y+036076
X+054782Y+034425
X+053131Y+040648
X+043987Y+041131
X+043987Y+041995
X+052242Y+045601
X+051480Y+045601
X+050591Y+045601
X+049829Y+045601
X+052242Y+038716
X+051480Y+038716
X+050591Y+038716
X+049829Y+038716
X+048940Y+038716
X+048940Y+045601
X+031795Y+039886
X+033065Y+039505
X+078023Y+018931
X+044622Y+039378
X+024302Y+039505
X+054528Y+026932
X+043987Y+044585
X+069260Y+022233
X+075356Y+037600
X+070784Y+038235
X+024810Y+017280
X+050972Y+021471
X+023032Y+015756
X+035478Y+042807
X+056941Y+033155
X+030017Y+018804
X+043987Y+040267
X+037891Y+039632
X+036875Y+045093
X+046273Y+035822
X+047162Y+034679
X+047924Y+032774
X+055671Y+030996
X+048051Y+038743
X+057195Y+037854
X+063291Y+041029
X+076118Y+040140
X+079293Y+009787
X+072816Y+032520
X+073070Y+031504
X+017317Y+047125
X+054274Y+043696
X+054274Y+042934
X+058846Y+039505
X+060497Y+039251
X+059354Y+036711
X+059354Y+035441
X+043987Y+042858
X+043987Y+043722
X+023286Y+041537
X+023159Y+040140
X+016891Y+046125
X+016383Y+045363
X+016383Y+040029
X+005969Y+043077
X+026835Y+046340
X+054237Y+044585
T02
X+083957Y+027852G85X+082757Y+027852
X+083957Y+022203G85X+082757Y+022203
T03
X+038780Y+016899
X+041320Y+016899
X+028620Y+052459
X+026080Y+052459
X+071800Y+052459
X+074340Y+052459
X+051480Y+052459
X+054020Y+052459
X+033700Y+052459
X+031160Y+052459
X+025953Y+014359
X+028493Y+014359
X+031033Y+014359
X+033573Y+014359
X+036113Y+014359
X+041320Y+014359
X+043860Y+014359
X+046400Y+014359
X+048940Y+014359
X+051480Y+014359
X+048940Y+049919
X+046400Y+049919
X+043860Y+049919
X+041320Y+049919
X+038780Y+049919
X+048940Y+052459
X+046400Y+052459
X+043860Y+052459
X+041320Y+052459
X+038780Y+052459
X+023540Y+052459
X+021000Y+052459
X+051480Y+049919
X+054020Y+049919
T04
X+063926Y+052378G85X+063926Y+051778
X+059926Y+052378G85X+059926Y+051778
T05
X+080944Y+049030
X+081325Y+004453
M30
