G04 Layer: TopSolderMaskLayer*
G04 EasyEDA v6.3.53, 2020-06-27T20:36:22+08:00*
G04 98c1c5add3144ec4b26582b9c50f015c,0271aa7b776e406f8d319a2d24a91b4c,10*
G04 Gerber Generator version 0.2*
G04 Scale: 100 percent, Rotated: No, Reflected: No *
G04 Dimensions in millimeters *
G04 leading zeros omitted , absolute positions ,3 integer and 3 decimal *
%FSLAX33Y33*%
%MOMM*%
G90*
G71D02*

%ADD49C,0.603199*%
%ADD50C,0.803199*%
%ADD51C,1.803197*%
%ADD52C,1.203198*%
%ADD53C,1.303198*%
%ADD54C,2.203196*%
%ADD55C,5.203190*%
%ADD65C,1.727200*%
%ADD67R,2.403196X3.703193*%
%ADD68R,2.403196X1.303198*%

%LPD*%
G54D49*
G01X7578Y32179D02*
G01X7578Y33229D01*
G01X6928Y32179D02*
G01X6928Y33229D01*
G01X6278Y32179D02*
G01X6278Y33229D01*
G01X5628Y32179D02*
G01X5628Y33229D01*
G01X5628Y27780D02*
G01X5628Y28830D01*
G01X6278Y27780D02*
G01X6278Y28830D01*
G01X6929Y27780D02*
G01X6929Y28830D01*
G01X7579Y27780D02*
G01X7579Y28830D01*
G54D50*
G01X74933Y27059D02*
G01X76133Y27059D01*
G01X74933Y28329D02*
G01X76133Y28329D01*
G01X74933Y29599D02*
G01X76133Y29599D01*
G01X74933Y30869D02*
G01X76133Y30869D01*
G01X74933Y32139D02*
G01X76133Y32139D01*
G01X74933Y33409D02*
G01X76133Y33409D01*
G01X74933Y34679D02*
G01X76133Y34679D01*
G01X74933Y35949D02*
G01X76133Y35949D01*
G01X68990Y27059D02*
G01X70190Y27059D01*
G01X68990Y28329D02*
G01X70190Y28329D01*
G01X68990Y29599D02*
G01X70190Y29599D01*
G01X68990Y30869D02*
G01X70190Y30869D01*
G01X68990Y32139D02*
G01X70190Y32139D01*
G01X68990Y33409D02*
G01X70190Y33409D01*
G01X68990Y34679D02*
G01X70190Y34679D01*
G01X68990Y35949D02*
G01X70190Y35949D01*
G54D51*
G01X10622Y48279D02*
G01X6450Y52451D01*
G01X5593Y43250D02*
G01X1421Y47422D01*
G54D52*
G01X8325Y46984D02*
G01X4436Y50873D01*
G01X6888Y45547D02*
G01X2999Y49436D01*
G54D53*
G01X82708Y27852D02*
G01X84008Y27852D01*
G01X82708Y22203D02*
G01X84008Y22203D01*
G54D50*
G01X63799Y47246D02*
G01X63799Y48166D01*
G01X62529Y47246D02*
G01X62529Y48166D01*
G01X61259Y47246D02*
G01X61259Y48166D01*
G01X59989Y47246D02*
G01X59989Y48166D01*
G01X63799Y41767D02*
G01X63799Y42687D01*
G01X62529Y41767D02*
G01X62529Y42687D01*
G01X61259Y41767D02*
G01X61259Y42687D01*
G01X59989Y41767D02*
G01X59989Y42687D01*
G54D54*
G01X63926Y52578D02*
G01X63926Y51578D01*
G01X59926Y52578D02*
G01X59926Y51578D01*
G54D55*
G01X80944Y49030D03*
G01X81325Y4453D03*
G36*
G01X11360Y25281D02*
G01X11360Y26585D01*
G01X12564Y26585D01*
G01X12564Y25281D01*
G01X11360Y25281D01*
G37*
G36*
G01X9760Y25281D02*
G01X9760Y26585D01*
G01X10964Y26585D01*
G01X10964Y25281D01*
G01X9760Y25281D01*
G37*
G36*
G01X8160Y25281D02*
G01X8160Y26585D01*
G01X9364Y26585D01*
G01X9364Y25281D01*
G01X8160Y25281D01*
G37*
G36*
G01X4962Y25281D02*
G01X4962Y26585D01*
G01X6163Y26585D01*
G01X6163Y25281D01*
G01X4962Y25281D01*
G37*
G36*
G01X6560Y25281D02*
G01X6560Y26585D01*
G01X7764Y26585D01*
G01X7764Y25281D01*
G01X6560Y25281D01*
G37*
G36*
G01X8160Y25281D02*
G01X8160Y26585D01*
G01X9364Y26585D01*
G01X9364Y25281D01*
G01X8160Y25281D01*
G37*
G36*
G01X4929Y25264D02*
G01X4929Y26569D01*
G01X6133Y26569D01*
G01X6133Y25264D01*
G01X4929Y25264D01*
G37*
G36*
G01X3329Y25264D02*
G01X3329Y26569D01*
G01X4533Y26569D01*
G01X4533Y25264D01*
G01X3329Y25264D01*
G37*
G36*
G01X1729Y25264D02*
G01X1729Y26569D01*
G01X2932Y26569D01*
G01X2932Y25264D01*
G01X1729Y25264D01*
G37*
G36*
G01X10568Y29086D02*
G01X10568Y30290D01*
G01X11873Y30290D01*
G01X11873Y29086D01*
G01X10568Y29086D01*
G37*
G36*
G01X10568Y30687D02*
G01X10568Y31891D01*
G01X11873Y31891D01*
G01X11873Y30687D01*
G01X10568Y30687D01*
G37*
G36*
G01X8663Y29086D02*
G01X8663Y30290D01*
G01X9968Y30290D01*
G01X9968Y29086D01*
G01X8663Y29086D01*
G37*
G36*
G01X8663Y30687D02*
G01X8663Y31891D01*
G01X9968Y31891D01*
G01X9968Y30687D01*
G01X8663Y30687D01*
G37*
G36*
G01X81746Y30395D02*
G01X81746Y32597D01*
G01X83951Y32597D01*
G01X83951Y30395D01*
G01X81746Y30395D01*
G37*
G36*
G01X81746Y38794D02*
G01X81746Y40996D01*
G01X83951Y40996D01*
G01X83951Y38794D01*
G01X81746Y38794D01*
G37*
G36*
G01X80984Y18347D02*
G01X80984Y20549D01*
G01X83189Y20549D01*
G01X83189Y18347D01*
G01X80984Y18347D01*
G37*
G36*
G01X80984Y9948D02*
G01X80984Y12150D01*
G01X83189Y12150D01*
G01X83189Y9948D01*
G01X80984Y9948D01*
G37*
G36*
G01X79155Y23425D02*
G01X79155Y24029D01*
G01X81459Y24029D01*
G01X81459Y23425D01*
G01X79155Y23425D01*
G37*
G36*
G01X79155Y24075D02*
G01X79155Y24680D01*
G01X81459Y24680D01*
G01X81459Y24075D01*
G01X79155Y24075D01*
G37*
G36*
G01X79155Y24725D02*
G01X79155Y25330D01*
G01X81459Y25330D01*
G01X81459Y24725D01*
G01X79155Y24725D01*
G37*
G36*
G01X79155Y25375D02*
G01X79155Y25980D01*
G01X81459Y25980D01*
G01X81459Y25375D01*
G01X79155Y25375D01*
G37*
G36*
G01X79155Y26026D02*
G01X79155Y26630D01*
G01X81459Y26630D01*
G01X81459Y26026D01*
G01X79155Y26026D01*
G37*
G36*
G01X80507Y20877D02*
G01X80507Y22579D01*
G01X81708Y22579D01*
G01X81708Y20877D01*
G01X80507Y20877D01*
G37*
G36*
G01X80507Y27476D02*
G01X80507Y29178D01*
G01X81708Y29178D01*
G01X81708Y27476D01*
G01X80507Y27476D01*
G37*
G36*
G01X82305Y22876D02*
G01X82305Y24979D01*
G01X84408Y24979D01*
G01X84408Y22876D01*
G01X82305Y22876D01*
G37*
G36*
G01X82305Y25076D02*
G01X82305Y27179D01*
G01X84408Y27179D01*
G01X84408Y25076D01*
G01X82305Y25076D01*
G37*
G36*
G01X66504Y20608D02*
G01X66504Y21903D01*
G01X67697Y21903D01*
G01X67697Y20608D01*
G01X66504Y20608D01*
G37*
G36*
G01X66504Y22310D02*
G01X66504Y23605D01*
G01X67697Y23605D01*
G01X67697Y22310D01*
G01X66504Y22310D01*
G37*
G36*
G01X70959Y22500D02*
G01X70959Y24253D01*
G01X72163Y24253D01*
G01X72163Y22500D01*
G01X70959Y22500D01*
G37*
G36*
G01X72960Y22500D02*
G01X72960Y24253D01*
G01X74164Y24253D01*
G01X74164Y22500D01*
G01X72960Y22500D01*
G37*
G36*
G01X70959Y19960D02*
G01X70959Y21713D01*
G01X72163Y21713D01*
G01X72163Y19960D01*
G01X70959Y19960D01*
G37*
G36*
G01X72960Y19960D02*
G01X72960Y21713D01*
G01X74164Y21713D01*
G01X74164Y19960D01*
G01X72960Y19960D01*
G37*
G36*
G01X70705Y9419D02*
G01X70705Y11172D01*
G01X71909Y11172D01*
G01X71909Y9419D01*
G01X70705Y9419D01*
G37*
G36*
G01X72706Y9419D02*
G01X72706Y11172D01*
G01X73910Y11172D01*
G01X73910Y9419D01*
G01X72706Y9419D01*
G37*
G36*
G01X70705Y6879D02*
G01X70705Y8632D01*
G01X71909Y8632D01*
G01X71909Y6879D01*
G01X70705Y6879D01*
G37*
G36*
G01X72706Y6879D02*
G01X72706Y8632D01*
G01X73910Y8632D01*
G01X73910Y6879D01*
G01X72706Y6879D01*
G37*
G36*
G01X21330Y45683D02*
G01X21330Y46887D01*
G01X23082Y46887D01*
G01X23082Y45683D01*
G01X21330Y45683D01*
G37*
G36*
G01X21330Y43681D02*
G01X21330Y44885D01*
G01X23082Y44885D01*
G01X23082Y43681D01*
G01X21330Y43681D01*
G37*
G36*
G01X65716Y45746D02*
G01X65716Y46950D01*
G01X67469Y46950D01*
G01X67469Y45746D01*
G01X65716Y45746D01*
G37*
G36*
G01X65716Y43745D02*
G01X65716Y44949D01*
G01X67469Y44949D01*
G01X67469Y43745D01*
G01X65716Y43745D01*
G37*
G36*
G01X80738Y41677D02*
G01X80738Y43430D01*
G01X81942Y43430D01*
G01X81942Y41677D01*
G01X80738Y41677D01*
G37*
G36*
G01X82739Y41677D02*
G01X82739Y43430D01*
G01X83943Y43430D01*
G01X83943Y41677D01*
G01X82739Y41677D01*
G37*
G36*
G01X80738Y7641D02*
G01X80738Y9394D01*
G01X81942Y9394D01*
G01X81942Y7641D01*
G01X80738Y7641D01*
G37*
G36*
G01X82739Y7641D02*
G01X82739Y9394D01*
G01X83943Y9394D01*
G01X83943Y7641D01*
G01X82739Y7641D01*
G37*
G36*
G01X63684Y22251D02*
G01X63684Y23455D01*
G01X65437Y23455D01*
G01X65437Y22251D01*
G01X63684Y22251D01*
G37*
G36*
G01X63684Y20250D02*
G01X63684Y21454D01*
G01X65437Y21454D01*
G01X65437Y20250D01*
G01X63684Y20250D01*
G37*
G54D65*
G01X38780Y16899D03*
G01X41320Y16899D03*
G01X28620Y52459D03*
G01X26080Y52459D03*
G01X71800Y52459D03*
G01X74340Y52459D03*
G01X51480Y52459D03*
G01X54020Y52459D03*
G01X33700Y52459D03*
G01X31160Y52459D03*
G01X25953Y14359D03*
G01X28493Y14359D03*
G01X31033Y14359D03*
G01X33573Y14359D03*
G01X36113Y14359D03*
G01X41320Y14359D03*
G01X43860Y14359D03*
G01X46400Y14359D03*
G01X48940Y14359D03*
G01X51480Y14359D03*
G01X48940Y49919D03*
G01X46400Y49919D03*
G01X43860Y49919D03*
G01X41320Y49919D03*
G01X38780Y49919D03*
G01X48940Y52459D03*
G01X46400Y52459D03*
G01X43860Y52459D03*
G01X41320Y52459D03*
G01X38780Y52459D03*
G36*
G01X31027Y41680D02*
G01X31027Y43382D01*
G01X32229Y43382D01*
G01X32229Y41680D01*
G01X31027Y41680D01*
G37*
G36*
G01X34027Y41680D02*
G01X34027Y43382D01*
G01X35229Y43382D01*
G01X35229Y41680D01*
G01X34027Y41680D01*
G37*
G36*
G01X34027Y46678D02*
G01X34027Y48383D01*
G01X35229Y48383D01*
G01X35229Y46678D01*
G01X34027Y46678D01*
G37*
G36*
G01X31027Y46678D02*
G01X31027Y48383D01*
G01X32229Y48383D01*
G01X32229Y46678D01*
G01X31027Y46678D01*
G37*
G36*
G01X24296Y41553D02*
G01X24296Y43255D01*
G01X25498Y43255D01*
G01X25498Y41553D01*
G01X24296Y41553D01*
G37*
G36*
G01X27296Y41553D02*
G01X27296Y43255D01*
G01X28498Y43255D01*
G01X28498Y41553D01*
G01X27296Y41553D01*
G37*
G36*
G01X27296Y46551D02*
G01X27296Y48256D01*
G01X28498Y48256D01*
G01X28498Y46551D01*
G01X27296Y46551D01*
G37*
G36*
G01X24296Y46551D02*
G01X24296Y48256D01*
G01X25498Y48256D01*
G01X25498Y46551D01*
G01X24296Y46551D01*
G37*
G36*
G01X77352Y20235D02*
G01X77352Y21438D01*
G01X78553Y21438D01*
G01X78553Y20235D01*
G01X77352Y20235D01*
G37*
G36*
G01X74952Y20235D02*
G01X74952Y21438D01*
G01X76153Y21438D01*
G01X76153Y20235D01*
G01X74952Y20235D01*
G37*
G54D67*
G01X69336Y15375D03*
G54D68*
G01X75533Y17675D03*
G36*
G01X74332Y14723D02*
G01X74332Y16028D01*
G01X76735Y16028D01*
G01X76735Y14723D01*
G01X74332Y14723D01*
G37*
G01X75533Y13076D03*
G36*
G01X56923Y45292D02*
G01X56923Y46496D01*
G01X58228Y46496D01*
G01X58228Y45292D01*
G01X56923Y45292D01*
G37*
G36*
G01X56923Y43691D02*
G01X56923Y44895D01*
G01X58228Y44895D01*
G01X58228Y43691D01*
G01X56923Y43691D01*
G37*
G36*
G01X77733Y37458D02*
G01X77733Y38860D01*
G01X79836Y38860D01*
G01X79836Y37458D01*
G01X77733Y37458D01*
G37*
G36*
G01X77733Y40659D02*
G01X77733Y42061D01*
G01X79836Y42061D01*
G01X79836Y40659D01*
G01X77733Y40659D01*
G37*
G36*
G01X77479Y11830D02*
G01X77479Y13232D01*
G01X79582Y13232D01*
G01X79582Y11830D01*
G01X77479Y11830D01*
G37*
G36*
G01X77479Y8629D02*
G01X77479Y10031D01*
G01X79582Y10031D01*
G01X79582Y8629D01*
G01X77479Y8629D01*
G37*
G54D65*
G01X23540Y52459D03*
G01X21000Y52459D03*
G01X51480Y49919D03*
G01X54020Y49919D03*
M00*
M02*
