G04 Layer: BottomPasteMaskLayer*
G04 EasyEDA v6.3.53, 2020-06-27T20:36:22+08:00*
G04 98c1c5add3144ec4b26582b9c50f015c,0271aa7b776e406f8d319a2d24a91b4c,10*
G04 Gerber Generator version 0.2*
G04 Scale: 100 percent, Rotated: No, Reflected: No *
G04 Dimensions in millimeters *
G04 leading zeros omitted , absolute positions ,3 integer and 3 decimal *
%FSLAX33Y33*%
%MOMM*%
G90*
G71D02*

%ADD38R,0.899998X1.499997*%
%ADD39R,1.499997X0.899998*%

%LPD*%
G36*
G01X10160Y10565D02*
G01X8636Y10565D01*
G01X8636Y9041D01*
G01X10160Y9041D01*
G01X10160Y10565D01*
G37*
G36*
G01X25527Y10565D02*
G01X24003Y10565D01*
G01X24003Y9041D01*
G01X25527Y9041D01*
G01X25527Y10565D01*
G37*
G36*
G01X56261Y10565D02*
G01X54737Y10565D01*
G01X54737Y9041D01*
G01X56261Y9041D01*
G01X56261Y10565D01*
G37*
G36*
G01X71628Y10565D02*
G01X70104Y10565D01*
G01X70104Y9041D01*
G01X71628Y9041D01*
G01X71628Y10565D01*
G37*
G36*
G01X67543Y33140D02*
G01X67543Y34340D01*
G01X65642Y34340D01*
G01X65642Y33140D01*
G01X67543Y33140D01*
G37*
G36*
G01X67543Y29939D02*
G01X67543Y31139D01*
G01X65642Y31139D01*
G01X65642Y29939D01*
G01X67543Y29939D01*
G37*
G36*
G01X62594Y31139D02*
G01X62594Y29939D01*
G01X64495Y29939D01*
G01X64495Y31139D01*
G01X62594Y31139D01*
G37*
G36*
G01X62594Y34340D02*
G01X62594Y33140D01*
G01X64495Y33140D01*
G01X64495Y34340D01*
G01X62594Y34340D01*
G37*
G36*
G01X59237Y33059D02*
G01X59237Y33760D01*
G01X57987Y33760D01*
G01X57987Y33059D01*
G01X59237Y33059D01*
G37*
G36*
G01X61736Y32110D02*
G01X61736Y32810D01*
G01X60486Y32810D01*
G01X60486Y32110D01*
G01X61736Y32110D01*
G37*
G36*
G01X61736Y34009D02*
G01X61736Y34709D01*
G01X60486Y34709D01*
G01X60486Y34009D01*
G01X61736Y34009D01*
G37*
G36*
G01X59237Y29757D02*
G01X59237Y30458D01*
G01X57987Y30458D01*
G01X57987Y29757D01*
G01X59237Y29757D01*
G37*
G36*
G01X61736Y28808D02*
G01X61736Y29508D01*
G01X60486Y29508D01*
G01X60486Y28808D01*
G01X61736Y28808D01*
G37*
G36*
G01X61736Y30707D02*
G01X61736Y31407D01*
G01X60486Y31407D01*
G01X60486Y30707D01*
G01X61736Y30707D01*
G37*
G36*
G01X24133Y16580D02*
G01X25533Y16580D01*
G01X25533Y17980D01*
G01X24133Y17980D01*
G01X24133Y16580D01*
G37*
G36*
G01X27133Y16580D02*
G01X28533Y16580D01*
G01X28533Y17980D01*
G01X27133Y17980D01*
G01X27133Y16580D01*
G37*
G36*
G01X11764Y11497D02*
G01X10764Y11497D01*
G01X10764Y10396D01*
G01X11764Y10396D01*
G01X11764Y11497D01*
G37*
G36*
G01X13364Y11497D02*
G01X12364Y11497D01*
G01X12364Y10396D01*
G01X13364Y10396D01*
G01X13364Y11497D01*
G37*
G36*
G01X27258Y11370D02*
G01X26258Y11370D01*
G01X26258Y10269D01*
G01X27258Y10269D01*
G01X27258Y11370D01*
G37*
G36*
G01X28858Y11370D02*
G01X27858Y11370D01*
G01X27858Y10269D01*
G01X28858Y10269D01*
G01X28858Y11370D01*
G37*
G36*
G01X42625Y11370D02*
G01X41625Y11370D01*
G01X41625Y10269D01*
G01X42625Y10269D01*
G01X42625Y11370D01*
G37*
G36*
G01X44225Y11370D02*
G01X43225Y11370D01*
G01X43225Y10269D01*
G01X44225Y10269D01*
G01X44225Y11370D01*
G37*
G36*
G01X53005Y10269D02*
G01X54005Y10269D01*
G01X54005Y11370D01*
G01X53005Y11370D01*
G01X53005Y10269D01*
G37*
G36*
G01X51405Y10269D02*
G01X52405Y10269D01*
G01X52405Y11370D01*
G01X51405Y11370D01*
G01X51405Y10269D01*
G37*
G36*
G01X68245Y10396D02*
G01X69245Y10396D01*
G01X69245Y11497D01*
G01X68245Y11497D01*
G01X68245Y10396D01*
G37*
G36*
G01X66645Y10396D02*
G01X67645Y10396D01*
G01X67645Y11497D01*
G01X66645Y11497D01*
G01X66645Y10396D01*
G37*
G36*
G01X40894Y10565D02*
G01X39370Y10565D01*
G01X39370Y9041D01*
G01X40894Y9041D01*
G01X40894Y10565D01*
G37*
G54D38*
G01X27742Y19457D03*
G01X29012Y19457D03*
G01X30282Y19457D03*
G01X31552Y19457D03*
G01X32822Y19457D03*
G01X34092Y19457D03*
G01X35362Y19457D03*
G01X36632Y19457D03*
G01X37902Y19457D03*
G01X39172Y19457D03*
G01X40442Y19457D03*
G01X41712Y19457D03*
G01X42982Y19457D03*
G01X44252Y19457D03*
G54D39*
G01X45753Y22741D03*
G01X45753Y24011D03*
G01X45753Y25281D03*
G01X45753Y26551D03*
G01X45753Y27821D03*
G01X45753Y29091D03*
G01X45753Y30361D03*
G01X45753Y31631D03*
G01X45753Y32901D03*
G01X45753Y34171D03*
G54D38*
G01X44252Y37456D03*
G01X42982Y37456D03*
G01X41712Y37456D03*
G01X40442Y37456D03*
G01X39172Y37456D03*
G01X37902Y37456D03*
G01X36632Y37456D03*
G01X35362Y37456D03*
G01X34092Y37456D03*
G01X32822Y37456D03*
G01X31552Y37456D03*
G01X30282Y37456D03*
G01X29012Y37456D03*
G01X27742Y37456D03*
M00*
M02*
