G04 Layer: BottomLayer*
G04 EasyEDA v6.3.53, 2020-06-27T20:36:22+08:00*
G04 98c1c5add3144ec4b26582b9c50f015c,0271aa7b776e406f8d319a2d24a91b4c,10*
G04 Gerber Generator version 0.2*
G04 Scale: 100 percent, Rotated: No, Reflected: No *
G04 Dimensions in millimeters *
G04 leading zeros omitted , absolute positions ,3 integer and 3 decimal *
%FSLAX33Y33*%
%MOMM*%
G90*
G71D02*

%ADD10C,0.299999*%
%ADD11C,0.254000*%
%ADD12C,0.599999*%
%ADD13C,0.399999*%
%ADD17C,0.609600*%
%ADD31C,4.999990*%
%ADD32C,1.524000*%
%ADD33C,1.099998*%
%ADD34C,1.999996*%
%ADD38R,0.899998X1.499997*%
%ADD39R,1.499997X0.899998*%

%LPD*%
G36*
G01X8126Y53743D02*
G01X5990Y53743D01*
G01X5974Y53742D01*
G01X5958Y53738D01*
G01X5944Y53732D01*
G01X5930Y53724D01*
G01X5918Y53713D01*
G01X286Y48081D01*
G01X275Y48069D01*
G01X267Y48055D01*
G01X261Y48041D01*
G01X257Y48025D01*
G01X256Y48009D01*
G01X256Y45514D01*
G01X257Y45499D01*
G01X261Y45483D01*
G01X267Y45468D01*
G01X275Y45455D01*
G01X286Y45443D01*
G01X5136Y40594D01*
G01X5153Y40576D01*
G01X5168Y40556D01*
G01X5181Y40534D01*
G01X5192Y40511D01*
G01X5201Y40488D01*
G01X5207Y40463D01*
G01X5210Y40438D01*
G01X5212Y40413D01*
G01X5210Y40388D01*
G01X5207Y40363D01*
G01X5201Y40339D01*
G01X5192Y40315D01*
G01X5181Y40292D01*
G01X5168Y40271D01*
G01X5153Y40250D01*
G01X5136Y40232D01*
G01X5136Y40231D01*
G01X5134Y40229D01*
G01X5112Y40210D01*
G01X2776Y38353D01*
G01X2765Y38343D01*
G01X2756Y38331D01*
G01X2748Y38318D01*
G01X2743Y38304D01*
G01X2739Y38289D01*
G01X2738Y38274D01*
G01X2739Y38259D01*
G01X2742Y38245D01*
G01X2747Y38231D01*
G01X2754Y38219D01*
G01X2763Y38207D01*
G01X2773Y38197D01*
G01X2785Y38188D01*
G01X2797Y38181D01*
G01X2811Y38176D01*
G01X2825Y38173D01*
G01X2840Y38172D01*
G01X26941Y38172D01*
G01X26956Y38173D01*
G01X26971Y38177D01*
G01X26986Y38183D01*
G01X26999Y38191D01*
G01X27011Y38201D01*
G01X27022Y38212D01*
G01X27030Y38225D01*
G01X27036Y38240D01*
G01X27041Y38255D01*
G01X27046Y38278D01*
G01X27054Y38300D01*
G01X27063Y38322D01*
G01X27075Y38342D01*
G01X27088Y38362D01*
G01X27103Y38380D01*
G01X27120Y38396D01*
G01X27138Y38411D01*
G01X27158Y38425D01*
G01X27178Y38436D01*
G01X27200Y38446D01*
G01X27222Y38453D01*
G01X27245Y38459D01*
G01X27269Y38462D01*
G01X27293Y38463D01*
G01X27454Y38463D01*
G01X27454Y38274D01*
G01X27455Y38259D01*
G01X27458Y38245D01*
G01X27463Y38231D01*
G01X27470Y38219D01*
G01X27479Y38207D01*
G01X27489Y38197D01*
G01X27501Y38188D01*
G01X27513Y38181D01*
G01X27527Y38176D01*
G01X27541Y38173D01*
G01X27556Y38172D01*
G01X27929Y38172D01*
G01X27944Y38173D01*
G01X27958Y38176D01*
G01X27972Y38181D01*
G01X27984Y38188D01*
G01X27996Y38197D01*
G01X28006Y38207D01*
G01X28015Y38219D01*
G01X28022Y38231D01*
G01X28027Y38245D01*
G01X28030Y38259D01*
G01X28031Y38274D01*
G01X28031Y38463D01*
G01X28193Y38463D01*
G01X28216Y38462D01*
G01X28239Y38459D01*
G01X28261Y38454D01*
G01X28283Y38446D01*
G01X28305Y38437D01*
G01X28325Y38426D01*
G01X28342Y38418D01*
G01X28359Y38413D01*
G01X28378Y38412D01*
G01X28396Y38413D01*
G01X28413Y38418D01*
G01X28430Y38426D01*
G01X28452Y38438D01*
G01X28474Y38447D01*
G01X28497Y38455D01*
G01X28521Y38460D01*
G01X28537Y38463D01*
G01X28551Y38470D01*
G01X28565Y38478D01*
G01X28577Y38488D01*
G01X28587Y38500D01*
G01X28596Y38514D01*
G01X28602Y38529D01*
G01X28605Y38544D01*
G01X28607Y38560D01*
G01X28607Y46140D01*
G01X28605Y46156D01*
G01X28602Y46172D01*
G01X28596Y46186D01*
G01X28587Y46200D01*
G01X28577Y46212D01*
G01X25792Y48997D01*
G01X25772Y49018D01*
G01X25754Y49041D01*
G01X25737Y49065D01*
G01X25723Y49090D01*
G01X25710Y49116D01*
G01X25699Y49142D01*
G01X25689Y49170D01*
G01X25682Y49198D01*
G01X25677Y49227D01*
G01X25674Y49255D01*
G01X25673Y49284D01*
G01X25673Y51461D01*
G01X25672Y51477D01*
G01X25668Y51493D01*
G01X25662Y51507D01*
G01X25654Y51521D01*
G01X25643Y51533D01*
G01X25631Y51543D01*
G01X25617Y51552D01*
G01X25576Y51574D01*
G01X25536Y51598D01*
G01X25497Y51624D01*
G01X25460Y51651D01*
G01X25423Y51680D01*
G01X25388Y51711D01*
G01X25355Y51744D01*
G01X25323Y51778D01*
G01X25292Y51813D01*
G01X25264Y51850D01*
G01X25236Y51888D01*
G01X25211Y51927D01*
G01X25188Y51967D01*
G01X25166Y52009D01*
G01X25146Y52051D01*
G01X25129Y52094D01*
G01X25113Y52138D01*
G01X25099Y52183D01*
G01X25088Y52228D01*
G01X25078Y52274D01*
G01X25071Y52320D01*
G01X25065Y52366D01*
G01X25062Y52413D01*
G01X25061Y52459D01*
G01X25062Y52505D01*
G01X25065Y52551D01*
G01X25070Y52596D01*
G01X25077Y52641D01*
G01X25086Y52686D01*
G01X25098Y52730D01*
G01X25111Y52774D01*
G01X25126Y52817D01*
G01X25143Y52860D01*
G01X25162Y52901D01*
G01X25183Y52942D01*
G01X25205Y52982D01*
G01X25229Y53021D01*
G01X25255Y53058D01*
G01X25283Y53095D01*
G01X25312Y53130D01*
G01X25343Y53163D01*
G01X25376Y53196D01*
G01X25409Y53227D01*
G01X25444Y53256D01*
G01X25481Y53284D01*
G01X25518Y53310D01*
G01X25557Y53334D01*
G01X25597Y53356D01*
G01X25638Y53377D01*
G01X25679Y53396D01*
G01X25722Y53413D01*
G01X25765Y53428D01*
G01X25809Y53441D01*
G01X25853Y53453D01*
G01X25898Y53462D01*
G01X25943Y53469D01*
G01X25988Y53474D01*
G01X26034Y53477D01*
G01X26080Y53478D01*
G01X26125Y53477D01*
G01X26171Y53474D01*
G01X26216Y53469D01*
G01X26261Y53462D01*
G01X26306Y53453D01*
G01X26350Y53441D01*
G01X26394Y53428D01*
G01X26437Y53413D01*
G01X26480Y53396D01*
G01X26521Y53377D01*
G01X26562Y53356D01*
G01X26602Y53334D01*
G01X26641Y53310D01*
G01X26678Y53284D01*
G01X26715Y53256D01*
G01X26750Y53227D01*
G01X26783Y53196D01*
G01X26816Y53163D01*
G01X26847Y53130D01*
G01X26876Y53095D01*
G01X26904Y53058D01*
G01X26930Y53021D01*
G01X26954Y52982D01*
G01X26976Y52942D01*
G01X26997Y52901D01*
G01X27016Y52860D01*
G01X27033Y52817D01*
G01X27048Y52774D01*
G01X27061Y52730D01*
G01X27073Y52686D01*
G01X27082Y52641D01*
G01X27089Y52596D01*
G01X27094Y52551D01*
G01X27097Y52505D01*
G01X27098Y52459D01*
G01X27097Y52413D01*
G01X27094Y52366D01*
G01X27088Y52320D01*
G01X27081Y52274D01*
G01X27071Y52228D01*
G01X27060Y52183D01*
G01X27046Y52138D01*
G01X27030Y52094D01*
G01X27013Y52051D01*
G01X26993Y52009D01*
G01X26971Y51967D01*
G01X26948Y51927D01*
G01X26923Y51888D01*
G01X26895Y51850D01*
G01X26867Y51813D01*
G01X26836Y51778D01*
G01X26804Y51744D01*
G01X26771Y51711D01*
G01X26736Y51680D01*
G01X26699Y51651D01*
G01X26662Y51624D01*
G01X26623Y51598D01*
G01X26583Y51574D01*
G01X26542Y51552D01*
G01X26528Y51543D01*
G01X26516Y51533D01*
G01X26505Y51521D01*
G01X26497Y51507D01*
G01X26491Y51493D01*
G01X26487Y51477D01*
G01X26486Y51461D01*
G01X26486Y49495D01*
G01X26487Y49479D01*
G01X26491Y49464D01*
G01X26497Y49449D01*
G01X26505Y49435D01*
G01X26516Y49423D01*
G01X29301Y46638D01*
G01X29320Y46617D01*
G01X29339Y46594D01*
G01X29355Y46571D01*
G01X29370Y46546D01*
G01X29383Y46520D01*
G01X29394Y46493D01*
G01X29403Y46465D01*
G01X29410Y46437D01*
G01X29416Y46409D01*
G01X29419Y46380D01*
G01X29420Y46351D01*
G01X29420Y38560D01*
G01X29421Y38544D01*
G01X29425Y38529D01*
G01X29431Y38514D01*
G01X29439Y38500D01*
G01X29449Y38488D01*
G01X29461Y38478D01*
G01X29475Y38470D01*
G01X29489Y38463D01*
G01X29505Y38460D01*
G01X29528Y38454D01*
G01X29551Y38447D01*
G01X29574Y38438D01*
G01X29595Y38426D01*
G01X29612Y38418D01*
G01X29629Y38413D01*
G01X29648Y38412D01*
G01X29666Y38413D01*
G01X29683Y38418D01*
G01X29700Y38426D01*
G01X29722Y38438D01*
G01X29744Y38447D01*
G01X29767Y38455D01*
G01X29791Y38460D01*
G01X29807Y38463D01*
G01X29821Y38470D01*
G01X29835Y38478D01*
G01X29847Y38488D01*
G01X29857Y38500D01*
G01X29866Y38514D01*
G01X29872Y38529D01*
G01X29875Y38544D01*
G01X29877Y38560D01*
G01X29877Y47283D01*
G01X29875Y47299D01*
G01X29872Y47315D01*
G01X29866Y47329D01*
G01X29857Y47343D01*
G01X29847Y47355D01*
G01X28332Y48870D01*
G01X28312Y48891D01*
G01X28294Y48914D01*
G01X28277Y48938D01*
G01X28263Y48963D01*
G01X28250Y48989D01*
G01X28239Y49015D01*
G01X28229Y49043D01*
G01X28222Y49071D01*
G01X28217Y49100D01*
G01X28214Y49128D01*
G01X28213Y49157D01*
G01X28213Y51461D01*
G01X28212Y51477D01*
G01X28208Y51493D01*
G01X28202Y51507D01*
G01X28194Y51521D01*
G01X28183Y51533D01*
G01X28171Y51543D01*
G01X28157Y51552D01*
G01X28116Y51574D01*
G01X28076Y51598D01*
G01X28037Y51624D01*
G01X28000Y51651D01*
G01X27963Y51680D01*
G01X27928Y51711D01*
G01X27895Y51744D01*
G01X27863Y51778D01*
G01X27832Y51813D01*
G01X27804Y51850D01*
G01X27776Y51888D01*
G01X27751Y51927D01*
G01X27728Y51967D01*
G01X27706Y52009D01*
G01X27686Y52051D01*
G01X27669Y52094D01*
G01X27653Y52138D01*
G01X27639Y52183D01*
G01X27628Y52228D01*
G01X27618Y52274D01*
G01X27611Y52320D01*
G01X27605Y52366D01*
G01X27602Y52413D01*
G01X27601Y52459D01*
G01X27602Y52505D01*
G01X27605Y52551D01*
G01X27610Y52596D01*
G01X27617Y52641D01*
G01X27626Y52686D01*
G01X27638Y52730D01*
G01X27651Y52774D01*
G01X27666Y52817D01*
G01X27683Y52860D01*
G01X27702Y52901D01*
G01X27723Y52942D01*
G01X27745Y52982D01*
G01X27769Y53021D01*
G01X27795Y53058D01*
G01X27823Y53095D01*
G01X27852Y53130D01*
G01X27883Y53163D01*
G01X27916Y53196D01*
G01X27949Y53227D01*
G01X27984Y53256D01*
G01X28021Y53284D01*
G01X28058Y53310D01*
G01X28097Y53334D01*
G01X28137Y53356D01*
G01X28178Y53377D01*
G01X28219Y53396D01*
G01X28262Y53413D01*
G01X28305Y53428D01*
G01X28349Y53441D01*
G01X28393Y53453D01*
G01X28438Y53462D01*
G01X28483Y53469D01*
G01X28528Y53474D01*
G01X28574Y53477D01*
G01X28620Y53478D01*
G01X28665Y53477D01*
G01X28711Y53474D01*
G01X28756Y53469D01*
G01X28801Y53462D01*
G01X28846Y53453D01*
G01X28890Y53441D01*
G01X28934Y53428D01*
G01X28977Y53413D01*
G01X29020Y53396D01*
G01X29061Y53377D01*
G01X29102Y53356D01*
G01X29142Y53334D01*
G01X29181Y53310D01*
G01X29218Y53284D01*
G01X29255Y53256D01*
G01X29290Y53227D01*
G01X29323Y53196D01*
G01X29356Y53163D01*
G01X29387Y53130D01*
G01X29416Y53095D01*
G01X29444Y53058D01*
G01X29470Y53021D01*
G01X29494Y52982D01*
G01X29516Y52942D01*
G01X29537Y52901D01*
G01X29556Y52860D01*
G01X29573Y52817D01*
G01X29588Y52774D01*
G01X29601Y52730D01*
G01X29613Y52686D01*
G01X29622Y52641D01*
G01X29629Y52596D01*
G01X29634Y52551D01*
G01X29637Y52505D01*
G01X29638Y52459D01*
G01X29637Y52413D01*
G01X29634Y52366D01*
G01X29628Y52320D01*
G01X29621Y52274D01*
G01X29611Y52228D01*
G01X29600Y52183D01*
G01X29586Y52138D01*
G01X29570Y52094D01*
G01X29553Y52051D01*
G01X29533Y52009D01*
G01X29511Y51967D01*
G01X29488Y51927D01*
G01X29463Y51888D01*
G01X29435Y51850D01*
G01X29407Y51813D01*
G01X29376Y51778D01*
G01X29344Y51744D01*
G01X29311Y51711D01*
G01X29276Y51680D01*
G01X29239Y51651D01*
G01X29202Y51624D01*
G01X29163Y51598D01*
G01X29123Y51574D01*
G01X29082Y51552D01*
G01X29068Y51543D01*
G01X29056Y51533D01*
G01X29045Y51521D01*
G01X29037Y51507D01*
G01X29031Y51493D01*
G01X29027Y51477D01*
G01X29026Y51461D01*
G01X29026Y49368D01*
G01X29027Y49352D01*
G01X29031Y49337D01*
G01X29037Y49322D01*
G01X29045Y49308D01*
G01X29056Y49296D01*
G01X30571Y47781D01*
G01X30590Y47760D01*
G01X30609Y47737D01*
G01X30625Y47714D01*
G01X30640Y47689D01*
G01X30653Y47663D01*
G01X30664Y47636D01*
G01X30673Y47608D01*
G01X30680Y47580D01*
G01X30686Y47552D01*
G01X30689Y47523D01*
G01X30690Y47494D01*
G01X30690Y38560D01*
G01X30691Y38544D01*
G01X30695Y38529D01*
G01X30701Y38514D01*
G01X30709Y38500D01*
G01X30719Y38488D01*
G01X30731Y38478D01*
G01X30745Y38470D01*
G01X30759Y38463D01*
G01X30775Y38460D01*
G01X30798Y38454D01*
G01X30821Y38447D01*
G01X30844Y38438D01*
G01X30865Y38426D01*
G01X30882Y38418D01*
G01X30899Y38413D01*
G01X30918Y38412D01*
G01X30936Y38413D01*
G01X30953Y38418D01*
G01X30970Y38426D01*
G01X30990Y38437D01*
G01X31012Y38446D01*
G01X31034Y38454D01*
G01X31056Y38459D01*
G01X31079Y38462D01*
G01X31103Y38463D01*
G01X31286Y38463D01*
G01X31301Y38464D01*
G01X31315Y38467D01*
G01X31329Y38472D01*
G01X31341Y38479D01*
G01X31353Y38488D01*
G01X31363Y38498D01*
G01X31372Y38510D01*
G01X31379Y38522D01*
G01X31384Y38536D01*
G01X31387Y38550D01*
G01X31388Y38565D01*
G01X31388Y39461D01*
G01X31386Y39478D01*
G01X31382Y39495D01*
G01X31374Y39511D01*
G01X31364Y39526D01*
G01X31342Y39554D01*
G01X31322Y39583D01*
G01X31304Y39614D01*
G01X31288Y39645D01*
G01X31273Y39678D01*
G01X31261Y39712D01*
G01X31251Y39746D01*
G01X31243Y39780D01*
G01X31238Y39815D01*
G01X31234Y39851D01*
G01X31233Y39886D01*
G01X31234Y39920D01*
G01X31237Y39954D01*
G01X31242Y39988D01*
G01X31249Y40021D01*
G01X31259Y40053D01*
G01X31270Y40086D01*
G01X31283Y40117D01*
G01X31297Y40147D01*
G01X31314Y40177D01*
G01X31333Y40205D01*
G01X31353Y40233D01*
G01X31374Y40259D01*
G01X31422Y40307D01*
G01X31448Y40328D01*
G01X31476Y40348D01*
G01X31504Y40367D01*
G01X31534Y40384D01*
G01X31564Y40398D01*
G01X31595Y40411D01*
G01X31628Y40422D01*
G01X31660Y40432D01*
G01X31693Y40439D01*
G01X31727Y40444D01*
G01X31761Y40447D01*
G01X31795Y40448D01*
G01X31828Y40447D01*
G01X31862Y40444D01*
G01X31896Y40439D01*
G01X31929Y40432D01*
G01X31962Y40422D01*
G01X31994Y40411D01*
G01X32025Y40398D01*
G01X32055Y40384D01*
G01X32085Y40367D01*
G01X32113Y40348D01*
G01X32141Y40328D01*
G01X32167Y40307D01*
G01X32215Y40259D01*
G01X32236Y40233D01*
G01X32256Y40205D01*
G01X32275Y40177D01*
G01X32292Y40147D01*
G01X32306Y40117D01*
G01X32319Y40086D01*
G01X32330Y40053D01*
G01X32340Y40021D01*
G01X32347Y39988D01*
G01X32352Y39954D01*
G01X32355Y39920D01*
G01X32356Y39886D01*
G01X32355Y39851D01*
G01X32351Y39815D01*
G01X32346Y39780D01*
G01X32338Y39746D01*
G01X32328Y39712D01*
G01X32316Y39678D01*
G01X32301Y39645D01*
G01X32285Y39614D01*
G01X32267Y39583D01*
G01X32247Y39554D01*
G01X32225Y39526D01*
G01X32215Y39511D01*
G01X32207Y39495D01*
G01X32203Y39478D01*
G01X32201Y39461D01*
G01X32201Y38558D01*
G01X32202Y38543D01*
G01X32205Y38529D01*
G01X32210Y38516D01*
G01X32217Y38503D01*
G01X32226Y38491D01*
G01X32236Y38481D01*
G01X32248Y38472D01*
G01X32260Y38465D01*
G01X32274Y38460D01*
G01X32288Y38457D01*
G01X32303Y38456D01*
G01X32322Y38458D01*
G01X32347Y38462D01*
G01X32373Y38463D01*
G01X32556Y38463D01*
G01X32571Y38464D01*
G01X32585Y38467D01*
G01X32599Y38472D01*
G01X32611Y38479D01*
G01X32623Y38488D01*
G01X32633Y38498D01*
G01X32642Y38510D01*
G01X32649Y38522D01*
G01X32654Y38536D01*
G01X32657Y38550D01*
G01X32658Y38565D01*
G01X32658Y39080D01*
G01X32656Y39097D01*
G01X32652Y39114D01*
G01X32644Y39130D01*
G01X32634Y39145D01*
G01X32612Y39173D01*
G01X32592Y39202D01*
G01X32574Y39233D01*
G01X32558Y39264D01*
G01X32543Y39297D01*
G01X32531Y39331D01*
G01X32521Y39365D01*
G01X32513Y39399D01*
G01X32508Y39434D01*
G01X32504Y39470D01*
G01X32503Y39505D01*
G01X32504Y39539D01*
G01X32507Y39573D01*
G01X32512Y39607D01*
G01X32519Y39640D01*
G01X32529Y39672D01*
G01X32540Y39705D01*
G01X32553Y39736D01*
G01X32567Y39766D01*
G01X32584Y39796D01*
G01X32603Y39824D01*
G01X32623Y39852D01*
G01X32644Y39878D01*
G01X32692Y39926D01*
G01X32718Y39947D01*
G01X32746Y39967D01*
G01X32774Y39986D01*
G01X32804Y40003D01*
G01X32834Y40017D01*
G01X32865Y40030D01*
G01X32898Y40041D01*
G01X32930Y40051D01*
G01X32963Y40058D01*
G01X32997Y40063D01*
G01X33031Y40066D01*
G01X33065Y40067D01*
G01X33098Y40066D01*
G01X33132Y40063D01*
G01X33166Y40058D01*
G01X33199Y40051D01*
G01X33232Y40041D01*
G01X33264Y40030D01*
G01X33295Y40017D01*
G01X33325Y40003D01*
G01X33355Y39986D01*
G01X33383Y39967D01*
G01X33411Y39947D01*
G01X33437Y39926D01*
G01X33485Y39878D01*
G01X33506Y39852D01*
G01X33526Y39824D01*
G01X33545Y39796D01*
G01X33562Y39766D01*
G01X33576Y39736D01*
G01X33589Y39705D01*
G01X33600Y39672D01*
G01X33610Y39640D01*
G01X33617Y39607D01*
G01X33622Y39573D01*
G01X33625Y39539D01*
G01X33626Y39505D01*
G01X33625Y39470D01*
G01X33621Y39434D01*
G01X33616Y39399D01*
G01X33608Y39365D01*
G01X33598Y39331D01*
G01X33586Y39297D01*
G01X33571Y39264D01*
G01X33555Y39233D01*
G01X33537Y39202D01*
G01X33517Y39173D01*
G01X33495Y39145D01*
G01X33485Y39130D01*
G01X33477Y39114D01*
G01X33473Y39097D01*
G01X33471Y39080D01*
G01X33471Y38558D01*
G01X33472Y38543D01*
G01X33475Y38529D01*
G01X33480Y38516D01*
G01X33487Y38503D01*
G01X33496Y38491D01*
G01X33506Y38481D01*
G01X33518Y38472D01*
G01X33530Y38465D01*
G01X33544Y38460D01*
G01X33558Y38457D01*
G01X33573Y38456D01*
G01X33592Y38458D01*
G01X33617Y38462D01*
G01X33643Y38463D01*
G01X33760Y38463D01*
G01X33775Y38464D01*
G01X33791Y38468D01*
G01X33806Y38474D01*
G01X33819Y38482D01*
G01X33831Y38493D01*
G01X35041Y39705D01*
G01X35052Y39717D01*
G01X35060Y39731D01*
G01X35066Y39745D01*
G01X35070Y39761D01*
G01X35071Y39777D01*
G01X35071Y42382D01*
G01X35069Y42399D01*
G01X35065Y42416D01*
G01X35057Y42432D01*
G01X35047Y42447D01*
G01X35025Y42475D01*
G01X35005Y42504D01*
G01X34987Y42535D01*
G01X34971Y42566D01*
G01X34956Y42599D01*
G01X34944Y42633D01*
G01X34934Y42667D01*
G01X34926Y42701D01*
G01X34921Y42736D01*
G01X34917Y42772D01*
G01X34916Y42807D01*
G01X34917Y42841D01*
G01X34920Y42875D01*
G01X34925Y42909D01*
G01X34932Y42942D01*
G01X34942Y42974D01*
G01X34953Y43007D01*
G01X34966Y43038D01*
G01X34980Y43068D01*
G01X34997Y43098D01*
G01X35016Y43126D01*
G01X35036Y43154D01*
G01X35057Y43180D01*
G01X35105Y43228D01*
G01X35131Y43249D01*
G01X35159Y43269D01*
G01X35187Y43288D01*
G01X35217Y43305D01*
G01X35247Y43319D01*
G01X35278Y43332D01*
G01X35311Y43343D01*
G01X35343Y43353D01*
G01X35376Y43360D01*
G01X35410Y43365D01*
G01X35444Y43368D01*
G01X35478Y43369D01*
G01X35511Y43368D01*
G01X35545Y43365D01*
G01X35579Y43360D01*
G01X35612Y43353D01*
G01X35645Y43343D01*
G01X35677Y43332D01*
G01X35708Y43319D01*
G01X35738Y43305D01*
G01X35768Y43288D01*
G01X35796Y43269D01*
G01X35824Y43249D01*
G01X35850Y43228D01*
G01X35898Y43180D01*
G01X35919Y43154D01*
G01X35939Y43126D01*
G01X35958Y43098D01*
G01X35975Y43068D01*
G01X35989Y43038D01*
G01X36002Y43007D01*
G01X36013Y42974D01*
G01X36023Y42942D01*
G01X36030Y42909D01*
G01X36035Y42875D01*
G01X36038Y42841D01*
G01X36039Y42807D01*
G01X36038Y42772D01*
G01X36034Y42736D01*
G01X36029Y42701D01*
G01X36021Y42667D01*
G01X36011Y42633D01*
G01X35999Y42599D01*
G01X35984Y42566D01*
G01X35968Y42535D01*
G01X35950Y42504D01*
G01X35930Y42475D01*
G01X35908Y42447D01*
G01X35898Y42432D01*
G01X35890Y42416D01*
G01X35886Y42399D01*
G01X35884Y42382D01*
G01X35884Y39566D01*
G01X35883Y39537D01*
G01X35880Y39509D01*
G01X35875Y39480D01*
G01X35868Y39452D01*
G01X35858Y39425D01*
G01X35847Y39398D01*
G01X35834Y39372D01*
G01X35820Y39347D01*
G01X35803Y39323D01*
G01X35785Y39300D01*
G01X35765Y39279D01*
G01X35124Y38636D01*
G01X35113Y38624D01*
G01X35105Y38611D01*
G01X35099Y38596D01*
G01X35095Y38580D01*
G01X35094Y38565D01*
G01X35095Y38550D01*
G01X35098Y38536D01*
G01X35103Y38522D01*
G01X35110Y38510D01*
G01X35119Y38498D01*
G01X35129Y38488D01*
G01X35141Y38479D01*
G01X35153Y38472D01*
G01X35167Y38467D01*
G01X35181Y38464D01*
G01X35195Y38463D01*
G01X35813Y38463D01*
G01X35836Y38462D01*
G01X35859Y38459D01*
G01X35881Y38454D01*
G01X35903Y38446D01*
G01X35925Y38437D01*
G01X35945Y38426D01*
G01X35962Y38418D01*
G01X35979Y38413D01*
G01X35998Y38412D01*
G01X36016Y38413D01*
G01X36033Y38418D01*
G01X36050Y38426D01*
G01X36070Y38437D01*
G01X36092Y38446D01*
G01X36114Y38454D01*
G01X36136Y38459D01*
G01X36159Y38462D01*
G01X36183Y38463D01*
G01X36366Y38463D01*
G01X36381Y38464D01*
G01X36395Y38467D01*
G01X36409Y38472D01*
G01X36421Y38479D01*
G01X36433Y38488D01*
G01X36443Y38498D01*
G01X36452Y38510D01*
G01X36459Y38522D01*
G01X36464Y38536D01*
G01X36467Y38550D01*
G01X36468Y38565D01*
G01X36468Y44668D01*
G01X36466Y44685D01*
G01X36462Y44702D01*
G01X36454Y44718D01*
G01X36444Y44733D01*
G01X36422Y44761D01*
G01X36402Y44790D01*
G01X36384Y44821D01*
G01X36368Y44852D01*
G01X36353Y44885D01*
G01X36341Y44919D01*
G01X36331Y44953D01*
G01X36323Y44987D01*
G01X36318Y45022D01*
G01X36314Y45058D01*
G01X36313Y45093D01*
G01X36314Y45129D01*
G01X36318Y45164D01*
G01X36323Y45199D01*
G01X36331Y45233D01*
G01X36341Y45267D01*
G01X36352Y45300D01*
G01X36366Y45332D01*
G01X36382Y45364D01*
G01X36400Y45394D01*
G01X36420Y45423D01*
G01X36442Y45451D01*
G01X36465Y45477D01*
G01X36490Y45502D01*
G01X36516Y45526D01*
G01X36544Y45547D01*
G01X36573Y45567D01*
G01X36603Y45585D01*
G01X36635Y45601D01*
G01X36667Y45615D01*
G01X36700Y45627D01*
G01X36715Y45633D01*
G01X36729Y45642D01*
G01X36741Y45652D01*
G01X36751Y45664D01*
G01X36759Y45678D01*
G01X36765Y45692D01*
G01X36769Y45708D01*
G01X36770Y45724D01*
G01X36769Y45740D01*
G01X36765Y45755D01*
G01X36759Y45770D01*
G01X36751Y45783D01*
G01X36741Y45796D01*
G01X31119Y51417D01*
G01X31106Y51428D01*
G01X31091Y51437D01*
G01X31075Y51443D01*
G01X31058Y51446D01*
G01X31011Y51452D01*
G01X30965Y51460D01*
G01X30919Y51470D01*
G01X30874Y51482D01*
G01X30829Y51496D01*
G01X30786Y51512D01*
G01X30742Y51530D01*
G01X30700Y51550D01*
G01X30659Y51572D01*
G01X30619Y51596D01*
G01X30580Y51622D01*
G01X30542Y51650D01*
G01X30505Y51679D01*
G01X30470Y51710D01*
G01X30436Y51742D01*
G01X30404Y51776D01*
G01X30374Y51812D01*
G01X30345Y51848D01*
G01X30317Y51887D01*
G01X30292Y51926D01*
G01X30268Y51966D01*
G01X30247Y52008D01*
G01X30227Y52050D01*
G01X30209Y52093D01*
G01X30193Y52137D01*
G01X30179Y52182D01*
G01X30168Y52228D01*
G01X30158Y52273D01*
G01X30151Y52320D01*
G01X30145Y52366D01*
G01X30142Y52413D01*
G01X30141Y52459D01*
G01X30142Y52505D01*
G01X30145Y52551D01*
G01X30150Y52596D01*
G01X30157Y52641D01*
G01X30166Y52686D01*
G01X30178Y52730D01*
G01X30191Y52774D01*
G01X30206Y52817D01*
G01X30223Y52860D01*
G01X30242Y52901D01*
G01X30263Y52942D01*
G01X30285Y52982D01*
G01X30309Y53021D01*
G01X30335Y53058D01*
G01X30363Y53095D01*
G01X30392Y53130D01*
G01X30423Y53163D01*
G01X30456Y53196D01*
G01X30489Y53227D01*
G01X30524Y53256D01*
G01X30561Y53284D01*
G01X30598Y53310D01*
G01X30637Y53334D01*
G01X30677Y53356D01*
G01X30718Y53377D01*
G01X30759Y53396D01*
G01X30802Y53413D01*
G01X30845Y53428D01*
G01X30889Y53441D01*
G01X30933Y53453D01*
G01X30978Y53462D01*
G01X31023Y53469D01*
G01X31068Y53474D01*
G01X31114Y53477D01*
G01X31160Y53478D01*
G01X31205Y53477D01*
G01X31251Y53474D01*
G01X31296Y53469D01*
G01X31341Y53462D01*
G01X31386Y53453D01*
G01X31430Y53441D01*
G01X31474Y53428D01*
G01X31517Y53413D01*
G01X31560Y53396D01*
G01X31601Y53377D01*
G01X31642Y53356D01*
G01X31682Y53334D01*
G01X31721Y53310D01*
G01X31758Y53284D01*
G01X31795Y53256D01*
G01X31830Y53227D01*
G01X31863Y53196D01*
G01X31896Y53163D01*
G01X31927Y53130D01*
G01X31956Y53095D01*
G01X31984Y53058D01*
G01X32010Y53021D01*
G01X32034Y52982D01*
G01X32056Y52942D01*
G01X32077Y52901D01*
G01X32096Y52860D01*
G01X32113Y52817D01*
G01X32128Y52774D01*
G01X32141Y52730D01*
G01X32153Y52686D01*
G01X32162Y52641D01*
G01X32169Y52596D01*
G01X32174Y52551D01*
G01X32177Y52505D01*
G01X32178Y52459D01*
G01X32177Y52412D01*
G01X32174Y52365D01*
G01X32168Y52318D01*
G01X32160Y52271D01*
G01X32151Y52224D01*
G01X32139Y52179D01*
G01X32124Y52133D01*
G01X32108Y52089D01*
G01X32090Y52045D01*
G01X32070Y52002D01*
G01X32047Y51960D01*
G01X32023Y51919D01*
G01X31997Y51880D01*
G01X31969Y51841D01*
G01X31960Y51828D01*
G01X31954Y51812D01*
G01X31950Y51796D01*
G01X31948Y51780D01*
G01X31949Y51764D01*
G01X31953Y51748D01*
G01X31959Y51734D01*
G01X31968Y51720D01*
G01X31978Y51708D01*
G01X33120Y50566D01*
G01X33132Y50556D01*
G01X33145Y50548D01*
G01X33160Y50542D01*
G01X33175Y50538D01*
G01X33191Y50537D01*
G01X33206Y50538D01*
G01X33220Y50541D01*
G01X33234Y50546D01*
G01X33246Y50553D01*
G01X33258Y50561D01*
G01X33268Y50572D01*
G01X33277Y50583D01*
G01X33284Y50596D01*
G01X33289Y50610D01*
G01X33292Y50624D01*
G01X33293Y50638D01*
G01X33293Y51461D01*
G01X33292Y51477D01*
G01X33288Y51493D01*
G01X33282Y51507D01*
G01X33274Y51521D01*
G01X33263Y51533D01*
G01X33251Y51543D01*
G01X33237Y51552D01*
G01X33196Y51574D01*
G01X33156Y51598D01*
G01X33117Y51624D01*
G01X33080Y51651D01*
G01X33043Y51680D01*
G01X33008Y51711D01*
G01X32975Y51744D01*
G01X32943Y51778D01*
G01X32912Y51813D01*
G01X32884Y51850D01*
G01X32856Y51888D01*
G01X32831Y51927D01*
G01X32808Y51967D01*
G01X32786Y52009D01*
G01X32766Y52051D01*
G01X32749Y52094D01*
G01X32733Y52138D01*
G01X32719Y52183D01*
G01X32708Y52228D01*
G01X32698Y52274D01*
G01X32691Y52320D01*
G01X32685Y52366D01*
G01X32682Y52413D01*
G01X32681Y52459D01*
G01X32682Y52505D01*
G01X32685Y52551D01*
G01X32690Y52596D01*
G01X32697Y52641D01*
G01X32706Y52686D01*
G01X32718Y52730D01*
G01X32731Y52774D01*
G01X32746Y52817D01*
G01X32763Y52860D01*
G01X32782Y52901D01*
G01X32803Y52942D01*
G01X32825Y52982D01*
G01X32849Y53021D01*
G01X32875Y53058D01*
G01X32903Y53095D01*
G01X32932Y53130D01*
G01X32963Y53163D01*
G01X32996Y53196D01*
G01X33029Y53227D01*
G01X33064Y53256D01*
G01X33101Y53284D01*
G01X33138Y53310D01*
G01X33177Y53334D01*
G01X33217Y53356D01*
G01X33258Y53377D01*
G01X33299Y53396D01*
G01X33342Y53413D01*
G01X33385Y53428D01*
G01X33429Y53441D01*
G01X33473Y53453D01*
G01X33518Y53462D01*
G01X33563Y53469D01*
G01X33608Y53474D01*
G01X33654Y53477D01*
G01X33700Y53478D01*
G01X33745Y53477D01*
G01X33791Y53474D01*
G01X33836Y53469D01*
G01X33881Y53462D01*
G01X33926Y53453D01*
G01X33970Y53441D01*
G01X34014Y53428D01*
G01X34057Y53413D01*
G01X34100Y53396D01*
G01X34141Y53377D01*
G01X34182Y53356D01*
G01X34222Y53334D01*
G01X34261Y53310D01*
G01X34298Y53284D01*
G01X34335Y53256D01*
G01X34370Y53227D01*
G01X34403Y53196D01*
G01X34436Y53163D01*
G01X34467Y53130D01*
G01X34496Y53095D01*
G01X34524Y53058D01*
G01X34550Y53021D01*
G01X34574Y52982D01*
G01X34596Y52942D01*
G01X34617Y52901D01*
G01X34636Y52860D01*
G01X34653Y52817D01*
G01X34668Y52774D01*
G01X34681Y52730D01*
G01X34693Y52686D01*
G01X34702Y52641D01*
G01X34709Y52596D01*
G01X34714Y52551D01*
G01X34717Y52505D01*
G01X34718Y52459D01*
G01X34717Y52413D01*
G01X34714Y52366D01*
G01X34708Y52320D01*
G01X34701Y52274D01*
G01X34691Y52228D01*
G01X34680Y52183D01*
G01X34666Y52138D01*
G01X34650Y52094D01*
G01X34633Y52051D01*
G01X34613Y52009D01*
G01X34591Y51967D01*
G01X34568Y51927D01*
G01X34543Y51888D01*
G01X34515Y51850D01*
G01X34487Y51813D01*
G01X34456Y51778D01*
G01X34424Y51744D01*
G01X34391Y51711D01*
G01X34356Y51680D01*
G01X34319Y51651D01*
G01X34282Y51624D01*
G01X34243Y51598D01*
G01X34203Y51574D01*
G01X34162Y51552D01*
G01X34148Y51543D01*
G01X34136Y51533D01*
G01X34125Y51521D01*
G01X34117Y51507D01*
G01X34111Y51493D01*
G01X34107Y51477D01*
G01X34106Y51461D01*
G01X34106Y50765D01*
G01X34107Y50749D01*
G01X34111Y50734D01*
G01X34117Y50719D01*
G01X34125Y50705D01*
G01X34136Y50693D01*
G01X36041Y48788D01*
G01X36053Y48778D01*
G01X36066Y48770D01*
G01X36081Y48764D01*
G01X36096Y48760D01*
G01X36112Y48759D01*
G01X36127Y48760D01*
G01X36141Y48763D01*
G01X36155Y48768D01*
G01X36167Y48775D01*
G01X36179Y48783D01*
G01X36189Y48794D01*
G01X36198Y48805D01*
G01X36205Y48818D01*
G01X36210Y48832D01*
G01X36213Y48846D01*
G01X36214Y48860D01*
G01X36214Y53602D01*
G01X36215Y53634D01*
G01X36215Y53641D01*
G01X36214Y53656D01*
G01X36211Y53670D01*
G01X36206Y53684D01*
G01X36199Y53696D01*
G01X36191Y53708D01*
G01X36180Y53718D01*
G01X36169Y53727D01*
G01X36156Y53734D01*
G01X36142Y53739D01*
G01X36128Y53742D01*
G01X36114Y53743D01*
G01X18561Y53743D01*
G01X18546Y53742D01*
G01X18532Y53739D01*
G01X18518Y53734D01*
G01X18505Y53726D01*
G01X18494Y53717D01*
G01X18483Y53707D01*
G01X18469Y53691D01*
G01X13694Y48916D01*
G01X13684Y48905D01*
G01X13676Y48892D01*
G01X13670Y48879D01*
G01X13666Y48865D01*
G01X13664Y48850D01*
G01X13662Y48826D01*
G01X13657Y48803D01*
G01X13650Y48780D01*
G01X13640Y48757D01*
G01X13629Y48736D01*
G01X13616Y48716D01*
G01X13601Y48697D01*
G01X13584Y48679D01*
G01X13566Y48664D01*
G01X13546Y48650D01*
G01X13525Y48638D01*
G01X13503Y48628D01*
G01X13480Y48620D01*
G01X13456Y48614D01*
G01X13432Y48611D01*
G01X13408Y48610D01*
G01X13383Y48611D01*
G01X13358Y48615D01*
G01X13334Y48621D01*
G01X13310Y48629D01*
G01X13287Y48640D01*
G01X13266Y48653D01*
G01X13245Y48668D01*
G01X13227Y48685D01*
G01X13163Y48748D01*
G01X8198Y53713D01*
G01X8186Y53724D01*
G01X8173Y53732D01*
G01X8158Y53738D01*
G01X8142Y53742D01*
G01X8126Y53743D01*
G37*

%LPC*%
G36*
G01X17352Y47686D02*
G01X17317Y47687D01*
G01X17283Y47686D01*
G01X17249Y47683D01*
G01X17215Y47678D01*
G01X17182Y47671D01*
G01X17150Y47661D01*
G01X17117Y47650D01*
G01X17086Y47637D01*
G01X17056Y47623D01*
G01X17026Y47606D01*
G01X16998Y47587D01*
G01X16970Y47567D01*
G01X16944Y47546D01*
G01X16896Y47498D01*
G01X16875Y47472D01*
G01X16855Y47444D01*
G01X16836Y47416D01*
G01X16819Y47386D01*
G01X16805Y47356D01*
G01X16792Y47325D01*
G01X16781Y47292D01*
G01X16771Y47260D01*
G01X16764Y47227D01*
G01X16759Y47193D01*
G01X16756Y47159D01*
G01X16755Y47125D01*
G01X16756Y47091D01*
G01X16759Y47056D01*
G01X16765Y47022D01*
G01X16772Y46988D01*
G01X16782Y46954D01*
G01X16794Y46921D01*
G01X16807Y46889D01*
G01X16823Y46858D01*
G01X16840Y46828D01*
G01X16849Y46811D01*
G01X16854Y46793D01*
G01X16856Y46774D01*
G01X16855Y46759D01*
G01X16851Y46744D01*
G01X16846Y46730D01*
G01X16838Y46716D01*
G01X16828Y46704D01*
G01X16817Y46694D01*
G01X16804Y46686D01*
G01X16790Y46679D01*
G01X16775Y46675D01*
G01X16741Y46667D01*
G01X16708Y46656D01*
G01X16676Y46644D01*
G01X16644Y46630D01*
G01X16613Y46613D01*
G01X16583Y46595D01*
G01X16555Y46575D01*
G01X16528Y46554D01*
G01X16502Y46530D01*
G01X16477Y46506D01*
G01X16455Y46479D01*
G01X16434Y46452D01*
G01X16414Y46423D01*
G01X16397Y46393D01*
G01X16381Y46361D01*
G01X16368Y46329D01*
G01X16356Y46297D01*
G01X16346Y46263D01*
G01X16339Y46229D01*
G01X16334Y46195D01*
G01X16330Y46160D01*
G01X16329Y46125D01*
G01X16331Y46077D01*
G01X16338Y46028D01*
G01X16339Y46010D01*
G01X16338Y45995D01*
G01X16335Y45980D01*
G01X16329Y45966D01*
G01X16322Y45953D01*
G01X16312Y45941D01*
G01X16301Y45931D01*
G01X16288Y45922D01*
G01X16274Y45916D01*
G01X16260Y45911D01*
G01X16226Y45903D01*
G01X16194Y45892D01*
G01X16162Y45880D01*
G01X16130Y45865D01*
G01X16100Y45849D01*
G01X16071Y45830D01*
G01X16043Y45810D01*
G01X16016Y45789D01*
G01X15991Y45765D01*
G01X15967Y45741D01*
G01X15944Y45714D01*
G01X15924Y45687D01*
G01X15905Y45658D01*
G01X15888Y45628D01*
G01X15872Y45597D01*
G01X15859Y45566D01*
G01X15847Y45533D01*
G01X15838Y45500D01*
G01X15831Y45466D01*
G01X15825Y45432D01*
G01X15822Y45398D01*
G01X15821Y45363D01*
G01X15822Y45330D01*
G01X15825Y45296D01*
G01X15830Y45262D01*
G01X15838Y45229D01*
G01X15847Y45196D01*
G01X15858Y45164D01*
G01X15871Y45133D01*
G01X15885Y45103D01*
G01X15902Y45073D01*
G01X15921Y45045D01*
G01X15941Y45017D01*
G01X15962Y44991D01*
G01X16010Y44943D01*
G01X16036Y44922D01*
G01X16064Y44902D01*
G01X16092Y44883D01*
G01X16122Y44866D01*
G01X16152Y44852D01*
G01X16183Y44839D01*
G01X16216Y44828D01*
G01X16248Y44818D01*
G01X16281Y44811D01*
G01X16315Y44806D01*
G01X16349Y44803D01*
G01X16383Y44802D01*
G01X16418Y44803D01*
G01X16454Y44807D01*
G01X16489Y44812D01*
G01X16523Y44820D01*
G01X16558Y44830D01*
G01X16591Y44842D01*
G01X16624Y44857D01*
G01X16655Y44873D01*
G01X16686Y44891D01*
G01X16715Y44911D01*
G01X16743Y44933D01*
G01X16758Y44943D01*
G01X16774Y44951D01*
G01X16791Y44955D01*
G01X16808Y44957D01*
G01X17725Y44957D01*
G01X17741Y44956D01*
G01X17756Y44952D01*
G01X17771Y44946D01*
G01X17785Y44938D01*
G01X17797Y44927D01*
G01X22570Y40154D01*
G01X22581Y40141D01*
G01X22590Y40125D01*
G01X22596Y40109D01*
G01X22599Y40091D01*
G01X22603Y40057D01*
G01X22610Y40023D01*
G01X22618Y39989D01*
G01X22628Y39956D01*
G01X22641Y39923D01*
G01X22655Y39892D01*
G01X22671Y39861D01*
G01X22690Y39832D01*
G01X22710Y39803D01*
G01X22731Y39776D01*
G01X22779Y39726D01*
G01X22806Y39704D01*
G01X22833Y39683D01*
G01X22862Y39664D01*
G01X22892Y39646D01*
G01X22923Y39631D01*
G01X22955Y39617D01*
G01X22988Y39606D01*
G01X23021Y39596D01*
G01X23055Y39589D01*
G01X23089Y39583D01*
G01X23124Y39580D01*
G01X23159Y39579D01*
G01X23194Y39580D01*
G01X23230Y39584D01*
G01X23266Y39589D01*
G01X23301Y39597D01*
G01X23335Y39608D01*
G01X23369Y39620D01*
G01X23402Y39635D01*
G01X23434Y39651D01*
G01X23465Y39670D01*
G01X23494Y39691D01*
G01X23522Y39713D01*
G01X23549Y39737D01*
G01X23574Y39763D01*
G01X23597Y39790D01*
G01X23608Y39801D01*
G01X23619Y39811D01*
G01X23633Y39818D01*
G01X23647Y39824D01*
G01X23662Y39827D01*
G01X23677Y39829D01*
G01X23691Y39828D01*
G01X23705Y39824D01*
G01X23719Y39819D01*
G01X23732Y39812D01*
G01X23743Y39804D01*
G01X23753Y39793D01*
G01X23762Y39782D01*
G01X23769Y39769D01*
G01X23774Y39756D01*
G01X23777Y39741D01*
G01X23778Y39727D01*
G01X23777Y39710D01*
G01X23772Y39693D01*
G01X23761Y39657D01*
G01X23752Y39619D01*
G01X23745Y39582D01*
G01X23741Y39544D01*
G01X23740Y39505D01*
G01X23741Y39472D01*
G01X23744Y39438D01*
G01X23749Y39404D01*
G01X23756Y39371D01*
G01X23766Y39338D01*
G01X23777Y39306D01*
G01X23790Y39275D01*
G01X23804Y39245D01*
G01X23821Y39215D01*
G01X23840Y39187D01*
G01X23860Y39159D01*
G01X23881Y39133D01*
G01X23929Y39085D01*
G01X23955Y39064D01*
G01X23983Y39044D01*
G01X24011Y39025D01*
G01X24041Y39008D01*
G01X24071Y38994D01*
G01X24102Y38981D01*
G01X24135Y38970D01*
G01X24167Y38960D01*
G01X24200Y38953D01*
G01X24234Y38948D01*
G01X24268Y38945D01*
G01X24302Y38944D01*
G01X24335Y38945D01*
G01X24369Y38948D01*
G01X24403Y38953D01*
G01X24436Y38960D01*
G01X24469Y38970D01*
G01X24501Y38981D01*
G01X24532Y38994D01*
G01X24562Y39008D01*
G01X24592Y39025D01*
G01X24620Y39044D01*
G01X24648Y39064D01*
G01X24674Y39085D01*
G01X24722Y39133D01*
G01X24743Y39159D01*
G01X24763Y39187D01*
G01X24782Y39215D01*
G01X24799Y39245D01*
G01X24813Y39275D01*
G01X24826Y39306D01*
G01X24837Y39338D01*
G01X24847Y39371D01*
G01X24854Y39404D01*
G01X24859Y39438D01*
G01X24862Y39472D01*
G01X24863Y39505D01*
G01X24862Y39541D01*
G01X24858Y39576D01*
G01X24853Y39612D01*
G01X24845Y39646D01*
G01X24835Y39680D01*
G01X24823Y39714D01*
G01X24808Y39747D01*
G01X24792Y39778D01*
G01X24774Y39809D01*
G01X24754Y39838D01*
G01X24732Y39866D01*
G01X24722Y39881D01*
G01X24714Y39897D01*
G01X24710Y39914D01*
G01X24708Y39931D01*
G01X24708Y42934D01*
G01X24707Y42963D01*
G01X24704Y42992D01*
G01X24699Y43021D01*
G01X24692Y43049D01*
G01X24682Y43077D01*
G01X24671Y43103D01*
G01X24658Y43129D01*
G01X24644Y43154D01*
G01X24627Y43178D01*
G01X24609Y43201D01*
G01X24589Y43222D01*
G01X20398Y47413D01*
G01X20377Y47433D01*
G01X20354Y47451D01*
G01X20330Y47468D01*
G01X20305Y47482D01*
G01X20279Y47495D01*
G01X20253Y47506D01*
G01X20225Y47516D01*
G01X20197Y47523D01*
G01X20168Y47528D01*
G01X20140Y47531D01*
G01X20111Y47532D01*
G01X17742Y47532D01*
G01X17725Y47534D01*
G01X17708Y47538D01*
G01X17692Y47546D01*
G01X17677Y47556D01*
G01X17649Y47578D01*
G01X17620Y47598D01*
G01X17589Y47616D01*
G01X17558Y47632D01*
G01X17525Y47647D01*
G01X17491Y47659D01*
G01X17457Y47669D01*
G01X17423Y47677D01*
G01X17388Y47682D01*
G01X17352Y47686D01*
G37*
G36*
G01X21045Y53477D02*
G01X21000Y53478D01*
G01X20954Y53477D01*
G01X20908Y53474D01*
G01X20863Y53469D01*
G01X20818Y53462D01*
G01X20773Y53453D01*
G01X20729Y53441D01*
G01X20685Y53428D01*
G01X20642Y53413D01*
G01X20599Y53396D01*
G01X20558Y53377D01*
G01X20517Y53356D01*
G01X20477Y53334D01*
G01X20438Y53310D01*
G01X20401Y53284D01*
G01X20364Y53256D01*
G01X20329Y53227D01*
G01X20296Y53196D01*
G01X20263Y53163D01*
G01X20232Y53130D01*
G01X20203Y53095D01*
G01X20175Y53058D01*
G01X20149Y53021D01*
G01X20125Y52982D01*
G01X20103Y52942D01*
G01X20082Y52901D01*
G01X20063Y52860D01*
G01X20046Y52817D01*
G01X20031Y52774D01*
G01X20018Y52730D01*
G01X20006Y52686D01*
G01X19997Y52641D01*
G01X19990Y52596D01*
G01X19985Y52551D01*
G01X19982Y52505D01*
G01X19981Y52459D01*
G01X19982Y52414D01*
G01X19985Y52368D01*
G01X19990Y52323D01*
G01X19997Y52278D01*
G01X20006Y52233D01*
G01X20018Y52189D01*
G01X20031Y52145D01*
G01X20046Y52102D01*
G01X20063Y52059D01*
G01X20082Y52018D01*
G01X20103Y51977D01*
G01X20125Y51937D01*
G01X20149Y51899D01*
G01X20175Y51861D01*
G01X20203Y51825D01*
G01X20232Y51790D01*
G01X20263Y51756D01*
G01X20295Y51723D01*
G01X20329Y51693D01*
G01X20364Y51663D01*
G01X20401Y51636D01*
G01X20438Y51610D01*
G01X20477Y51585D01*
G01X20517Y51563D01*
G01X20530Y51554D01*
G01X20541Y51544D01*
G01X20551Y51532D01*
G01X20559Y51519D01*
G01X20565Y51504D01*
G01X20569Y51489D01*
G01X20570Y51473D01*
G01X20570Y51062D01*
G01X20571Y51029D01*
G01X20574Y50995D01*
G01X20579Y50962D01*
G01X20586Y50929D01*
G01X20595Y50897D01*
G01X20606Y50865D01*
G01X20619Y50834D01*
G01X20634Y50804D01*
G01X20650Y50775D01*
G01X20668Y50746D01*
G01X20688Y50719D01*
G01X20710Y50693D01*
G01X20733Y50669D01*
G01X25455Y45947D01*
G01X25479Y45924D01*
G01X25505Y45903D01*
G01X25532Y45883D01*
G01X25560Y45864D01*
G01X25590Y45848D01*
G01X25620Y45833D01*
G01X25651Y45820D01*
G01X25683Y45809D01*
G01X25715Y45800D01*
G01X25748Y45793D01*
G01X25781Y45788D01*
G01X25815Y45785D01*
G01X25848Y45784D01*
G01X26753Y45784D01*
G01X26766Y45783D01*
G01X26800Y45780D01*
G01X26835Y45779D01*
G01X26869Y45780D01*
G01X26903Y45783D01*
G01X26936Y45788D01*
G01X26969Y45795D01*
G01X27002Y45804D01*
G01X27034Y45816D01*
G01X27065Y45828D01*
G01X27096Y45843D01*
G01X27125Y45860D01*
G01X27154Y45878D01*
G01X27181Y45898D01*
G01X27207Y45920D01*
G01X27232Y45943D01*
G01X27255Y45968D01*
G01X27277Y45994D01*
G01X27297Y46022D01*
G01X27315Y46050D01*
G01X27332Y46080D01*
G01X27347Y46110D01*
G01X27360Y46141D01*
G01X27371Y46173D01*
G01X27380Y46206D01*
G01X27387Y46239D01*
G01X27392Y46273D01*
G01X27395Y46306D01*
G01X27396Y46340D01*
G01X27395Y46374D01*
G01X27392Y46408D01*
G01X27387Y46442D01*
G01X27380Y46475D01*
G01X27371Y46507D01*
G01X27360Y46539D01*
G01X27347Y46571D01*
G01X27332Y46601D01*
G01X27315Y46631D01*
G01X27297Y46659D01*
G01X27277Y46687D01*
G01X27255Y46713D01*
G01X27232Y46737D01*
G01X27207Y46761D01*
G01X27181Y46782D01*
G01X27154Y46802D01*
G01X27125Y46821D01*
G01X27096Y46837D01*
G01X27065Y46852D01*
G01X27034Y46865D01*
G01X27002Y46876D01*
G01X26969Y46885D01*
G01X26936Y46893D01*
G01X26903Y46898D01*
G01X26869Y46901D01*
G01X26835Y46902D01*
G01X26769Y46898D01*
G01X26757Y46897D01*
G01X26121Y46897D01*
G01X26105Y46898D01*
G01X26090Y46902D01*
G01X26075Y46908D01*
G01X26061Y46917D01*
G01X26049Y46927D01*
G01X21713Y51263D01*
G01X21702Y51275D01*
G01X21694Y51289D01*
G01X21688Y51304D01*
G01X21684Y51319D01*
G01X21683Y51335D01*
G01X21683Y51661D01*
G01X21684Y51677D01*
G01X21688Y51692D01*
G01X21694Y51707D01*
G01X21703Y51721D01*
G01X21713Y51733D01*
G01X21747Y51767D01*
G01X21778Y51803D01*
G01X21808Y51840D01*
G01X21836Y51878D01*
G01X21862Y51918D01*
G01X21887Y51959D01*
G01X21909Y52001D01*
G01X21929Y52044D01*
G01X21948Y52088D01*
G01X21964Y52132D01*
G01X21978Y52178D01*
G01X21990Y52224D01*
G01X22000Y52270D01*
G01X22008Y52317D01*
G01X22014Y52364D01*
G01X22017Y52412D01*
G01X22018Y52459D01*
G01X22017Y52505D01*
G01X22014Y52551D01*
G01X22009Y52596D01*
G01X22002Y52641D01*
G01X21993Y52686D01*
G01X21981Y52730D01*
G01X21968Y52774D01*
G01X21953Y52817D01*
G01X21936Y52860D01*
G01X21917Y52901D01*
G01X21896Y52942D01*
G01X21874Y52982D01*
G01X21850Y53021D01*
G01X21824Y53058D01*
G01X21796Y53095D01*
G01X21767Y53130D01*
G01X21736Y53163D01*
G01X21703Y53196D01*
G01X21670Y53227D01*
G01X21635Y53256D01*
G01X21598Y53284D01*
G01X21561Y53310D01*
G01X21522Y53334D01*
G01X21482Y53356D01*
G01X21441Y53377D01*
G01X21400Y53396D01*
G01X21357Y53413D01*
G01X21314Y53428D01*
G01X21270Y53441D01*
G01X21226Y53453D01*
G01X21181Y53462D01*
G01X21136Y53469D01*
G01X21091Y53474D01*
G01X21045Y53477D01*
G37*
G36*
G01X24456Y52015D02*
G01X23984Y52015D01*
G01X23984Y51543D01*
G01X24027Y51565D01*
G01X24069Y51590D01*
G01X24110Y51616D01*
G01X24150Y51644D01*
G01X24188Y51674D01*
G01X24225Y51706D01*
G01X24260Y51739D01*
G01X24293Y51774D01*
G01X24325Y51811D01*
G01X24355Y51849D01*
G01X24383Y51889D01*
G01X24409Y51930D01*
G01X24434Y51972D01*
G01X24456Y52015D01*
G37*
G36*
G01X23095Y52015D02*
G01X22623Y52015D01*
G01X22645Y51972D01*
G01X22670Y51930D01*
G01X22696Y51889D01*
G01X22724Y51849D01*
G01X22754Y51811D01*
G01X22786Y51774D01*
G01X22819Y51739D01*
G01X22854Y51706D01*
G01X22891Y51674D01*
G01X22929Y51644D01*
G01X22969Y51616D01*
G01X23010Y51590D01*
G01X23052Y51565D01*
G01X23095Y51543D01*
G01X23095Y52015D01*
G37*
G36*
G01X24027Y53354D02*
G01X23984Y53376D01*
G01X23984Y52904D01*
G01X24456Y52904D01*
G01X24434Y52947D01*
G01X24409Y52989D01*
G01X24383Y53030D01*
G01X24355Y53070D01*
G01X24325Y53108D01*
G01X24293Y53145D01*
G01X24260Y53180D01*
G01X24225Y53213D01*
G01X24188Y53245D01*
G01X24150Y53275D01*
G01X24110Y53303D01*
G01X24069Y53329D01*
G01X24027Y53354D01*
G37*
G36*
G01X23095Y52904D02*
G01X23095Y53376D01*
G01X23052Y53354D01*
G01X23010Y53329D01*
G01X22969Y53303D01*
G01X22929Y53275D01*
G01X22891Y53245D01*
G01X22854Y53213D01*
G01X22819Y53180D01*
G01X22786Y53145D01*
G01X22754Y53108D01*
G01X22724Y53070D01*
G01X22696Y53030D01*
G01X22670Y52989D01*
G01X22645Y52947D01*
G01X22623Y52904D01*
G01X23095Y52904D01*
G37*

%LPD*%
G36*
G01X27944Y19196D02*
G01X27929Y19197D01*
G01X27555Y19196D01*
G01X27541Y19194D01*
G01X27527Y19191D01*
G01X27513Y19186D01*
G01X27501Y19179D01*
G01X27489Y19171D01*
G01X27479Y19160D01*
G01X27470Y19149D01*
G01X27463Y19136D01*
G01X27458Y19123D01*
G01X27455Y19108D01*
G01X27454Y19094D01*
G01X27454Y18450D01*
G01X27293Y18450D01*
G01X27269Y18451D01*
G01X27245Y18454D01*
G01X27222Y18460D01*
G01X27200Y18467D01*
G01X27178Y18477D01*
G01X27157Y18488D01*
G01X27138Y18502D01*
G01X27120Y18517D01*
G01X27103Y18534D01*
G01X27088Y18552D01*
G01X27074Y18571D01*
G01X27063Y18592D01*
G01X27053Y18614D01*
G01X27046Y18636D01*
G01X27040Y18659D01*
G01X27037Y18683D01*
G01X27036Y18706D01*
G01X27036Y19092D01*
G01X27035Y19107D01*
G01X27032Y19121D01*
G01X27027Y19134D01*
G01X27020Y19147D01*
G01X27011Y19159D01*
G01X27001Y19169D01*
G01X26989Y19178D01*
G01X26977Y19185D01*
G01X26963Y19190D01*
G01X26949Y19193D01*
G01X26934Y19194D01*
G01X24024Y19186D01*
G01X24009Y19185D01*
G01X23995Y19182D01*
G01X23981Y19177D01*
G01X23969Y19170D01*
G01X23957Y19161D01*
G01X23947Y19151D01*
G01X23938Y19139D01*
G01X23931Y19126D01*
G01X23926Y19113D01*
G01X23923Y19099D01*
G01X23922Y19084D01*
G01X23922Y19082D01*
G01X23935Y18324D01*
G01X23937Y18308D01*
G01X23941Y18293D01*
G01X23947Y18278D01*
G01X23955Y18265D01*
G01X23966Y18253D01*
G01X23978Y18243D01*
G01X23991Y18235D01*
G01X24006Y18229D01*
G01X24021Y18225D01*
G01X24037Y18224D01*
G01X24064Y18228D01*
G01X24087Y18233D01*
G01X24110Y18236D01*
G01X24133Y18237D01*
G01X24420Y18237D01*
G01X24420Y17694D01*
G01X24050Y17694D01*
G01X24035Y17693D01*
G01X24021Y17690D01*
G01X24007Y17685D01*
G01X23995Y17678D01*
G01X23983Y17669D01*
G01X23973Y17659D01*
G01X23964Y17647D01*
G01X23957Y17635D01*
G01X23952Y17621D01*
G01X23949Y17607D01*
G01X23948Y17592D01*
G01X23948Y17591D01*
G01X23959Y16967D01*
G01X23960Y16951D01*
G01X23964Y16936D01*
G01X23970Y16921D01*
G01X23979Y16908D01*
G01X23989Y16896D01*
G01X24001Y16886D01*
G01X24015Y16878D01*
G01X24029Y16872D01*
G01X24045Y16868D01*
G01X24060Y16867D01*
G01X24420Y16867D01*
G01X24420Y16265D01*
G01X24421Y16250D01*
G01X24424Y16236D01*
G01X24429Y16222D01*
G01X24436Y16210D01*
G01X24445Y16198D01*
G01X24455Y16188D01*
G01X24467Y16179D01*
G01X24479Y16172D01*
G01X24493Y16167D01*
G01X24507Y16164D01*
G01X24521Y16163D01*
G01X25145Y16163D01*
G01X25160Y16164D01*
G01X25174Y16167D01*
G01X25187Y16172D01*
G01X25200Y16179D01*
G01X25212Y16188D01*
G01X25222Y16198D01*
G01X25231Y16210D01*
G01X25238Y16222D01*
G01X25243Y16236D01*
G01X25246Y16250D01*
G01X25247Y16265D01*
G01X25247Y16867D01*
G01X25790Y16867D01*
G01X25790Y16580D01*
G01X25789Y16557D01*
G01X25786Y16535D01*
G01X25781Y16512D01*
G01X25773Y16490D01*
G01X25764Y16469D01*
G01X25753Y16449D01*
G01X25741Y16429D01*
G01X25726Y16411D01*
G01X25710Y16395D01*
G01X25693Y16380D01*
G01X25674Y16366D01*
G01X25654Y16354D01*
G01X25641Y16346D01*
G01X25629Y16335D01*
G01X25619Y16323D01*
G01X25611Y16310D01*
G01X25605Y16295D01*
G01X25602Y16280D01*
G01X25601Y16265D01*
G01X25602Y16250D01*
G01X25605Y16236D01*
G01X25610Y16222D01*
G01X25617Y16210D01*
G01X25625Y16198D01*
G01X25636Y16188D01*
G01X25647Y16179D01*
G01X25660Y16172D01*
G01X25674Y16167D01*
G01X25688Y16164D01*
G01X25702Y16163D01*
G01X26100Y16163D01*
G01X26116Y16164D01*
G01X26132Y16168D01*
G01X26146Y16174D01*
G01X26160Y16182D01*
G01X26172Y16193D01*
G01X26847Y16868D01*
G01X26857Y16880D01*
G01X26866Y16894D01*
G01X26872Y16908D01*
G01X26876Y16924D01*
G01X26877Y16940D01*
G01X26877Y17980D01*
G01X26878Y18004D01*
G01X26881Y18028D01*
G01X26887Y18051D01*
G01X26894Y18073D01*
G01X26904Y18095D01*
G01X26915Y18116D01*
G01X26929Y18135D01*
G01X26944Y18153D01*
G01X26961Y18170D01*
G01X26979Y18185D01*
G01X26998Y18199D01*
G01X27019Y18210D01*
G01X27041Y18220D01*
G01X27063Y18227D01*
G01X27086Y18233D01*
G01X27110Y18236D01*
G01X27133Y18237D01*
G01X28174Y18237D01*
G01X28190Y18238D01*
G01X28206Y18242D01*
G01X28220Y18248D01*
G01X28234Y18256D01*
G01X28246Y18267D01*
G01X28256Y18277D01*
G01X28266Y18289D01*
G01X28274Y18302D01*
G01X28281Y18317D01*
G01X28284Y18332D01*
G01X28285Y18348D01*
G01X28284Y18363D01*
G01X28281Y18377D01*
G01X28276Y18391D01*
G01X28269Y18403D01*
G01X28261Y18415D01*
G01X28250Y18425D01*
G01X28239Y18434D01*
G01X28226Y18441D01*
G01X28213Y18446D01*
G01X28198Y18449D01*
G01X28184Y18450D01*
G01X28031Y18450D01*
G01X28031Y19095D01*
G01X28030Y19109D01*
G01X28027Y19124D01*
G01X28022Y19137D01*
G01X28015Y19150D01*
G01X28006Y19162D01*
G01X27996Y19172D01*
G01X27984Y19180D01*
G01X27972Y19187D01*
G01X27958Y19192D01*
G01X27944Y19196D01*
G37*

%LPC*%
G36*
G01X25533Y18237D02*
G01X25247Y18237D01*
G01X25247Y17694D01*
G01X25790Y17694D01*
G01X25790Y17980D01*
G01X25789Y18004D01*
G01X25786Y18028D01*
G01X25780Y18051D01*
G01X25773Y18073D01*
G01X25763Y18095D01*
G01X25751Y18116D01*
G01X25738Y18135D01*
G01X25723Y18153D01*
G01X25706Y18170D01*
G01X25688Y18185D01*
G01X25668Y18199D01*
G01X25648Y18210D01*
G01X25626Y18220D01*
G01X25604Y18227D01*
G01X25581Y18233D01*
G01X25557Y18236D01*
G01X25533Y18237D01*
G37*

%LPD*%
G36*
G01X49745Y23605D02*
G01X47503Y23605D01*
G01X47489Y23604D01*
G01X47474Y23601D01*
G01X47461Y23596D01*
G01X47448Y23589D01*
G01X47436Y23580D01*
G01X47426Y23570D01*
G01X47418Y23558D01*
G01X47411Y23546D01*
G01X47406Y23532D01*
G01X47402Y23518D01*
G01X47401Y23503D01*
G01X47416Y19312D01*
G01X46844Y19249D01*
G01X45285Y19245D01*
G01X45271Y19244D01*
G01X45257Y19240D01*
G01X45243Y19235D01*
G01X45231Y19228D01*
G01X45219Y19220D01*
G01X45209Y19210D01*
G01X45200Y19198D01*
G01X45193Y19185D01*
G01X45188Y19172D01*
G01X45185Y19158D01*
G01X45184Y19143D01*
G01X45185Y19127D01*
G01X45189Y19112D01*
G01X45195Y19097D01*
G01X45203Y19083D01*
G01X45214Y19071D01*
G01X48875Y15408D01*
G01X48887Y15398D01*
G01X48901Y15389D01*
G01X48915Y15383D01*
G01X48931Y15379D01*
G01X48946Y15378D01*
G01X48992Y15377D01*
G01X49037Y15373D01*
G01X49083Y15368D01*
G01X49127Y15361D01*
G01X49172Y15351D01*
G01X49216Y15340D01*
G01X49260Y15326D01*
G01X49302Y15311D01*
G01X49345Y15294D01*
G01X49386Y15275D01*
G01X49426Y15254D01*
G01X49466Y15231D01*
G01X49504Y15207D01*
G01X49542Y15181D01*
G01X49578Y15153D01*
G01X49612Y15124D01*
G01X49646Y15093D01*
G01X49678Y15061D01*
G01X49709Y15027D01*
G01X49738Y14992D01*
G01X49765Y14956D01*
G01X49791Y14918D01*
G01X49815Y14880D01*
G01X49837Y14840D01*
G01X49858Y14800D01*
G01X49877Y14758D01*
G01X49894Y14716D01*
G01X49909Y14673D01*
G01X49922Y14629D01*
G01X49933Y14585D01*
G01X49942Y14541D01*
G01X49949Y14496D01*
G01X49954Y14450D01*
G01X49957Y14405D01*
G01X49958Y14359D01*
G01X49957Y14314D01*
G01X49954Y14268D01*
G01X49949Y14223D01*
G01X49942Y14177D01*
G01X49932Y14133D01*
G01X49921Y14088D01*
G01X49908Y14044D01*
G01X49904Y14029D01*
G01X49903Y14013D01*
G01X49904Y13997D01*
G01X49908Y13982D01*
G01X49914Y13967D01*
G01X49922Y13953D01*
G01X49933Y13941D01*
G01X52192Y11682D01*
G01X52212Y11661D01*
G01X52222Y11651D01*
G01X52233Y11642D01*
G01X52246Y11635D01*
G01X52260Y11630D01*
G01X52274Y11627D01*
G01X52288Y11626D01*
G01X52405Y11626D01*
G01X52428Y11625D01*
G01X52451Y11622D01*
G01X52473Y11617D01*
G01X52495Y11610D01*
G01X52516Y11600D01*
G01X52537Y11589D01*
G01X52556Y11577D01*
G01X52574Y11562D01*
G01X52591Y11546D01*
G01X52606Y11528D01*
G01X52619Y11510D01*
G01X52628Y11498D01*
G01X52638Y11488D01*
G01X52650Y11479D01*
G01X52663Y11473D01*
G01X52676Y11468D01*
G01X52690Y11465D01*
G01X52705Y11464D01*
G01X52719Y11465D01*
G01X52733Y11468D01*
G01X52747Y11473D01*
G01X52759Y11479D01*
G01X52771Y11488D01*
G01X52781Y11498D01*
G01X52790Y11510D01*
G01X52803Y11528D01*
G01X52818Y11546D01*
G01X52835Y11562D01*
G01X52853Y11577D01*
G01X52872Y11589D01*
G01X52893Y11600D01*
G01X52914Y11610D01*
G01X52936Y11617D01*
G01X52959Y11622D01*
G01X52981Y11625D01*
G01X53005Y11626D01*
G01X53393Y11626D01*
G01X53407Y11627D01*
G01X53421Y11630D01*
G01X53435Y11635D01*
G01X53448Y11642D01*
G01X53459Y11651D01*
G01X53470Y11661D01*
G01X53478Y11673D01*
G01X53485Y11685D01*
G01X53490Y11699D01*
G01X53493Y11713D01*
G01X53494Y11728D01*
G01X53493Y11744D01*
G01X53489Y11759D01*
G01X53483Y11774D01*
G01X53475Y11787D01*
G01X53465Y11799D01*
G01X51898Y13366D01*
G01X51886Y13377D01*
G01X51872Y13385D01*
G01X51857Y13391D01*
G01X51842Y13395D01*
G01X51826Y13396D01*
G01X51810Y13395D01*
G01X51795Y13391D01*
G01X51751Y13378D01*
G01X51706Y13367D01*
G01X51662Y13357D01*
G01X51616Y13350D01*
G01X51571Y13345D01*
G01X51525Y13342D01*
G01X51480Y13341D01*
G01X51434Y13342D01*
G01X51388Y13345D01*
G01X51343Y13350D01*
G01X51298Y13357D01*
G01X51253Y13366D01*
G01X51209Y13378D01*
G01X51165Y13391D01*
G01X51122Y13406D01*
G01X51079Y13423D01*
G01X51038Y13442D01*
G01X50997Y13463D01*
G01X50957Y13485D01*
G01X50918Y13509D01*
G01X50881Y13535D01*
G01X50844Y13563D01*
G01X50809Y13592D01*
G01X50776Y13623D01*
G01X50743Y13656D01*
G01X50712Y13689D01*
G01X50683Y13724D01*
G01X50655Y13761D01*
G01X50629Y13798D01*
G01X50605Y13837D01*
G01X50583Y13877D01*
G01X50562Y13918D01*
G01X50543Y13959D01*
G01X50526Y14002D01*
G01X50511Y14045D01*
G01X50498Y14089D01*
G01X50486Y14133D01*
G01X50477Y14178D01*
G01X50470Y14223D01*
G01X50465Y14268D01*
G01X50462Y14314D01*
G01X50461Y14359D01*
G01X50462Y14405D01*
G01X50465Y14451D01*
G01X50470Y14496D01*
G01X50477Y14541D01*
G01X50486Y14586D01*
G01X50498Y14630D01*
G01X50511Y14674D01*
G01X50526Y14717D01*
G01X50543Y14760D01*
G01X50562Y14801D01*
G01X50583Y14842D01*
G01X50605Y14882D01*
G01X50629Y14921D01*
G01X50655Y14958D01*
G01X50683Y14995D01*
G01X50712Y15030D01*
G01X50743Y15063D01*
G01X50776Y15096D01*
G01X50809Y15127D01*
G01X50844Y15156D01*
G01X50881Y15184D01*
G01X50918Y15210D01*
G01X50957Y15234D01*
G01X50997Y15256D01*
G01X51038Y15277D01*
G01X51079Y15296D01*
G01X51122Y15313D01*
G01X51165Y15328D01*
G01X51209Y15341D01*
G01X51253Y15353D01*
G01X51298Y15362D01*
G01X51343Y15369D01*
G01X51388Y15374D01*
G01X51434Y15377D01*
G01X51480Y15378D01*
G01X51526Y15377D01*
G01X51573Y15374D01*
G01X51619Y15368D01*
G01X51665Y15361D01*
G01X51710Y15352D01*
G01X51733Y15349D01*
G01X51748Y15350D01*
G01X51762Y15353D01*
G01X51776Y15358D01*
G01X51788Y15365D01*
G01X51800Y15374D01*
G01X51810Y15384D01*
G01X51819Y15396D01*
G01X51826Y15408D01*
G01X51831Y15422D01*
G01X51834Y15436D01*
G01X51835Y15450D01*
G01X51835Y21515D01*
G01X51834Y21531D01*
G01X51830Y21546D01*
G01X51824Y21561D01*
G01X51816Y21575D01*
G01X51805Y21587D01*
G01X49817Y23575D01*
G01X49805Y23586D01*
G01X49791Y23594D01*
G01X49776Y23600D01*
G01X49761Y23604D01*
G01X49745Y23605D01*
G37*

%LPD*%
G36*
G01X59080Y53743D02*
G01X40856Y53743D01*
G01X40842Y53742D01*
G01X40828Y53739D01*
G01X40814Y53734D01*
G01X40801Y53727D01*
G01X40790Y53718D01*
G01X40779Y53708D01*
G01X40771Y53696D01*
G01X40764Y53684D01*
G01X40759Y53670D01*
G01X40756Y53656D01*
G01X40755Y53641D01*
G01X40756Y53625D01*
G01X40760Y53610D01*
G01X40766Y53595D01*
G01X40774Y53582D01*
G01X40784Y53570D01*
G01X40901Y53453D01*
G01X40913Y53442D01*
G01X40927Y53434D01*
G01X40942Y53428D01*
G01X40957Y53424D01*
G01X40973Y53423D01*
G01X40989Y53424D01*
G01X41004Y53428D01*
G01X41048Y53441D01*
G01X41093Y53452D01*
G01X41137Y53462D01*
G01X41183Y53469D01*
G01X41228Y53474D01*
G01X41274Y53477D01*
G01X41320Y53478D01*
G01X41365Y53477D01*
G01X41411Y53474D01*
G01X41456Y53469D01*
G01X41501Y53462D01*
G01X41546Y53453D01*
G01X41590Y53441D01*
G01X41634Y53428D01*
G01X41677Y53413D01*
G01X41720Y53396D01*
G01X41761Y53377D01*
G01X41802Y53356D01*
G01X41842Y53334D01*
G01X41881Y53310D01*
G01X41918Y53284D01*
G01X41955Y53256D01*
G01X41990Y53227D01*
G01X42023Y53196D01*
G01X42056Y53163D01*
G01X42087Y53130D01*
G01X42116Y53095D01*
G01X42144Y53058D01*
G01X42170Y53021D01*
G01X42194Y52982D01*
G01X42216Y52942D01*
G01X42237Y52901D01*
G01X42256Y52860D01*
G01X42273Y52817D01*
G01X42288Y52774D01*
G01X42301Y52730D01*
G01X42313Y52686D01*
G01X42322Y52641D01*
G01X42329Y52596D01*
G01X42334Y52551D01*
G01X42337Y52505D01*
G01X42338Y52459D01*
G01X42337Y52414D01*
G01X42334Y52368D01*
G01X42329Y52323D01*
G01X42322Y52278D01*
G01X42313Y52233D01*
G01X42301Y52189D01*
G01X42288Y52145D01*
G01X42273Y52102D01*
G01X42256Y52059D01*
G01X42237Y52018D01*
G01X42216Y51977D01*
G01X42194Y51937D01*
G01X42170Y51898D01*
G01X42144Y51861D01*
G01X42116Y51824D01*
G01X42087Y51789D01*
G01X42056Y51756D01*
G01X42023Y51723D01*
G01X41990Y51692D01*
G01X41955Y51663D01*
G01X41918Y51635D01*
G01X41881Y51609D01*
G01X41842Y51585D01*
G01X41802Y51563D01*
G01X41761Y51542D01*
G01X41720Y51523D01*
G01X41677Y51506D01*
G01X41634Y51491D01*
G01X41590Y51478D01*
G01X41546Y51466D01*
G01X41501Y51457D01*
G01X41456Y51450D01*
G01X41411Y51445D01*
G01X41365Y51442D01*
G01X41320Y51441D01*
G01X41274Y51442D01*
G01X41228Y51445D01*
G01X41183Y51450D01*
G01X41138Y51457D01*
G01X41093Y51466D01*
G01X41049Y51478D01*
G01X41005Y51491D01*
G01X40962Y51506D01*
G01X40919Y51523D01*
G01X40878Y51542D01*
G01X40837Y51563D01*
G01X40797Y51585D01*
G01X40758Y51609D01*
G01X40721Y51635D01*
G01X40684Y51663D01*
G01X40649Y51692D01*
G01X40616Y51723D01*
G01X40583Y51756D01*
G01X40552Y51789D01*
G01X40523Y51824D01*
G01X40495Y51861D01*
G01X40469Y51898D01*
G01X40445Y51937D01*
G01X40423Y51977D01*
G01X40402Y52018D01*
G01X40383Y52059D01*
G01X40366Y52102D01*
G01X40351Y52145D01*
G01X40338Y52189D01*
G01X40326Y52233D01*
G01X40317Y52278D01*
G01X40310Y52323D01*
G01X40305Y52368D01*
G01X40302Y52414D01*
G01X40301Y52459D01*
G01X40302Y52505D01*
G01X40305Y52551D01*
G01X40310Y52596D01*
G01X40317Y52642D01*
G01X40327Y52686D01*
G01X40338Y52731D01*
G01X40351Y52775D01*
G01X40355Y52790D01*
G01X40356Y52806D01*
G01X40355Y52822D01*
G01X40351Y52837D01*
G01X40345Y52852D01*
G01X40337Y52866D01*
G01X40326Y52878D01*
G01X40038Y53166D01*
G01X40026Y53177D01*
G01X40012Y53185D01*
G01X39997Y53191D01*
G01X39982Y53195D01*
G01X39966Y53196D01*
G01X39702Y53196D01*
G01X39688Y53195D01*
G01X39674Y53192D01*
G01X39660Y53187D01*
G01X39647Y53180D01*
G01X39636Y53171D01*
G01X39626Y53161D01*
G01X39617Y53149D01*
G01X39610Y53137D01*
G01X39605Y53123D01*
G01X39602Y53109D01*
G01X39601Y53094D01*
G01X39602Y53079D01*
G01X39605Y53064D01*
G01X39611Y53050D01*
G01X39619Y53037D01*
G01X39645Y52997D01*
G01X39669Y52957D01*
G01X39691Y52915D01*
G01X39711Y52872D01*
G01X39729Y52829D01*
G01X39745Y52784D01*
G01X39759Y52739D01*
G01X39771Y52693D01*
G01X39781Y52647D01*
G01X39788Y52601D01*
G01X39794Y52554D01*
G01X39797Y52507D01*
G01X39798Y52459D01*
G01X39797Y52414D01*
G01X39794Y52368D01*
G01X39789Y52323D01*
G01X39782Y52278D01*
G01X39773Y52233D01*
G01X39761Y52189D01*
G01X39748Y52145D01*
G01X39733Y52102D01*
G01X39716Y52059D01*
G01X39697Y52018D01*
G01X39676Y51977D01*
G01X39654Y51937D01*
G01X39630Y51898D01*
G01X39604Y51861D01*
G01X39576Y51824D01*
G01X39547Y51789D01*
G01X39516Y51756D01*
G01X39483Y51723D01*
G01X39450Y51692D01*
G01X39415Y51663D01*
G01X39378Y51635D01*
G01X39341Y51609D01*
G01X39302Y51585D01*
G01X39262Y51563D01*
G01X39221Y51542D01*
G01X39180Y51523D01*
G01X39137Y51506D01*
G01X39094Y51491D01*
G01X39050Y51478D01*
G01X39006Y51466D01*
G01X38961Y51457D01*
G01X38916Y51450D01*
G01X38871Y51445D01*
G01X38825Y51442D01*
G01X38780Y51441D01*
G01X38734Y51442D01*
G01X38688Y51445D01*
G01X38643Y51450D01*
G01X38597Y51457D01*
G01X38553Y51467D01*
G01X38508Y51478D01*
G01X38464Y51491D01*
G01X38449Y51495D01*
G01X38433Y51496D01*
G01X38417Y51495D01*
G01X38402Y51491D01*
G01X38387Y51485D01*
G01X38373Y51477D01*
G01X38361Y51466D01*
G01X38073Y51178D01*
G01X38062Y51166D01*
G01X38054Y51152D01*
G01X38048Y51137D01*
G01X38044Y51122D01*
G01X38043Y51106D01*
G01X38043Y50842D01*
G01X38044Y50828D01*
G01X38047Y50814D01*
G01X38052Y50800D01*
G01X38059Y50787D01*
G01X38068Y50776D01*
G01X38078Y50766D01*
G01X38090Y50757D01*
G01X38102Y50750D01*
G01X38116Y50745D01*
G01X38130Y50742D01*
G01X38145Y50741D01*
G01X38160Y50742D01*
G01X38175Y50745D01*
G01X38189Y50751D01*
G01X38202Y50759D01*
G01X38242Y50784D01*
G01X38282Y50808D01*
G01X38324Y50831D01*
G01X38367Y50851D01*
G01X38410Y50869D01*
G01X38455Y50885D01*
G01X38500Y50899D01*
G01X38546Y50911D01*
G01X38592Y50921D01*
G01X38638Y50928D01*
G01X38685Y50934D01*
G01X38732Y50937D01*
G01X38780Y50938D01*
G01X38825Y50937D01*
G01X38871Y50934D01*
G01X38916Y50929D01*
G01X38961Y50922D01*
G01X39006Y50913D01*
G01X39050Y50901D01*
G01X39094Y50888D01*
G01X39137Y50873D01*
G01X39180Y50856D01*
G01X39221Y50837D01*
G01X39262Y50816D01*
G01X39302Y50794D01*
G01X39341Y50770D01*
G01X39378Y50744D01*
G01X39415Y50716D01*
G01X39450Y50687D01*
G01X39483Y50656D01*
G01X39516Y50623D01*
G01X39547Y50590D01*
G01X39576Y50555D01*
G01X39604Y50518D01*
G01X39630Y50481D01*
G01X39654Y50442D01*
G01X39676Y50402D01*
G01X39697Y50361D01*
G01X39716Y50320D01*
G01X39733Y50277D01*
G01X39748Y50234D01*
G01X39761Y50190D01*
G01X39773Y50146D01*
G01X39782Y50101D01*
G01X39789Y50056D01*
G01X39794Y50011D01*
G01X39797Y49965D01*
G01X39798Y49919D01*
G01X39797Y49874D01*
G01X39794Y49828D01*
G01X39789Y49783D01*
G01X39782Y49737D01*
G01X39772Y49693D01*
G01X39761Y49648D01*
G01X39748Y49604D01*
G01X39744Y49589D01*
G01X39743Y49573D01*
G01X39744Y49557D01*
G01X39748Y49542D01*
G01X39754Y49527D01*
G01X39762Y49513D01*
G01X39773Y49501D01*
G01X41585Y47689D01*
G01X41597Y47678D01*
G01X41611Y47670D01*
G01X41626Y47664D01*
G01X41641Y47660D01*
G01X41657Y47659D01*
G01X41998Y47659D01*
G01X42012Y47660D01*
G01X42026Y47663D01*
G01X42040Y47668D01*
G01X42053Y47675D01*
G01X42064Y47684D01*
G01X42075Y47694D01*
G01X42083Y47706D01*
G01X42090Y47718D01*
G01X42095Y47732D01*
G01X42098Y47746D01*
G01X42099Y47761D01*
G01X42098Y47777D01*
G01X42094Y47792D01*
G01X42088Y47807D01*
G01X42080Y47820D01*
G01X42070Y47832D01*
G01X41032Y48870D01*
G01X41012Y48892D01*
G01X40993Y48915D01*
G01X40977Y48939D01*
G01X40967Y48952D01*
G01X40956Y48962D01*
G01X40944Y48971D01*
G01X40930Y48978D01*
G01X40888Y48997D01*
G01X40846Y49018D01*
G01X40806Y49040D01*
G01X40767Y49064D01*
G01X40728Y49090D01*
G01X40691Y49118D01*
G01X40656Y49147D01*
G01X40621Y49178D01*
G01X40588Y49210D01*
G01X40557Y49244D01*
G01X40527Y49279D01*
G01X40499Y49316D01*
G01X40473Y49354D01*
G01X40448Y49393D01*
G01X40425Y49433D01*
G01X40404Y49474D01*
G01X40384Y49516D01*
G01X40367Y49558D01*
G01X40352Y49602D01*
G01X40338Y49646D01*
G01X40327Y49691D01*
G01X40318Y49736D01*
G01X40310Y49781D01*
G01X40305Y49827D01*
G01X40302Y49873D01*
G01X40301Y49919D01*
G01X40302Y49965D01*
G01X40305Y50011D01*
G01X40310Y50056D01*
G01X40317Y50101D01*
G01X40326Y50146D01*
G01X40338Y50190D01*
G01X40351Y50234D01*
G01X40366Y50277D01*
G01X40383Y50320D01*
G01X40402Y50361D01*
G01X40423Y50402D01*
G01X40445Y50442D01*
G01X40469Y50481D01*
G01X40495Y50518D01*
G01X40523Y50555D01*
G01X40552Y50590D01*
G01X40583Y50623D01*
G01X40616Y50656D01*
G01X40649Y50687D01*
G01X40684Y50716D01*
G01X40721Y50744D01*
G01X40758Y50770D01*
G01X40797Y50794D01*
G01X40837Y50816D01*
G01X40878Y50837D01*
G01X40919Y50856D01*
G01X40962Y50873D01*
G01X41005Y50888D01*
G01X41049Y50901D01*
G01X41093Y50913D01*
G01X41138Y50922D01*
G01X41183Y50929D01*
G01X41228Y50934D01*
G01X41274Y50937D01*
G01X41320Y50938D01*
G01X41365Y50937D01*
G01X41411Y50934D01*
G01X41456Y50929D01*
G01X41501Y50922D01*
G01X41546Y50913D01*
G01X41590Y50901D01*
G01X41634Y50888D01*
G01X41677Y50873D01*
G01X41720Y50856D01*
G01X41761Y50837D01*
G01X41802Y50816D01*
G01X41842Y50794D01*
G01X41881Y50770D01*
G01X41918Y50744D01*
G01X41955Y50716D01*
G01X41990Y50687D01*
G01X42023Y50656D01*
G01X42056Y50623D01*
G01X42087Y50590D01*
G01X42116Y50555D01*
G01X42144Y50518D01*
G01X42170Y50481D01*
G01X42194Y50442D01*
G01X42216Y50402D01*
G01X42237Y50361D01*
G01X42256Y50320D01*
G01X42273Y50277D01*
G01X42288Y50234D01*
G01X42301Y50190D01*
G01X42313Y50146D01*
G01X42322Y50101D01*
G01X42329Y50056D01*
G01X42334Y50011D01*
G01X42337Y49965D01*
G01X42338Y49919D01*
G01X42337Y49874D01*
G01X42334Y49828D01*
G01X42329Y49782D01*
G01X42321Y49737D01*
G01X42312Y49691D01*
G01X42301Y49647D01*
G01X42288Y49603D01*
G01X42272Y49559D01*
G01X42255Y49517D01*
G01X42236Y49475D01*
G01X42215Y49434D01*
G01X42192Y49394D01*
G01X42168Y49355D01*
G01X42141Y49318D01*
G01X42113Y49281D01*
G01X42084Y49246D01*
G01X42052Y49212D01*
G01X42020Y49180D01*
G01X42009Y49168D01*
G01X42000Y49154D01*
G01X41993Y49138D01*
G01X41989Y49122D01*
G01X41988Y49106D01*
G01X41989Y49090D01*
G01X41993Y49075D01*
G01X41999Y49060D01*
G01X42007Y49046D01*
G01X42018Y49034D01*
G01X42855Y48197D01*
G01X42867Y48186D01*
G01X42881Y48178D01*
G01X42896Y48172D01*
G01X42911Y48168D01*
G01X42927Y48167D01*
G01X44665Y48167D01*
G01X44679Y48168D01*
G01X44693Y48171D01*
G01X44707Y48176D01*
G01X44720Y48183D01*
G01X44731Y48192D01*
G01X44742Y48202D01*
G01X44750Y48214D01*
G01X44757Y48226D01*
G01X44762Y48240D01*
G01X44765Y48254D01*
G01X44766Y48269D01*
G01X44765Y48285D01*
G01X44761Y48300D01*
G01X44755Y48315D01*
G01X44747Y48328D01*
G01X44737Y48340D01*
G01X44178Y48899D01*
G01X44166Y48909D01*
G01X44153Y48917D01*
G01X44138Y48924D01*
G01X44122Y48927D01*
G01X44106Y48929D01*
G01X44084Y48926D01*
G01X44029Y48915D01*
G01X43972Y48907D01*
G01X43916Y48903D01*
G01X43860Y48901D01*
G01X43814Y48902D01*
G01X43768Y48905D01*
G01X43723Y48910D01*
G01X43678Y48917D01*
G01X43633Y48926D01*
G01X43589Y48938D01*
G01X43545Y48951D01*
G01X43502Y48966D01*
G01X43459Y48983D01*
G01X43418Y49002D01*
G01X43377Y49023D01*
G01X43337Y49045D01*
G01X43298Y49069D01*
G01X43261Y49095D01*
G01X43224Y49123D01*
G01X43189Y49152D01*
G01X43156Y49183D01*
G01X43123Y49216D01*
G01X43092Y49249D01*
G01X43063Y49284D01*
G01X43035Y49321D01*
G01X43009Y49358D01*
G01X42985Y49397D01*
G01X42963Y49437D01*
G01X42942Y49478D01*
G01X42923Y49519D01*
G01X42906Y49562D01*
G01X42891Y49605D01*
G01X42878Y49649D01*
G01X42866Y49693D01*
G01X42857Y49738D01*
G01X42850Y49783D01*
G01X42845Y49828D01*
G01X42842Y49874D01*
G01X42841Y49919D01*
G01X42842Y49965D01*
G01X42845Y50011D01*
G01X42850Y50056D01*
G01X42857Y50101D01*
G01X42866Y50146D01*
G01X42878Y50190D01*
G01X42891Y50234D01*
G01X42906Y50277D01*
G01X42923Y50320D01*
G01X42942Y50361D01*
G01X42963Y50402D01*
G01X42985Y50442D01*
G01X43009Y50481D01*
G01X43035Y50518D01*
G01X43063Y50555D01*
G01X43092Y50590D01*
G01X43123Y50623D01*
G01X43156Y50656D01*
G01X43189Y50687D01*
G01X43224Y50716D01*
G01X43261Y50744D01*
G01X43298Y50770D01*
G01X43337Y50794D01*
G01X43377Y50816D01*
G01X43418Y50837D01*
G01X43459Y50856D01*
G01X43502Y50873D01*
G01X43545Y50888D01*
G01X43589Y50901D01*
G01X43633Y50913D01*
G01X43678Y50922D01*
G01X43723Y50929D01*
G01X43768Y50934D01*
G01X43814Y50937D01*
G01X43860Y50938D01*
G01X43905Y50937D01*
G01X43951Y50934D01*
G01X43996Y50929D01*
G01X44041Y50922D01*
G01X44086Y50913D01*
G01X44130Y50901D01*
G01X44174Y50888D01*
G01X44217Y50873D01*
G01X44260Y50856D01*
G01X44301Y50837D01*
G01X44342Y50816D01*
G01X44382Y50794D01*
G01X44421Y50770D01*
G01X44458Y50744D01*
G01X44495Y50716D01*
G01X44530Y50687D01*
G01X44563Y50656D01*
G01X44596Y50623D01*
G01X44627Y50590D01*
G01X44656Y50555D01*
G01X44684Y50518D01*
G01X44710Y50481D01*
G01X44734Y50442D01*
G01X44756Y50402D01*
G01X44777Y50361D01*
G01X44796Y50320D01*
G01X44813Y50277D01*
G01X44828Y50234D01*
G01X44841Y50190D01*
G01X44853Y50146D01*
G01X44862Y50101D01*
G01X44869Y50056D01*
G01X44874Y50011D01*
G01X44877Y49965D01*
G01X44878Y49919D01*
G01X44877Y49874D01*
G01X44874Y49828D01*
G01X44869Y49783D01*
G01X44862Y49738D01*
G01X44853Y49694D01*
G01X44842Y49649D01*
G01X44829Y49606D01*
G01X44814Y49563D01*
G01X44797Y49520D01*
G01X44791Y49501D01*
G01X44788Y49481D01*
G01X44790Y49465D01*
G01X44793Y49449D01*
G01X44800Y49434D01*
G01X44808Y49421D01*
G01X44818Y49409D01*
G01X45522Y48705D01*
G01X45534Y48694D01*
G01X45548Y48686D01*
G01X45563Y48680D01*
G01X45578Y48676D01*
G01X45594Y48675D01*
G01X46316Y48675D01*
G01X46330Y48676D01*
G01X46344Y48679D01*
G01X46358Y48684D01*
G01X46371Y48691D01*
G01X46382Y48700D01*
G01X46393Y48710D01*
G01X46401Y48722D01*
G01X46408Y48734D01*
G01X46413Y48748D01*
G01X46416Y48762D01*
G01X46417Y48777D01*
G01X46416Y48793D01*
G01X46412Y48808D01*
G01X46406Y48823D01*
G01X46398Y48836D01*
G01X46388Y48848D01*
G01X46359Y48877D01*
G01X46346Y48888D01*
G01X46331Y48897D01*
G01X46315Y48903D01*
G01X46298Y48906D01*
G01X46251Y48912D01*
G01X46205Y48920D01*
G01X46159Y48930D01*
G01X46114Y48942D01*
G01X46069Y48956D01*
G01X46026Y48972D01*
G01X45982Y48990D01*
G01X45940Y49010D01*
G01X45899Y49032D01*
G01X45859Y49056D01*
G01X45820Y49082D01*
G01X45782Y49110D01*
G01X45745Y49139D01*
G01X45710Y49170D01*
G01X45676Y49202D01*
G01X45644Y49236D01*
G01X45614Y49272D01*
G01X45585Y49308D01*
G01X45557Y49347D01*
G01X45532Y49386D01*
G01X45508Y49426D01*
G01X45487Y49468D01*
G01X45467Y49510D01*
G01X45449Y49553D01*
G01X45433Y49597D01*
G01X45419Y49642D01*
G01X45408Y49688D01*
G01X45398Y49733D01*
G01X45391Y49780D01*
G01X45385Y49826D01*
G01X45382Y49873D01*
G01X45381Y49919D01*
G01X45382Y49965D01*
G01X45385Y50011D01*
G01X45390Y50056D01*
G01X45397Y50101D01*
G01X45406Y50146D01*
G01X45418Y50190D01*
G01X45431Y50234D01*
G01X45446Y50277D01*
G01X45463Y50320D01*
G01X45482Y50361D01*
G01X45503Y50402D01*
G01X45525Y50442D01*
G01X45549Y50481D01*
G01X45575Y50518D01*
G01X45603Y50555D01*
G01X45632Y50590D01*
G01X45663Y50623D01*
G01X45696Y50656D01*
G01X45729Y50687D01*
G01X45764Y50716D01*
G01X45801Y50744D01*
G01X45838Y50770D01*
G01X45877Y50794D01*
G01X45917Y50816D01*
G01X45958Y50837D01*
G01X45999Y50856D01*
G01X46042Y50873D01*
G01X46085Y50888D01*
G01X46129Y50901D01*
G01X46173Y50913D01*
G01X46218Y50922D01*
G01X46263Y50929D01*
G01X46308Y50934D01*
G01X46354Y50937D01*
G01X46400Y50938D01*
G01X46445Y50937D01*
G01X46491Y50934D01*
G01X46536Y50929D01*
G01X46581Y50922D01*
G01X46626Y50913D01*
G01X46670Y50901D01*
G01X46714Y50888D01*
G01X46757Y50873D01*
G01X46800Y50856D01*
G01X46841Y50837D01*
G01X46882Y50816D01*
G01X46922Y50794D01*
G01X46961Y50770D01*
G01X46998Y50744D01*
G01X47035Y50716D01*
G01X47070Y50687D01*
G01X47103Y50656D01*
G01X47136Y50623D01*
G01X47167Y50590D01*
G01X47196Y50555D01*
G01X47224Y50518D01*
G01X47250Y50481D01*
G01X47274Y50442D01*
G01X47296Y50402D01*
G01X47317Y50361D01*
G01X47336Y50320D01*
G01X47353Y50277D01*
G01X47368Y50234D01*
G01X47381Y50190D01*
G01X47393Y50146D01*
G01X47402Y50101D01*
G01X47409Y50056D01*
G01X47414Y50011D01*
G01X47417Y49965D01*
G01X47418Y49919D01*
G01X47417Y49872D01*
G01X47414Y49825D01*
G01X47408Y49778D01*
G01X47401Y49732D01*
G01X47391Y49686D01*
G01X47379Y49640D01*
G01X47365Y49595D01*
G01X47349Y49550D01*
G01X47331Y49507D01*
G01X47311Y49464D01*
G01X47289Y49422D01*
G01X47265Y49382D01*
G01X47239Y49342D01*
G01X47231Y49329D01*
G01X47225Y49315D01*
G01X47222Y49300D01*
G01X47221Y49285D01*
G01X47222Y49270D01*
G01X47225Y49256D01*
G01X47230Y49242D01*
G01X47237Y49230D01*
G01X47246Y49218D01*
G01X47256Y49208D01*
G01X47267Y49199D01*
G01X47280Y49192D01*
G01X47294Y49187D01*
G01X47308Y49184D01*
G01X47322Y49183D01*
G01X48017Y49183D01*
G01X48031Y49184D01*
G01X48045Y49187D01*
G01X48059Y49192D01*
G01X48072Y49199D01*
G01X48083Y49208D01*
G01X48093Y49218D01*
G01X48102Y49230D01*
G01X48109Y49242D01*
G01X48114Y49256D01*
G01X48117Y49270D01*
G01X48118Y49285D01*
G01X48117Y49300D01*
G01X48114Y49315D01*
G01X48108Y49329D01*
G01X48100Y49342D01*
G01X48075Y49382D01*
G01X48051Y49422D01*
G01X48028Y49464D01*
G01X48008Y49507D01*
G01X47990Y49550D01*
G01X47974Y49595D01*
G01X47960Y49640D01*
G01X47948Y49686D01*
G01X47938Y49732D01*
G01X47931Y49778D01*
G01X47925Y49825D01*
G01X47922Y49872D01*
G01X47921Y49919D01*
G01X47922Y49965D01*
G01X47925Y50011D01*
G01X47930Y50056D01*
G01X47937Y50101D01*
G01X47946Y50146D01*
G01X47958Y50190D01*
G01X47971Y50234D01*
G01X47986Y50277D01*
G01X48003Y50320D01*
G01X48022Y50361D01*
G01X48043Y50402D01*
G01X48065Y50442D01*
G01X48089Y50481D01*
G01X48115Y50518D01*
G01X48143Y50555D01*
G01X48172Y50590D01*
G01X48203Y50623D01*
G01X48236Y50656D01*
G01X48269Y50687D01*
G01X48304Y50716D01*
G01X48341Y50744D01*
G01X48378Y50770D01*
G01X48417Y50794D01*
G01X48457Y50816D01*
G01X48498Y50837D01*
G01X48539Y50856D01*
G01X48582Y50873D01*
G01X48625Y50888D01*
G01X48669Y50901D01*
G01X48713Y50913D01*
G01X48758Y50922D01*
G01X48803Y50929D01*
G01X48848Y50934D01*
G01X48894Y50937D01*
G01X48940Y50938D01*
G01X48986Y50937D01*
G01X49032Y50934D01*
G01X49078Y50929D01*
G01X49123Y50921D01*
G01X49168Y50912D01*
G01X49213Y50901D01*
G01X49257Y50887D01*
G01X49301Y50872D01*
G01X49343Y50855D01*
G01X49385Y50835D01*
G01X49426Y50814D01*
G01X49466Y50791D01*
G01X49505Y50766D01*
G01X49543Y50740D01*
G01X49580Y50712D01*
G01X49615Y50682D01*
G01X49649Y50651D01*
G01X49681Y50618D01*
G01X49712Y50583D01*
G01X49741Y50548D01*
G01X49769Y50511D01*
G01X49795Y50473D01*
G01X49819Y50433D01*
G01X49841Y50393D01*
G01X49862Y50351D01*
G01X49881Y50309D01*
G01X49888Y50295D01*
G01X49897Y50283D01*
G01X49907Y50272D01*
G01X49920Y50262D01*
G01X49944Y50246D01*
G01X49967Y50227D01*
G01X49989Y50207D01*
G01X50691Y49505D01*
G01X50703Y49494D01*
G01X50717Y49486D01*
G01X50732Y49480D01*
G01X50747Y49476D01*
G01X50763Y49475D01*
G01X51035Y49475D01*
G01X51035Y49203D01*
G01X51036Y49187D01*
G01X51040Y49172D01*
G01X51046Y49157D01*
G01X51054Y49143D01*
G01X51065Y49131D01*
G01X52529Y47667D01*
G01X52549Y47646D01*
G01X52567Y47623D01*
G01X52584Y47599D01*
G01X52598Y47574D01*
G01X52611Y47548D01*
G01X52622Y47522D01*
G01X52632Y47494D01*
G01X52639Y47466D01*
G01X52644Y47437D01*
G01X52647Y47408D01*
G01X52648Y47379D01*
G01X52648Y46027D01*
G01X52650Y46010D01*
G01X52654Y45993D01*
G01X52662Y45977D01*
G01X52672Y45962D01*
G01X52694Y45934D01*
G01X52714Y45905D01*
G01X52732Y45874D01*
G01X52748Y45843D01*
G01X52763Y45810D01*
G01X52775Y45776D01*
G01X52785Y45742D01*
G01X52793Y45708D01*
G01X52798Y45672D01*
G01X52802Y45637D01*
G01X52803Y45601D01*
G01X52802Y45567D01*
G01X52798Y45532D01*
G01X52793Y45497D01*
G01X52786Y45463D01*
G01X52776Y45429D01*
G01X52764Y45396D01*
G01X52750Y45364D01*
G01X52734Y45333D01*
G01X52717Y45303D01*
G01X52697Y45274D01*
G01X52676Y45246D01*
G01X52653Y45220D01*
G01X52628Y45195D01*
G01X52602Y45171D01*
G01X52592Y45161D01*
G01X52583Y45149D01*
G01X52576Y45137D01*
G01X52570Y45123D01*
G01X52567Y45108D01*
G01X52566Y45094D01*
G01X52567Y45079D01*
G01X52570Y45065D01*
G01X52575Y45051D01*
G01X52582Y45039D01*
G01X52591Y45027D01*
G01X52601Y45017D01*
G01X52613Y45008D01*
G01X52625Y45001D01*
G01X52639Y44996D01*
G01X52653Y44993D01*
G01X52668Y44992D01*
G01X53811Y44992D01*
G01X53829Y44994D01*
G01X53846Y44998D01*
G01X53862Y45006D01*
G01X53876Y45016D01*
G01X53904Y45038D01*
G01X53934Y45058D01*
G01X53964Y45076D01*
G01X53996Y45092D01*
G01X54029Y45107D01*
G01X54062Y45119D01*
G01X54096Y45129D01*
G01X54131Y45137D01*
G01X54166Y45142D01*
G01X54201Y45146D01*
G01X54237Y45147D01*
G01X54273Y45146D01*
G01X54308Y45142D01*
G01X54343Y45137D01*
G01X54378Y45129D01*
G01X54412Y45119D01*
G01X54445Y45107D01*
G01X54478Y45092D01*
G01X54510Y45076D01*
G01X54540Y45058D01*
G01X54570Y45038D01*
G01X54598Y45016D01*
G01X54612Y45006D01*
G01X54628Y44998D01*
G01X54645Y44994D01*
G01X54663Y44992D01*
G01X54782Y44992D01*
G01X54811Y44991D01*
G01X54839Y44988D01*
G01X54868Y44983D01*
G01X54896Y44976D01*
G01X54924Y44966D01*
G01X54950Y44955D01*
G01X54976Y44942D01*
G01X55001Y44928D01*
G01X55025Y44911D01*
G01X55048Y44893D01*
G01X55069Y44873D01*
G01X56593Y43349D01*
G01X56610Y43331D01*
G01X56623Y43319D01*
G01X56637Y43309D01*
G01X56653Y43302D01*
G01X56669Y43298D01*
G01X56686Y43296D01*
G01X56701Y43297D01*
G01X56715Y43300D01*
G01X56729Y43305D01*
G01X56741Y43312D01*
G01X56753Y43321D01*
G01X56763Y43331D01*
G01X56772Y43343D01*
G01X56779Y43356D01*
G01X56784Y43369D01*
G01X56787Y43383D01*
G01X56788Y43398D01*
G01X56788Y44629D01*
G01X56787Y44645D01*
G01X56783Y44660D01*
G01X56777Y44675D01*
G01X56769Y44689D01*
G01X56758Y44701D01*
G01X52462Y48997D01*
G01X52441Y49020D01*
G01X52421Y49045D01*
G01X52404Y49071D01*
G01X52388Y49098D01*
G01X52375Y49126D01*
G01X52364Y49156D01*
G01X52358Y49170D01*
G01X52349Y49184D01*
G01X52339Y49196D01*
G01X52327Y49206D01*
G01X52313Y49214D01*
G01X52299Y49220D01*
G01X52283Y49224D01*
G01X52268Y49225D01*
G01X52252Y49224D01*
G01X52236Y49220D01*
G01X52222Y49214D01*
G01X52208Y49206D01*
G01X52196Y49196D01*
G01X52161Y49163D01*
G01X52125Y49132D01*
G01X52087Y49102D01*
G01X52048Y49075D01*
G01X52008Y49049D01*
G01X51967Y49025D01*
G01X51924Y49003D01*
G01X51924Y49475D01*
G01X52241Y49475D01*
G01X52256Y49476D01*
G01X52270Y49479D01*
G01X52284Y49484D01*
G01X52296Y49491D01*
G01X52308Y49500D01*
G01X52318Y49510D01*
G01X52327Y49522D01*
G01X52334Y49534D01*
G01X52339Y49548D01*
G01X52342Y49562D01*
G01X52343Y49577D01*
G01X52343Y50262D01*
G01X52342Y50277D01*
G01X52339Y50291D01*
G01X52334Y50305D01*
G01X52327Y50317D01*
G01X52318Y50329D01*
G01X52308Y50339D01*
G01X52296Y50348D01*
G01X52284Y50355D01*
G01X52270Y50360D01*
G01X52256Y50363D01*
G01X52241Y50364D01*
G01X51924Y50364D01*
G01X51924Y50836D01*
G01X51969Y50813D01*
G01X52012Y50788D01*
G01X52054Y50760D01*
G01X52095Y50731D01*
G01X52135Y50699D01*
G01X52172Y50666D01*
G01X52184Y50657D01*
G01X52197Y50649D01*
G01X52211Y50644D01*
G01X52226Y50640D01*
G01X52241Y50639D01*
G01X52256Y50640D01*
G01X52270Y50643D01*
G01X52284Y50648D01*
G01X52296Y50655D01*
G01X52308Y50664D01*
G01X52318Y50674D01*
G01X52327Y50686D01*
G01X52334Y50698D01*
G01X52339Y50712D01*
G01X52342Y50726D01*
G01X52343Y50741D01*
G01X52343Y51487D01*
G01X52342Y51503D01*
G01X52338Y51518D01*
G01X52332Y51533D01*
G01X52324Y51547D01*
G01X52313Y51559D01*
G01X52231Y51641D01*
G01X52219Y51651D01*
G01X52205Y51660D01*
G01X52191Y51666D01*
G01X52175Y51670D01*
G01X52159Y51671D01*
G01X52143Y51669D01*
G01X52127Y51665D01*
G01X52111Y51659D01*
G01X52098Y51650D01*
G01X52059Y51622D01*
G01X52020Y51596D01*
G01X51979Y51572D01*
G01X51937Y51549D01*
G01X51894Y51529D01*
G01X51850Y51511D01*
G01X51806Y51495D01*
G01X51760Y51480D01*
G01X51715Y51468D01*
G01X51668Y51459D01*
G01X51621Y51451D01*
G01X51574Y51445D01*
G01X51527Y51442D01*
G01X51480Y51441D01*
G01X51434Y51442D01*
G01X51388Y51445D01*
G01X51343Y51450D01*
G01X51298Y51457D01*
G01X51253Y51466D01*
G01X51209Y51478D01*
G01X51165Y51491D01*
G01X51122Y51506D01*
G01X51079Y51523D01*
G01X51038Y51542D01*
G01X50997Y51563D01*
G01X50957Y51585D01*
G01X50918Y51609D01*
G01X50881Y51635D01*
G01X50844Y51663D01*
G01X50809Y51692D01*
G01X50776Y51723D01*
G01X50743Y51756D01*
G01X50712Y51789D01*
G01X50683Y51824D01*
G01X50655Y51861D01*
G01X50629Y51898D01*
G01X50605Y51937D01*
G01X50583Y51977D01*
G01X50562Y52018D01*
G01X50543Y52059D01*
G01X50526Y52102D01*
G01X50511Y52145D01*
G01X50498Y52189D01*
G01X50486Y52233D01*
G01X50477Y52278D01*
G01X50470Y52323D01*
G01X50465Y52368D01*
G01X50462Y52414D01*
G01X50461Y52459D01*
G01X50462Y52505D01*
G01X50465Y52551D01*
G01X50470Y52596D01*
G01X50477Y52641D01*
G01X50486Y52686D01*
G01X50498Y52730D01*
G01X50511Y52774D01*
G01X50526Y52817D01*
G01X50543Y52860D01*
G01X50562Y52901D01*
G01X50583Y52942D01*
G01X50605Y52982D01*
G01X50629Y53021D01*
G01X50655Y53058D01*
G01X50683Y53095D01*
G01X50712Y53130D01*
G01X50743Y53163D01*
G01X50776Y53196D01*
G01X50809Y53227D01*
G01X50844Y53256D01*
G01X50881Y53284D01*
G01X50918Y53310D01*
G01X50957Y53334D01*
G01X50997Y53356D01*
G01X51038Y53377D01*
G01X51079Y53396D01*
G01X51122Y53413D01*
G01X51165Y53428D01*
G01X51209Y53441D01*
G01X51253Y53453D01*
G01X51298Y53462D01*
G01X51343Y53469D01*
G01X51388Y53474D01*
G01X51434Y53477D01*
G01X51480Y53478D01*
G01X51526Y53477D01*
G01X51573Y53474D01*
G01X51619Y53468D01*
G01X51666Y53461D01*
G01X51711Y53451D01*
G01X51757Y53440D01*
G01X51802Y53426D01*
G01X51846Y53410D01*
G01X51889Y53392D01*
G01X51931Y53372D01*
G01X51973Y53351D01*
G01X52013Y53327D01*
G01X52052Y53302D01*
G01X52091Y53274D01*
G01X52127Y53245D01*
G01X52163Y53215D01*
G01X52197Y53183D01*
G01X52229Y53149D01*
G01X52260Y53114D01*
G01X52289Y53077D01*
G01X52317Y53039D01*
G01X52343Y53000D01*
G01X52367Y52960D01*
G01X52389Y52919D01*
G01X52409Y52877D01*
G01X52427Y52833D01*
G01X52443Y52790D01*
G01X52457Y52745D01*
G01X52469Y52700D01*
G01X52479Y52654D01*
G01X52487Y52608D01*
G01X52493Y52561D01*
G01X52496Y52544D01*
G01X52502Y52528D01*
G01X52511Y52513D01*
G01X52522Y52500D01*
G01X52848Y52174D01*
G01X52860Y52163D01*
G01X52874Y52155D01*
G01X52889Y52149D01*
G01X52904Y52145D01*
G01X52920Y52144D01*
G01X52934Y52145D01*
G01X52949Y52148D01*
G01X52962Y52153D01*
G01X52975Y52160D01*
G01X52987Y52169D01*
G01X52997Y52179D01*
G01X53005Y52191D01*
G01X53012Y52203D01*
G01X53017Y52217D01*
G01X53021Y52231D01*
G01X53022Y52246D01*
G01X53020Y52265D01*
G01X53012Y52313D01*
G01X53006Y52362D01*
G01X53002Y52411D01*
G01X53001Y52459D01*
G01X53002Y52505D01*
G01X53005Y52551D01*
G01X53010Y52596D01*
G01X53017Y52641D01*
G01X53026Y52686D01*
G01X53038Y52730D01*
G01X53051Y52774D01*
G01X53066Y52817D01*
G01X53083Y52860D01*
G01X53102Y52901D01*
G01X53123Y52942D01*
G01X53145Y52982D01*
G01X53169Y53021D01*
G01X53195Y53058D01*
G01X53223Y53095D01*
G01X53252Y53130D01*
G01X53283Y53163D01*
G01X53316Y53196D01*
G01X53349Y53227D01*
G01X53384Y53256D01*
G01X53421Y53284D01*
G01X53458Y53310D01*
G01X53497Y53334D01*
G01X53537Y53356D01*
G01X53578Y53377D01*
G01X53619Y53396D01*
G01X53662Y53413D01*
G01X53705Y53428D01*
G01X53749Y53441D01*
G01X53793Y53453D01*
G01X53838Y53462D01*
G01X53883Y53469D01*
G01X53928Y53474D01*
G01X53974Y53477D01*
G01X54020Y53478D01*
G01X54065Y53477D01*
G01X54111Y53474D01*
G01X54156Y53469D01*
G01X54201Y53462D01*
G01X54246Y53453D01*
G01X54290Y53441D01*
G01X54334Y53428D01*
G01X54377Y53413D01*
G01X54420Y53396D01*
G01X54461Y53377D01*
G01X54502Y53356D01*
G01X54542Y53334D01*
G01X54581Y53310D01*
G01X54618Y53284D01*
G01X54655Y53256D01*
G01X54690Y53227D01*
G01X54723Y53196D01*
G01X54756Y53163D01*
G01X54787Y53130D01*
G01X54816Y53095D01*
G01X54844Y53058D01*
G01X54870Y53021D01*
G01X54894Y52982D01*
G01X54916Y52942D01*
G01X54937Y52901D01*
G01X54956Y52860D01*
G01X54973Y52817D01*
G01X54988Y52774D01*
G01X55001Y52730D01*
G01X55013Y52686D01*
G01X55022Y52641D01*
G01X55029Y52596D01*
G01X55034Y52551D01*
G01X55037Y52505D01*
G01X55038Y52459D01*
G01X55037Y52414D01*
G01X55034Y52368D01*
G01X55029Y52323D01*
G01X55022Y52277D01*
G01X55012Y52233D01*
G01X55001Y52188D01*
G01X54988Y52144D01*
G01X54984Y52129D01*
G01X54983Y52113D01*
G01X54984Y52097D01*
G01X54988Y52082D01*
G01X54994Y52067D01*
G01X55002Y52053D01*
G01X55013Y52041D01*
G01X63578Y43476D01*
G01X63598Y43455D01*
G01X63616Y43432D01*
G01X63633Y43408D01*
G01X63647Y43383D01*
G01X63660Y43357D01*
G01X63671Y43331D01*
G01X63681Y43303D01*
G01X63688Y43275D01*
G01X63693Y43246D01*
G01X63696Y43217D01*
G01X63697Y43188D01*
G01X63697Y41455D01*
G01X63699Y41438D01*
G01X63703Y41421D01*
G01X63711Y41405D01*
G01X63721Y41390D01*
G01X63743Y41362D01*
G01X63763Y41333D01*
G01X63781Y41302D01*
G01X63797Y41271D01*
G01X63812Y41238D01*
G01X63824Y41204D01*
G01X63834Y41170D01*
G01X63842Y41136D01*
G01X63847Y41100D01*
G01X63851Y41065D01*
G01X63852Y41029D01*
G01X63851Y40996D01*
G01X63848Y40962D01*
G01X63843Y40928D01*
G01X63836Y40895D01*
G01X63826Y40862D01*
G01X63815Y40830D01*
G01X63802Y40799D01*
G01X63788Y40769D01*
G01X63771Y40739D01*
G01X63752Y40711D01*
G01X63732Y40683D01*
G01X63711Y40657D01*
G01X63663Y40609D01*
G01X63637Y40588D01*
G01X63609Y40568D01*
G01X63581Y40549D01*
G01X63551Y40532D01*
G01X63521Y40518D01*
G01X63490Y40505D01*
G01X63458Y40494D01*
G01X63425Y40484D01*
G01X63392Y40477D01*
G01X63358Y40472D01*
G01X63324Y40469D01*
G01X63291Y40468D01*
G01X63257Y40469D01*
G01X63223Y40472D01*
G01X63189Y40477D01*
G01X63156Y40484D01*
G01X63124Y40494D01*
G01X63091Y40505D01*
G01X63060Y40518D01*
G01X63030Y40532D01*
G01X63000Y40549D01*
G01X62972Y40568D01*
G01X62944Y40588D01*
G01X62918Y40609D01*
G01X62870Y40657D01*
G01X62849Y40683D01*
G01X62829Y40711D01*
G01X62810Y40739D01*
G01X62793Y40769D01*
G01X62779Y40799D01*
G01X62766Y40830D01*
G01X62755Y40862D01*
G01X62745Y40895D01*
G01X62738Y40928D01*
G01X62733Y40962D01*
G01X62730Y40996D01*
G01X62729Y41029D01*
G01X62730Y41065D01*
G01X62734Y41100D01*
G01X62739Y41136D01*
G01X62747Y41170D01*
G01X62757Y41204D01*
G01X62769Y41238D01*
G01X62784Y41271D01*
G01X62800Y41302D01*
G01X62818Y41333D01*
G01X62838Y41362D01*
G01X62860Y41390D01*
G01X62870Y41405D01*
G01X62878Y41421D01*
G01X62882Y41438D01*
G01X62884Y41455D01*
G01X62884Y42978D01*
G01X62883Y42994D01*
G01X62879Y43009D01*
G01X62873Y43024D01*
G01X62865Y43038D01*
G01X62854Y43050D01*
G01X54438Y51466D01*
G01X54426Y51477D01*
G01X54412Y51485D01*
G01X54397Y51491D01*
G01X54382Y51495D01*
G01X54366Y51496D01*
G01X54350Y51495D01*
G01X54335Y51491D01*
G01X54291Y51478D01*
G01X54246Y51467D01*
G01X54202Y51457D01*
G01X54156Y51450D01*
G01X54111Y51445D01*
G01X54065Y51442D01*
G01X54020Y51441D01*
G01X53972Y51442D01*
G01X53924Y51445D01*
G01X53877Y51451D01*
G01X53830Y51459D01*
G01X53784Y51469D01*
G01X53738Y51481D01*
G01X53692Y51495D01*
G01X53647Y51511D01*
G01X53604Y51530D01*
G01X53561Y51550D01*
G01X53519Y51573D01*
G01X53478Y51597D01*
G01X53438Y51623D01*
G01X53399Y51651D01*
G01X53362Y51681D01*
G01X53327Y51713D01*
G01X53315Y51722D01*
G01X53302Y51730D01*
G01X53288Y51735D01*
G01X53273Y51739D01*
G01X53258Y51740D01*
G01X53243Y51739D01*
G01X53229Y51736D01*
G01X53215Y51731D01*
G01X53203Y51724D01*
G01X53191Y51715D01*
G01X53181Y51705D01*
G01X53172Y51693D01*
G01X53165Y51681D01*
G01X53160Y51667D01*
G01X53157Y51653D01*
G01X53156Y51638D01*
G01X53156Y50741D01*
G01X53157Y50726D01*
G01X53160Y50712D01*
G01X53165Y50698D01*
G01X53172Y50686D01*
G01X53181Y50674D01*
G01X53191Y50664D01*
G01X53203Y50655D01*
G01X53215Y50648D01*
G01X53229Y50643D01*
G01X53243Y50640D01*
G01X53258Y50639D01*
G01X53273Y50640D01*
G01X53288Y50644D01*
G01X53302Y50649D01*
G01X53315Y50657D01*
G01X53327Y50666D01*
G01X53362Y50698D01*
G01X53399Y50728D01*
G01X53438Y50756D01*
G01X53478Y50782D01*
G01X53519Y50806D01*
G01X53561Y50829D01*
G01X53604Y50849D01*
G01X53647Y50868D01*
G01X53692Y50884D01*
G01X53738Y50898D01*
G01X53784Y50910D01*
G01X53830Y50920D01*
G01X53877Y50928D01*
G01X53924Y50934D01*
G01X53972Y50937D01*
G01X54020Y50938D01*
G01X54065Y50937D01*
G01X54111Y50934D01*
G01X54156Y50929D01*
G01X54201Y50922D01*
G01X54246Y50913D01*
G01X54290Y50901D01*
G01X54334Y50888D01*
G01X54377Y50873D01*
G01X54420Y50856D01*
G01X54461Y50837D01*
G01X54502Y50816D01*
G01X54542Y50794D01*
G01X54581Y50770D01*
G01X54618Y50744D01*
G01X54655Y50716D01*
G01X54690Y50687D01*
G01X54723Y50656D01*
G01X54756Y50623D01*
G01X54787Y50590D01*
G01X54816Y50555D01*
G01X54844Y50518D01*
G01X54870Y50481D01*
G01X54894Y50442D01*
G01X54916Y50402D01*
G01X54937Y50361D01*
G01X54956Y50320D01*
G01X54973Y50277D01*
G01X54988Y50234D01*
G01X55001Y50190D01*
G01X55013Y50146D01*
G01X55022Y50101D01*
G01X55029Y50056D01*
G01X55034Y50011D01*
G01X55037Y49965D01*
G01X55038Y49919D01*
G01X55037Y49874D01*
G01X55034Y49828D01*
G01X55029Y49783D01*
G01X55022Y49738D01*
G01X55013Y49693D01*
G01X55001Y49649D01*
G01X54988Y49605D01*
G01X54973Y49562D01*
G01X54956Y49519D01*
G01X54937Y49478D01*
G01X54916Y49437D01*
G01X54894Y49397D01*
G01X54870Y49358D01*
G01X54844Y49321D01*
G01X54816Y49284D01*
G01X54787Y49249D01*
G01X54756Y49216D01*
G01X54723Y49183D01*
G01X54690Y49152D01*
G01X54655Y49123D01*
G01X54618Y49095D01*
G01X54581Y49069D01*
G01X54542Y49045D01*
G01X54502Y49023D01*
G01X54461Y49002D01*
G01X54420Y48983D01*
G01X54377Y48966D01*
G01X54334Y48951D01*
G01X54290Y48938D01*
G01X54246Y48926D01*
G01X54201Y48917D01*
G01X54156Y48910D01*
G01X54111Y48905D01*
G01X54065Y48902D01*
G01X54020Y48901D01*
G01X53957Y48903D01*
G01X53951Y48903D01*
G01X53937Y48902D01*
G01X53923Y48899D01*
G01X53909Y48894D01*
G01X53896Y48887D01*
G01X53885Y48878D01*
G01X53874Y48868D01*
G01X53866Y48856D01*
G01X53859Y48844D01*
G01X53854Y48830D01*
G01X53851Y48816D01*
G01X53850Y48801D01*
G01X53851Y48786D01*
G01X53855Y48770D01*
G01X53861Y48755D01*
G01X53869Y48742D01*
G01X53879Y48730D01*
G01X57482Y45127D01*
G01X57502Y45106D01*
G01X57520Y45083D01*
G01X57537Y45059D01*
G01X57551Y45034D01*
G01X57564Y45008D01*
G01X57575Y44982D01*
G01X57585Y44954D01*
G01X57592Y44926D01*
G01X57597Y44897D01*
G01X57600Y44868D01*
G01X57601Y44839D01*
G01X57601Y40732D01*
G01X57602Y40718D01*
G01X57605Y40704D01*
G01X57610Y40690D01*
G01X57617Y40677D01*
G01X57626Y40666D01*
G01X57636Y40655D01*
G01X57648Y40647D01*
G01X57660Y40640D01*
G01X57674Y40635D01*
G01X57688Y40632D01*
G01X57703Y40631D01*
G01X57719Y40632D01*
G01X57734Y40636D01*
G01X57749Y40642D01*
G01X57762Y40650D01*
G01X57774Y40660D01*
G01X58431Y41317D01*
G01X58452Y41337D01*
G01X58475Y41355D01*
G01X58499Y41372D01*
G01X58524Y41386D01*
G01X58550Y41399D01*
G01X58576Y41410D01*
G01X58604Y41420D01*
G01X58632Y41427D01*
G01X58661Y41432D01*
G01X58690Y41435D01*
G01X58719Y41436D01*
G01X59563Y41436D01*
G01X59580Y41438D01*
G01X59597Y41442D01*
G01X59613Y41450D01*
G01X59628Y41460D01*
G01X59656Y41482D01*
G01X59685Y41502D01*
G01X59716Y41520D01*
G01X59747Y41536D01*
G01X59780Y41551D01*
G01X59814Y41563D01*
G01X59848Y41573D01*
G01X59882Y41581D01*
G01X59918Y41586D01*
G01X59953Y41590D01*
G01X59989Y41591D01*
G01X60022Y41590D01*
G01X60056Y41587D01*
G01X60090Y41582D01*
G01X60123Y41575D01*
G01X60156Y41565D01*
G01X60188Y41554D01*
G01X60219Y41541D01*
G01X60249Y41527D01*
G01X60279Y41510D01*
G01X60307Y41491D01*
G01X60335Y41471D01*
G01X60361Y41450D01*
G01X60409Y41402D01*
G01X60430Y41376D01*
G01X60450Y41348D01*
G01X60469Y41320D01*
G01X60486Y41290D01*
G01X60500Y41260D01*
G01X60513Y41229D01*
G01X60524Y41196D01*
G01X60534Y41164D01*
G01X60541Y41131D01*
G01X60546Y41097D01*
G01X60549Y41063D01*
G01X60550Y41029D01*
G01X60549Y40996D01*
G01X60546Y40962D01*
G01X60541Y40928D01*
G01X60534Y40895D01*
G01X60524Y40862D01*
G01X60513Y40830D01*
G01X60500Y40799D01*
G01X60486Y40769D01*
G01X60469Y40739D01*
G01X60450Y40711D01*
G01X60430Y40683D01*
G01X60409Y40657D01*
G01X60361Y40609D01*
G01X60335Y40588D01*
G01X60307Y40568D01*
G01X60279Y40549D01*
G01X60249Y40532D01*
G01X60219Y40518D01*
G01X60188Y40505D01*
G01X60156Y40494D01*
G01X60123Y40484D01*
G01X60090Y40477D01*
G01X60056Y40472D01*
G01X60022Y40469D01*
G01X59989Y40468D01*
G01X59953Y40469D01*
G01X59918Y40473D01*
G01X59882Y40478D01*
G01X59848Y40486D01*
G01X59814Y40496D01*
G01X59780Y40508D01*
G01X59747Y40523D01*
G01X59716Y40539D01*
G01X59685Y40557D01*
G01X59656Y40577D01*
G01X59628Y40599D01*
G01X59613Y40609D01*
G01X59597Y40617D01*
G01X59580Y40621D01*
G01X59563Y40623D01*
G01X58929Y40623D01*
G01X58913Y40622D01*
G01X58898Y40618D01*
G01X58883Y40612D01*
G01X58869Y40604D01*
G01X58857Y40593D01*
G01X58357Y40093D01*
G01X58347Y40081D01*
G01X58338Y40068D01*
G01X58332Y40054D01*
G01X58329Y40039D01*
G01X58327Y40024D01*
G01X58312Y40022D01*
G01X58297Y40019D01*
G01X58283Y40013D01*
G01X58270Y40004D01*
G01X58258Y39994D01*
G01X57631Y39367D01*
G01X57620Y39355D01*
G01X57612Y39341D01*
G01X57606Y39326D01*
G01X57602Y39311D01*
G01X57601Y39295D01*
G01X57601Y38280D01*
G01X57603Y38263D01*
G01X57607Y38246D01*
G01X57615Y38230D01*
G01X57625Y38215D01*
G01X57647Y38187D01*
G01X57667Y38158D01*
G01X57685Y38127D01*
G01X57701Y38096D01*
G01X57716Y38063D01*
G01X57728Y38029D01*
G01X57738Y37995D01*
G01X57746Y37961D01*
G01X57751Y37925D01*
G01X57755Y37890D01*
G01X57756Y37854D01*
G01X57755Y37821D01*
G01X57752Y37787D01*
G01X57747Y37753D01*
G01X57740Y37720D01*
G01X57730Y37687D01*
G01X57719Y37655D01*
G01X57706Y37624D01*
G01X57692Y37594D01*
G01X57675Y37564D01*
G01X57656Y37536D01*
G01X57636Y37508D01*
G01X57615Y37482D01*
G01X57567Y37434D01*
G01X57541Y37413D01*
G01X57513Y37393D01*
G01X57485Y37374D01*
G01X57455Y37357D01*
G01X57425Y37343D01*
G01X57394Y37330D01*
G01X57362Y37319D01*
G01X57329Y37309D01*
G01X57296Y37302D01*
G01X57262Y37297D01*
G01X57228Y37294D01*
G01X57195Y37293D01*
G01X57160Y37294D01*
G01X57126Y37297D01*
G01X57092Y37303D01*
G01X57058Y37310D01*
G01X57025Y37319D01*
G01X56993Y37331D01*
G01X56961Y37344D01*
G01X56931Y37359D01*
G01X56901Y37376D01*
G01X56872Y37395D01*
G01X56859Y37403D01*
G01X56844Y37409D01*
G01X56829Y37412D01*
G01X56814Y37413D01*
G01X56799Y37412D01*
G01X56785Y37409D01*
G01X56771Y37404D01*
G01X56759Y37397D01*
G01X56747Y37389D01*
G01X56737Y37378D01*
G01X56728Y37367D01*
G01X56721Y37354D01*
G01X56716Y37340D01*
G01X56713Y37326D01*
G01X56712Y37312D01*
G01X56712Y34298D01*
G01X56711Y34269D01*
G01X56708Y34241D01*
G01X56703Y34212D01*
G01X56696Y34184D01*
G01X56686Y34156D01*
G01X56675Y34130D01*
G01X56662Y34104D01*
G01X56648Y34079D01*
G01X56631Y34055D01*
G01X56613Y34032D01*
G01X56593Y34011D01*
G01X54964Y32382D01*
G01X54953Y32370D01*
G01X54945Y32356D01*
G01X54939Y32341D01*
G01X54935Y32326D01*
G01X54934Y32310D01*
G01X54934Y31187D01*
G01X54935Y31173D01*
G01X54938Y31159D01*
G01X54943Y31145D01*
G01X54950Y31132D01*
G01X54959Y31121D01*
G01X54969Y31111D01*
G01X54981Y31102D01*
G01X54993Y31095D01*
G01X55007Y31090D01*
G01X55021Y31087D01*
G01X55036Y31086D01*
G01X55050Y31087D01*
G01X55064Y31090D01*
G01X55078Y31095D01*
G01X55090Y31102D01*
G01X55102Y31110D01*
G01X55112Y31121D01*
G01X55121Y31132D01*
G01X55128Y31145D01*
G01X55133Y31158D01*
G01X55144Y31191D01*
G01X55157Y31222D01*
G01X55171Y31253D01*
G01X55188Y31283D01*
G01X55206Y31312D01*
G01X55226Y31340D01*
G01X55248Y31366D01*
G01X55271Y31391D01*
G01X55296Y31415D01*
G01X55322Y31437D01*
G01X55349Y31457D01*
G01X55378Y31476D01*
G01X55408Y31493D01*
G01X55438Y31508D01*
G01X55470Y31521D01*
G01X55502Y31532D01*
G01X55535Y31541D01*
G01X55569Y31548D01*
G01X55602Y31554D01*
G01X55636Y31557D01*
G01X55671Y31558D01*
G01X55706Y31557D01*
G01X55742Y31553D01*
G01X55777Y31548D01*
G01X55811Y31540D01*
G01X55845Y31530D01*
G01X55879Y31518D01*
G01X55912Y31503D01*
G01X55943Y31487D01*
G01X55974Y31469D01*
G01X56003Y31449D01*
G01X56031Y31427D01*
G01X56046Y31417D01*
G01X56062Y31409D01*
G01X56079Y31405D01*
G01X56096Y31403D01*
G01X57723Y31403D01*
G01X57752Y31402D01*
G01X57781Y31399D01*
G01X57809Y31394D01*
G01X57837Y31387D01*
G01X57865Y31377D01*
G01X57892Y31366D01*
G01X57918Y31353D01*
G01X57943Y31339D01*
G01X57966Y31322D01*
G01X57989Y31304D01*
G01X58010Y31284D01*
G01X58550Y30744D01*
G01X58563Y30733D01*
G01X58576Y30725D01*
G01X58591Y30719D01*
G01X58606Y30715D01*
G01X58622Y30714D01*
G01X59237Y30714D01*
G01X59260Y30713D01*
G01X59284Y30710D01*
G01X59307Y30704D01*
G01X59330Y30697D01*
G01X59351Y30687D01*
G01X59372Y30676D01*
G01X59391Y30662D01*
G01X59410Y30647D01*
G01X59426Y30630D01*
G01X59442Y30612D01*
G01X59455Y30593D01*
G01X59466Y30572D01*
G01X59476Y30550D01*
G01X59484Y30528D01*
G01X59489Y30505D01*
G01X59492Y30481D01*
G01X59493Y30458D01*
G01X59493Y29757D01*
G01X59492Y29734D01*
G01X59489Y29710D01*
G01X59484Y29687D01*
G01X59476Y29665D01*
G01X59466Y29643D01*
G01X59455Y29622D01*
G01X59442Y29603D01*
G01X59426Y29585D01*
G01X59410Y29568D01*
G01X59391Y29553D01*
G01X59372Y29539D01*
G01X59351Y29528D01*
G01X59330Y29518D01*
G01X59307Y29511D01*
G01X59284Y29505D01*
G01X59260Y29502D01*
G01X59237Y29501D01*
G01X59170Y29501D01*
G01X59156Y29500D01*
G01X59141Y29497D01*
G01X59128Y29492D01*
G01X59115Y29485D01*
G01X59103Y29476D01*
G01X59093Y29466D01*
G01X59085Y29454D01*
G01X59078Y29442D01*
G01X59073Y29428D01*
G01X59069Y29414D01*
G01X59068Y29399D01*
G01X59068Y22444D01*
G01X59070Y22428D01*
G01X59073Y22413D01*
G01X59079Y22398D01*
G01X59088Y22385D01*
G01X59098Y22372D01*
G01X60021Y21450D01*
G01X60033Y21439D01*
G01X60047Y21431D01*
G01X60061Y21425D01*
G01X60077Y21421D01*
G01X60093Y21420D01*
G01X78785Y21420D01*
G01X78817Y21419D01*
G01X78849Y21415D01*
G01X78882Y21410D01*
G01X78913Y21402D01*
G01X78944Y21391D01*
G01X78974Y21379D01*
G01X79003Y21364D01*
G01X79031Y21348D01*
G01X79058Y21329D01*
G01X79083Y21309D01*
G01X79107Y21286D01*
G01X80123Y20270D01*
G01X80146Y20246D01*
G01X80166Y20221D01*
G01X80185Y20194D01*
G01X80201Y20166D01*
G01X80216Y20137D01*
G01X80228Y20107D01*
G01X80239Y20076D01*
G01X80247Y20045D01*
G01X80252Y20012D01*
G01X80256Y19980D01*
G01X80257Y19947D01*
G01X80257Y13089D01*
G01X80256Y13057D01*
G01X80252Y13025D01*
G01X80247Y12992D01*
G01X80239Y12961D01*
G01X80228Y12930D01*
G01X80216Y12900D01*
G01X80201Y12871D01*
G01X80185Y12843D01*
G01X80166Y12816D01*
G01X80146Y12791D01*
G01X80123Y12767D01*
G01X79779Y12422D01*
G01X79768Y12410D01*
G01X79760Y12396D01*
G01X79754Y12382D01*
G01X79750Y12366D01*
G01X79749Y12350D01*
G01X79749Y11093D01*
G01X79750Y11079D01*
G01X79753Y11065D01*
G01X79758Y11051D01*
G01X79765Y11039D01*
G01X79773Y11027D01*
G01X79783Y11017D01*
G01X79795Y11008D01*
G01X79807Y11001D01*
G01X79821Y10996D01*
G01X79835Y10993D01*
G01X79849Y10992D01*
G01X85240Y10912D01*
G01X85242Y10912D01*
G01X85256Y10913D01*
G01X85270Y10916D01*
G01X85284Y10921D01*
G01X85296Y10928D01*
G01X85308Y10936D01*
G01X85318Y10947D01*
G01X85327Y10958D01*
G01X85334Y10971D01*
G01X85339Y10985D01*
G01X85342Y10999D01*
G01X85343Y11013D01*
G01X85343Y49004D01*
G01X85342Y49103D01*
G01X85339Y49202D01*
G01X85333Y49301D01*
G01X85326Y49400D01*
G01X85317Y49499D01*
G01X85305Y49598D01*
G01X85292Y49696D01*
G01X85276Y49794D01*
G01X85258Y49892D01*
G01X85239Y49989D01*
G01X85217Y50086D01*
G01X85193Y50183D01*
G01X85167Y50278D01*
G01X85140Y50374D01*
G01X85110Y50469D01*
G01X85078Y50563D01*
G01X85044Y50656D01*
G01X85009Y50749D01*
G01X84971Y50841D01*
G01X84932Y50932D01*
G01X84890Y51022D01*
G01X84847Y51111D01*
G01X84802Y51200D01*
G01X84755Y51287D01*
G01X84706Y51374D01*
G01X84655Y51459D01*
G01X84603Y51543D01*
G01X84549Y51627D01*
G01X84493Y51709D01*
G01X84436Y51790D01*
G01X84376Y51869D01*
G01X84315Y51948D01*
G01X84253Y52025D01*
G01X84189Y52101D01*
G01X84123Y52175D01*
G01X84056Y52248D01*
G01X83987Y52320D01*
G01X83917Y52390D01*
G01X83845Y52459D01*
G01X83772Y52526D01*
G01X83698Y52592D01*
G01X83622Y52656D01*
G01X83544Y52718D01*
G01X83466Y52779D01*
G01X83386Y52838D01*
G01X83305Y52896D01*
G01X83223Y52951D01*
G01X83140Y53005D01*
G01X83056Y53058D01*
G01X82970Y53108D01*
G01X82884Y53157D01*
G01X82796Y53204D01*
G01X82708Y53249D01*
G01X82618Y53292D01*
G01X82528Y53333D01*
G01X82437Y53373D01*
G01X82345Y53410D01*
G01X82252Y53446D01*
G01X82159Y53479D01*
G01X82065Y53511D01*
G01X81970Y53541D01*
G01X81874Y53568D01*
G01X81779Y53594D01*
G01X81682Y53618D01*
G01X81585Y53639D01*
G01X81488Y53659D01*
G01X81390Y53677D01*
G01X81292Y53692D01*
G01X81194Y53706D01*
G01X81095Y53717D01*
G01X80996Y53726D01*
G01X80897Y53734D01*
G01X80798Y53739D01*
G01X80699Y53742D01*
G01X80600Y53743D01*
G01X64771Y53743D01*
G01X64757Y53742D01*
G01X64742Y53739D01*
G01X64729Y53734D01*
G01X64716Y53727D01*
G01X64704Y53718D01*
G01X64694Y53708D01*
G01X64686Y53696D01*
G01X64679Y53684D01*
G01X64674Y53670D01*
G01X64670Y53656D01*
G01X64669Y53641D01*
G01X64671Y53626D01*
G01X64674Y53611D01*
G01X64679Y53597D01*
G01X64687Y53584D01*
G01X64697Y53572D01*
G01X64708Y53562D01*
G01X64747Y53529D01*
G01X64785Y53495D01*
G01X64822Y53459D01*
G01X64857Y53421D01*
G01X64891Y53383D01*
G01X64923Y53343D01*
G01X64953Y53301D01*
G01X64982Y53259D01*
G01X65009Y53215D01*
G01X65034Y53170D01*
G01X65057Y53124D01*
G01X65079Y53078D01*
G01X65098Y53030D01*
G01X65116Y52982D01*
G01X65131Y52933D01*
G01X65144Y52883D01*
G01X65156Y52833D01*
G01X65165Y52783D01*
G01X65173Y52732D01*
G01X65178Y52681D01*
G01X65181Y52630D01*
G01X65182Y52578D01*
G01X65182Y51578D01*
G01X65181Y51528D01*
G01X65178Y51477D01*
G01X65173Y51427D01*
G01X65166Y51377D01*
G01X65157Y51327D01*
G01X65146Y51278D01*
G01X65132Y51229D01*
G01X65117Y51181D01*
G01X65100Y51133D01*
G01X65081Y51086D01*
G01X65061Y51040D01*
G01X65038Y50995D01*
G01X65014Y50950D01*
G01X64988Y50907D01*
G01X64960Y50865D01*
G01X64930Y50824D01*
G01X64899Y50784D01*
G01X64866Y50745D01*
G01X64832Y50708D01*
G01X64796Y50672D01*
G01X64759Y50638D01*
G01X64720Y50605D01*
G01X64680Y50574D01*
G01X64639Y50544D01*
G01X64597Y50516D01*
G01X64554Y50490D01*
G01X64509Y50466D01*
G01X64464Y50443D01*
G01X64418Y50423D01*
G01X64371Y50404D01*
G01X64323Y50387D01*
G01X64275Y50372D01*
G01X64226Y50358D01*
G01X64177Y50347D01*
G01X64127Y50338D01*
G01X64077Y50331D01*
G01X64027Y50326D01*
G01X63976Y50323D01*
G01X63926Y50322D01*
G01X63875Y50323D01*
G01X63824Y50326D01*
G01X63774Y50331D01*
G01X63724Y50338D01*
G01X63674Y50347D01*
G01X63625Y50358D01*
G01X63576Y50372D01*
G01X63528Y50387D01*
G01X63480Y50404D01*
G01X63433Y50423D01*
G01X63387Y50443D01*
G01X63342Y50466D01*
G01X63297Y50490D01*
G01X63254Y50516D01*
G01X63212Y50544D01*
G01X63171Y50574D01*
G01X63131Y50605D01*
G01X63092Y50638D01*
G01X63055Y50672D01*
G01X63019Y50708D01*
G01X62985Y50745D01*
G01X62952Y50784D01*
G01X62921Y50824D01*
G01X62891Y50865D01*
G01X62863Y50907D01*
G01X62837Y50950D01*
G01X62813Y50995D01*
G01X62790Y51040D01*
G01X62770Y51086D01*
G01X62751Y51133D01*
G01X62734Y51181D01*
G01X62719Y51229D01*
G01X62705Y51278D01*
G01X62694Y51327D01*
G01X62685Y51377D01*
G01X62678Y51427D01*
G01X62673Y51477D01*
G01X62670Y51528D01*
G01X62669Y51578D01*
G01X62669Y52578D01*
G01X62670Y52630D01*
G01X62673Y52681D01*
G01X62678Y52732D01*
G01X62686Y52783D01*
G01X62695Y52833D01*
G01X62707Y52883D01*
G01X62720Y52933D01*
G01X62735Y52982D01*
G01X62753Y53030D01*
G01X62772Y53078D01*
G01X62794Y53124D01*
G01X62817Y53170D01*
G01X62842Y53215D01*
G01X62869Y53259D01*
G01X62898Y53301D01*
G01X62928Y53343D01*
G01X62960Y53383D01*
G01X62994Y53421D01*
G01X63029Y53459D01*
G01X63066Y53495D01*
G01X63104Y53529D01*
G01X63143Y53562D01*
G01X63154Y53572D01*
G01X63164Y53584D01*
G01X63172Y53597D01*
G01X63177Y53611D01*
G01X63180Y53626D01*
G01X63182Y53641D01*
G01X63181Y53656D01*
G01X63178Y53670D01*
G01X63172Y53684D01*
G01X63165Y53696D01*
G01X63157Y53708D01*
G01X63147Y53718D01*
G01X63135Y53727D01*
G01X63122Y53734D01*
G01X63109Y53739D01*
G01X63094Y53742D01*
G01X63080Y53743D01*
G01X60771Y53743D01*
G01X60757Y53742D01*
G01X60742Y53739D01*
G01X60729Y53734D01*
G01X60716Y53727D01*
G01X60704Y53718D01*
G01X60694Y53708D01*
G01X60686Y53696D01*
G01X60679Y53684D01*
G01X60674Y53670D01*
G01X60670Y53656D01*
G01X60669Y53641D01*
G01X60671Y53626D01*
G01X60674Y53611D01*
G01X60679Y53597D01*
G01X60687Y53584D01*
G01X60697Y53572D01*
G01X60708Y53562D01*
G01X60747Y53529D01*
G01X60785Y53495D01*
G01X60822Y53459D01*
G01X60857Y53421D01*
G01X60891Y53383D01*
G01X60923Y53343D01*
G01X60953Y53301D01*
G01X60982Y53259D01*
G01X61009Y53215D01*
G01X61034Y53170D01*
G01X61057Y53124D01*
G01X61079Y53078D01*
G01X61098Y53030D01*
G01X61116Y52982D01*
G01X61131Y52933D01*
G01X61144Y52883D01*
G01X61156Y52833D01*
G01X61165Y52783D01*
G01X61173Y52732D01*
G01X61178Y52681D01*
G01X61181Y52630D01*
G01X61182Y52578D01*
G01X61182Y51578D01*
G01X61181Y51528D01*
G01X61178Y51477D01*
G01X61173Y51427D01*
G01X61166Y51377D01*
G01X61157Y51327D01*
G01X61146Y51278D01*
G01X61132Y51229D01*
G01X61117Y51181D01*
G01X61100Y51133D01*
G01X61081Y51086D01*
G01X61061Y51040D01*
G01X61038Y50995D01*
G01X61014Y50950D01*
G01X60988Y50907D01*
G01X60960Y50865D01*
G01X60930Y50824D01*
G01X60899Y50784D01*
G01X60866Y50745D01*
G01X60832Y50708D01*
G01X60796Y50672D01*
G01X60759Y50638D01*
G01X60720Y50605D01*
G01X60680Y50574D01*
G01X60639Y50544D01*
G01X60597Y50516D01*
G01X60554Y50490D01*
G01X60509Y50466D01*
G01X60464Y50443D01*
G01X60418Y50423D01*
G01X60371Y50404D01*
G01X60323Y50387D01*
G01X60275Y50372D01*
G01X60226Y50358D01*
G01X60177Y50347D01*
G01X60127Y50338D01*
G01X60077Y50331D01*
G01X60027Y50326D01*
G01X59976Y50323D01*
G01X59926Y50322D01*
G01X59875Y50323D01*
G01X59824Y50326D01*
G01X59774Y50331D01*
G01X59724Y50338D01*
G01X59674Y50347D01*
G01X59625Y50358D01*
G01X59576Y50372D01*
G01X59528Y50387D01*
G01X59480Y50404D01*
G01X59433Y50423D01*
G01X59387Y50443D01*
G01X59342Y50466D01*
G01X59297Y50490D01*
G01X59254Y50516D01*
G01X59212Y50544D01*
G01X59171Y50574D01*
G01X59131Y50605D01*
G01X59092Y50638D01*
G01X59055Y50672D01*
G01X59019Y50708D01*
G01X58985Y50745D01*
G01X58952Y50784D01*
G01X58921Y50824D01*
G01X58891Y50865D01*
G01X58863Y50907D01*
G01X58837Y50950D01*
G01X58813Y50995D01*
G01X58790Y51040D01*
G01X58770Y51086D01*
G01X58751Y51133D01*
G01X58734Y51181D01*
G01X58719Y51229D01*
G01X58706Y51278D01*
G01X58694Y51327D01*
G01X58685Y51377D01*
G01X58678Y51427D01*
G01X58673Y51477D01*
G01X58670Y51528D01*
G01X58669Y51578D01*
G01X58669Y52578D01*
G01X58670Y52630D01*
G01X58673Y52681D01*
G01X58678Y52732D01*
G01X58686Y52783D01*
G01X58695Y52833D01*
G01X58707Y52883D01*
G01X58720Y52933D01*
G01X58736Y52982D01*
G01X58753Y53030D01*
G01X58772Y53078D01*
G01X58794Y53124D01*
G01X58817Y53170D01*
G01X58842Y53215D01*
G01X58869Y53259D01*
G01X58898Y53301D01*
G01X58928Y53343D01*
G01X58960Y53383D01*
G01X58994Y53421D01*
G01X59029Y53459D01*
G01X59066Y53495D01*
G01X59104Y53529D01*
G01X59143Y53562D01*
G01X59154Y53572D01*
G01X59164Y53584D01*
G01X59172Y53597D01*
G01X59177Y53611D01*
G01X59180Y53626D01*
G01X59182Y53641D01*
G01X59181Y53656D01*
G01X59178Y53670D01*
G01X59172Y53684D01*
G01X59165Y53696D01*
G01X59157Y53708D01*
G01X59147Y53718D01*
G01X59135Y53727D01*
G01X59122Y53734D01*
G01X59109Y53739D01*
G01X59094Y53742D01*
G01X59080Y53743D01*
G37*

%LPC*%
G36*
G01X76151Y40701D02*
G01X76118Y40702D01*
G01X76082Y40701D01*
G01X76047Y40697D01*
G01X76011Y40692D01*
G01X75977Y40684D01*
G01X75943Y40674D01*
G01X75909Y40662D01*
G01X75877Y40648D01*
G01X75845Y40631D01*
G01X75815Y40613D01*
G01X75802Y40606D01*
G01X75788Y40601D01*
G01X75774Y40598D01*
G01X75760Y40597D01*
G01X65323Y40597D01*
G01X65290Y40596D01*
G01X65258Y40592D01*
G01X65225Y40587D01*
G01X65194Y40579D01*
G01X65163Y40568D01*
G01X65133Y40556D01*
G01X65104Y40541D01*
G01X65076Y40525D01*
G01X65049Y40506D01*
G01X65024Y40486D01*
G01X65000Y40463D01*
G01X61076Y36540D01*
G01X61064Y36530D01*
G01X61051Y36521D01*
G01X61036Y36515D01*
G01X61021Y36512D01*
G01X61005Y36510D01*
G01X60990Y36511D01*
G01X60976Y36514D01*
G01X60962Y36520D01*
G01X60950Y36526D01*
G01X60938Y36535D01*
G01X60928Y36545D01*
G01X60919Y36557D01*
G01X60912Y36570D01*
G01X60907Y36583D01*
G01X60904Y36597D01*
G01X60903Y36612D01*
G01X60903Y38826D01*
G01X60905Y38843D01*
G01X60909Y38860D01*
G01X60917Y38876D01*
G01X60927Y38891D01*
G01X60949Y38919D01*
G01X60969Y38948D01*
G01X60987Y38979D01*
G01X61003Y39010D01*
G01X61018Y39043D01*
G01X61030Y39077D01*
G01X61040Y39111D01*
G01X61048Y39145D01*
G01X61053Y39180D01*
G01X61057Y39216D01*
G01X61058Y39251D01*
G01X61057Y39285D01*
G01X61054Y39319D01*
G01X61049Y39353D01*
G01X61042Y39386D01*
G01X61032Y39418D01*
G01X61021Y39451D01*
G01X61008Y39482D01*
G01X60994Y39512D01*
G01X60977Y39542D01*
G01X60958Y39570D01*
G01X60938Y39598D01*
G01X60917Y39624D01*
G01X60869Y39672D01*
G01X60843Y39693D01*
G01X60815Y39713D01*
G01X60787Y39732D01*
G01X60757Y39749D01*
G01X60727Y39763D01*
G01X60696Y39776D01*
G01X60664Y39787D01*
G01X60631Y39797D01*
G01X60598Y39804D01*
G01X60564Y39809D01*
G01X60530Y39812D01*
G01X60497Y39813D01*
G01X60463Y39812D01*
G01X60429Y39809D01*
G01X60395Y39804D01*
G01X60362Y39797D01*
G01X60330Y39787D01*
G01X60297Y39776D01*
G01X60266Y39763D01*
G01X60236Y39749D01*
G01X60206Y39732D01*
G01X60178Y39713D01*
G01X60150Y39693D01*
G01X60124Y39672D01*
G01X60076Y39624D01*
G01X60055Y39598D01*
G01X60035Y39570D01*
G01X60016Y39542D01*
G01X59999Y39512D01*
G01X59985Y39482D01*
G01X59972Y39451D01*
G01X59961Y39418D01*
G01X59951Y39386D01*
G01X59944Y39353D01*
G01X59939Y39319D01*
G01X59936Y39285D01*
G01X59935Y39251D01*
G01X59936Y39216D01*
G01X59940Y39180D01*
G01X59945Y39145D01*
G01X59953Y39111D01*
G01X59963Y39077D01*
G01X59975Y39043D01*
G01X59990Y39010D01*
G01X60006Y38979D01*
G01X60024Y38948D01*
G01X60044Y38919D01*
G01X60066Y38891D01*
G01X60076Y38876D01*
G01X60084Y38860D01*
G01X60088Y38843D01*
G01X60090Y38826D01*
G01X60090Y36902D01*
G01X60089Y36888D01*
G01X60086Y36874D01*
G01X60081Y36860D01*
G01X60074Y36847D01*
G01X60065Y36836D01*
G01X60055Y36826D01*
G01X60043Y36817D01*
G01X60031Y36810D01*
G01X60017Y36805D01*
G01X60003Y36802D01*
G01X59988Y36801D01*
G01X59974Y36802D01*
G01X59960Y36805D01*
G01X59946Y36810D01*
G01X59934Y36817D01*
G01X59922Y36825D01*
G01X59912Y36836D01*
G01X59903Y36847D01*
G01X59896Y36860D01*
G01X59891Y36873D01*
G01X59880Y36906D01*
G01X59867Y36939D01*
G01X59851Y36971D01*
G01X59834Y37001D01*
G01X59815Y37031D01*
G01X59794Y37059D01*
G01X59772Y37086D01*
G01X59747Y37112D01*
G01X59721Y37135D01*
G01X59694Y37158D01*
G01X59665Y37178D01*
G01X59636Y37197D01*
G01X59605Y37213D01*
G01X59573Y37228D01*
G01X59540Y37241D01*
G01X59506Y37252D01*
G01X59472Y37260D01*
G01X59438Y37266D01*
G01X59403Y37271D01*
G01X59385Y37274D01*
G01X59369Y37280D01*
G01X59353Y37289D01*
G01X59340Y37300D01*
G01X59282Y37358D01*
G01X59271Y37370D01*
G01X59263Y37384D01*
G01X59257Y37399D01*
G01X59253Y37414D01*
G01X59252Y37430D01*
G01X59252Y39080D01*
G01X59254Y39097D01*
G01X59258Y39114D01*
G01X59266Y39130D01*
G01X59276Y39145D01*
G01X59298Y39173D01*
G01X59318Y39202D01*
G01X59336Y39233D01*
G01X59352Y39264D01*
G01X59367Y39297D01*
G01X59379Y39331D01*
G01X59389Y39365D01*
G01X59397Y39399D01*
G01X59402Y39434D01*
G01X59406Y39470D01*
G01X59407Y39505D01*
G01X59406Y39539D01*
G01X59403Y39573D01*
G01X59398Y39607D01*
G01X59391Y39640D01*
G01X59381Y39672D01*
G01X59370Y39705D01*
G01X59357Y39736D01*
G01X59343Y39766D01*
G01X59326Y39796D01*
G01X59307Y39824D01*
G01X59287Y39852D01*
G01X59266Y39878D01*
G01X59218Y39926D01*
G01X59192Y39947D01*
G01X59164Y39967D01*
G01X59136Y39986D01*
G01X59106Y40003D01*
G01X59076Y40017D01*
G01X59045Y40030D01*
G01X59013Y40041D01*
G01X58980Y40051D01*
G01X58947Y40058D01*
G01X58913Y40063D01*
G01X58879Y40066D01*
G01X58846Y40067D01*
G01X58811Y40066D01*
G01X58776Y40063D01*
G01X58742Y40057D01*
G01X58708Y40050D01*
G01X58675Y40040D01*
G01X58642Y40029D01*
G01X58610Y40015D01*
G01X58579Y39999D01*
G01X58549Y39982D01*
G01X58520Y39963D01*
G01X58492Y39942D01*
G01X58479Y39933D01*
G01X58464Y39926D01*
G01X58448Y39921D01*
G01X58432Y39919D01*
G01X58430Y39903D01*
G01X58425Y39887D01*
G01X58418Y39872D01*
G01X58409Y39859D01*
G01X58388Y39831D01*
G01X58369Y39802D01*
G01X58352Y39772D01*
G01X58336Y39741D01*
G01X58322Y39709D01*
G01X58311Y39676D01*
G01X58301Y39643D01*
G01X58294Y39609D01*
G01X58288Y39575D01*
G01X58285Y39540D01*
G01X58284Y39505D01*
G01X58285Y39470D01*
G01X58289Y39434D01*
G01X58294Y39399D01*
G01X58302Y39365D01*
G01X58312Y39331D01*
G01X58324Y39297D01*
G01X58339Y39264D01*
G01X58355Y39233D01*
G01X58373Y39202D01*
G01X58393Y39173D01*
G01X58415Y39145D01*
G01X58425Y39130D01*
G01X58433Y39114D01*
G01X58437Y39097D01*
G01X58439Y39080D01*
G01X58439Y37219D01*
G01X58440Y37190D01*
G01X58443Y37162D01*
G01X58448Y37133D01*
G01X58455Y37105D01*
G01X58465Y37077D01*
G01X58476Y37051D01*
G01X58489Y37025D01*
G01X58503Y37000D01*
G01X58520Y36976D01*
G01X58538Y36953D01*
G01X58558Y36932D01*
G01X58765Y36725D01*
G01X58776Y36712D01*
G01X58785Y36696D01*
G01X58791Y36680D01*
G01X58794Y36662D01*
G01X58799Y36627D01*
G01X58805Y36593D01*
G01X58813Y36558D01*
G01X58824Y36525D01*
G01X58837Y36492D01*
G01X58852Y36460D01*
G01X58868Y36429D01*
G01X58887Y36399D01*
G01X58907Y36371D01*
G01X58930Y36343D01*
G01X58954Y36318D01*
G01X58979Y36293D01*
G01X59006Y36271D01*
G01X59034Y36250D01*
G01X59064Y36231D01*
G01X59095Y36213D01*
G01X59126Y36198D01*
G01X59159Y36185D01*
G01X59192Y36174D01*
G01X59206Y36169D01*
G01X59218Y36162D01*
G01X59230Y36153D01*
G01X59240Y36143D01*
G01X59249Y36131D01*
G01X59256Y36119D01*
G01X59261Y36105D01*
G01X59264Y36091D01*
G01X59265Y36076D01*
G01X59264Y36062D01*
G01X59261Y36048D01*
G01X59256Y36034D01*
G01X59249Y36022D01*
G01X59240Y36010D01*
G01X59230Y36000D01*
G01X59218Y35991D01*
G01X59206Y35984D01*
G01X59192Y35979D01*
G01X59160Y35968D01*
G01X59128Y35956D01*
G01X59097Y35941D01*
G01X59067Y35924D01*
G01X59038Y35906D01*
G01X59011Y35886D01*
G01X58984Y35864D01*
G01X58959Y35841D01*
G01X58936Y35816D01*
G01X58914Y35790D01*
G01X58893Y35763D01*
G01X58874Y35734D01*
G01X58842Y35674D01*
G01X58829Y35642D01*
G01X58818Y35610D01*
G01X58809Y35577D01*
G01X58802Y35544D01*
G01X58796Y35510D01*
G01X58793Y35476D01*
G01X58792Y35441D01*
G01X58793Y35408D01*
G01X58796Y35374D01*
G01X58801Y35340D01*
G01X58808Y35307D01*
G01X58818Y35275D01*
G01X58829Y35243D01*
G01X58842Y35211D01*
G01X58856Y35181D01*
G01X58873Y35151D01*
G01X58891Y35123D01*
G01X58911Y35096D01*
G01X58933Y35070D01*
G01X58956Y35045D01*
G01X58981Y35022D01*
G01X59007Y35000D01*
G01X59034Y34980D01*
G01X59063Y34961D01*
G01X59092Y34945D01*
G01X59123Y34930D01*
G01X59154Y34917D01*
G01X59186Y34906D01*
G01X59218Y34897D01*
G01X59252Y34889D01*
G01X59285Y34884D01*
G01X59319Y34881D01*
G01X59334Y34879D01*
G01X59349Y34875D01*
G01X59362Y34868D01*
G01X59375Y34860D01*
G01X59387Y34849D01*
G01X59396Y34837D01*
G01X59404Y34824D01*
G01X59409Y34810D01*
G01X59413Y34795D01*
G01X59414Y34780D01*
G01X59412Y34762D01*
G01X59407Y34721D01*
G01X59405Y34679D01*
G01X59405Y34111D01*
G01X59404Y34097D01*
G01X59401Y34083D01*
G01X59396Y34069D01*
G01X59389Y34056D01*
G01X59380Y34045D01*
G01X59370Y34035D01*
G01X59358Y34026D01*
G01X59346Y34019D01*
G01X59332Y34014D01*
G01X59318Y34011D01*
G01X59303Y34010D01*
G01X59284Y34012D01*
G01X59261Y34015D01*
G01X59237Y34016D01*
G01X57987Y34016D01*
G01X57963Y34015D01*
G01X57939Y34012D01*
G01X57916Y34006D01*
G01X57894Y33999D01*
G01X57872Y33989D01*
G01X57851Y33977D01*
G01X57832Y33964D01*
G01X57813Y33949D01*
G01X57797Y33932D01*
G01X57782Y33913D01*
G01X57768Y33894D01*
G01X57757Y33873D01*
G01X57748Y33859D01*
G01X57738Y33846D01*
G01X57726Y33836D01*
G01X57712Y33827D01*
G01X57697Y33821D01*
G01X57682Y33817D01*
G01X57666Y33816D01*
G01X57195Y33816D01*
G01X57166Y33815D01*
G01X57137Y33812D01*
G01X57108Y33807D01*
G01X57080Y33800D01*
G01X57053Y33790D01*
G01X57026Y33779D01*
G01X57000Y33766D01*
G01X56975Y33752D01*
G01X56951Y33735D01*
G01X56939Y33727D01*
G01X56926Y33721D01*
G01X56912Y33717D01*
G01X56898Y33715D01*
G01X56863Y33711D01*
G01X56829Y33706D01*
G01X56795Y33698D01*
G01X56761Y33687D01*
G01X56729Y33675D01*
G01X56697Y33661D01*
G01X56666Y33645D01*
G01X56636Y33627D01*
G01X56607Y33607D01*
G01X56579Y33585D01*
G01X56553Y33562D01*
G01X56529Y33537D01*
G01X56506Y33511D01*
G01X56485Y33483D01*
G01X56465Y33454D01*
G01X56447Y33424D01*
G01X56432Y33393D01*
G01X56418Y33360D01*
G01X56406Y33328D01*
G01X56397Y33294D01*
G01X56389Y33260D01*
G01X56384Y33225D01*
G01X56380Y33190D01*
G01X56379Y33155D01*
G01X56380Y33122D01*
G01X56383Y33088D01*
G01X56388Y33054D01*
G01X56395Y33021D01*
G01X56405Y32988D01*
G01X56416Y32956D01*
G01X56429Y32925D01*
G01X56443Y32895D01*
G01X56460Y32865D01*
G01X56479Y32837D01*
G01X56499Y32809D01*
G01X56520Y32783D01*
G01X56568Y32735D01*
G01X56594Y32714D01*
G01X56622Y32694D01*
G01X56650Y32675D01*
G01X56680Y32658D01*
G01X56710Y32644D01*
G01X56741Y32631D01*
G01X56774Y32620D01*
G01X56806Y32610D01*
G01X56839Y32603D01*
G01X56873Y32598D01*
G01X56907Y32595D01*
G01X56941Y32594D01*
G01X56975Y32595D01*
G01X57010Y32598D01*
G01X57044Y32604D01*
G01X57078Y32611D01*
G01X57112Y32621D01*
G01X57144Y32633D01*
G01X57176Y32646D01*
G01X57208Y32662D01*
G01X57238Y32679D01*
G01X57267Y32699D01*
G01X57294Y32720D01*
G01X57320Y32742D01*
G01X57345Y32767D01*
G01X57369Y32792D01*
G01X57390Y32820D01*
G01X57410Y32848D01*
G01X57428Y32878D01*
G01X57445Y32909D01*
G01X57459Y32940D01*
G01X57466Y32954D01*
G01X57474Y32966D01*
G01X57485Y32977D01*
G01X57496Y32986D01*
G01X57509Y32993D01*
G01X57523Y32999D01*
G01X57538Y33002D01*
G01X57553Y33003D01*
G01X57666Y33003D01*
G01X57682Y33002D01*
G01X57697Y32998D01*
G01X57712Y32992D01*
G01X57726Y32983D01*
G01X57738Y32972D01*
G01X57748Y32960D01*
G01X57757Y32946D01*
G01X57768Y32925D01*
G01X57782Y32906D01*
G01X57797Y32887D01*
G01X57813Y32870D01*
G01X57832Y32855D01*
G01X57851Y32842D01*
G01X57872Y32830D01*
G01X57894Y32820D01*
G01X57916Y32813D01*
G01X57939Y32807D01*
G01X57963Y32804D01*
G01X57987Y32803D01*
G01X59237Y32803D01*
G01X59261Y32804D01*
G01X59285Y32808D01*
G01X59309Y32813D01*
G01X59332Y32821D01*
G01X59354Y32831D01*
G01X59375Y32844D01*
G01X59395Y32858D01*
G01X59414Y32874D01*
G01X59430Y32891D01*
G01X59446Y32910D01*
G01X59456Y32923D01*
G01X59468Y32933D01*
G01X59482Y32942D01*
G01X59497Y32948D01*
G01X59512Y32952D01*
G01X59528Y32953D01*
G01X59862Y32953D01*
G01X59892Y32954D01*
G01X59923Y32957D01*
G01X59954Y32962D01*
G01X59984Y32970D01*
G01X60013Y32979D01*
G01X60042Y32990D01*
G01X60070Y33003D01*
G01X60097Y33018D01*
G01X60113Y33026D01*
G01X60131Y33031D01*
G01X60149Y33033D01*
G01X60164Y33032D01*
G01X60178Y33029D01*
G01X60192Y33024D01*
G01X60204Y33017D01*
G01X60216Y33008D01*
G01X60226Y32998D01*
G01X60235Y32986D01*
G01X60242Y32974D01*
G01X60247Y32960D01*
G01X60250Y32946D01*
G01X60251Y32931D01*
G01X60249Y32914D01*
G01X60245Y32897D01*
G01X60236Y32868D01*
G01X60231Y32839D01*
G01X60230Y32810D01*
G01X60230Y32110D01*
G01X60231Y32086D01*
G01X60234Y32063D01*
G01X60239Y32040D01*
G01X60247Y32018D01*
G01X60256Y31996D01*
G01X60267Y31976D01*
G01X60280Y31956D01*
G01X60295Y31938D01*
G01X60312Y31921D01*
G01X60330Y31906D01*
G01X60349Y31893D01*
G01X60369Y31881D01*
G01X60390Y31872D01*
G01X60413Y31864D01*
G01X60435Y31858D01*
G01X60450Y31854D01*
G01X60464Y31847D01*
G01X60477Y31839D01*
G01X60489Y31829D01*
G01X60498Y31817D01*
G01X60506Y31803D01*
G01X60512Y31789D01*
G01X60516Y31774D01*
G01X60517Y31758D01*
G01X60516Y31743D01*
G01X60512Y31728D01*
G01X60506Y31714D01*
G01X60498Y31700D01*
G01X60489Y31688D01*
G01X60477Y31678D01*
G01X60464Y31670D01*
G01X60450Y31663D01*
G01X60435Y31659D01*
G01X60413Y31653D01*
G01X60390Y31645D01*
G01X60369Y31636D01*
G01X60349Y31624D01*
G01X60330Y31611D01*
G01X60312Y31595D01*
G01X60295Y31579D01*
G01X60280Y31561D01*
G01X60267Y31541D01*
G01X60256Y31521D01*
G01X60247Y31499D01*
G01X60239Y31477D01*
G01X60234Y31454D01*
G01X60231Y31431D01*
G01X60230Y31407D01*
G01X60230Y30707D01*
G01X60231Y30684D01*
G01X60234Y30660D01*
G01X60239Y30637D01*
G01X60247Y30615D01*
G01X60257Y30593D01*
G01X60268Y30572D01*
G01X60281Y30553D01*
G01X60297Y30535D01*
G01X60313Y30518D01*
G01X60332Y30503D01*
G01X60351Y30489D01*
G01X60372Y30478D01*
G01X60394Y30468D01*
G01X60416Y30461D01*
G01X60439Y30455D01*
G01X60463Y30452D01*
G01X60486Y30451D01*
G01X61030Y30451D01*
G01X61046Y30450D01*
G01X61061Y30446D01*
G01X61076Y30440D01*
G01X61090Y30431D01*
G01X61102Y30421D01*
G01X61307Y30216D01*
G01X61330Y30194D01*
G01X61356Y30174D01*
G01X61383Y30155D01*
G01X61411Y30139D01*
G01X61440Y30124D01*
G01X61470Y30112D01*
G01X61501Y30101D01*
G01X61532Y30093D01*
G01X61564Y30087D01*
G01X61597Y30084D01*
G01X61629Y30083D01*
G01X62236Y30083D01*
G01X62251Y30082D01*
G01X62265Y30079D01*
G01X62279Y30074D01*
G01X62291Y30067D01*
G01X62303Y30058D01*
G01X62313Y30048D01*
G01X62322Y30036D01*
G01X62329Y30023D01*
G01X62334Y30010D01*
G01X62337Y29996D01*
G01X62338Y29981D01*
G01X62338Y29940D01*
G01X62339Y29915D01*
G01X62343Y29891D01*
G01X62348Y29868D01*
G01X62356Y29845D01*
G01X62366Y29823D01*
G01X62378Y29802D01*
G01X62392Y29782D01*
G01X62408Y29764D01*
G01X62425Y29747D01*
G01X62444Y29732D01*
G01X62456Y29722D01*
G01X62466Y29709D01*
G01X62475Y29696D01*
G01X62481Y29681D01*
G01X62485Y29666D01*
G01X62486Y29650D01*
G01X62485Y29635D01*
G01X62482Y29621D01*
G01X62477Y29607D01*
G01X62470Y29595D01*
G01X62461Y29583D01*
G01X62451Y29573D01*
G01X62439Y29564D01*
G01X62427Y29557D01*
G01X62413Y29552D01*
G01X62399Y29549D01*
G01X62384Y29548D01*
G01X62065Y29548D01*
G01X62050Y29549D01*
G01X62036Y29552D01*
G01X62022Y29558D01*
G01X62009Y29565D01*
G01X61997Y29574D01*
G01X61987Y29584D01*
G01X61978Y29596D01*
G01X61972Y29609D01*
G01X61962Y29630D01*
G01X61950Y29650D01*
G01X61936Y29668D01*
G01X61921Y29685D01*
G01X61904Y29701D01*
G01X61887Y29715D01*
G01X61867Y29728D01*
G01X61847Y29739D01*
G01X61826Y29748D01*
G01X61804Y29755D01*
G01X61782Y29760D01*
G01X61759Y29763D01*
G01X61736Y29764D01*
G01X60486Y29764D01*
G01X60463Y29763D01*
G01X60439Y29760D01*
G01X60416Y29754D01*
G01X60394Y29747D01*
G01X60372Y29737D01*
G01X60351Y29726D01*
G01X60332Y29712D01*
G01X60313Y29697D01*
G01X60297Y29680D01*
G01X60281Y29662D01*
G01X60268Y29643D01*
G01X60257Y29622D01*
G01X60247Y29600D01*
G01X60239Y29578D01*
G01X60234Y29555D01*
G01X60231Y29531D01*
G01X60230Y29508D01*
G01X60230Y28808D01*
G01X60231Y28784D01*
G01X60234Y28760D01*
G01X60239Y28737D01*
G01X60247Y28715D01*
G01X60257Y28693D01*
G01X60268Y28672D01*
G01X60281Y28653D01*
G01X60297Y28635D01*
G01X60313Y28618D01*
G01X60332Y28603D01*
G01X60351Y28589D01*
G01X60372Y28578D01*
G01X60394Y28568D01*
G01X60416Y28561D01*
G01X60439Y28555D01*
G01X60463Y28552D01*
G01X60486Y28551D01*
G01X61736Y28551D01*
G01X61762Y28552D01*
G01X61787Y28556D01*
G01X61812Y28562D01*
G01X61836Y28571D01*
G01X61859Y28582D01*
G01X61881Y28596D01*
G01X61901Y28611D01*
G01X61916Y28621D01*
G01X61932Y28629D01*
G01X61949Y28633D01*
G01X61967Y28635D01*
G01X65323Y28635D01*
G01X65355Y28636D01*
G01X65387Y28640D01*
G01X65420Y28645D01*
G01X65451Y28653D01*
G01X65482Y28664D01*
G01X65512Y28676D01*
G01X65541Y28691D01*
G01X65569Y28707D01*
G01X65596Y28726D01*
G01X65621Y28746D01*
G01X65645Y28769D01*
G01X66530Y29653D01*
G01X66542Y29663D01*
G01X66556Y29672D01*
G01X66570Y29678D01*
G01X66586Y29682D01*
G01X66602Y29683D01*
G01X67543Y29683D01*
G01X67566Y29684D01*
G01X67590Y29687D01*
G01X67613Y29693D01*
G01X67635Y29700D01*
G01X67657Y29710D01*
G01X67678Y29721D01*
G01X67697Y29735D01*
G01X67715Y29750D01*
G01X67732Y29767D01*
G01X67747Y29785D01*
G01X67761Y29804D01*
G01X67772Y29825D01*
G01X67782Y29847D01*
G01X67789Y29869D01*
G01X67795Y29892D01*
G01X67798Y29916D01*
G01X67799Y29939D01*
G01X67799Y30946D01*
G01X67800Y30961D01*
G01X67803Y30975D01*
G01X67808Y30989D01*
G01X67815Y31001D01*
G01X67824Y31013D01*
G01X67834Y31023D01*
G01X67846Y31032D01*
G01X67858Y31039D01*
G01X67872Y31044D01*
G01X67886Y31047D01*
G01X67901Y31048D01*
G01X72712Y31048D01*
G01X72726Y31047D01*
G01X72740Y31044D01*
G01X72754Y31039D01*
G01X72767Y31032D01*
G01X72797Y31014D01*
G01X72829Y30997D01*
G01X72861Y30983D01*
G01X72895Y30971D01*
G01X72929Y30961D01*
G01X72963Y30953D01*
G01X72999Y30948D01*
G01X73034Y30944D01*
G01X73070Y30943D01*
G01X73103Y30944D01*
G01X73137Y30947D01*
G01X73171Y30952D01*
G01X73204Y30959D01*
G01X73237Y30969D01*
G01X73269Y30980D01*
G01X73300Y30993D01*
G01X73330Y31007D01*
G01X73360Y31024D01*
G01X73388Y31043D01*
G01X73416Y31063D01*
G01X73442Y31084D01*
G01X73490Y31132D01*
G01X73511Y31158D01*
G01X73531Y31186D01*
G01X73550Y31214D01*
G01X73567Y31244D01*
G01X73581Y31274D01*
G01X73594Y31305D01*
G01X73605Y31337D01*
G01X73615Y31370D01*
G01X73622Y31403D01*
G01X73627Y31437D01*
G01X73630Y31471D01*
G01X73631Y31504D01*
G01X73630Y31539D01*
G01X73627Y31573D01*
G01X73622Y31606D01*
G01X73614Y31640D01*
G01X73605Y31673D01*
G01X73594Y31705D01*
G01X73581Y31736D01*
G01X73566Y31767D01*
G01X73549Y31797D01*
G01X73530Y31825D01*
G01X73510Y31853D01*
G01X73488Y31879D01*
G01X73464Y31904D01*
G01X73439Y31927D01*
G01X73413Y31948D01*
G01X73385Y31969D01*
G01X73357Y31987D01*
G01X73327Y32003D01*
G01X73296Y32018D01*
G01X73283Y32025D01*
G01X73271Y32034D01*
G01X73261Y32044D01*
G01X73252Y32056D01*
G01X73245Y32068D01*
G01X73240Y32082D01*
G01X73236Y32096D01*
G01X73235Y32111D01*
G01X73237Y32128D01*
G01X73241Y32144D01*
G01X73248Y32160D01*
G01X73257Y32174D01*
G01X73277Y32201D01*
G01X73296Y32230D01*
G01X73312Y32259D01*
G01X73327Y32290D01*
G01X73340Y32321D01*
G01X73351Y32353D01*
G01X73360Y32386D01*
G01X73368Y32419D01*
G01X73373Y32453D01*
G01X73376Y32487D01*
G01X73377Y32520D01*
G01X73376Y32554D01*
G01X73373Y32588D01*
G01X73368Y32622D01*
G01X73361Y32655D01*
G01X73351Y32687D01*
G01X73340Y32720D01*
G01X73327Y32751D01*
G01X73313Y32781D01*
G01X73296Y32811D01*
G01X73277Y32839D01*
G01X73257Y32867D01*
G01X73236Y32893D01*
G01X73188Y32941D01*
G01X73162Y32962D01*
G01X73134Y32982D01*
G01X73106Y33001D01*
G01X73076Y33018D01*
G01X73046Y33032D01*
G01X73015Y33045D01*
G01X72983Y33056D01*
G01X72950Y33066D01*
G01X72917Y33073D01*
G01X72883Y33078D01*
G01X72849Y33081D01*
G01X72816Y33082D01*
G01X72780Y33081D01*
G01X72745Y33077D01*
G01X72709Y33072D01*
G01X72675Y33064D01*
G01X72641Y33054D01*
G01X72607Y33042D01*
G01X72575Y33028D01*
G01X72543Y33011D01*
G01X72513Y32993D01*
G01X72500Y32986D01*
G01X72486Y32981D01*
G01X72472Y32978D01*
G01X72458Y32977D01*
G01X67896Y32977D01*
G01X67881Y32978D01*
G01X67867Y32981D01*
G01X67853Y32986D01*
G01X67841Y32993D01*
G01X67829Y33002D01*
G01X67819Y33012D01*
G01X67810Y33024D01*
G01X67803Y33036D01*
G01X67798Y33050D01*
G01X67795Y33064D01*
G01X67794Y33079D01*
G01X67795Y33096D01*
G01X67799Y33139D01*
G01X67799Y34339D01*
G01X67798Y34363D01*
G01X67795Y34387D01*
G01X67789Y34410D01*
G01X67782Y34432D01*
G01X67772Y34454D01*
G01X67761Y34475D01*
G01X67747Y34494D01*
G01X67732Y34512D01*
G01X67715Y34529D01*
G01X67697Y34544D01*
G01X67678Y34558D01*
G01X67657Y34569D01*
G01X67635Y34579D01*
G01X67613Y34586D01*
G01X67590Y34592D01*
G01X67566Y34595D01*
G01X67543Y34596D01*
G01X66424Y34596D01*
G01X66408Y34597D01*
G01X66393Y34601D01*
G01X66378Y34607D01*
G01X66364Y34615D01*
G01X66352Y34626D01*
G01X65468Y35510D01*
G01X65444Y35533D01*
G01X65418Y35553D01*
G01X65392Y35572D01*
G01X65364Y35588D01*
G01X65334Y35603D01*
G01X65304Y35615D01*
G01X65273Y35626D01*
G01X65242Y35634D01*
G01X65210Y35639D01*
G01X65177Y35643D01*
G01X65145Y35644D01*
G01X62402Y35644D01*
G01X62369Y35643D01*
G01X62337Y35639D01*
G01X62304Y35634D01*
G01X62273Y35626D01*
G01X62242Y35615D01*
G01X62212Y35603D01*
G01X62183Y35588D01*
G01X62155Y35572D01*
G01X62128Y35553D01*
G01X62103Y35533D01*
G01X62079Y35510D01*
G01X61564Y34996D01*
G01X61552Y34985D01*
G01X61538Y34977D01*
G01X61524Y34971D01*
G01X61508Y34967D01*
G01X61492Y34966D01*
G01X61039Y34966D01*
G01X61024Y34967D01*
G01X61010Y34970D01*
G01X60997Y34975D01*
G01X60984Y34982D01*
G01X60972Y34991D01*
G01X60962Y35001D01*
G01X60953Y35013D01*
G01X60947Y35025D01*
G01X60941Y35039D01*
G01X60938Y35053D01*
G01X60937Y35068D01*
G01X60939Y35084D01*
G01X60942Y35099D01*
G01X60948Y35114D01*
G01X60957Y35127D01*
G01X60967Y35139D01*
G01X65482Y39654D01*
G01X65494Y39665D01*
G01X65508Y39673D01*
G01X65522Y39679D01*
G01X65538Y39683D01*
G01X65554Y39684D01*
G01X75760Y39684D01*
G01X75774Y39683D01*
G01X75788Y39680D01*
G01X75802Y39675D01*
G01X75815Y39668D01*
G01X75845Y39650D01*
G01X75877Y39633D01*
G01X75909Y39619D01*
G01X75943Y39607D01*
G01X75977Y39597D01*
G01X76011Y39589D01*
G01X76047Y39584D01*
G01X76082Y39580D01*
G01X76118Y39579D01*
G01X76151Y39580D01*
G01X76185Y39583D01*
G01X76219Y39588D01*
G01X76252Y39595D01*
G01X76285Y39605D01*
G01X76317Y39616D01*
G01X76348Y39629D01*
G01X76378Y39643D01*
G01X76408Y39660D01*
G01X76436Y39679D01*
G01X76464Y39699D01*
G01X76490Y39720D01*
G01X76538Y39768D01*
G01X76559Y39794D01*
G01X76579Y39822D01*
G01X76598Y39850D01*
G01X76615Y39880D01*
G01X76629Y39910D01*
G01X76642Y39941D01*
G01X76653Y39973D01*
G01X76663Y40006D01*
G01X76670Y40039D01*
G01X76675Y40073D01*
G01X76678Y40107D01*
G01X76679Y40140D01*
G01X76678Y40174D01*
G01X76675Y40208D01*
G01X76670Y40242D01*
G01X76663Y40275D01*
G01X76653Y40307D01*
G01X76642Y40340D01*
G01X76629Y40371D01*
G01X76615Y40401D01*
G01X76598Y40431D01*
G01X76579Y40459D01*
G01X76559Y40487D01*
G01X76538Y40513D01*
G01X76490Y40561D01*
G01X76464Y40582D01*
G01X76436Y40602D01*
G01X76408Y40621D01*
G01X76378Y40638D01*
G01X76348Y40652D01*
G01X76317Y40665D01*
G01X76285Y40676D01*
G01X76252Y40686D01*
G01X76219Y40693D01*
G01X76185Y40698D01*
G01X76151Y40701D01*
G37*
G36*
G01X70817Y38796D02*
G01X70784Y38797D01*
G01X70750Y38796D01*
G01X70716Y38793D01*
G01X70682Y38788D01*
G01X70649Y38781D01*
G01X70617Y38771D01*
G01X70584Y38760D01*
G01X70553Y38747D01*
G01X70523Y38733D01*
G01X70493Y38716D01*
G01X70465Y38697D01*
G01X70437Y38677D01*
G01X70411Y38656D01*
G01X70363Y38608D01*
G01X70342Y38582D01*
G01X70322Y38554D01*
G01X70303Y38526D01*
G01X70286Y38496D01*
G01X70272Y38466D01*
G01X70259Y38435D01*
G01X70248Y38402D01*
G01X70238Y38370D01*
G01X70231Y38337D01*
G01X70226Y38303D01*
G01X70223Y38269D01*
G01X70222Y38235D01*
G01X70223Y38202D01*
G01X70226Y38168D01*
G01X70231Y38134D01*
G01X70238Y38101D01*
G01X70248Y38069D01*
G01X70259Y38037D01*
G01X70272Y38005D01*
G01X70286Y37975D01*
G01X70303Y37945D01*
G01X70321Y37917D01*
G01X70342Y37889D01*
G01X70363Y37863D01*
G01X70386Y37839D01*
G01X70411Y37815D01*
G01X70437Y37794D01*
G01X70446Y37786D01*
G01X71025Y37207D01*
G01X71049Y37184D01*
G01X71075Y37162D01*
G01X71102Y37142D01*
G01X71131Y37124D01*
G01X71160Y37108D01*
G01X71190Y37093D01*
G01X71221Y37080D01*
G01X71253Y37069D01*
G01X71285Y37060D01*
G01X71318Y37053D01*
G01X71351Y37048D01*
G01X71385Y37045D01*
G01X71419Y37044D01*
G01X74697Y37044D01*
G01X74712Y37043D01*
G01X74726Y37040D01*
G01X74740Y37035D01*
G01X74752Y37028D01*
G01X74764Y37019D01*
G01X74774Y37009D01*
G01X74783Y36997D01*
G01X74790Y36985D01*
G01X74795Y36971D01*
G01X74798Y36957D01*
G01X74799Y36942D01*
G01X74799Y30380D01*
G01X74798Y30364D01*
G01X74794Y30349D01*
G01X74788Y30334D01*
G01X74780Y30320D01*
G01X74769Y30308D01*
G01X68866Y24405D01*
G01X68843Y24381D01*
G01X68821Y24355D01*
G01X68801Y24328D01*
G01X68783Y24299D01*
G01X68767Y24270D01*
G01X68752Y24240D01*
G01X68739Y24209D01*
G01X68728Y24177D01*
G01X68719Y24145D01*
G01X68712Y24112D01*
G01X68707Y24079D01*
G01X68704Y24045D01*
G01X68703Y24011D01*
G01X68703Y22313D01*
G01X68702Y22301D01*
G01X68699Y22267D01*
G01X68698Y22233D01*
G01X68699Y22200D01*
G01X68702Y22166D01*
G01X68707Y22132D01*
G01X68714Y22099D01*
G01X68724Y22066D01*
G01X68735Y22034D01*
G01X68748Y22003D01*
G01X68762Y21973D01*
G01X68779Y21943D01*
G01X68798Y21915D01*
G01X68818Y21887D01*
G01X68839Y21861D01*
G01X68887Y21813D01*
G01X68913Y21792D01*
G01X68941Y21772D01*
G01X68969Y21753D01*
G01X68999Y21736D01*
G01X69029Y21722D01*
G01X69060Y21709D01*
G01X69093Y21698D01*
G01X69125Y21688D01*
G01X69158Y21681D01*
G01X69192Y21676D01*
G01X69226Y21673D01*
G01X69260Y21672D01*
G01X69293Y21673D01*
G01X69327Y21676D01*
G01X69361Y21681D01*
G01X69394Y21688D01*
G01X69427Y21698D01*
G01X69459Y21709D01*
G01X69490Y21722D01*
G01X69520Y21736D01*
G01X69550Y21753D01*
G01X69578Y21772D01*
G01X69606Y21792D01*
G01X69632Y21813D01*
G01X69680Y21861D01*
G01X69701Y21887D01*
G01X69721Y21915D01*
G01X69740Y21943D01*
G01X69757Y21973D01*
G01X69771Y22003D01*
G01X69784Y22034D01*
G01X69795Y22066D01*
G01X69805Y22099D01*
G01X69812Y22132D01*
G01X69817Y22166D01*
G01X69820Y22200D01*
G01X69821Y22233D01*
G01X69820Y22267D01*
G01X69817Y22301D01*
G01X69816Y22313D01*
G01X69816Y23739D01*
G01X69817Y23755D01*
G01X69821Y23770D01*
G01X69827Y23785D01*
G01X69835Y23799D01*
G01X69846Y23811D01*
G01X75749Y29714D01*
G01X75772Y29738D01*
G01X75794Y29764D01*
G01X75814Y29791D01*
G01X75832Y29820D01*
G01X75848Y29849D01*
G01X75863Y29879D01*
G01X75876Y29910D01*
G01X75887Y29942D01*
G01X75896Y29974D01*
G01X75903Y30007D01*
G01X75908Y30040D01*
G01X75911Y30074D01*
G01X75912Y30107D01*
G01X75912Y37521D01*
G01X75913Y37533D01*
G01X75916Y37567D01*
G01X75917Y37600D01*
G01X75916Y37634D01*
G01X75913Y37668D01*
G01X75908Y37702D01*
G01X75901Y37735D01*
G01X75891Y37767D01*
G01X75880Y37800D01*
G01X75867Y37831D01*
G01X75853Y37861D01*
G01X75836Y37891D01*
G01X75817Y37919D01*
G01X75797Y37947D01*
G01X75776Y37973D01*
G01X75728Y38021D01*
G01X75702Y38042D01*
G01X75674Y38062D01*
G01X75646Y38081D01*
G01X75616Y38098D01*
G01X75586Y38112D01*
G01X75555Y38125D01*
G01X75523Y38136D01*
G01X75490Y38146D01*
G01X75457Y38153D01*
G01X75423Y38158D01*
G01X75389Y38161D01*
G01X75356Y38162D01*
G01X75322Y38161D01*
G01X75288Y38158D01*
G01X75276Y38157D01*
G01X71691Y38157D01*
G01X71675Y38158D01*
G01X71660Y38162D01*
G01X71645Y38168D01*
G01X71631Y38176D01*
G01X71619Y38187D01*
G01X71233Y38573D01*
G01X71225Y38582D01*
G01X71204Y38608D01*
G01X71180Y38633D01*
G01X71156Y38656D01*
G01X71130Y38677D01*
G01X71102Y38698D01*
G01X71074Y38716D01*
G01X71044Y38733D01*
G01X71014Y38747D01*
G01X70982Y38760D01*
G01X70950Y38771D01*
G01X70918Y38781D01*
G01X70885Y38788D01*
G01X70851Y38793D01*
G01X70817Y38796D01*
G37*
G36*
G01X84007Y23009D02*
G01X82708Y23009D01*
G01X82667Y23008D01*
G01X82626Y23005D01*
G01X82586Y23000D01*
G01X82546Y22993D01*
G01X82506Y22983D01*
G01X82467Y22972D01*
G01X82428Y22959D01*
G01X82390Y22944D01*
G01X82353Y22927D01*
G01X82317Y22908D01*
G01X82281Y22887D01*
G01X82247Y22865D01*
G01X82214Y22840D01*
G01X82183Y22815D01*
G01X82152Y22787D01*
G01X82123Y22758D01*
G01X82096Y22728D01*
G01X82070Y22696D01*
G01X82046Y22663D01*
G01X82024Y22629D01*
G01X82003Y22594D01*
G01X81984Y22558D01*
G01X81967Y22521D01*
G01X81952Y22483D01*
G01X81938Y22444D01*
G01X81927Y22405D01*
G01X81918Y22365D01*
G01X81911Y22325D01*
G01X81906Y22284D01*
G01X81903Y22244D01*
G01X81901Y22203D01*
G01X81903Y22162D01*
G01X81906Y22121D01*
G01X81911Y22081D01*
G01X81918Y22040D01*
G01X81927Y22001D01*
G01X81938Y21961D01*
G01X81952Y21923D01*
G01X81967Y21885D01*
G01X81984Y21847D01*
G01X82003Y21811D01*
G01X82024Y21776D01*
G01X82046Y21742D01*
G01X82070Y21709D01*
G01X82096Y21677D01*
G01X82123Y21647D01*
G01X82152Y21618D01*
G01X82183Y21591D01*
G01X82214Y21565D01*
G01X82247Y21541D01*
G01X82281Y21518D01*
G01X82317Y21498D01*
G01X82353Y21479D01*
G01X82390Y21462D01*
G01X82428Y21446D01*
G01X82467Y21433D01*
G01X82506Y21422D01*
G01X82546Y21413D01*
G01X82586Y21405D01*
G01X82626Y21400D01*
G01X82667Y21397D01*
G01X82708Y21396D01*
G01X84007Y21396D01*
G01X84048Y21397D01*
G01X84088Y21400D01*
G01X84129Y21405D01*
G01X84169Y21413D01*
G01X84209Y21422D01*
G01X84248Y21433D01*
G01X84287Y21446D01*
G01X84325Y21462D01*
G01X84362Y21479D01*
G01X84398Y21498D01*
G01X84434Y21518D01*
G01X84468Y21541D01*
G01X84501Y21565D01*
G01X84532Y21591D01*
G01X84563Y21618D01*
G01X84591Y21647D01*
G01X84619Y21677D01*
G01X84645Y21709D01*
G01X84669Y21742D01*
G01X84691Y21776D01*
G01X84712Y21811D01*
G01X84731Y21847D01*
G01X84748Y21885D01*
G01X84763Y21923D01*
G01X84776Y21961D01*
G01X84788Y22001D01*
G01X84797Y22040D01*
G01X84804Y22081D01*
G01X84809Y22121D01*
G01X84812Y22162D01*
G01X84813Y22203D01*
G01X84812Y22244D01*
G01X84809Y22284D01*
G01X84804Y22325D01*
G01X84797Y22365D01*
G01X84788Y22405D01*
G01X84776Y22444D01*
G01X84763Y22483D01*
G01X84748Y22521D01*
G01X84731Y22558D01*
G01X84712Y22594D01*
G01X84691Y22629D01*
G01X84669Y22663D01*
G01X84645Y22696D01*
G01X84619Y22728D01*
G01X84591Y22758D01*
G01X84563Y22787D01*
G01X84532Y22815D01*
G01X84501Y22840D01*
G01X84468Y22865D01*
G01X84434Y22887D01*
G01X84398Y22908D01*
G01X84362Y22927D01*
G01X84325Y22944D01*
G01X84287Y22959D01*
G01X84248Y22972D01*
G01X84209Y22983D01*
G01X84169Y22993D01*
G01X84129Y23000D01*
G01X84088Y23005D01*
G01X84048Y23008D01*
G01X84007Y23009D01*
G37*
G36*
G01X84007Y28659D02*
G01X82708Y28659D01*
G01X82667Y28658D01*
G01X82626Y28655D01*
G01X82586Y28650D01*
G01X82546Y28643D01*
G01X82506Y28633D01*
G01X82466Y28622D01*
G01X82428Y28609D01*
G01X82390Y28594D01*
G01X82353Y28577D01*
G01X82316Y28558D01*
G01X82281Y28537D01*
G01X82247Y28515D01*
G01X82214Y28490D01*
G01X82183Y28465D01*
G01X82152Y28437D01*
G01X82123Y28408D01*
G01X82096Y28378D01*
G01X82070Y28346D01*
G01X82046Y28313D01*
G01X82023Y28279D01*
G01X82003Y28244D01*
G01X81984Y28208D01*
G01X81967Y28171D01*
G01X81952Y28133D01*
G01X81938Y28094D01*
G01X81927Y28055D01*
G01X81918Y28015D01*
G01X81911Y27975D01*
G01X81906Y27934D01*
G01X81902Y27893D01*
G01X81901Y27853D01*
G01X81902Y27812D01*
G01X81906Y27771D01*
G01X81911Y27730D01*
G01X81918Y27690D01*
G01X81927Y27650D01*
G01X81938Y27611D01*
G01X81952Y27572D01*
G01X81967Y27534D01*
G01X81984Y27497D01*
G01X82003Y27461D01*
G01X82023Y27426D01*
G01X82046Y27392D01*
G01X82070Y27359D01*
G01X82096Y27327D01*
G01X82123Y27297D01*
G01X82152Y27268D01*
G01X82183Y27241D01*
G01X82214Y27215D01*
G01X82247Y27191D01*
G01X82281Y27168D01*
G01X82316Y27147D01*
G01X82353Y27128D01*
G01X82390Y27111D01*
G01X82428Y27096D01*
G01X82466Y27083D01*
G01X82506Y27072D01*
G01X82546Y27063D01*
G01X82586Y27055D01*
G01X82626Y27050D01*
G01X82667Y27047D01*
G01X82708Y27046D01*
G01X84007Y27046D01*
G01X84048Y27047D01*
G01X84088Y27050D01*
G01X84129Y27055D01*
G01X84169Y27063D01*
G01X84209Y27072D01*
G01X84248Y27083D01*
G01X84287Y27096D01*
G01X84325Y27111D01*
G01X84362Y27128D01*
G01X84398Y27147D01*
G01X84433Y27168D01*
G01X84468Y27191D01*
G01X84500Y27215D01*
G01X84532Y27241D01*
G01X84562Y27268D01*
G01X84591Y27297D01*
G01X84619Y27327D01*
G01X84645Y27359D01*
G01X84669Y27392D01*
G01X84691Y27426D01*
G01X84712Y27461D01*
G01X84731Y27497D01*
G01X84748Y27534D01*
G01X84763Y27572D01*
G01X84776Y27611D01*
G01X84788Y27650D01*
G01X84797Y27690D01*
G01X84804Y27730D01*
G01X84809Y27771D01*
G01X84812Y27812D01*
G01X84813Y27853D01*
G01X84812Y27893D01*
G01X84809Y27934D01*
G01X84804Y27975D01*
G01X84797Y28015D01*
G01X84788Y28055D01*
G01X84776Y28094D01*
G01X84763Y28133D01*
G01X84748Y28171D01*
G01X84731Y28208D01*
G01X84712Y28244D01*
G01X84691Y28279D01*
G01X84669Y28313D01*
G01X84645Y28346D01*
G01X84619Y28378D01*
G01X84591Y28408D01*
G01X84562Y28437D01*
G01X84532Y28465D01*
G01X84468Y28515D01*
G01X84433Y28537D01*
G01X84398Y28558D01*
G01X84362Y28577D01*
G01X84325Y28594D01*
G01X84287Y28609D01*
G01X84248Y28622D01*
G01X84209Y28633D01*
G01X84169Y28643D01*
G01X84129Y28650D01*
G01X84088Y28655D01*
G01X84048Y28658D01*
G01X84007Y28659D01*
G37*
G36*
G01X46445Y53477D02*
G01X46400Y53478D01*
G01X46354Y53477D01*
G01X46308Y53474D01*
G01X46263Y53469D01*
G01X46218Y53462D01*
G01X46173Y53453D01*
G01X46129Y53441D01*
G01X46085Y53428D01*
G01X46042Y53413D01*
G01X45999Y53396D01*
G01X45958Y53377D01*
G01X45917Y53356D01*
G01X45877Y53334D01*
G01X45838Y53310D01*
G01X45801Y53284D01*
G01X45764Y53256D01*
G01X45729Y53227D01*
G01X45696Y53196D01*
G01X45663Y53163D01*
G01X45632Y53130D01*
G01X45603Y53095D01*
G01X45575Y53058D01*
G01X45549Y53021D01*
G01X45525Y52982D01*
G01X45503Y52942D01*
G01X45482Y52901D01*
G01X45463Y52860D01*
G01X45446Y52817D01*
G01X45431Y52774D01*
G01X45418Y52730D01*
G01X45406Y52686D01*
G01X45397Y52641D01*
G01X45390Y52596D01*
G01X45385Y52551D01*
G01X45382Y52505D01*
G01X45381Y52459D01*
G01X45382Y52414D01*
G01X45385Y52368D01*
G01X45390Y52323D01*
G01X45397Y52278D01*
G01X45406Y52233D01*
G01X45418Y52189D01*
G01X45431Y52145D01*
G01X45446Y52102D01*
G01X45463Y52059D01*
G01X45482Y52018D01*
G01X45503Y51977D01*
G01X45525Y51937D01*
G01X45549Y51898D01*
G01X45575Y51861D01*
G01X45603Y51824D01*
G01X45632Y51789D01*
G01X45663Y51756D01*
G01X45696Y51723D01*
G01X45729Y51692D01*
G01X45764Y51663D01*
G01X45801Y51635D01*
G01X45838Y51609D01*
G01X45877Y51585D01*
G01X45917Y51563D01*
G01X45958Y51542D01*
G01X45999Y51523D01*
G01X46042Y51506D01*
G01X46085Y51491D01*
G01X46129Y51478D01*
G01X46173Y51466D01*
G01X46218Y51457D01*
G01X46263Y51450D01*
G01X46308Y51445D01*
G01X46354Y51442D01*
G01X46400Y51441D01*
G01X46445Y51442D01*
G01X46491Y51445D01*
G01X46536Y51450D01*
G01X46581Y51457D01*
G01X46626Y51466D01*
G01X46670Y51478D01*
G01X46714Y51491D01*
G01X46757Y51506D01*
G01X46800Y51523D01*
G01X46841Y51542D01*
G01X46882Y51563D01*
G01X46922Y51585D01*
G01X46961Y51609D01*
G01X46998Y51635D01*
G01X47035Y51663D01*
G01X47070Y51692D01*
G01X47103Y51723D01*
G01X47136Y51756D01*
G01X47167Y51789D01*
G01X47196Y51824D01*
G01X47224Y51861D01*
G01X47250Y51898D01*
G01X47274Y51937D01*
G01X47296Y51977D01*
G01X47317Y52018D01*
G01X47336Y52059D01*
G01X47353Y52102D01*
G01X47368Y52145D01*
G01X47381Y52189D01*
G01X47393Y52233D01*
G01X47402Y52278D01*
G01X47409Y52323D01*
G01X47414Y52368D01*
G01X47417Y52414D01*
G01X47418Y52459D01*
G01X47417Y52505D01*
G01X47414Y52551D01*
G01X47409Y52596D01*
G01X47402Y52641D01*
G01X47393Y52686D01*
G01X47381Y52730D01*
G01X47368Y52774D01*
G01X47353Y52817D01*
G01X47336Y52860D01*
G01X47317Y52901D01*
G01X47296Y52942D01*
G01X47274Y52982D01*
G01X47250Y53021D01*
G01X47224Y53058D01*
G01X47196Y53095D01*
G01X47167Y53130D01*
G01X47136Y53163D01*
G01X47103Y53196D01*
G01X47070Y53227D01*
G01X47035Y53256D01*
G01X46998Y53284D01*
G01X46961Y53310D01*
G01X46922Y53334D01*
G01X46882Y53356D01*
G01X46841Y53377D01*
G01X46800Y53396D01*
G01X46757Y53413D01*
G01X46714Y53428D01*
G01X46670Y53441D01*
G01X46626Y53453D01*
G01X46581Y53462D01*
G01X46536Y53469D01*
G01X46491Y53474D01*
G01X46445Y53477D01*
G37*
G36*
G01X74385Y53477D02*
G01X74340Y53478D01*
G01X74294Y53477D01*
G01X74248Y53474D01*
G01X74203Y53469D01*
G01X74158Y53462D01*
G01X74113Y53453D01*
G01X74069Y53441D01*
G01X74025Y53428D01*
G01X73982Y53413D01*
G01X73939Y53396D01*
G01X73898Y53377D01*
G01X73857Y53356D01*
G01X73817Y53334D01*
G01X73778Y53310D01*
G01X73741Y53284D01*
G01X73704Y53256D01*
G01X73669Y53227D01*
G01X73636Y53196D01*
G01X73603Y53163D01*
G01X73572Y53130D01*
G01X73543Y53095D01*
G01X73515Y53058D01*
G01X73489Y53021D01*
G01X73465Y52982D01*
G01X73443Y52942D01*
G01X73422Y52901D01*
G01X73403Y52860D01*
G01X73386Y52817D01*
G01X73371Y52774D01*
G01X73358Y52730D01*
G01X73346Y52686D01*
G01X73337Y52641D01*
G01X73330Y52596D01*
G01X73325Y52551D01*
G01X73322Y52505D01*
G01X73321Y52459D01*
G01X73322Y52414D01*
G01X73325Y52368D01*
G01X73330Y52323D01*
G01X73337Y52278D01*
G01X73346Y52233D01*
G01X73358Y52189D01*
G01X73371Y52145D01*
G01X73386Y52102D01*
G01X73403Y52059D01*
G01X73422Y52018D01*
G01X73443Y51977D01*
G01X73465Y51937D01*
G01X73489Y51898D01*
G01X73515Y51861D01*
G01X73543Y51824D01*
G01X73572Y51789D01*
G01X73603Y51756D01*
G01X73636Y51723D01*
G01X73669Y51692D01*
G01X73704Y51663D01*
G01X73741Y51635D01*
G01X73778Y51609D01*
G01X73817Y51585D01*
G01X73857Y51563D01*
G01X73898Y51542D01*
G01X73939Y51523D01*
G01X73982Y51506D01*
G01X74025Y51491D01*
G01X74069Y51478D01*
G01X74113Y51466D01*
G01X74158Y51457D01*
G01X74203Y51450D01*
G01X74248Y51445D01*
G01X74294Y51442D01*
G01X74340Y51441D01*
G01X74385Y51442D01*
G01X74431Y51445D01*
G01X74476Y51450D01*
G01X74521Y51457D01*
G01X74566Y51466D01*
G01X74610Y51478D01*
G01X74654Y51491D01*
G01X74697Y51506D01*
G01X74740Y51523D01*
G01X74781Y51542D01*
G01X74822Y51563D01*
G01X74862Y51585D01*
G01X74901Y51609D01*
G01X74938Y51635D01*
G01X74975Y51663D01*
G01X75010Y51692D01*
G01X75043Y51723D01*
G01X75076Y51756D01*
G01X75107Y51789D01*
G01X75136Y51824D01*
G01X75164Y51861D01*
G01X75190Y51898D01*
G01X75214Y51937D01*
G01X75236Y51977D01*
G01X75257Y52018D01*
G01X75276Y52059D01*
G01X75293Y52102D01*
G01X75308Y52145D01*
G01X75321Y52189D01*
G01X75333Y52233D01*
G01X75342Y52278D01*
G01X75349Y52323D01*
G01X75354Y52368D01*
G01X75357Y52414D01*
G01X75358Y52459D01*
G01X75357Y52505D01*
G01X75354Y52551D01*
G01X75349Y52596D01*
G01X75342Y52641D01*
G01X75333Y52686D01*
G01X75321Y52730D01*
G01X75308Y52774D01*
G01X75293Y52817D01*
G01X75276Y52860D01*
G01X75257Y52901D01*
G01X75236Y52942D01*
G01X75214Y52982D01*
G01X75190Y53021D01*
G01X75164Y53058D01*
G01X75136Y53095D01*
G01X75107Y53130D01*
G01X75076Y53163D01*
G01X75043Y53196D01*
G01X75010Y53227D01*
G01X74975Y53256D01*
G01X74938Y53284D01*
G01X74901Y53310D01*
G01X74862Y53334D01*
G01X74822Y53356D01*
G01X74781Y53377D01*
G01X74740Y53396D01*
G01X74697Y53413D01*
G01X74654Y53428D01*
G01X74610Y53441D01*
G01X74566Y53453D01*
G01X74521Y53462D01*
G01X74476Y53469D01*
G01X74431Y53474D01*
G01X74385Y53477D01*
G37*
G36*
G01X43905Y53477D02*
G01X43860Y53478D01*
G01X43814Y53477D01*
G01X43768Y53474D01*
G01X43723Y53469D01*
G01X43678Y53462D01*
G01X43633Y53453D01*
G01X43589Y53441D01*
G01X43545Y53428D01*
G01X43502Y53413D01*
G01X43459Y53396D01*
G01X43418Y53377D01*
G01X43377Y53356D01*
G01X43337Y53334D01*
G01X43298Y53310D01*
G01X43261Y53284D01*
G01X43224Y53256D01*
G01X43189Y53227D01*
G01X43156Y53196D01*
G01X43123Y53163D01*
G01X43092Y53130D01*
G01X43063Y53095D01*
G01X43035Y53058D01*
G01X43009Y53021D01*
G01X42985Y52982D01*
G01X42963Y52942D01*
G01X42942Y52901D01*
G01X42923Y52860D01*
G01X42906Y52817D01*
G01X42891Y52774D01*
G01X42878Y52730D01*
G01X42866Y52686D01*
G01X42857Y52641D01*
G01X42850Y52596D01*
G01X42845Y52551D01*
G01X42842Y52505D01*
G01X42841Y52459D01*
G01X42842Y52414D01*
G01X42845Y52368D01*
G01X42850Y52323D01*
G01X42857Y52278D01*
G01X42866Y52233D01*
G01X42878Y52189D01*
G01X42891Y52145D01*
G01X42906Y52102D01*
G01X42923Y52059D01*
G01X42942Y52018D01*
G01X42963Y51977D01*
G01X42985Y51937D01*
G01X43009Y51898D01*
G01X43035Y51861D01*
G01X43063Y51824D01*
G01X43092Y51789D01*
G01X43123Y51756D01*
G01X43156Y51723D01*
G01X43189Y51692D01*
G01X43224Y51663D01*
G01X43261Y51635D01*
G01X43298Y51609D01*
G01X43337Y51585D01*
G01X43377Y51563D01*
G01X43418Y51542D01*
G01X43459Y51523D01*
G01X43502Y51506D01*
G01X43545Y51491D01*
G01X43589Y51478D01*
G01X43633Y51466D01*
G01X43678Y51457D01*
G01X43723Y51450D01*
G01X43768Y51445D01*
G01X43814Y51442D01*
G01X43860Y51441D01*
G01X43905Y51442D01*
G01X43951Y51445D01*
G01X43996Y51450D01*
G01X44041Y51457D01*
G01X44086Y51466D01*
G01X44130Y51478D01*
G01X44174Y51491D01*
G01X44217Y51506D01*
G01X44260Y51523D01*
G01X44301Y51542D01*
G01X44342Y51563D01*
G01X44382Y51585D01*
G01X44421Y51609D01*
G01X44458Y51635D01*
G01X44495Y51663D01*
G01X44530Y51692D01*
G01X44563Y51723D01*
G01X44596Y51756D01*
G01X44627Y51789D01*
G01X44656Y51824D01*
G01X44684Y51861D01*
G01X44710Y51898D01*
G01X44734Y51937D01*
G01X44756Y51977D01*
G01X44777Y52018D01*
G01X44796Y52059D01*
G01X44813Y52102D01*
G01X44828Y52145D01*
G01X44841Y52189D01*
G01X44853Y52233D01*
G01X44862Y52278D01*
G01X44869Y52323D01*
G01X44874Y52368D01*
G01X44877Y52414D01*
G01X44878Y52459D01*
G01X44877Y52505D01*
G01X44874Y52551D01*
G01X44869Y52596D01*
G01X44862Y52641D01*
G01X44853Y52686D01*
G01X44841Y52730D01*
G01X44828Y52774D01*
G01X44813Y52817D01*
G01X44796Y52860D01*
G01X44777Y52901D01*
G01X44756Y52942D01*
G01X44734Y52982D01*
G01X44710Y53021D01*
G01X44684Y53058D01*
G01X44656Y53095D01*
G01X44627Y53130D01*
G01X44596Y53163D01*
G01X44563Y53196D01*
G01X44530Y53227D01*
G01X44495Y53256D01*
G01X44458Y53284D01*
G01X44421Y53310D01*
G01X44382Y53334D01*
G01X44342Y53356D01*
G01X44301Y53377D01*
G01X44260Y53396D01*
G01X44217Y53413D01*
G01X44174Y53428D01*
G01X44130Y53441D01*
G01X44086Y53453D01*
G01X44041Y53462D01*
G01X43996Y53469D01*
G01X43951Y53474D01*
G01X43905Y53477D01*
G37*
G36*
G01X48985Y53477D02*
G01X48940Y53478D01*
G01X48894Y53477D01*
G01X48848Y53474D01*
G01X48803Y53469D01*
G01X48758Y53462D01*
G01X48713Y53453D01*
G01X48669Y53441D01*
G01X48625Y53428D01*
G01X48582Y53413D01*
G01X48539Y53396D01*
G01X48498Y53377D01*
G01X48457Y53356D01*
G01X48417Y53334D01*
G01X48378Y53310D01*
G01X48341Y53284D01*
G01X48304Y53256D01*
G01X48269Y53227D01*
G01X48236Y53196D01*
G01X48203Y53163D01*
G01X48172Y53130D01*
G01X48143Y53095D01*
G01X48115Y53058D01*
G01X48089Y53021D01*
G01X48065Y52982D01*
G01X48043Y52942D01*
G01X48022Y52901D01*
G01X48003Y52860D01*
G01X47986Y52817D01*
G01X47971Y52774D01*
G01X47958Y52730D01*
G01X47946Y52686D01*
G01X47937Y52641D01*
G01X47930Y52596D01*
G01X47925Y52551D01*
G01X47922Y52505D01*
G01X47921Y52459D01*
G01X47922Y52414D01*
G01X47925Y52368D01*
G01X47930Y52323D01*
G01X47937Y52278D01*
G01X47946Y52233D01*
G01X47958Y52189D01*
G01X47971Y52145D01*
G01X47986Y52102D01*
G01X48003Y52059D01*
G01X48022Y52018D01*
G01X48043Y51977D01*
G01X48065Y51937D01*
G01X48089Y51898D01*
G01X48115Y51861D01*
G01X48143Y51824D01*
G01X48172Y51789D01*
G01X48203Y51756D01*
G01X48236Y51723D01*
G01X48269Y51692D01*
G01X48304Y51663D01*
G01X48341Y51635D01*
G01X48378Y51609D01*
G01X48417Y51585D01*
G01X48457Y51563D01*
G01X48498Y51542D01*
G01X48539Y51523D01*
G01X48582Y51506D01*
G01X48625Y51491D01*
G01X48669Y51478D01*
G01X48713Y51466D01*
G01X48758Y51457D01*
G01X48803Y51450D01*
G01X48848Y51445D01*
G01X48894Y51442D01*
G01X48940Y51441D01*
G01X48985Y51442D01*
G01X49031Y51445D01*
G01X49076Y51450D01*
G01X49121Y51457D01*
G01X49166Y51466D01*
G01X49210Y51478D01*
G01X49254Y51491D01*
G01X49297Y51506D01*
G01X49340Y51523D01*
G01X49381Y51542D01*
G01X49422Y51563D01*
G01X49462Y51585D01*
G01X49501Y51609D01*
G01X49538Y51635D01*
G01X49575Y51663D01*
G01X49610Y51692D01*
G01X49643Y51723D01*
G01X49676Y51756D01*
G01X49707Y51789D01*
G01X49736Y51824D01*
G01X49764Y51861D01*
G01X49790Y51898D01*
G01X49814Y51937D01*
G01X49836Y51977D01*
G01X49857Y52018D01*
G01X49876Y52059D01*
G01X49893Y52102D01*
G01X49908Y52145D01*
G01X49921Y52189D01*
G01X49933Y52233D01*
G01X49942Y52278D01*
G01X49949Y52323D01*
G01X49954Y52368D01*
G01X49957Y52414D01*
G01X49958Y52459D01*
G01X49957Y52505D01*
G01X49954Y52551D01*
G01X49949Y52596D01*
G01X49942Y52641D01*
G01X49933Y52686D01*
G01X49921Y52730D01*
G01X49908Y52774D01*
G01X49893Y52817D01*
G01X49876Y52860D01*
G01X49857Y52901D01*
G01X49836Y52942D01*
G01X49814Y52982D01*
G01X49790Y53021D01*
G01X49764Y53058D01*
G01X49736Y53095D01*
G01X49707Y53130D01*
G01X49676Y53163D01*
G01X49643Y53196D01*
G01X49610Y53227D01*
G01X49575Y53256D01*
G01X49538Y53284D01*
G01X49501Y53310D01*
G01X49462Y53334D01*
G01X49422Y53356D01*
G01X49381Y53377D01*
G01X49340Y53396D01*
G01X49297Y53413D01*
G01X49254Y53428D01*
G01X49210Y53441D01*
G01X49166Y53453D01*
G01X49121Y53462D01*
G01X49076Y53469D01*
G01X49031Y53474D01*
G01X48985Y53477D01*
G37*
G36*
G01X71845Y53477D02*
G01X71800Y53478D01*
G01X71754Y53477D01*
G01X71708Y53474D01*
G01X71663Y53469D01*
G01X71618Y53462D01*
G01X71573Y53453D01*
G01X71529Y53441D01*
G01X71485Y53428D01*
G01X71442Y53413D01*
G01X71399Y53396D01*
G01X71358Y53377D01*
G01X71317Y53356D01*
G01X71277Y53334D01*
G01X71238Y53310D01*
G01X71201Y53284D01*
G01X71164Y53256D01*
G01X71129Y53227D01*
G01X71096Y53196D01*
G01X71063Y53163D01*
G01X71032Y53130D01*
G01X71003Y53095D01*
G01X70975Y53058D01*
G01X70949Y53021D01*
G01X70925Y52982D01*
G01X70903Y52942D01*
G01X70882Y52901D01*
G01X70863Y52860D01*
G01X70846Y52817D01*
G01X70831Y52774D01*
G01X70818Y52730D01*
G01X70806Y52686D01*
G01X70797Y52641D01*
G01X70790Y52596D01*
G01X70785Y52551D01*
G01X70782Y52505D01*
G01X70781Y52459D01*
G01X70782Y52414D01*
G01X70785Y52368D01*
G01X70790Y52323D01*
G01X70797Y52278D01*
G01X70806Y52233D01*
G01X70818Y52189D01*
G01X70831Y52145D01*
G01X70846Y52102D01*
G01X70863Y52059D01*
G01X70882Y52018D01*
G01X70903Y51977D01*
G01X70925Y51937D01*
G01X70949Y51898D01*
G01X70975Y51861D01*
G01X71003Y51824D01*
G01X71032Y51789D01*
G01X71063Y51756D01*
G01X71096Y51723D01*
G01X71129Y51692D01*
G01X71164Y51663D01*
G01X71201Y51635D01*
G01X71238Y51609D01*
G01X71277Y51585D01*
G01X71317Y51563D01*
G01X71358Y51542D01*
G01X71399Y51523D01*
G01X71442Y51506D01*
G01X71485Y51491D01*
G01X71529Y51478D01*
G01X71573Y51466D01*
G01X71618Y51457D01*
G01X71663Y51450D01*
G01X71708Y51445D01*
G01X71754Y51442D01*
G01X71800Y51441D01*
G01X71845Y51442D01*
G01X71891Y51445D01*
G01X71936Y51450D01*
G01X71981Y51457D01*
G01X72026Y51466D01*
G01X72070Y51478D01*
G01X72114Y51491D01*
G01X72157Y51506D01*
G01X72200Y51523D01*
G01X72241Y51542D01*
G01X72282Y51563D01*
G01X72322Y51585D01*
G01X72361Y51609D01*
G01X72398Y51635D01*
G01X72435Y51663D01*
G01X72470Y51692D01*
G01X72503Y51723D01*
G01X72536Y51756D01*
G01X72567Y51789D01*
G01X72596Y51824D01*
G01X72624Y51861D01*
G01X72650Y51898D01*
G01X72674Y51937D01*
G01X72696Y51977D01*
G01X72717Y52018D01*
G01X72736Y52059D01*
G01X72753Y52102D01*
G01X72768Y52145D01*
G01X72781Y52189D01*
G01X72793Y52233D01*
G01X72802Y52278D01*
G01X72809Y52323D01*
G01X72814Y52368D01*
G01X72817Y52414D01*
G01X72818Y52459D01*
G01X72817Y52505D01*
G01X72814Y52551D01*
G01X72809Y52596D01*
G01X72802Y52641D01*
G01X72793Y52686D01*
G01X72781Y52730D01*
G01X72768Y52774D01*
G01X72753Y52817D01*
G01X72736Y52860D01*
G01X72717Y52901D01*
G01X72696Y52942D01*
G01X72674Y52982D01*
G01X72650Y53021D01*
G01X72624Y53058D01*
G01X72596Y53095D01*
G01X72567Y53130D01*
G01X72536Y53163D01*
G01X72503Y53196D01*
G01X72470Y53227D01*
G01X72435Y53256D01*
G01X72398Y53284D01*
G01X72361Y53310D01*
G01X72322Y53334D01*
G01X72282Y53356D01*
G01X72241Y53377D01*
G01X72200Y53396D01*
G01X72157Y53413D01*
G01X72114Y53428D01*
G01X72070Y53441D01*
G01X72026Y53453D01*
G01X71981Y53462D01*
G01X71936Y53469D01*
G01X71891Y53474D01*
G01X71845Y53477D01*
G37*
G36*
G01X81291Y23583D02*
G01X81257Y23584D01*
G01X81224Y23583D01*
G01X81190Y23580D01*
G01X81157Y23575D01*
G01X81124Y23568D01*
G01X81092Y23559D01*
G01X81060Y23548D01*
G01X81029Y23535D01*
G01X80999Y23520D01*
G01X80970Y23504D01*
G01X80941Y23486D01*
G01X80914Y23466D01*
G01X80888Y23444D01*
G01X80864Y23421D01*
G01X80841Y23397D01*
G01X80819Y23371D01*
G01X80799Y23344D01*
G01X80781Y23315D01*
G01X80765Y23286D01*
G01X80750Y23256D01*
G01X80737Y23225D01*
G01X80726Y23193D01*
G01X80717Y23161D01*
G01X80710Y23128D01*
G01X80705Y23095D01*
G01X80702Y23061D01*
G01X80701Y23027D01*
G01X80702Y22994D01*
G01X80705Y22960D01*
G01X80710Y22927D01*
G01X80717Y22894D01*
G01X80726Y22862D01*
G01X80737Y22830D01*
G01X80750Y22799D01*
G01X80765Y22769D01*
G01X80781Y22740D01*
G01X80799Y22711D01*
G01X80819Y22684D01*
G01X80841Y22658D01*
G01X80864Y22634D01*
G01X80888Y22611D01*
G01X80914Y22589D01*
G01X80941Y22569D01*
G01X80970Y22551D01*
G01X80999Y22535D01*
G01X81029Y22520D01*
G01X81060Y22507D01*
G01X81092Y22496D01*
G01X81124Y22487D01*
G01X81157Y22480D01*
G01X81190Y22475D01*
G01X81224Y22472D01*
G01X81257Y22471D01*
G01X81291Y22472D01*
G01X81325Y22475D01*
G01X81358Y22480D01*
G01X81391Y22487D01*
G01X81423Y22496D01*
G01X81455Y22507D01*
G01X81486Y22520D01*
G01X81516Y22535D01*
G01X81545Y22551D01*
G01X81574Y22569D01*
G01X81601Y22589D01*
G01X81627Y22611D01*
G01X81651Y22634D01*
G01X81674Y22658D01*
G01X81696Y22684D01*
G01X81715Y22711D01*
G01X81734Y22740D01*
G01X81750Y22769D01*
G01X81765Y22799D01*
G01X81778Y22830D01*
G01X81789Y22862D01*
G01X81798Y22894D01*
G01X81805Y22927D01*
G01X81810Y22960D01*
G01X81813Y22994D01*
G01X81814Y23027D01*
G01X81813Y23061D01*
G01X81810Y23095D01*
G01X81805Y23128D01*
G01X81798Y23161D01*
G01X81789Y23193D01*
G01X81778Y23225D01*
G01X81765Y23256D01*
G01X81750Y23286D01*
G01X81734Y23315D01*
G01X81715Y23344D01*
G01X81696Y23371D01*
G01X81674Y23397D01*
G01X81651Y23421D01*
G01X81627Y23444D01*
G01X81601Y23466D01*
G01X81574Y23486D01*
G01X81545Y23504D01*
G01X81516Y23520D01*
G01X81486Y23535D01*
G01X81455Y23548D01*
G01X81423Y23559D01*
G01X81391Y23568D01*
G01X81358Y23575D01*
G01X81325Y23580D01*
G01X81291Y23583D01*
G37*
G36*
G01X81291Y27583D02*
G01X81257Y27584D01*
G01X81224Y27583D01*
G01X81190Y27580D01*
G01X81157Y27575D01*
G01X81124Y27568D01*
G01X81092Y27559D01*
G01X81060Y27548D01*
G01X81029Y27535D01*
G01X80999Y27520D01*
G01X80970Y27504D01*
G01X80941Y27486D01*
G01X80914Y27466D01*
G01X80888Y27444D01*
G01X80864Y27421D01*
G01X80841Y27397D01*
G01X80819Y27371D01*
G01X80799Y27344D01*
G01X80781Y27315D01*
G01X80765Y27286D01*
G01X80750Y27256D01*
G01X80737Y27225D01*
G01X80726Y27193D01*
G01X80717Y27161D01*
G01X80710Y27128D01*
G01X80705Y27095D01*
G01X80702Y27061D01*
G01X80701Y27027D01*
G01X80702Y26994D01*
G01X80705Y26960D01*
G01X80710Y26927D01*
G01X80717Y26894D01*
G01X80726Y26862D01*
G01X80737Y26830D01*
G01X80750Y26799D01*
G01X80765Y26769D01*
G01X80781Y26740D01*
G01X80799Y26711D01*
G01X80819Y26684D01*
G01X80841Y26658D01*
G01X80864Y26634D01*
G01X80888Y26611D01*
G01X80914Y26589D01*
G01X80941Y26569D01*
G01X80970Y26551D01*
G01X80999Y26535D01*
G01X81029Y26520D01*
G01X81060Y26507D01*
G01X81092Y26496D01*
G01X81124Y26487D01*
G01X81157Y26480D01*
G01X81190Y26475D01*
G01X81224Y26472D01*
G01X81257Y26471D01*
G01X81291Y26472D01*
G01X81325Y26475D01*
G01X81358Y26480D01*
G01X81391Y26487D01*
G01X81423Y26496D01*
G01X81455Y26507D01*
G01X81486Y26520D01*
G01X81516Y26535D01*
G01X81545Y26551D01*
G01X81574Y26569D01*
G01X81601Y26589D01*
G01X81627Y26611D01*
G01X81651Y26634D01*
G01X81674Y26658D01*
G01X81696Y26684D01*
G01X81715Y26711D01*
G01X81734Y26740D01*
G01X81750Y26769D01*
G01X81765Y26799D01*
G01X81778Y26830D01*
G01X81789Y26862D01*
G01X81798Y26894D01*
G01X81805Y26927D01*
G01X81810Y26960D01*
G01X81813Y26994D01*
G01X81814Y27027D01*
G01X81813Y27061D01*
G01X81810Y27095D01*
G01X81805Y27128D01*
G01X81798Y27161D01*
G01X81789Y27193D01*
G01X81778Y27225D01*
G01X81765Y27256D01*
G01X81750Y27286D01*
G01X81734Y27315D01*
G01X81715Y27344D01*
G01X81696Y27371D01*
G01X81674Y27397D01*
G01X81651Y27421D01*
G01X81627Y27444D01*
G01X81601Y27466D01*
G01X81574Y27486D01*
G01X81545Y27504D01*
G01X81516Y27520D01*
G01X81486Y27535D01*
G01X81455Y27548D01*
G01X81423Y27559D01*
G01X81391Y27568D01*
G01X81358Y27575D01*
G01X81325Y27580D01*
G01X81291Y27583D01*
G37*
G36*
G01X79630Y50344D02*
G01X79630Y51454D01*
G01X79564Y51417D01*
G01X79499Y51378D01*
G01X79435Y51337D01*
G01X79372Y51295D01*
G01X79310Y51251D01*
G01X79250Y51205D01*
G01X79191Y51158D01*
G01X79133Y51109D01*
G01X79076Y51058D01*
G01X79021Y51006D01*
G01X78968Y50953D01*
G01X78916Y50898D01*
G01X78865Y50841D01*
G01X78816Y50783D01*
G01X78769Y50724D01*
G01X78723Y50664D01*
G01X78679Y50602D01*
G01X78637Y50539D01*
G01X78596Y50475D01*
G01X78557Y50410D01*
G01X78520Y50344D01*
G01X79630Y50344D01*
G37*
G36*
G01X82323Y51417D02*
G01X82257Y51454D01*
G01X82257Y50344D01*
G01X83367Y50344D01*
G01X83330Y50410D01*
G01X83291Y50475D01*
G01X83251Y50539D01*
G01X83208Y50602D01*
G01X83164Y50664D01*
G01X83118Y50724D01*
G01X83071Y50783D01*
G01X83022Y50841D01*
G01X82971Y50898D01*
G01X82919Y50953D01*
G01X82866Y51006D01*
G01X82811Y51058D01*
G01X82754Y51109D01*
G01X82696Y51158D01*
G01X82637Y51205D01*
G01X82577Y51251D01*
G01X82515Y51295D01*
G01X82452Y51337D01*
G01X82388Y51378D01*
G01X82323Y51417D01*
G37*
G36*
G01X79630Y47717D02*
G01X78520Y47717D01*
G01X78557Y47651D01*
G01X78596Y47586D01*
G01X78637Y47522D01*
G01X78679Y47459D01*
G01X78723Y47397D01*
G01X78769Y47337D01*
G01X78816Y47278D01*
G01X78865Y47220D01*
G01X78916Y47163D01*
G01X78968Y47108D01*
G01X79021Y47055D01*
G01X79076Y47003D01*
G01X79133Y46952D01*
G01X79191Y46903D01*
G01X79250Y46856D01*
G01X79310Y46810D01*
G01X79372Y46766D01*
G01X79435Y46723D01*
G01X79499Y46683D01*
G01X79564Y46644D01*
G01X79630Y46607D01*
G01X79630Y47717D01*
G37*
G36*
G01X83367Y47717D02*
G01X82257Y47717D01*
G01X82257Y46607D01*
G01X82323Y46644D01*
G01X82388Y46683D01*
G01X82452Y46723D01*
G01X82515Y46766D01*
G01X82577Y46810D01*
G01X82637Y46856D01*
G01X82696Y46903D01*
G01X82754Y46952D01*
G01X82811Y47003D01*
G01X82866Y47055D01*
G01X82919Y47108D01*
G01X82971Y47163D01*
G01X83022Y47220D01*
G01X83071Y47278D01*
G01X83118Y47337D01*
G01X83164Y47397D01*
G01X83208Y47459D01*
G01X83251Y47522D01*
G01X83291Y47586D01*
G01X83330Y47651D01*
G01X83367Y47717D01*
G37*
G36*
G01X51035Y50364D02*
G01X51035Y50836D01*
G01X50992Y50814D01*
G01X50950Y50789D01*
G01X50909Y50763D01*
G01X50869Y50735D01*
G01X50831Y50705D01*
G01X50794Y50673D01*
G01X50759Y50640D01*
G01X50726Y50605D01*
G01X50694Y50568D01*
G01X50664Y50530D01*
G01X50636Y50490D01*
G01X50610Y50449D01*
G01X50585Y50407D01*
G01X50563Y50364D01*
G01X51035Y50364D01*
G37*

%LPD*%
G54D12*
G01X16382Y40029D02*
G01X18048Y38362D01*
G01X27743Y38362D01*
G01X27743Y37456D01*
G54D13*
G01X58612Y30107D02*
G01X58612Y22213D01*
G01X59862Y20963D01*
G01X78785Y20963D01*
G01X79801Y19947D01*
G01X79801Y13089D01*
G01X79293Y12581D01*
G01X79293Y9787D01*
G54D10*
G01X17317Y47125D02*
G01X20111Y47125D01*
G01X24302Y42934D01*
G01X24302Y39505D01*
G01X26080Y52459D02*
G01X26080Y49284D01*
G01X29013Y46351D01*
G01X29013Y37456D01*
G01X28620Y52459D02*
G01X28620Y49157D01*
G01X30283Y47494D01*
G01X30283Y37456D01*
G54D12*
G01X21127Y52459D02*
G01X21127Y51062D01*
G01X25848Y46341D01*
G01X26834Y46341D01*
G54D10*
G01X51480Y52459D02*
G01X51988Y52459D01*
G01X52750Y51697D01*
G01X52750Y49284D01*
G01X57195Y44839D01*
G01X57195Y37854D01*
G01X24810Y17280D02*
G01X17444Y17280D01*
G01X8808Y25916D01*
G01X7665Y27821D02*
G01X5760Y25916D01*
G01X5506Y25916D01*
G01X33700Y52459D02*
G01X33700Y50554D01*
G01X40443Y43811D01*
G01X40443Y37456D01*
G54D13*
G01X61111Y31057D02*
G01X61629Y30539D01*
G01X63545Y30539D01*
G01X61111Y32460D02*
G01X62391Y33740D01*
G01X63545Y33740D01*
G01X66593Y33740D02*
G01X65145Y35187D01*
G01X62402Y35187D01*
G01X61573Y34359D01*
G01X61111Y34359D01*
G01X63545Y33740D02*
G01X64764Y32520D01*
G01X72816Y32520D01*
G01X66593Y30539D02*
G01X67558Y31504D01*
G01X73070Y31504D01*
G01X61111Y29158D02*
G01X61177Y29091D01*
G01X65323Y29091D01*
G01X66593Y30361D01*
G01X66593Y30539D01*
G54D10*
G01X48940Y14359D02*
G01X51905Y11394D01*
G01X51905Y10819D01*
G01X43725Y10819D02*
G01X46400Y13494D01*
G01X46400Y14359D01*
G01X39173Y19457D02*
G01X38780Y19064D01*
G01X38780Y16899D01*
G01X40443Y19457D02*
G01X40443Y17776D01*
G01X41320Y16899D01*
G01X43860Y14359D02*
G01X42844Y15375D01*
G01X42844Y17534D01*
G01X41713Y18665D01*
G01X41713Y19457D01*
G01X42983Y19457D02*
G01X42983Y18284D01*
G01X46400Y14867D01*
G01X46400Y14359D01*
G01X37903Y19457D02*
G01X37903Y18309D01*
G01X37129Y17534D01*
G01X37129Y16010D01*
G01X38780Y14359D01*
G01X41320Y14359D01*
G01X44253Y19457D02*
G01X48940Y14768D01*
G01X48940Y14359D01*
G01X36113Y14359D02*
G01X36240Y14486D01*
G01X36240Y17788D01*
G01X36633Y18182D01*
G01X36633Y19457D01*
G01X35363Y19457D02*
G01X35363Y16150D01*
G01X33573Y14359D01*
G01X34093Y19457D02*
G01X34093Y17420D01*
G01X31033Y14359D01*
G01X54020Y52459D02*
G01X63291Y43188D01*
G01X63291Y41029D01*
G01X44253Y37456D02*
G01X45538Y38743D01*
G01X48051Y38743D01*
G01X58612Y30107D02*
G01X57723Y30996D01*
G01X55671Y30996D01*
G01X47924Y32774D02*
G01X46781Y31631D01*
G01X45752Y31631D01*
G01X45752Y32901D02*
G01X46273Y32901D01*
G01X47162Y33790D01*
G01X47162Y34679D01*
G01X46273Y35822D02*
G01X45752Y35302D01*
G01X45752Y34171D01*
G01X36633Y37456D02*
G01X36875Y37700D01*
G01X36875Y45093D01*
G01X37903Y37456D02*
G01X37891Y37468D01*
G01X37891Y39632D01*
G01X27835Y17280D02*
G01X29013Y18459D01*
G01X29013Y19457D01*
G01X32823Y19457D02*
G01X32823Y18182D01*
G01X29001Y14359D01*
G01X28493Y14359D01*
G01X31553Y19457D02*
G01X31553Y18055D01*
G01X29382Y15883D01*
G01X27477Y15883D01*
G01X25953Y14359D01*
G01X30283Y19457D02*
G01X30017Y19191D01*
G01X30017Y18804D01*
G01X56941Y33155D02*
G01X57195Y33409D01*
G01X58612Y33409D01*
G01X34093Y37456D02*
G01X34093Y38180D01*
G01X35478Y39566D01*
G01X35478Y42807D01*
G01X31553Y37456D02*
G01X31795Y37700D01*
G01X31795Y39886D01*
G01X23032Y15756D02*
G01X26311Y15756D01*
G01X27835Y17280D01*
G01X45752Y24011D02*
G01X49956Y24011D01*
G01X52242Y21725D01*
G01X52242Y14359D01*
G01X51480Y14359D01*
G54D12*
G01X70784Y38235D02*
G01X71419Y37600D01*
G01X75356Y37600D01*
G01X69260Y22233D02*
G01X69260Y24011D01*
G01X75356Y30107D01*
G01X75356Y37600D01*
G01X68498Y17915D02*
G01X69514Y18931D01*
G01X78023Y18931D01*
G54D10*
G01X32823Y37456D02*
G01X33065Y37700D01*
G01X33065Y39505D01*
G54D12*
G01X44622Y39378D02*
G01X45130Y39886D01*
G01X52115Y39886D01*
G01X52115Y39886D01*
G01X53004Y39124D01*
G54D10*
G01X51480Y45728D02*
G01X51480Y46109D01*
G01X48813Y48776D01*
G01X47035Y48776D01*
G01X46400Y49411D01*
G01X46400Y49919D01*
G01X50591Y45601D02*
G01X50591Y46109D01*
G01X48432Y48268D01*
G01X45384Y48268D01*
G01X43860Y49792D01*
G01X43860Y49919D01*
G01X49829Y45601D02*
G01X49829Y46109D01*
G01X48178Y47760D01*
G01X42717Y47760D01*
G01X41320Y49157D01*
G01X41320Y49919D01*
G01X38780Y49919D02*
G01X41447Y47252D01*
G01X47924Y47252D01*
G01X48940Y46236D01*
G01X48940Y45601D01*
G01X48940Y49919D02*
G01X49702Y49919D01*
G01X52242Y47379D01*
G01X52242Y45602D01*
G01X31160Y52459D02*
G01X31160Y51951D01*
G01X39173Y43938D01*
G01X39173Y37456D01*
G01X43987Y42045D02*
G01X54782Y42045D01*
G01X55417Y41410D01*
G01X55417Y35568D01*
G01X54782Y34933D01*
G01X54782Y34425D01*
G01X43987Y41283D02*
G01X53639Y41283D01*
G01X54782Y40140D01*
G01X54782Y36076D01*
G54D13*
G01X76118Y40140D02*
G01X65323Y40140D01*
G01X59862Y34679D01*
G01X59862Y33409D01*
G01X58612Y33409D01*
G54D10*
G01X57195Y37854D02*
G01X57195Y39505D01*
G01X58719Y41029D01*
G01X59989Y41029D01*
G01X60497Y39251D02*
G01X60497Y36584D01*
G01X59354Y35441D01*
G01X65704Y40902D02*
G01X67482Y42680D01*
G01X69006Y42680D01*
G01X48940Y38743D02*
G01X48940Y32393D01*
G01X46908Y30361D01*
G01X45752Y30361D01*
G01X45752Y26551D02*
G01X46908Y26551D01*
G01X51480Y31123D01*
G01X51480Y38743D01*
G01X45752Y27821D02*
G01X46781Y27821D01*
G01X50591Y31631D01*
G01X50591Y38743D01*
G01X45752Y29091D02*
G01X46781Y29091D01*
G01X49829Y32139D01*
G01X49829Y38743D01*
G01X38780Y52459D02*
G01X37637Y51316D01*
G01X37637Y49284D01*
G01X42983Y43938D01*
G01X42983Y37456D01*
G01X43987Y40267D02*
G01X44241Y40267D01*
G01X44622Y40648D01*
G01X53131Y40648D01*
G01X41320Y52459D02*
G01X40177Y53602D01*
G01X36621Y53602D01*
G01X36621Y48649D01*
G01X41713Y43557D01*
G01X41713Y37456D01*
G54D11*
G01X26758Y10819D02*
G01X25781Y10819D01*
G01X24765Y9803D01*
G01X42125Y10819D02*
G01X41148Y10819D01*
G01X40132Y9803D01*
G01X53505Y10819D02*
G01X54864Y10819D01*
G01X55499Y10184D01*
G01X55499Y9803D01*
G01X68745Y10946D02*
G01X69722Y10946D01*
G01X70866Y9803D01*
G01X11264Y10946D02*
G01X10541Y10946D01*
G01X9398Y9803D01*
G54D10*
G01X28358Y10819D02*
G01X29501Y11962D01*
G01X41843Y11962D01*
G01X43860Y13978D01*
G01X43860Y14359D01*
G01X12864Y10946D02*
G01X14642Y12724D01*
G01X40385Y12724D01*
G01X41320Y13658D01*
G01X41320Y14359D01*
G54D12*
G01X53004Y39124D02*
G01X53004Y26397D01*
G01X60702Y18698D01*
G01X60702Y18698D01*
G01X61640Y17788D01*
G01X68498Y17915D01*
G54D10*
G01X51480Y14359D02*
G01X54385Y11454D01*
G01X67144Y11454D01*
G01X67144Y10946D01*
G54D12*
G01X45752Y22741D02*
G01X47022Y21471D01*
G01X50972Y21471D01*
G01X24810Y17280D02*
G01X24832Y17280D01*
G54D10*
G01X24832Y17280D02*
G01X27009Y19457D01*
G01X27743Y19457D01*
G01X43987Y44585D02*
G01X54237Y44585D01*
G01X54237Y44585D02*
G01X54782Y44585D01*
G01X56306Y43061D01*
G01X56306Y34298D01*
G01X54528Y32520D01*
G01X54528Y26932D01*
G01X52242Y38716D02*
G01X52242Y29980D01*
G01X47543Y25281D01*
G01X45752Y25281D01*
G01X16891Y46125D02*
G01X18698Y46125D01*
G01X23286Y41537D01*
G01X16383Y45363D02*
G01X17936Y45363D01*
G01X23159Y40140D01*
G01X43987Y42858D02*
G01X44063Y42934D01*
G01X54274Y42934D01*
G01X43987Y43722D02*
G01X44012Y43696D01*
G01X54274Y43696D01*
G01X58846Y39505D02*
G01X58846Y37219D01*
G01X59354Y36711D01*
G01X16383Y40029D02*
G01X13335Y43077D01*
G01X5969Y43077D01*
G36*
G01X10160Y10565D02*
G01X8636Y10565D01*
G01X8636Y9041D01*
G01X10160Y9041D01*
G01X10160Y10565D01*
G37*
G36*
G01X25527Y10565D02*
G01X24003Y10565D01*
G01X24003Y9041D01*
G01X25527Y9041D01*
G01X25527Y10565D01*
G37*
G36*
G01X56261Y10565D02*
G01X54737Y10565D01*
G01X54737Y9041D01*
G01X56261Y9041D01*
G01X56261Y10565D01*
G37*
G36*
G01X71628Y10565D02*
G01X70104Y10565D01*
G01X70104Y9041D01*
G01X71628Y9041D01*
G01X71628Y10565D01*
G37*
G36*
G01X67543Y33140D02*
G01X67543Y34340D01*
G01X65642Y34340D01*
G01X65642Y33140D01*
G01X67543Y33140D01*
G37*
G36*
G01X67543Y29939D02*
G01X67543Y31139D01*
G01X65642Y31139D01*
G01X65642Y29939D01*
G01X67543Y29939D01*
G37*
G36*
G01X62594Y31139D02*
G01X62594Y29939D01*
G01X64495Y29939D01*
G01X64495Y31139D01*
G01X62594Y31139D01*
G37*
G36*
G01X62594Y34340D02*
G01X62594Y33140D01*
G01X64495Y33140D01*
G01X64495Y34340D01*
G01X62594Y34340D01*
G37*
G36*
G01X59237Y33059D02*
G01X59237Y33760D01*
G01X57987Y33760D01*
G01X57987Y33059D01*
G01X59237Y33059D01*
G37*
G36*
G01X61736Y32110D02*
G01X61736Y32810D01*
G01X60486Y32810D01*
G01X60486Y32110D01*
G01X61736Y32110D01*
G37*
G36*
G01X61736Y34009D02*
G01X61736Y34709D01*
G01X60486Y34709D01*
G01X60486Y34009D01*
G01X61736Y34009D01*
G37*
G36*
G01X59237Y29757D02*
G01X59237Y30458D01*
G01X57987Y30458D01*
G01X57987Y29757D01*
G01X59237Y29757D01*
G37*
G36*
G01X61736Y28808D02*
G01X61736Y29508D01*
G01X60486Y29508D01*
G01X60486Y28808D01*
G01X61736Y28808D01*
G37*
G36*
G01X61736Y30707D02*
G01X61736Y31407D01*
G01X60486Y31407D01*
G01X60486Y30707D01*
G01X61736Y30707D01*
G37*
G36*
G01X24133Y16580D02*
G01X25533Y16580D01*
G01X25533Y17980D01*
G01X24133Y17980D01*
G01X24133Y16580D01*
G37*
G36*
G01X27133Y16580D02*
G01X28533Y16580D01*
G01X28533Y17980D01*
G01X27133Y17980D01*
G01X27133Y16580D01*
G37*
G36*
G01X11764Y11497D02*
G01X10764Y11497D01*
G01X10764Y10396D01*
G01X11764Y10396D01*
G01X11764Y11497D01*
G37*
G36*
G01X13364Y11497D02*
G01X12364Y11497D01*
G01X12364Y10396D01*
G01X13364Y10396D01*
G01X13364Y11497D01*
G37*
G36*
G01X27258Y11370D02*
G01X26258Y11370D01*
G01X26258Y10269D01*
G01X27258Y10269D01*
G01X27258Y11370D01*
G37*
G36*
G01X28858Y11370D02*
G01X27858Y11370D01*
G01X27858Y10269D01*
G01X28858Y10269D01*
G01X28858Y11370D01*
G37*
G36*
G01X42625Y11370D02*
G01X41625Y11370D01*
G01X41625Y10269D01*
G01X42625Y10269D01*
G01X42625Y11370D01*
G37*
G36*
G01X44225Y11370D02*
G01X43225Y11370D01*
G01X43225Y10269D01*
G01X44225Y10269D01*
G01X44225Y11370D01*
G37*
G36*
G01X53005Y10269D02*
G01X54005Y10269D01*
G01X54005Y11370D01*
G01X53005Y11370D01*
G01X53005Y10269D01*
G37*
G36*
G01X51405Y10269D02*
G01X52405Y10269D01*
G01X52405Y11370D01*
G01X51405Y11370D01*
G01X51405Y10269D01*
G37*
G36*
G01X68245Y10396D02*
G01X69245Y10396D01*
G01X69245Y11497D01*
G01X68245Y11497D01*
G01X68245Y10396D01*
G37*
G36*
G01X66645Y10396D02*
G01X67645Y10396D01*
G01X67645Y11497D01*
G01X66645Y11497D01*
G01X66645Y10396D01*
G37*
G36*
G01X40894Y10565D02*
G01X39370Y10565D01*
G01X39370Y9041D01*
G01X40894Y9041D01*
G01X40894Y10565D01*
G37*
G54D38*
G01X27742Y19457D03*
G01X29012Y19457D03*
G01X30282Y19457D03*
G01X31552Y19457D03*
G01X32822Y19457D03*
G01X34092Y19457D03*
G01X35362Y19457D03*
G01X36632Y19457D03*
G01X37902Y19457D03*
G01X39172Y19457D03*
G01X40442Y19457D03*
G01X41712Y19457D03*
G01X42982Y19457D03*
G01X44252Y19457D03*
G54D39*
G01X45753Y22741D03*
G01X45753Y24011D03*
G01X45753Y25281D03*
G01X45753Y26551D03*
G01X45753Y27821D03*
G01X45753Y29091D03*
G01X45753Y30361D03*
G01X45753Y31631D03*
G01X45753Y32901D03*
G01X45753Y34171D03*
G54D38*
G01X44252Y37456D03*
G01X42982Y37456D03*
G01X41712Y37456D03*
G01X40442Y37456D03*
G01X39172Y37456D03*
G01X37902Y37456D03*
G01X36632Y37456D03*
G01X35362Y37456D03*
G01X34092Y37456D03*
G01X32822Y37456D03*
G01X31552Y37456D03*
G01X30282Y37456D03*
G01X29012Y37456D03*
G01X27742Y37456D03*

%LPD*%
G36*
G01X16002Y9803D02*
G01X3302Y9803D01*
G01X3175Y-2261D01*
G01X3175Y-2896D01*
G01X16002Y-2896D01*
G01X16002Y9803D01*
G37*

%LPD*%
G36*
G01X31369Y9803D02*
G01X18669Y9803D01*
G01X18542Y-2261D01*
G01X18542Y-2896D01*
G01X31369Y-2896D01*
G01X31369Y9803D01*
G37*

%LPD*%
G36*
G01X62103Y9803D02*
G01X49403Y9803D01*
G01X49276Y-2261D01*
G01X49276Y-2896D01*
G01X62103Y-2896D01*
G01X62103Y9803D01*
G37*

%LPD*%
G36*
G01X77470Y9803D02*
G01X64770Y9803D01*
G01X64643Y-2261D01*
G01X64643Y-2896D01*
G01X77470Y-2896D01*
G01X77470Y9803D01*
G37*

%LPD*%
G36*
G01X46736Y9803D02*
G01X34036Y9803D01*
G01X33909Y-2261D01*
G01X33909Y-2896D01*
G01X46736Y-2896D01*
G01X46736Y9803D01*
G37*
G54D31*
G01X80944Y49030D03*
G01X81325Y4453D03*
G54D32*
G01X38780Y16899D03*
G01X41320Y16899D03*
G01X28620Y52459D03*
G01X26080Y52459D03*
G01X71800Y52459D03*
G01X74340Y52459D03*
G01X51480Y52459D03*
G01X54020Y52459D03*
G01X33700Y52459D03*
G01X31160Y52459D03*
G01X25953Y14359D03*
G01X28493Y14359D03*
G01X31033Y14359D03*
G01X33573Y14359D03*
G01X36113Y14359D03*
G01X41320Y14359D03*
G01X43860Y14359D03*
G01X46400Y14359D03*
G01X48940Y14359D03*
G01X51480Y14359D03*
G01X48940Y49919D03*
G01X46400Y49919D03*
G01X43860Y49919D03*
G01X41320Y49919D03*
G01X38780Y49919D03*
G01X48940Y52459D03*
G01X46400Y52459D03*
G01X43860Y52459D03*
G01X41320Y52459D03*
G01X38780Y52459D03*
G01X23540Y52459D03*
G01X21000Y52459D03*
G01X51480Y49919D03*
G01X54020Y49919D03*
G54D17*
G01X7665Y27821D03*
G01X5506Y25916D03*
G01X8763Y25932D03*
G01X69006Y42680D03*
G01X65704Y40902D03*
G01X59989Y41029D03*
G01X54782Y36076D03*
G01X54782Y34425D03*
G01X53131Y40648D03*
G01X43987Y41131D03*
G01X43987Y41995D03*
G01X52242Y45601D03*
G01X51480Y45601D03*
G01X50591Y45601D03*
G01X49829Y45601D03*
G01X52242Y38716D03*
G01X51480Y38716D03*
G01X50591Y38716D03*
G01X49829Y38716D03*
G01X48940Y38716D03*
G01X48940Y45601D03*
G01X31795Y39886D03*
G01X33065Y39505D03*
G01X78023Y18931D03*
G01X44622Y39378D03*
G01X24302Y39505D03*
G01X54528Y26932D03*
G01X43987Y44585D03*
G01X69260Y22233D03*
G01X75356Y37600D03*
G01X70784Y38235D03*
G01X24810Y17280D03*
G01X50972Y21471D03*
G01X23032Y15756D03*
G01X35478Y42807D03*
G01X56941Y33155D03*
G01X30017Y18804D03*
G01X43987Y40267D03*
G01X37891Y39632D03*
G01X36875Y45093D03*
G01X46273Y35822D03*
G01X47162Y34679D03*
G01X47924Y32774D03*
G01X55671Y30996D03*
G01X48051Y38743D03*
G01X57195Y37854D03*
G01X63291Y41029D03*
G01X76118Y40140D03*
G01X79293Y9787D03*
G01X72816Y32520D03*
G01X73070Y31504D03*
G01X17317Y47125D03*
G01X54274Y43696D03*
G01X54274Y42934D03*
G01X58846Y39505D03*
G01X60497Y39251D03*
G01X59354Y36711D03*
G01X59354Y35441D03*
G01X43987Y42858D03*
G01X43987Y43722D03*
G01X23286Y41537D03*
G01X23159Y40140D03*
G01X16891Y46125D03*
G01X16383Y45363D03*
G01X16383Y40029D03*
G01X5969Y43077D03*
G01X26835Y46340D03*
G01X54237Y44585D03*
G54D33*
G01X82708Y27852D02*
G01X84008Y27852D01*
G01X82708Y22203D02*
G01X84008Y22203D01*
G54D34*
G01X63926Y52578D02*
G01X63926Y51578D01*
G01X59926Y52578D02*
G01X59926Y51578D01*
M00*
M02*
