G04 Layer: TopPasteMaskLayer*
G04 EasyEDA v6.3.52, 2020-06-08T18:28:06+08:00*
G04 b620e5eaaf5e4283affdf04958e78c07,0271aa7b776e406f8d319a2d24a91b4c,10*
G04 Gerber Generator version 0.2*
G04 Scale: 100 percent, Rotated: No, Reflected: No *
G04 Dimensions in millimeters *
G04 leading zeros omitted , absolute positions ,3 integer and 3 decimal *
%FSLAX33Y33*%
%MOMM*%
G90*
G71D02*

%ADD13C,0.599999*%
%ADD14C,0.999998*%
%ADD16C,1.599997*%
%ADD18R,2.099996X0.399999*%
%ADD19R,0.999998X1.499997*%
%ADD20R,1.899996X1.899996*%
%ADD21R,0.499999X0.999998*%
%ADD22R,0.990600X1.092200*%
%ADD23R,1.399997X1.399997*%
%ADD24R,0.999998X1.550010*%
%ADD25R,1.550010X0.999998*%
%ADD26R,0.999998X0.999998*%
%ADD27R,2.199996X3.499993*%
%ADD28R,2.199996X1.099998*%
%ADD29R,1.099998X0.999998*%
%ADD30R,1.999996X1.999996*%
%ADD31R,1.899996X1.199998*%

%LPD*%
G54D16*
G01X10495Y54406D02*
G01X6323Y58578D01*
G01X5466Y49377D02*
G01X1294Y53549D01*
G54D14*
G01X8198Y53111D02*
G01X4309Y57000D01*
G01X6761Y51674D02*
G01X2872Y55563D01*
G54D13*
G01X68199Y52246D02*
G01X68199Y53166D01*
G01X66929Y52246D02*
G01X66929Y53166D01*
G01X65659Y52246D02*
G01X65659Y53166D01*
G01X64389Y52246D02*
G01X64389Y53166D01*
G01X68199Y46767D02*
G01X68199Y47687D01*
G01X66929Y46767D02*
G01X66929Y47687D01*
G01X65659Y46767D02*
G01X65659Y47687D01*
G01X64389Y46767D02*
G01X64389Y47687D01*
G01X79333Y32060D02*
G01X80533Y32060D01*
G01X79333Y33330D02*
G01X80533Y33330D01*
G01X79333Y34600D02*
G01X80533Y34600D01*
G01X79333Y35870D02*
G01X80533Y35870D01*
G01X79333Y37140D02*
G01X80533Y37140D01*
G01X79333Y38410D02*
G01X80533Y38410D01*
G01X79333Y39680D02*
G01X80533Y39680D01*
G01X79333Y40950D02*
G01X80533Y40950D01*
G01X73390Y32060D02*
G01X74590Y32060D01*
G01X73390Y33330D02*
G01X74590Y33330D01*
G01X73390Y34600D02*
G01X74590Y34600D01*
G01X73390Y35870D02*
G01X74590Y35870D01*
G01X73390Y37140D02*
G01X74590Y37140D01*
G01X73390Y38410D02*
G01X74590Y38410D01*
G01X73390Y39680D02*
G01X74590Y39680D01*
G01X73390Y40950D02*
G01X74590Y40950D01*
G54D18*
G01X84707Y28728D03*
G01X84707Y29378D03*
G01X84707Y30028D03*
G01X84707Y30677D03*
G01X84707Y31327D03*
G54D19*
G01X85508Y26728D03*
G01X85508Y33327D03*
G54D20*
G01X87758Y28927D03*
G01X87758Y31128D03*
G54D21*
G01X5476Y33092D03*
G01X6477Y33092D03*
G01X7477Y33092D03*
G01X7477Y35092D03*
G01X6477Y35092D03*
G01X5476Y35092D03*
G54D22*
G01X71501Y26256D03*
G01X71501Y27957D03*
G54D23*
G01X2921Y32464D03*
G01X2921Y35464D03*
G54D24*
G01X75962Y28377D03*
G01X77961Y28377D03*
G01X75962Y25837D03*
G01X77961Y25837D03*
G01X75708Y15296D03*
G01X77707Y15296D03*
G01X75708Y12756D03*
G01X77707Y12756D03*
G54D25*
G01X26606Y49284D03*
G01X26606Y51284D03*
G01X70993Y51348D03*
G01X70993Y49348D03*
G54D24*
G01X85741Y47554D03*
G01X87740Y47554D03*
G01X85741Y13518D03*
G01X87740Y13518D03*
G01X6968Y30028D03*
G01X4969Y30028D03*
G54D25*
G01X68961Y27853D03*
G01X68961Y25853D03*
G36*
G01X35529Y46781D02*
G01X35529Y48279D01*
G01X36527Y48279D01*
G01X36527Y46781D01*
G01X35529Y46781D01*
G37*
G36*
G01X38529Y46781D02*
G01X38529Y48279D01*
G01X39527Y48279D01*
G01X39527Y46781D01*
G01X38529Y46781D01*
G37*
G36*
G01X38529Y51780D02*
G01X38529Y53281D01*
G01X39527Y53281D01*
G01X39527Y51780D01*
G01X38529Y51780D01*
G37*
G36*
G01X35529Y51780D02*
G01X35529Y53281D01*
G01X36527Y53281D01*
G01X36527Y51780D01*
G01X35529Y51780D01*
G37*
G36*
G01X28798Y46654D02*
G01X28798Y48152D01*
G01X29796Y48152D01*
G01X29796Y46654D01*
G01X28798Y46654D01*
G37*
G36*
G01X31798Y46654D02*
G01X31798Y48152D01*
G01X32796Y48152D01*
G01X32796Y46654D01*
G01X31798Y46654D01*
G37*
G36*
G01X31798Y51653D02*
G01X31798Y53154D01*
G01X32796Y53154D01*
G01X32796Y51653D01*
G01X31798Y51653D01*
G37*
G36*
G01X28798Y51653D02*
G01X28798Y53154D01*
G01X29796Y53154D01*
G01X29796Y51653D01*
G01X28798Y51653D01*
G37*
G54D26*
G01X82352Y25837D03*
G01X79953Y25837D03*
G54D27*
G01X73736Y20376D03*
G54D28*
G01X79933Y22675D03*
G01X79933Y20376D03*
G01X79933Y18076D03*
G54D29*
G01X61976Y50894D03*
G01X61976Y49294D03*
G54D30*
G01X87249Y36496D03*
G01X87249Y44895D03*
G01X86487Y24448D03*
G01X86487Y16049D03*
G54D31*
G01X83185Y43159D03*
G01X83185Y46359D03*
G01X82931Y17530D03*
G01X82931Y14330D03*
M00*
M02*
