;Layer: Drill PTH
;EasyEDA v6.3.52, 2020-06-08T18:28:06+08:00
;b620e5eaaf5e4283affdf04958e78c07,0271aa7b776e406f8d319a2d24a91b4c,10
;Gerber Generator version 0.2
M48
METRIC,LZ,000.000
;Holesize 1 = 0.305 METRIC
T01C0.305
;Holesize 2 = 0.600 METRIC
T02C0.600
;Holesize 3 = 0.915 METRIC
T03C0.915
;Holesize 4 = 1.200 METRIC
T04C1.200
;Holesize 5 = 3.000 METRIC
T05C3.000
%
G05
G90
T01
X+011557Y+048697
X+073406Y+047681
X+070104Y+045903
X+063754Y+041712
X+063754Y+040442
X+064897Y+044252
X+063246Y+044506
X+064389Y+046030
X+058674Y+048697
X+058674Y+047935
X+048387Y+047858
X+048387Y+048722
X+029083Y+044633
X+028702Y+045395
X+019431Y+050348
X+020701Y+051364
X+059182Y+041077
X+059182Y+039426
X+057531Y+045649
X+048387Y+046131
X+048387Y+046995
X+056642Y+050602
X+055880Y+050602
X+054991Y+050602
X+054229Y+050602
X+056642Y+043716
X+055880Y+043716
X+054991Y+043716
X+054229Y+043716
X+053340Y+043716
X+053340Y+050602
X+036195Y+044887
X+037465Y+044506
X+082423Y+023932
X+049022Y+044379
X+032131Y+043744
X+058928Y+031933
X+048387Y+049586
X+073660Y+027234
X+079756Y+042601
X+075184Y+043236
X+026924Y+021900
X+055372Y+026472
X+010668Y+052380
X+009525Y+051745
X+008255Y+051745
X+011684Y+053396
X+024892Y+050475
X+027432Y+020757
X+039878Y+047808
X+061341Y+038156
X+034417Y+022789
X+048387Y+045268
X+042291Y+044633
X+041275Y+050094
X+050673Y+040823
X+051562Y+039680
X+052324Y+037775
X+060071Y+035997
X+052451Y+043744
X+061595Y+042855
X+067691Y+046030
X+080518Y+045141
X+080518Y+015677
X+077216Y+037521
X+077470Y+036505
X+031877Y+054031
T02
X+088357Y+032852G85X+087157Y+032852
X+088357Y+027203G85X+087157Y+027203
T03
X+043180Y+021900
X+045720Y+021900
X+030480Y+057460
X+027940Y+057460
X+076200Y+057460
X+078740Y+057460
X+055880Y+057460
X+058420Y+057460
X+038100Y+057460
X+035560Y+057460
X+030353Y+019360
X+032893Y+019360
X+035433Y+019360
X+037973Y+019360
X+040513Y+019360
X+045720Y+019360
X+048260Y+019360
X+050800Y+019360
X+053340Y+019360
X+055880Y+019360
X+053340Y+054920
X+050800Y+054920
X+048260Y+054920
X+045720Y+054920
X+043180Y+054920
X+053340Y+057460
X+050800Y+057460
X+048260Y+057460
X+045720Y+057460
X+043180Y+057460
T04
X+068326Y+057379G85X+068326Y+056779
X+064326Y+057379G85X+064326Y+056779
T05
X+084963Y+004628
M30
