G04 Layer: TopSolderMaskLayer*
G04 EasyEDA v6.3.52, 2020-06-08T18:28:06+08:00*
G04 b620e5eaaf5e4283affdf04958e78c07,0271aa7b776e406f8d319a2d24a91b4c,10*
G04 Gerber Generator version 0.2*
G04 Scale: 100 percent, Rotated: No, Reflected: No *
G04 Dimensions in millimeters *
G04 leading zeros omitted , absolute positions ,3 integer and 3 decimal *
%FSLAX33Y33*%
%MOMM*%
G90*
G71D02*

%ADD49C,1.803197*%
%ADD50C,1.203198*%
%ADD51C,1.303198*%
%ADD52C,0.803199*%
%ADD53C,2.203196*%
%ADD54C,5.203190*%
%ADD63C,1.727200*%
%ADD65R,2.403196X3.703193*%
%ADD66R,2.403196X1.303198*%

%LPD*%
G54D49*
G01X10495Y54406D02*
G01X6323Y58578D01*
G01X5466Y49377D02*
G01X1294Y53549D01*
G54D50*
G01X8198Y53111D02*
G01X4309Y57000D01*
G01X6761Y51674D02*
G01X2872Y55563D01*
G54D51*
G01X87108Y32852D02*
G01X88408Y32852D01*
G01X87108Y27203D02*
G01X88408Y27203D01*
G54D52*
G01X68199Y52246D02*
G01X68199Y53166D01*
G01X66929Y52246D02*
G01X66929Y53166D01*
G01X65659Y52246D02*
G01X65659Y53166D01*
G01X64389Y52246D02*
G01X64389Y53166D01*
G01X68199Y46767D02*
G01X68199Y47687D01*
G01X66929Y46767D02*
G01X66929Y47687D01*
G01X65659Y46767D02*
G01X65659Y47687D01*
G01X64389Y46767D02*
G01X64389Y47687D01*
G01X79333Y32060D02*
G01X80533Y32060D01*
G01X79333Y33330D02*
G01X80533Y33330D01*
G01X79333Y34600D02*
G01X80533Y34600D01*
G01X79333Y35870D02*
G01X80533Y35870D01*
G01X79333Y37140D02*
G01X80533Y37140D01*
G01X79333Y38410D02*
G01X80533Y38410D01*
G01X79333Y39680D02*
G01X80533Y39680D01*
G01X79333Y40950D02*
G01X80533Y40950D01*
G01X73390Y32060D02*
G01X74590Y32060D01*
G01X73390Y33330D02*
G01X74590Y33330D01*
G01X73390Y34600D02*
G01X74590Y34600D01*
G01X73390Y35870D02*
G01X74590Y35870D01*
G01X73390Y37140D02*
G01X74590Y37140D01*
G01X73390Y38410D02*
G01X74590Y38410D01*
G01X73390Y39680D02*
G01X74590Y39680D01*
G01X73390Y40950D02*
G01X74590Y40950D01*
G54D53*
G01X68326Y57579D02*
G01X68326Y56579D01*
G01X64326Y57579D02*
G01X64326Y56579D01*
G54D54*
G01X84963Y4628D03*
G36*
G01X83555Y28425D02*
G01X83555Y29029D01*
G01X85859Y29029D01*
G01X85859Y28425D01*
G01X83555Y28425D01*
G37*
G36*
G01X83555Y29075D02*
G01X83555Y29680D01*
G01X85859Y29680D01*
G01X85859Y29075D01*
G01X83555Y29075D01*
G37*
G36*
G01X83555Y29725D02*
G01X83555Y30330D01*
G01X85859Y30330D01*
G01X85859Y29725D01*
G01X83555Y29725D01*
G37*
G36*
G01X83555Y30375D02*
G01X83555Y30980D01*
G01X85859Y30980D01*
G01X85859Y30375D01*
G01X83555Y30375D01*
G37*
G36*
G01X83555Y31026D02*
G01X83555Y31630D01*
G01X85859Y31630D01*
G01X85859Y31026D01*
G01X83555Y31026D01*
G37*
G36*
G01X84907Y25877D02*
G01X84907Y27579D01*
G01X86108Y27579D01*
G01X86108Y25877D01*
G01X84907Y25877D01*
G37*
G36*
G01X84907Y32476D02*
G01X84907Y34178D01*
G01X86108Y34178D01*
G01X86108Y32476D01*
G01X84907Y32476D01*
G37*
G36*
G01X86705Y27876D02*
G01X86705Y29979D01*
G01X88808Y29979D01*
G01X88808Y27876D01*
G01X86705Y27876D01*
G37*
G36*
G01X86705Y30076D02*
G01X86705Y32179D01*
G01X88808Y32179D01*
G01X88808Y30076D01*
G01X86705Y30076D01*
G37*
G36*
G01X5125Y32489D02*
G01X5125Y33693D01*
G01X5826Y33693D01*
G01X5826Y32489D01*
G01X5125Y32489D01*
G37*
G36*
G01X6126Y32489D02*
G01X6126Y33693D01*
G01X6827Y33693D01*
G01X6827Y32489D01*
G01X6126Y32489D01*
G37*
G36*
G01X7127Y32489D02*
G01X7127Y33693D01*
G01X7828Y33693D01*
G01X7828Y32489D01*
G01X7127Y32489D01*
G37*
G36*
G01X7127Y34490D02*
G01X7127Y35694D01*
G01X7828Y35694D01*
G01X7828Y34490D01*
G01X7127Y34490D01*
G37*
G36*
G01X6126Y34490D02*
G01X6126Y35694D01*
G01X6827Y35694D01*
G01X6827Y34490D01*
G01X6126Y34490D01*
G37*
G36*
G01X5125Y34490D02*
G01X5125Y35694D01*
G01X5826Y35694D01*
G01X5826Y34490D01*
G01X5125Y34490D01*
G37*
G36*
G01X70904Y25608D02*
G01X70904Y26903D01*
G01X72097Y26903D01*
G01X72097Y25608D01*
G01X70904Y25608D01*
G37*
G36*
G01X70904Y27310D02*
G01X70904Y28605D01*
G01X72097Y28605D01*
G01X72097Y27310D01*
G01X70904Y27310D01*
G37*
G36*
G01X2118Y31663D02*
G01X2118Y33266D01*
G01X3723Y33266D01*
G01X3723Y31663D01*
G01X2118Y31663D01*
G37*
G36*
G01X2118Y34663D02*
G01X2118Y36266D01*
G01X3723Y36266D01*
G01X3723Y34663D01*
G01X2118Y34663D01*
G37*
G36*
G01X75359Y27500D02*
G01X75359Y29253D01*
G01X76563Y29253D01*
G01X76563Y27500D01*
G01X75359Y27500D01*
G37*
G36*
G01X77360Y27500D02*
G01X77360Y29253D01*
G01X78564Y29253D01*
G01X78564Y27500D01*
G01X77360Y27500D01*
G37*
G36*
G01X75359Y24960D02*
G01X75359Y26713D01*
G01X76563Y26713D01*
G01X76563Y24960D01*
G01X75359Y24960D01*
G37*
G36*
G01X77360Y24960D02*
G01X77360Y26713D01*
G01X78564Y26713D01*
G01X78564Y24960D01*
G01X77360Y24960D01*
G37*
G36*
G01X75105Y14419D02*
G01X75105Y16172D01*
G01X76309Y16172D01*
G01X76309Y14419D01*
G01X75105Y14419D01*
G37*
G36*
G01X77106Y14419D02*
G01X77106Y16172D01*
G01X78310Y16172D01*
G01X78310Y14419D01*
G01X77106Y14419D01*
G37*
G36*
G01X75105Y11879D02*
G01X75105Y13632D01*
G01X76309Y13632D01*
G01X76309Y11879D01*
G01X75105Y11879D01*
G37*
G36*
G01X77106Y11879D02*
G01X77106Y13632D01*
G01X78310Y13632D01*
G01X78310Y11879D01*
G01X77106Y11879D01*
G37*
G36*
G01X25730Y48681D02*
G01X25730Y49885D01*
G01X27482Y49885D01*
G01X27482Y48681D01*
G01X25730Y48681D01*
G37*
G36*
G01X25730Y50683D02*
G01X25730Y51887D01*
G01X27482Y51887D01*
G01X27482Y50683D01*
G01X25730Y50683D01*
G37*
G36*
G01X70116Y50746D02*
G01X70116Y51950D01*
G01X71869Y51950D01*
G01X71869Y50746D01*
G01X70116Y50746D01*
G37*
G36*
G01X70116Y48745D02*
G01X70116Y49949D01*
G01X71869Y49949D01*
G01X71869Y48745D01*
G01X70116Y48745D01*
G37*
G36*
G01X85138Y46677D02*
G01X85138Y48430D01*
G01X86342Y48430D01*
G01X86342Y46677D01*
G01X85138Y46677D01*
G37*
G36*
G01X87139Y46677D02*
G01X87139Y48430D01*
G01X88343Y48430D01*
G01X88343Y46677D01*
G01X87139Y46677D01*
G37*
G36*
G01X85138Y12641D02*
G01X85138Y14394D01*
G01X86342Y14394D01*
G01X86342Y12641D01*
G01X85138Y12641D01*
G37*
G36*
G01X87139Y12641D02*
G01X87139Y14394D01*
G01X88343Y14394D01*
G01X88343Y12641D01*
G01X87139Y12641D01*
G37*
G36*
G01X6367Y29151D02*
G01X6367Y30904D01*
G01X7571Y30904D01*
G01X7571Y29151D01*
G01X6367Y29151D01*
G37*
G36*
G01X4366Y29151D02*
G01X4366Y30904D01*
G01X5570Y30904D01*
G01X5570Y29151D01*
G01X4366Y29151D01*
G37*
G36*
G01X68084Y27251D02*
G01X68084Y28455D01*
G01X69837Y28455D01*
G01X69837Y27251D01*
G01X68084Y27251D01*
G37*
G36*
G01X68084Y25250D02*
G01X68084Y26454D01*
G01X69837Y26454D01*
G01X69837Y25250D01*
G01X68084Y25250D01*
G37*
G54D63*
G01X43180Y21900D03*
G01X45720Y21900D03*
G01X30480Y57460D03*
G01X27940Y57460D03*
G01X76200Y57460D03*
G01X78740Y57460D03*
G01X55880Y57460D03*
G01X58420Y57460D03*
G01X38100Y57460D03*
G01X35560Y57460D03*
G01X30353Y19360D03*
G01X32893Y19360D03*
G01X35433Y19360D03*
G01X37973Y19360D03*
G01X40513Y19360D03*
G01X45720Y19360D03*
G01X48260Y19360D03*
G01X50800Y19360D03*
G01X53340Y19360D03*
G01X55880Y19360D03*
G01X53340Y54920D03*
G01X50800Y54920D03*
G01X48260Y54920D03*
G01X45720Y54920D03*
G01X43180Y54920D03*
G01X53340Y57460D03*
G01X50800Y57460D03*
G01X48260Y57460D03*
G01X45720Y57460D03*
G01X43180Y57460D03*
G36*
G01X35427Y46680D02*
G01X35427Y48382D01*
G01X36629Y48382D01*
G01X36629Y46680D01*
G01X35427Y46680D01*
G37*
G36*
G01X38427Y46680D02*
G01X38427Y48382D01*
G01X39629Y48382D01*
G01X39629Y46680D01*
G01X38427Y46680D01*
G37*
G36*
G01X38427Y51678D02*
G01X38427Y53383D01*
G01X39629Y53383D01*
G01X39629Y51678D01*
G01X38427Y51678D01*
G37*
G36*
G01X35427Y51678D02*
G01X35427Y53383D01*
G01X36629Y53383D01*
G01X36629Y51678D01*
G01X35427Y51678D01*
G37*
G36*
G01X28696Y46553D02*
G01X28696Y48255D01*
G01X29898Y48255D01*
G01X29898Y46553D01*
G01X28696Y46553D01*
G37*
G36*
G01X31696Y46553D02*
G01X31696Y48255D01*
G01X32898Y48255D01*
G01X32898Y46553D01*
G01X31696Y46553D01*
G37*
G36*
G01X31696Y51551D02*
G01X31696Y53256D01*
G01X32898Y53256D01*
G01X32898Y51551D01*
G01X31696Y51551D01*
G37*
G36*
G01X28696Y51551D02*
G01X28696Y53256D01*
G01X29898Y53256D01*
G01X29898Y51551D01*
G01X28696Y51551D01*
G37*
G36*
G01X81752Y25235D02*
G01X81752Y26438D01*
G01X82953Y26438D01*
G01X82953Y25235D01*
G01X81752Y25235D01*
G37*
G36*
G01X79352Y25235D02*
G01X79352Y26438D01*
G01X80553Y26438D01*
G01X80553Y25235D01*
G01X79352Y25235D01*
G37*
G54D65*
G01X73736Y20376D03*
G54D66*
G01X79933Y22675D03*
G36*
G01X78732Y19723D02*
G01X78732Y21028D01*
G01X81135Y21028D01*
G01X81135Y19723D01*
G01X78732Y19723D01*
G37*
G01X79933Y18076D03*
G36*
G01X61323Y50292D02*
G01X61323Y51496D01*
G01X62628Y51496D01*
G01X62628Y50292D01*
G01X61323Y50292D01*
G37*
G36*
G01X61323Y48691D02*
G01X61323Y49895D01*
G01X62628Y49895D01*
G01X62628Y48691D01*
G01X61323Y48691D01*
G37*
G36*
G01X86146Y35395D02*
G01X86146Y37597D01*
G01X88351Y37597D01*
G01X88351Y35395D01*
G01X86146Y35395D01*
G37*
G36*
G01X86146Y43794D02*
G01X86146Y45996D01*
G01X88351Y45996D01*
G01X88351Y43794D01*
G01X86146Y43794D01*
G37*
G36*
G01X85384Y23347D02*
G01X85384Y25549D01*
G01X87589Y25549D01*
G01X87589Y23347D01*
G01X85384Y23347D01*
G37*
G36*
G01X85384Y14948D02*
G01X85384Y17150D01*
G01X87589Y17150D01*
G01X87589Y14948D01*
G01X85384Y14948D01*
G37*
G36*
G01X82133Y42458D02*
G01X82133Y43860D01*
G01X84236Y43860D01*
G01X84236Y42458D01*
G01X82133Y42458D01*
G37*
G36*
G01X82133Y45659D02*
G01X82133Y47061D01*
G01X84236Y47061D01*
G01X84236Y45659D01*
G01X82133Y45659D01*
G37*
G36*
G01X81879Y16830D02*
G01X81879Y18232D01*
G01X83982Y18232D01*
G01X83982Y16830D01*
G01X81879Y16830D01*
G37*
G36*
G01X81879Y13629D02*
G01X81879Y15031D01*
G01X83982Y15031D01*
G01X83982Y13629D01*
G01X81879Y13629D01*
G37*
M00*
M02*
