G04 Layer: BottomPasteMaskLayer*
G04 EasyEDA v6.3.52, 2020-06-08T18:28:06+08:00*
G04 b620e5eaaf5e4283affdf04958e78c07,0271aa7b776e406f8d319a2d24a91b4c,10*
G04 Gerber Generator version 0.2*
G04 Scale: 100 percent, Rotated: No, Reflected: No *
G04 Dimensions in millimeters *
G04 leading zeros omitted , absolute positions ,3 integer and 3 decimal *
%FSLAX33Y33*%
%MOMM*%
G90*
G71D02*

%ADD38R,0.899998X1.499997*%
%ADD39R,1.499997X0.899998*%

%LPD*%
G36*
G01X71943Y38140D02*
G01X71943Y39340D01*
G01X70042Y39340D01*
G01X70042Y38140D01*
G01X71943Y38140D01*
G37*
G36*
G01X71943Y34939D02*
G01X71943Y36139D01*
G01X70042Y36139D01*
G01X70042Y34939D01*
G01X71943Y34939D01*
G37*
G36*
G01X66994Y36139D02*
G01X66994Y34939D01*
G01X68895Y34939D01*
G01X68895Y36139D01*
G01X66994Y36139D01*
G37*
G36*
G01X66994Y39340D02*
G01X66994Y38140D01*
G01X68895Y38140D01*
G01X68895Y39340D01*
G01X66994Y39340D01*
G37*
G36*
G01X63637Y38059D02*
G01X63637Y38760D01*
G01X62387Y38760D01*
G01X62387Y38059D01*
G01X63637Y38059D01*
G37*
G36*
G01X66136Y37110D02*
G01X66136Y37810D01*
G01X64886Y37810D01*
G01X64886Y37110D01*
G01X66136Y37110D01*
G37*
G36*
G01X66136Y39009D02*
G01X66136Y39709D01*
G01X64886Y39709D01*
G01X64886Y39009D01*
G01X66136Y39009D01*
G37*
G36*
G01X63637Y34757D02*
G01X63637Y35458D01*
G01X62387Y35458D01*
G01X62387Y34757D01*
G01X63637Y34757D01*
G37*
G36*
G01X66136Y33808D02*
G01X66136Y34508D01*
G01X64886Y34508D01*
G01X64886Y33808D01*
G01X66136Y33808D01*
G37*
G36*
G01X66136Y35707D02*
G01X66136Y36407D01*
G01X64886Y36407D01*
G01X64886Y35707D01*
G01X66136Y35707D01*
G37*
G36*
G01X28533Y21581D02*
G01X29933Y21581D01*
G01X29933Y22981D01*
G01X28533Y22981D01*
G01X28533Y21581D01*
G37*
G36*
G01X31533Y21581D02*
G01X32933Y21581D01*
G01X32933Y22981D01*
G01X31533Y22981D01*
G01X31533Y21581D01*
G37*
G36*
G01X13669Y14449D02*
G01X12669Y14449D01*
G01X12669Y13348D01*
G01X13669Y13348D01*
G01X13669Y14449D01*
G37*
G36*
G01X15269Y14449D02*
G01X14269Y14449D01*
G01X14269Y13348D01*
G01X15269Y13348D01*
G01X15269Y14449D01*
G37*
G36*
G01X29163Y14322D02*
G01X28163Y14322D01*
G01X28163Y13221D01*
G01X29163Y13221D01*
G01X29163Y14322D01*
G37*
G36*
G01X30763Y14322D02*
G01X29763Y14322D01*
G01X29763Y13221D01*
G01X30763Y13221D01*
G01X30763Y14322D01*
G37*
G36*
G01X44530Y14322D02*
G01X43530Y14322D01*
G01X43530Y13221D01*
G01X44530Y13221D01*
G01X44530Y14322D01*
G37*
G36*
G01X46130Y14322D02*
G01X45130Y14322D01*
G01X45130Y13221D01*
G01X46130Y13221D01*
G01X46130Y14322D01*
G37*
G36*
G01X54910Y13221D02*
G01X55910Y13221D01*
G01X55910Y14322D01*
G01X54910Y14322D01*
G01X54910Y13221D01*
G37*
G36*
G01X53310Y13221D02*
G01X54310Y13221D01*
G01X54310Y14322D01*
G01X53310Y14322D01*
G01X53310Y13221D01*
G37*
G36*
G01X70277Y13221D02*
G01X71277Y13221D01*
G01X71277Y14322D01*
G01X70277Y14322D01*
G01X70277Y13221D01*
G37*
G36*
G01X68677Y13221D02*
G01X69677Y13221D01*
G01X69677Y14322D01*
G01X68677Y14322D01*
G01X68677Y13221D01*
G37*
G54D38*
G01X32142Y24457D03*
G01X33412Y24457D03*
G01X34682Y24457D03*
G01X35952Y24457D03*
G01X37222Y24457D03*
G01X38492Y24457D03*
G01X39762Y24457D03*
G01X41032Y24457D03*
G01X42302Y24457D03*
G01X43572Y24457D03*
G01X44842Y24457D03*
G01X46112Y24457D03*
G01X47382Y24457D03*
G01X48652Y24457D03*
G54D39*
G01X50153Y27742D03*
G01X50153Y29012D03*
G01X50153Y30282D03*
G01X50153Y31552D03*
G01X50153Y32822D03*
G01X50153Y34092D03*
G01X50153Y35362D03*
G01X50153Y36632D03*
G01X50153Y37902D03*
G01X50153Y39172D03*
G54D38*
G01X48652Y42456D03*
G01X47382Y42456D03*
G01X46112Y42456D03*
G01X44842Y42456D03*
G01X43572Y42456D03*
G01X42302Y42456D03*
G01X41032Y42456D03*
G01X39762Y42456D03*
G01X38492Y42456D03*
G01X37222Y42456D03*
G01X35952Y42456D03*
G01X34682Y42456D03*
G01X33412Y42456D03*
G01X32142Y42456D03*
G36*
G01X12065Y13518D02*
G01X10541Y13518D01*
G01X10541Y11994D01*
G01X12065Y11994D01*
G01X12065Y13518D01*
G37*
G36*
G01X27432Y13518D02*
G01X25908Y13518D01*
G01X25908Y11994D01*
G01X27432Y11994D01*
G01X27432Y13518D01*
G37*
G36*
G01X42799Y13518D02*
G01X41275Y13518D01*
G01X41275Y11994D01*
G01X42799Y11994D01*
G01X42799Y13518D01*
G37*
G36*
G01X58166Y13518D02*
G01X56642Y13518D01*
G01X56642Y11994D01*
G01X58166Y11994D01*
G01X58166Y13518D01*
G37*
G36*
G01X73533Y13518D02*
G01X72009Y13518D01*
G01X72009Y11994D01*
G01X73533Y11994D01*
G01X73533Y13518D01*
G37*
M00*
M02*
