G04 Layer: BottomLayer*
G04 EasyEDA v6.3.52, 2020-06-08T18:28:06+08:00*
G04 b620e5eaaf5e4283affdf04958e78c07,0271aa7b776e406f8d319a2d24a91b4c,10*
G04 Gerber Generator version 0.2*
G04 Scale: 100 percent, Rotated: No, Reflected: No *
G04 Dimensions in millimeters *
G04 leading zeros omitted , absolute positions ,3 integer and 3 decimal *
%FSLAX33Y33*%
%MOMM*%
G90*
G71D02*

%ADD10C,0.299999*%
%ADD11C,0.254000*%
%ADD12C,0.399999*%
%ADD13C,0.599999*%
%ADD17C,0.609600*%
%ADD32C,4.999990*%
%ADD33C,1.524000*%
%ADD34C,1.099998*%
%ADD35C,1.999996*%
%ADD38R,0.899998X1.499997*%
%ADD39R,1.499997X0.899998*%

%LPD*%
G36*
G01X32344Y43212D02*
G01X32329Y43213D01*
G01X32314Y43212D01*
G01X32299Y43208D01*
G01X32266Y43199D01*
G01X32233Y43192D01*
G01X32199Y43186D01*
G01X32165Y43183D01*
G01X32131Y43182D01*
G01X32093Y43183D01*
G01X32056Y43187D01*
G01X32019Y43193D01*
G01X31982Y43202D01*
G01X31956Y43206D01*
G01X31941Y43205D01*
G01X31927Y43202D01*
G01X31913Y43196D01*
G01X31901Y43190D01*
G01X31889Y43181D01*
G01X31879Y43171D01*
G01X31870Y43159D01*
G01X31863Y43146D01*
G01X31858Y43133D01*
G01X31855Y43119D01*
G01X31854Y43104D01*
G01X31854Y42926D01*
G01X31855Y42912D01*
G01X31858Y42898D01*
G01X31863Y42884D01*
G01X31870Y42871D01*
G01X31879Y42860D01*
G01X31889Y42850D01*
G01X31901Y42841D01*
G01X31913Y42834D01*
G01X31927Y42829D01*
G01X31941Y42826D01*
G01X31956Y42825D01*
G01X31957Y42825D01*
G01X32331Y42830D01*
G01X32345Y42831D01*
G01X32359Y42835D01*
G01X32373Y42840D01*
G01X32385Y42847D01*
G01X32397Y42855D01*
G01X32407Y42866D01*
G01X32415Y42877D01*
G01X32422Y42890D01*
G01X32427Y42903D01*
G01X32430Y42917D01*
G01X32431Y42932D01*
G01X32431Y43111D01*
G01X32430Y43126D01*
G01X32427Y43140D01*
G01X32422Y43153D01*
G01X32415Y43166D01*
G01X32406Y43178D01*
G01X32396Y43188D01*
G01X32384Y43197D01*
G01X32372Y43204D01*
G01X32358Y43209D01*
G01X32344Y43212D01*
G37*

%LPD*%
G36*
G01X31334Y24186D02*
G01X24680Y24186D01*
G01X24664Y24184D01*
G01X24648Y24181D01*
G01X24633Y24174D01*
G01X24620Y24166D01*
G01X24608Y24156D01*
G01X24413Y23961D01*
G01X24403Y23949D01*
G01X24395Y23936D01*
G01X24388Y23921D01*
G01X24385Y23905D01*
G01X24384Y23889D01*
G01X24384Y17963D01*
G01X24385Y17948D01*
G01X24388Y17934D01*
G01X24393Y17920D01*
G01X24400Y17908D01*
G01X24408Y17896D01*
G01X24419Y17886D01*
G01X24430Y17877D01*
G01X24443Y17870D01*
G01X24456Y17865D01*
G01X24471Y17862D01*
G01X24485Y17861D01*
G01X44747Y17861D01*
G01X44763Y17862D01*
G01X44778Y17866D01*
G01X44793Y17872D01*
G01X44807Y17880D01*
G01X44819Y17891D01*
G01X45182Y18254D01*
G01X45192Y18266D01*
G01X45201Y18280D01*
G01X45207Y18294D01*
G01X45210Y18310D01*
G01X45212Y18326D01*
G01X45210Y18343D01*
G01X45206Y18359D01*
G01X45199Y18375D01*
G01X45190Y18389D01*
G01X45003Y18626D01*
G01X44986Y18643D01*
G01X44621Y18931D01*
G01X44606Y18940D01*
G01X44591Y18947D01*
G01X44575Y18952D01*
G01X44558Y18953D01*
G01X43180Y18953D01*
G01X43150Y18954D01*
G01X43122Y18957D01*
G01X43093Y18962D01*
G01X43065Y18969D01*
G01X43037Y18979D01*
G01X43011Y18990D01*
G01X42985Y19003D01*
G01X42960Y19017D01*
G01X42936Y19034D01*
G01X42913Y19052D01*
G01X42892Y19072D01*
G01X41241Y20723D01*
G01X41224Y20741D01*
G01X41211Y20753D01*
G01X41197Y20763D01*
G01X41181Y20770D01*
G01X41165Y20774D01*
G01X41148Y20776D01*
G01X41133Y20775D01*
G01X41119Y20772D01*
G01X41105Y20767D01*
G01X41093Y20760D01*
G01X41081Y20751D01*
G01X41071Y20741D01*
G01X41062Y20729D01*
G01X41055Y20716D01*
G01X41050Y20703D01*
G01X41047Y20689D01*
G01X41046Y20674D01*
G01X41046Y20471D01*
G01X41048Y20452D01*
G01X41053Y20435D01*
G01X41061Y20418D01*
G01X41356Y19930D01*
G01X41359Y19926D01*
G01X41384Y19887D01*
G01X41407Y19847D01*
G01X41428Y19806D01*
G01X41447Y19764D01*
G01X41465Y19721D01*
G01X41480Y19678D01*
G01X41493Y19634D01*
G01X41505Y19589D01*
G01X41514Y19543D01*
G01X41522Y19498D01*
G01X41527Y19452D01*
G01X41530Y19406D01*
G01X41531Y19360D01*
G01X41530Y19314D01*
G01X41527Y19268D01*
G01X41522Y19223D01*
G01X41515Y19178D01*
G01X41506Y19133D01*
G01X41494Y19089D01*
G01X41481Y19045D01*
G01X41466Y19002D01*
G01X41449Y18959D01*
G01X41430Y18918D01*
G01X41409Y18877D01*
G01X41387Y18837D01*
G01X41363Y18798D01*
G01X41337Y18761D01*
G01X41309Y18724D01*
G01X41280Y18689D01*
G01X41249Y18656D01*
G01X41216Y18623D01*
G01X41183Y18592D01*
G01X41148Y18563D01*
G01X41111Y18535D01*
G01X41074Y18509D01*
G01X41035Y18485D01*
G01X40995Y18463D01*
G01X40954Y18442D01*
G01X40913Y18423D01*
G01X40870Y18406D01*
G01X40827Y18391D01*
G01X40783Y18378D01*
G01X40739Y18366D01*
G01X40694Y18357D01*
G01X40649Y18350D01*
G01X40604Y18345D01*
G01X40558Y18342D01*
G01X40513Y18341D01*
G01X40467Y18342D01*
G01X40421Y18345D01*
G01X40376Y18350D01*
G01X40331Y18357D01*
G01X40286Y18366D01*
G01X40242Y18378D01*
G01X40198Y18391D01*
G01X40155Y18406D01*
G01X40112Y18423D01*
G01X40071Y18442D01*
G01X40030Y18463D01*
G01X39990Y18485D01*
G01X39951Y18509D01*
G01X39914Y18535D01*
G01X39877Y18563D01*
G01X39842Y18592D01*
G01X39809Y18623D01*
G01X39776Y18656D01*
G01X39745Y18689D01*
G01X39716Y18724D01*
G01X39688Y18761D01*
G01X39662Y18798D01*
G01X39638Y18837D01*
G01X39616Y18877D01*
G01X39595Y18918D01*
G01X39576Y18959D01*
G01X39559Y19002D01*
G01X39544Y19045D01*
G01X39531Y19089D01*
G01X39519Y19133D01*
G01X39510Y19178D01*
G01X39503Y19223D01*
G01X39498Y19268D01*
G01X39495Y19314D01*
G01X39494Y19360D01*
G01X39495Y19407D01*
G01X39498Y19454D01*
G01X39504Y19501D01*
G01X39511Y19548D01*
G01X39521Y19594D01*
G01X39533Y19640D01*
G01X39547Y19685D01*
G01X39563Y19729D01*
G01X39582Y19773D01*
G01X39602Y19816D01*
G01X39624Y19857D01*
G01X39648Y19898D01*
G01X39674Y19938D01*
G01X39702Y19976D01*
G01X39731Y20013D01*
G01X39762Y20048D01*
G01X39795Y20083D01*
G01X39829Y20115D01*
G01X39833Y20118D01*
G01X40203Y20485D01*
G01X40213Y20497D01*
G01X40222Y20511D01*
G01X40228Y20525D01*
G01X40232Y20541D01*
G01X40233Y20557D01*
G01X40233Y20800D01*
G01X40232Y20814D01*
G01X40229Y20829D01*
G01X40224Y20842D01*
G01X40217Y20855D01*
G01X40208Y20867D01*
G01X40198Y20877D01*
G01X40186Y20885D01*
G01X40174Y20892D01*
G01X40160Y20897D01*
G01X40146Y20901D01*
G01X40131Y20902D01*
G01X40115Y20900D01*
G01X40099Y20896D01*
G01X40084Y20890D01*
G01X40070Y20881D01*
G01X40058Y20870D01*
G01X39082Y19894D01*
G01X39071Y19881D01*
G01X39062Y19866D01*
G01X39056Y19850D01*
G01X39052Y19834D01*
G01X38989Y19291D01*
G01X38988Y19286D01*
G01X38984Y19240D01*
G01X38978Y19194D01*
G01X38969Y19149D01*
G01X38958Y19104D01*
G01X38946Y19059D01*
G01X38931Y19015D01*
G01X38915Y18972D01*
G01X38896Y18930D01*
G01X38876Y18888D01*
G01X38853Y18848D01*
G01X38829Y18808D01*
G01X38803Y18770D01*
G01X38776Y18733D01*
G01X38746Y18697D01*
G01X38715Y18663D01*
G01X38683Y18630D01*
G01X38649Y18598D01*
G01X38614Y18568D01*
G01X38577Y18540D01*
G01X38540Y18513D01*
G01X38460Y18465D01*
G01X38419Y18444D01*
G01X38377Y18425D01*
G01X38334Y18407D01*
G01X38291Y18392D01*
G01X38247Y18379D01*
G01X38202Y18367D01*
G01X38156Y18358D01*
G01X38111Y18350D01*
G01X38065Y18345D01*
G01X38019Y18342D01*
G01X37973Y18341D01*
G01X37927Y18342D01*
G01X37881Y18345D01*
G01X37836Y18350D01*
G01X37791Y18357D01*
G01X37746Y18366D01*
G01X37702Y18378D01*
G01X37658Y18391D01*
G01X37615Y18406D01*
G01X37572Y18423D01*
G01X37531Y18442D01*
G01X37490Y18463D01*
G01X37450Y18485D01*
G01X37411Y18509D01*
G01X37374Y18535D01*
G01X37337Y18563D01*
G01X37302Y18592D01*
G01X37269Y18623D01*
G01X37236Y18656D01*
G01X37205Y18689D01*
G01X37176Y18724D01*
G01X37148Y18761D01*
G01X37122Y18798D01*
G01X37098Y18837D01*
G01X37076Y18877D01*
G01X37055Y18918D01*
G01X37036Y18959D01*
G01X37019Y19002D01*
G01X37004Y19045D01*
G01X36991Y19089D01*
G01X36979Y19133D01*
G01X36970Y19178D01*
G01X36963Y19223D01*
G01X36958Y19268D01*
G01X36955Y19314D01*
G01X36954Y19360D01*
G01X36955Y19406D01*
G01X36958Y19452D01*
G01X36963Y19498D01*
G01X36971Y19544D01*
G01X36980Y19589D01*
G01X36992Y19634D01*
G01X37005Y19678D01*
G01X37020Y19721D01*
G01X37038Y19764D01*
G01X37057Y19806D01*
G01X37078Y19847D01*
G01X37126Y19927D01*
G01X37153Y19964D01*
G01X37181Y20001D01*
G01X37211Y20036D01*
G01X37243Y20070D01*
G01X37276Y20102D01*
G01X37310Y20133D01*
G01X37346Y20163D01*
G01X37383Y20190D01*
G01X37421Y20216D01*
G01X37461Y20240D01*
G01X37501Y20263D01*
G01X37543Y20283D01*
G01X37585Y20302D01*
G01X37628Y20318D01*
G01X37672Y20333D01*
G01X37717Y20345D01*
G01X37762Y20356D01*
G01X37807Y20365D01*
G01X37853Y20371D01*
G01X37899Y20375D01*
G01X37904Y20376D01*
G01X38447Y20439D01*
G01X38463Y20443D01*
G01X38479Y20449D01*
G01X38494Y20458D01*
G01X38507Y20468D01*
G01X39327Y21289D01*
G01X39337Y21301D01*
G01X39346Y21315D01*
G01X39352Y21329D01*
G01X39355Y21345D01*
G01X39357Y21361D01*
G01X39357Y23171D01*
G01X39355Y23186D01*
G01X39352Y23201D01*
G01X39346Y23216D01*
G01X39236Y23435D01*
G01X39228Y23449D01*
G01X39218Y23461D01*
G01X39206Y23471D01*
G01X39193Y23480D01*
G01X39180Y23487D01*
G01X39163Y23495D01*
G01X39146Y23500D01*
G01X39128Y23501D01*
G01X39109Y23500D01*
G01X39092Y23495D01*
G01X39075Y23487D01*
G01X39062Y23480D01*
G01X39049Y23471D01*
G01X39037Y23461D01*
G01X39027Y23449D01*
G01X39019Y23435D01*
G01X38910Y23219D01*
G01X38905Y23204D01*
G01X38901Y23189D01*
G01X38900Y23173D01*
G01X38900Y22420D01*
G01X38899Y22391D01*
G01X38896Y22362D01*
G01X38890Y22334D01*
G01X38883Y22306D01*
G01X38874Y22278D01*
G01X38863Y22251D01*
G01X38850Y22225D01*
G01X38835Y22200D01*
G01X38819Y22177D01*
G01X38800Y22154D01*
G01X38781Y22133D01*
G01X36542Y19894D01*
G01X36531Y19881D01*
G01X36522Y19866D01*
G01X36516Y19850D01*
G01X36512Y19834D01*
G01X36449Y19291D01*
G01X36448Y19286D01*
G01X36444Y19240D01*
G01X36438Y19194D01*
G01X36429Y19149D01*
G01X36418Y19104D01*
G01X36406Y19059D01*
G01X36391Y19015D01*
G01X36375Y18972D01*
G01X36356Y18930D01*
G01X36336Y18888D01*
G01X36313Y18848D01*
G01X36289Y18808D01*
G01X36263Y18770D01*
G01X36236Y18733D01*
G01X36206Y18697D01*
G01X36175Y18663D01*
G01X36143Y18630D01*
G01X36109Y18598D01*
G01X36074Y18568D01*
G01X36037Y18540D01*
G01X36000Y18513D01*
G01X35920Y18465D01*
G01X35879Y18444D01*
G01X35837Y18425D01*
G01X35794Y18407D01*
G01X35751Y18392D01*
G01X35707Y18379D01*
G01X35662Y18367D01*
G01X35616Y18358D01*
G01X35571Y18350D01*
G01X35525Y18345D01*
G01X35479Y18342D01*
G01X35433Y18341D01*
G01X35387Y18342D01*
G01X35341Y18345D01*
G01X35296Y18350D01*
G01X35251Y18357D01*
G01X35206Y18366D01*
G01X35162Y18378D01*
G01X35118Y18391D01*
G01X35075Y18406D01*
G01X35032Y18423D01*
G01X34991Y18442D01*
G01X34950Y18463D01*
G01X34910Y18485D01*
G01X34871Y18509D01*
G01X34834Y18535D01*
G01X34797Y18563D01*
G01X34762Y18592D01*
G01X34729Y18623D01*
G01X34696Y18656D01*
G01X34665Y18689D01*
G01X34636Y18724D01*
G01X34608Y18761D01*
G01X34582Y18798D01*
G01X34558Y18837D01*
G01X34536Y18877D01*
G01X34515Y18918D01*
G01X34496Y18959D01*
G01X34479Y19002D01*
G01X34464Y19045D01*
G01X34451Y19089D01*
G01X34439Y19133D01*
G01X34430Y19178D01*
G01X34423Y19223D01*
G01X34418Y19268D01*
G01X34415Y19314D01*
G01X34414Y19360D01*
G01X34415Y19408D01*
G01X34419Y19457D01*
G01X34425Y19506D01*
G01X34433Y19554D01*
G01X34435Y19573D01*
G01X34434Y19588D01*
G01X34430Y19602D01*
G01X34425Y19616D01*
G01X34418Y19628D01*
G01X34410Y19640D01*
G01X34400Y19650D01*
G01X34388Y19659D01*
G01X34375Y19666D01*
G01X34362Y19671D01*
G01X34347Y19674D01*
G01X34333Y19675D01*
G01X34317Y19674D01*
G01X34302Y19670D01*
G01X34287Y19664D01*
G01X34273Y19656D01*
G01X34261Y19645D01*
G01X34122Y19506D01*
G01X34112Y19494D01*
G01X34104Y19481D01*
G01X33822Y18942D01*
G01X33819Y18937D01*
G01X33799Y18895D01*
G01X33777Y18854D01*
G01X33753Y18814D01*
G01X33727Y18776D01*
G01X33699Y18738D01*
G01X33670Y18702D01*
G01X33639Y18667D01*
G01X33607Y18633D01*
G01X33573Y18602D01*
G01X33538Y18571D01*
G01X33501Y18543D01*
G01X33463Y18516D01*
G01X33424Y18490D01*
G01X33383Y18467D01*
G01X33342Y18446D01*
G01X33300Y18426D01*
G01X33257Y18408D01*
G01X33213Y18393D01*
G01X33168Y18379D01*
G01X33123Y18367D01*
G01X33078Y18358D01*
G01X33032Y18351D01*
G01X32986Y18345D01*
G01X32939Y18342D01*
G01X32893Y18341D01*
G01X32847Y18342D01*
G01X32801Y18345D01*
G01X32756Y18350D01*
G01X32711Y18357D01*
G01X32666Y18366D01*
G01X32622Y18378D01*
G01X32578Y18391D01*
G01X32535Y18406D01*
G01X32492Y18423D01*
G01X32451Y18442D01*
G01X32410Y18463D01*
G01X32370Y18485D01*
G01X32331Y18509D01*
G01X32294Y18535D01*
G01X32257Y18563D01*
G01X32222Y18592D01*
G01X32189Y18623D01*
G01X32156Y18656D01*
G01X32125Y18689D01*
G01X32096Y18724D01*
G01X32068Y18761D01*
G01X32042Y18798D01*
G01X32018Y18837D01*
G01X31996Y18877D01*
G01X31975Y18918D01*
G01X31956Y18959D01*
G01X31939Y19002D01*
G01X31924Y19045D01*
G01X31911Y19089D01*
G01X31899Y19133D01*
G01X31890Y19178D01*
G01X31883Y19223D01*
G01X31878Y19268D01*
G01X31875Y19314D01*
G01X31874Y19360D01*
G01X31875Y19406D01*
G01X31878Y19452D01*
G01X31883Y19498D01*
G01X31891Y19544D01*
G01X31900Y19589D01*
G01X31912Y19634D01*
G01X31925Y19678D01*
G01X31941Y19722D01*
G01X31958Y19764D01*
G01X31977Y19807D01*
G01X31999Y19848D01*
G01X32022Y19888D01*
G01X32047Y19927D01*
G01X32073Y19965D01*
G01X32101Y20001D01*
G01X32131Y20036D01*
G01X32163Y20070D01*
G01X32196Y20103D01*
G01X32230Y20134D01*
G01X32266Y20163D01*
G01X32303Y20190D01*
G01X32342Y20216D01*
G01X32381Y20240D01*
G01X32422Y20263D01*
G01X32463Y20283D01*
G01X32476Y20290D01*
G01X32487Y20299D01*
G01X32498Y20309D01*
G01X32506Y20321D01*
G01X32513Y20333D01*
G01X32518Y20347D01*
G01X32521Y20361D01*
G01X32522Y20375D01*
G01X32521Y20390D01*
G01X32518Y20404D01*
G01X32513Y20418D01*
G01X32506Y20430D01*
G01X32497Y20442D01*
G01X32487Y20452D01*
G01X32475Y20461D01*
G01X32463Y20468D01*
G01X32449Y20473D01*
G01X32435Y20476D01*
G01X32421Y20477D01*
G01X32087Y20477D01*
G01X32071Y20476D01*
G01X32056Y20472D01*
G01X32041Y20466D01*
G01X32027Y20458D01*
G01X32015Y20447D01*
G01X31462Y19894D01*
G01X31451Y19881D01*
G01X31442Y19866D01*
G01X31436Y19850D01*
G01X31432Y19834D01*
G01X31369Y19291D01*
G01X31368Y19286D01*
G01X31364Y19240D01*
G01X31358Y19194D01*
G01X31349Y19149D01*
G01X31338Y19104D01*
G01X31326Y19059D01*
G01X31311Y19015D01*
G01X31295Y18972D01*
G01X31276Y18930D01*
G01X31256Y18888D01*
G01X31233Y18848D01*
G01X31209Y18808D01*
G01X31183Y18770D01*
G01X31156Y18733D01*
G01X31126Y18697D01*
G01X31095Y18663D01*
G01X31063Y18630D01*
G01X31029Y18598D01*
G01X30994Y18568D01*
G01X30957Y18540D01*
G01X30920Y18513D01*
G01X30881Y18489D01*
G01X30840Y18465D01*
G01X30799Y18444D01*
G01X30757Y18425D01*
G01X30714Y18407D01*
G01X30671Y18392D01*
G01X30627Y18379D01*
G01X30582Y18367D01*
G01X30536Y18358D01*
G01X30491Y18350D01*
G01X30445Y18345D01*
G01X30399Y18342D01*
G01X30353Y18341D01*
G01X30307Y18342D01*
G01X30261Y18345D01*
G01X30216Y18350D01*
G01X30171Y18357D01*
G01X30126Y18366D01*
G01X30082Y18378D01*
G01X30038Y18391D01*
G01X29995Y18406D01*
G01X29952Y18423D01*
G01X29911Y18442D01*
G01X29870Y18463D01*
G01X29830Y18485D01*
G01X29791Y18509D01*
G01X29754Y18535D01*
G01X29717Y18563D01*
G01X29682Y18592D01*
G01X29649Y18623D01*
G01X29616Y18656D01*
G01X29585Y18689D01*
G01X29556Y18724D01*
G01X29528Y18761D01*
G01X29502Y18798D01*
G01X29478Y18837D01*
G01X29456Y18877D01*
G01X29435Y18918D01*
G01X29416Y18959D01*
G01X29399Y19002D01*
G01X29384Y19045D01*
G01X29371Y19089D01*
G01X29359Y19133D01*
G01X29350Y19178D01*
G01X29343Y19223D01*
G01X29338Y19268D01*
G01X29335Y19314D01*
G01X29334Y19360D01*
G01X29335Y19406D01*
G01X29338Y19453D01*
G01X29344Y19499D01*
G01X29351Y19545D01*
G01X29361Y19591D01*
G01X29372Y19636D01*
G01X29386Y19681D01*
G01X29402Y19725D01*
G01X29419Y19768D01*
G01X29439Y19810D01*
G01X29461Y19852D01*
G01X29484Y19892D01*
G01X29509Y19931D01*
G01X29536Y19969D01*
G01X29565Y20006D01*
G01X29596Y20041D01*
G01X29628Y20075D01*
G01X29661Y20108D01*
G01X29696Y20138D01*
G01X29733Y20168D01*
G01X29744Y20178D01*
G01X29754Y20190D01*
G01X29762Y20203D01*
G01X29768Y20218D01*
G01X29771Y20233D01*
G01X29772Y20248D01*
G01X29771Y20263D01*
G01X29768Y20277D01*
G01X29763Y20291D01*
G01X29756Y20303D01*
G01X29748Y20315D01*
G01X29737Y20325D01*
G01X29726Y20334D01*
G01X29713Y20341D01*
G01X29699Y20346D01*
G01X29685Y20349D01*
G01X29671Y20350D01*
G01X27910Y20350D01*
G01X27893Y20348D01*
G01X27875Y20344D01*
G01X27772Y20306D01*
G01X27750Y20294D01*
G01X27721Y20276D01*
G01X27692Y20259D01*
G01X27661Y20244D01*
G01X27630Y20231D01*
G01X27598Y20220D01*
G01X27566Y20211D01*
G01X27532Y20204D01*
G01X27499Y20199D01*
G01X27465Y20196D01*
G01X27432Y20195D01*
G01X27398Y20196D01*
G01X27364Y20199D01*
G01X27330Y20204D01*
G01X27297Y20211D01*
G01X27264Y20221D01*
G01X27232Y20232D01*
G01X27201Y20245D01*
G01X27171Y20259D01*
G01X27141Y20276D01*
G01X27113Y20295D01*
G01X27085Y20315D01*
G01X27059Y20336D01*
G01X27011Y20384D01*
G01X26990Y20410D01*
G01X26970Y20438D01*
G01X26951Y20466D01*
G01X26934Y20496D01*
G01X26920Y20526D01*
G01X26907Y20557D01*
G01X26896Y20590D01*
G01X26886Y20622D01*
G01X26879Y20655D01*
G01X26874Y20689D01*
G01X26871Y20723D01*
G01X26870Y20757D01*
G01X26871Y20790D01*
G01X26874Y20824D01*
G01X26879Y20858D01*
G01X26886Y20891D01*
G01X26896Y20924D01*
G01X26907Y20956D01*
G01X26920Y20987D01*
G01X26934Y21017D01*
G01X26951Y21047D01*
G01X26970Y21075D01*
G01X26990Y21103D01*
G01X27011Y21129D01*
G01X27059Y21177D01*
G01X27085Y21198D01*
G01X27113Y21218D01*
G01X27141Y21237D01*
G01X27171Y21254D01*
G01X27201Y21268D01*
G01X27232Y21281D01*
G01X27264Y21292D01*
G01X27297Y21302D01*
G01X27330Y21309D01*
G01X27364Y21314D01*
G01X27398Y21317D01*
G01X27432Y21318D01*
G01X27465Y21317D01*
G01X27499Y21314D01*
G01X27532Y21309D01*
G01X27566Y21302D01*
G01X27598Y21293D01*
G01X27630Y21282D01*
G01X27661Y21269D01*
G01X27692Y21254D01*
G01X27721Y21237D01*
G01X27750Y21219D01*
G01X27772Y21207D01*
G01X27875Y21169D01*
G01X27893Y21165D01*
G01X27910Y21163D01*
G01X28365Y21163D01*
G01X28379Y21164D01*
G01X28393Y21167D01*
G01X28407Y21172D01*
G01X28420Y21179D01*
G01X28431Y21188D01*
G01X28441Y21198D01*
G01X28450Y21210D01*
G01X28457Y21222D01*
G01X28462Y21236D01*
G01X28465Y21250D01*
G01X28466Y21265D01*
G01X28465Y21280D01*
G01X28461Y21295D01*
G01X28455Y21310D01*
G01X28447Y21323D01*
G01X28437Y21335D01*
G01X28426Y21346D01*
G01X28412Y21354D01*
G01X28393Y21366D01*
G01X28374Y21380D01*
G01X28356Y21395D01*
G01X28341Y21411D01*
G01X28326Y21429D01*
G01X28313Y21449D01*
G01X28302Y21469D01*
G01X28293Y21490D01*
G01X28286Y21512D01*
G01X28281Y21535D01*
G01X28278Y21557D01*
G01X28277Y21581D01*
G01X28277Y21867D01*
G01X28820Y21867D01*
G01X28820Y21265D01*
G01X28821Y21250D01*
G01X28824Y21236D01*
G01X28829Y21222D01*
G01X28836Y21210D01*
G01X28845Y21198D01*
G01X28855Y21188D01*
G01X28867Y21179D01*
G01X28879Y21172D01*
G01X28893Y21167D01*
G01X28907Y21164D01*
G01X28921Y21163D01*
G01X29545Y21163D01*
G01X29560Y21164D01*
G01X29574Y21167D01*
G01X29587Y21172D01*
G01X29600Y21179D01*
G01X29612Y21188D01*
G01X29622Y21198D01*
G01X29631Y21210D01*
G01X29638Y21222D01*
G01X29643Y21236D01*
G01X29646Y21250D01*
G01X29647Y21265D01*
G01X29647Y21867D01*
G01X30190Y21867D01*
G01X30190Y21581D01*
G01X30189Y21557D01*
G01X30186Y21535D01*
G01X30181Y21512D01*
G01X30173Y21490D01*
G01X30164Y21469D01*
G01X30153Y21449D01*
G01X30141Y21429D01*
G01X30126Y21411D01*
G01X30110Y21395D01*
G01X30093Y21380D01*
G01X30074Y21366D01*
G01X30054Y21354D01*
G01X30041Y21346D01*
G01X30029Y21335D01*
G01X30019Y21323D01*
G01X30011Y21310D01*
G01X30005Y21295D01*
G01X30002Y21280D01*
G01X30001Y21265D01*
G01X30002Y21250D01*
G01X30005Y21236D01*
G01X30010Y21222D01*
G01X30017Y21210D01*
G01X30025Y21198D01*
G01X30036Y21188D01*
G01X30047Y21179D01*
G01X30060Y21172D01*
G01X30074Y21167D01*
G01X30088Y21164D01*
G01X30102Y21163D01*
G01X30500Y21163D01*
G01X30516Y21164D01*
G01X30532Y21168D01*
G01X30546Y21174D01*
G01X30560Y21182D01*
G01X30572Y21193D01*
G01X31132Y21753D01*
G01X31143Y21765D01*
G01X31151Y21779D01*
G01X31157Y21793D01*
G01X31272Y22137D01*
G01X31276Y22153D01*
G01X31277Y22169D01*
G01X31277Y22981D01*
G01X31278Y23004D01*
G01X31281Y23028D01*
G01X31287Y23051D01*
G01X31294Y23073D01*
G01X31304Y23095D01*
G01X31315Y23116D01*
G01X31329Y23135D01*
G01X31344Y23153D01*
G01X31361Y23170D01*
G01X31379Y23185D01*
G01X31398Y23199D01*
G01X31419Y23210D01*
G01X31441Y23220D01*
G01X31463Y23227D01*
G01X31486Y23233D01*
G01X31510Y23236D01*
G01X31533Y23237D01*
G01X32345Y23237D01*
G01X32361Y23238D01*
G01X32377Y23242D01*
G01X32406Y23252D01*
G01X32421Y23258D01*
G01X32435Y23267D01*
G01X32447Y23277D01*
G01X32457Y23289D01*
G01X32465Y23303D01*
G01X32471Y23317D01*
G01X32475Y23333D01*
G01X32476Y23348D01*
G01X32475Y23365D01*
G01X32471Y23381D01*
G01X32464Y23396D01*
G01X32455Y23410D01*
G01X32444Y23422D01*
G01X32431Y23433D01*
G01X32431Y24084D01*
G01X32430Y24098D01*
G01X32427Y24113D01*
G01X32422Y24126D01*
G01X32415Y24139D01*
G01X32406Y24150D01*
G01X32396Y24161D01*
G01X32384Y24169D01*
G01X32372Y24176D01*
G01X32358Y24181D01*
G01X32344Y24184D01*
G01X32329Y24186D01*
G01X31956Y24186D01*
G01X31941Y24184D01*
G01X31927Y24181D01*
G01X31913Y24176D01*
G01X31901Y24169D01*
G01X31889Y24161D01*
G01X31879Y24150D01*
G01X31870Y24139D01*
G01X31863Y24126D01*
G01X31858Y24113D01*
G01X31855Y24098D01*
G01X31854Y24084D01*
G01X31854Y23450D01*
G01X31693Y23450D01*
G01X31669Y23451D01*
G01X31645Y23454D01*
G01X31622Y23460D01*
G01X31600Y23467D01*
G01X31578Y23477D01*
G01X31557Y23488D01*
G01X31538Y23502D01*
G01X31520Y23517D01*
G01X31503Y23534D01*
G01X31488Y23552D01*
G01X31474Y23571D01*
G01X31463Y23592D01*
G01X31453Y23614D01*
G01X31446Y23636D01*
G01X31440Y23659D01*
G01X31437Y23683D01*
G01X31436Y23707D01*
G01X31436Y24084D01*
G01X31435Y24098D01*
G01X31432Y24113D01*
G01X31427Y24126D01*
G01X31420Y24139D01*
G01X31411Y24150D01*
G01X31401Y24161D01*
G01X31389Y24169D01*
G01X31377Y24176D01*
G01X31363Y24181D01*
G01X31349Y24184D01*
G01X31334Y24186D01*
G37*

%LPC*%
G36*
G01X28820Y23237D02*
G01X28533Y23237D01*
G01X28510Y23236D01*
G01X28486Y23233D01*
G01X28463Y23227D01*
G01X28441Y23220D01*
G01X28419Y23210D01*
G01X28398Y23199D01*
G01X28379Y23185D01*
G01X28361Y23170D01*
G01X28344Y23153D01*
G01X28329Y23135D01*
G01X28315Y23116D01*
G01X28304Y23095D01*
G01X28294Y23073D01*
G01X28287Y23051D01*
G01X28281Y23028D01*
G01X28278Y23004D01*
G01X28277Y22981D01*
G01X28277Y22694D01*
G01X28820Y22694D01*
G01X28820Y23237D01*
G37*
G36*
G01X29933Y23237D02*
G01X29647Y23237D01*
G01X29647Y22694D01*
G01X30190Y22694D01*
G01X30190Y22981D01*
G01X30189Y23004D01*
G01X30186Y23028D01*
G01X30180Y23051D01*
G01X30173Y23073D01*
G01X30163Y23095D01*
G01X30151Y23116D01*
G01X30138Y23135D01*
G01X30123Y23153D01*
G01X30106Y23170D01*
G01X30088Y23185D01*
G01X30068Y23199D01*
G01X30048Y23210D01*
G01X30026Y23220D01*
G01X30004Y23227D01*
G01X29981Y23233D01*
G01X29957Y23236D01*
G01X29933Y23237D01*
G37*

%LPD*%
G36*
G01X8126Y59743D02*
G01X5990Y59743D01*
G01X5974Y59742D01*
G01X5958Y59738D01*
G01X5944Y59732D01*
G01X5930Y59724D01*
G01X5918Y59713D01*
G01X286Y54081D01*
G01X275Y54069D01*
G01X267Y54055D01*
G01X261Y54041D01*
G01X257Y54025D01*
G01X256Y54009D01*
G01X256Y51514D01*
G01X257Y51499D01*
G01X261Y51483D01*
G01X267Y51468D01*
G01X275Y51455D01*
G01X286Y51443D01*
G01X5136Y46595D01*
G01X5153Y46576D01*
G01X5168Y46556D01*
G01X5181Y46534D01*
G01X5192Y46511D01*
G01X5201Y46488D01*
G01X5207Y46463D01*
G01X5210Y46438D01*
G01X5212Y46413D01*
G01X5210Y46388D01*
G01X5207Y46363D01*
G01X5201Y46339D01*
G01X5192Y46315D01*
G01X5181Y46292D01*
G01X5168Y46271D01*
G01X5153Y46250D01*
G01X5136Y46232D01*
G01X5136Y46231D01*
G01X5134Y46229D01*
G01X2133Y43229D01*
G01X2123Y43217D01*
G01X2115Y43203D01*
G01X2109Y43188D01*
G01X2105Y43173D01*
G01X2104Y43157D01*
G01X2105Y43143D01*
G01X2108Y43128D01*
G01X2113Y43115D01*
G01X2120Y43102D01*
G01X2128Y43091D01*
G01X2138Y43081D01*
G01X2150Y43072D01*
G01X2162Y43065D01*
G01X2176Y43060D01*
G01X2190Y43056D01*
G01X2204Y43055D01*
G01X25144Y42728D01*
G01X25147Y42728D01*
G01X31336Y42816D01*
G01X31350Y42817D01*
G01X31364Y42820D01*
G01X31378Y42826D01*
G01X31390Y42833D01*
G01X31401Y42841D01*
G01X31412Y42851D01*
G01X31420Y42863D01*
G01X31427Y42876D01*
G01X31432Y42889D01*
G01X31435Y42903D01*
G01X31436Y42918D01*
G01X31436Y43207D01*
G01X31437Y43227D01*
G01X31437Y43235D01*
G01X31436Y43250D01*
G01X31433Y43264D01*
G01X31428Y43278D01*
G01X31421Y43290D01*
G01X31412Y43302D01*
G01X31402Y43312D01*
G01X31390Y43321D01*
G01X31378Y43328D01*
G01X31364Y43333D01*
G01X31350Y43336D01*
G01X31336Y43337D01*
G01X14097Y43337D01*
G01X14067Y43338D01*
G01X14039Y43341D01*
G01X14010Y43346D01*
G01X13982Y43353D01*
G01X13954Y43363D01*
G01X13928Y43374D01*
G01X13902Y43387D01*
G01X13877Y43401D01*
G01X13853Y43418D01*
G01X13830Y43436D01*
G01X13809Y43456D01*
G01X10380Y46885D01*
G01X10360Y46906D01*
G01X10342Y46929D01*
G01X10325Y46953D01*
G01X10311Y46978D01*
G01X10298Y47004D01*
G01X10287Y47030D01*
G01X10277Y47058D01*
G01X10270Y47086D01*
G01X10265Y47115D01*
G01X10262Y47144D01*
G01X10261Y47173D01*
G01X10261Y50772D01*
G01X10260Y50786D01*
G01X10257Y50800D01*
G01X10252Y50814D01*
G01X10245Y50827D01*
G01X10236Y50838D01*
G01X10226Y50849D01*
G01X10214Y50857D01*
G01X10202Y50864D01*
G01X10188Y50869D01*
G01X10174Y50872D01*
G01X10159Y50873D01*
G01X10143Y50872D01*
G01X10128Y50868D01*
G01X10113Y50862D01*
G01X10100Y50854D01*
G01X10088Y50844D01*
G01X9177Y49933D01*
G01X9156Y49913D01*
G01X9133Y49895D01*
G01X9109Y49878D01*
G01X9084Y49864D01*
G01X9058Y49851D01*
G01X9032Y49840D01*
G01X9004Y49830D01*
G01X8976Y49823D01*
G01X8947Y49818D01*
G01X8919Y49815D01*
G01X8890Y49814D01*
G01X4622Y49814D01*
G01X4593Y49815D01*
G01X4564Y49818D01*
G01X4536Y49823D01*
G01X4508Y49830D01*
G01X4480Y49840D01*
G01X4453Y49851D01*
G01X4427Y49864D01*
G01X4403Y49878D01*
G01X4379Y49895D01*
G01X4356Y49913D01*
G01X4335Y49933D01*
G01X3093Y51175D01*
G01X3073Y51196D01*
G01X3055Y51219D01*
G01X3038Y51243D01*
G01X3023Y51268D01*
G01X3010Y51294D01*
G01X2999Y51321D01*
G01X2990Y51348D01*
G01X2983Y51376D01*
G01X2978Y51405D01*
G01X2975Y51434D01*
G01X2974Y51463D01*
G01X2975Y51492D01*
G01X2978Y51520D01*
G01X2983Y51549D01*
G01X2990Y51577D01*
G01X2999Y51605D01*
G01X3010Y51631D01*
G01X3023Y51657D01*
G01X3038Y51682D01*
G01X3055Y51706D01*
G01X3073Y51729D01*
G01X3093Y51750D01*
G01X3114Y51770D01*
G01X3137Y51788D01*
G01X3160Y51805D01*
G01X3185Y51819D01*
G01X3211Y51832D01*
G01X3238Y51843D01*
G01X3266Y51853D01*
G01X3294Y51860D01*
G01X3322Y51865D01*
G01X3351Y51868D01*
G01X3380Y51869D01*
G01X3409Y51868D01*
G01X3438Y51865D01*
G01X3467Y51860D01*
G01X3495Y51853D01*
G01X3522Y51843D01*
G01X3549Y51832D01*
G01X3575Y51819D01*
G01X3600Y51805D01*
G01X3624Y51788D01*
G01X3646Y51770D01*
G01X3668Y51750D01*
G01X4761Y50657D01*
G01X4773Y50646D01*
G01X4787Y50638D01*
G01X4801Y50632D01*
G01X4817Y50628D01*
G01X4833Y50627D01*
G01X6987Y50627D01*
G01X7002Y50628D01*
G01X7016Y50631D01*
G01X7030Y50636D01*
G01X7042Y50643D01*
G01X7054Y50652D01*
G01X7064Y50662D01*
G01X7073Y50674D01*
G01X7080Y50686D01*
G01X7085Y50700D01*
G01X7088Y50714D01*
G01X7089Y50729D01*
G01X7088Y50745D01*
G01X7084Y50760D01*
G01X7078Y50775D01*
G01X7070Y50788D01*
G01X7059Y50800D01*
G01X4530Y53332D01*
G01X4511Y53353D01*
G01X4492Y53376D01*
G01X4476Y53399D01*
G01X4461Y53424D01*
G01X4448Y53450D01*
G01X4437Y53477D01*
G01X4428Y53505D01*
G01X4421Y53533D01*
G01X4415Y53561D01*
G01X4412Y53590D01*
G01X4411Y53619D01*
G01X4412Y53648D01*
G01X4415Y53677D01*
G01X4421Y53705D01*
G01X4428Y53734D01*
G01X4437Y53761D01*
G01X4448Y53788D01*
G01X4461Y53814D01*
G01X4476Y53839D01*
G01X4492Y53863D01*
G01X4530Y53907D01*
G01X4552Y53926D01*
G01X4574Y53944D01*
G01X4598Y53961D01*
G01X4623Y53976D01*
G01X4649Y53989D01*
G01X4676Y54000D01*
G01X4703Y54009D01*
G01X4731Y54016D01*
G01X4760Y54021D01*
G01X4789Y54025D01*
G01X4818Y54026D01*
G01X4847Y54025D01*
G01X4876Y54021D01*
G01X4904Y54016D01*
G01X4932Y54009D01*
G01X4960Y54000D01*
G01X4987Y53989D01*
G01X5013Y53976D01*
G01X5038Y53961D01*
G01X5062Y53944D01*
G01X5084Y53926D01*
G01X5105Y53906D01*
G01X7557Y51452D01*
G01X7570Y51442D01*
G01X7583Y51434D01*
G01X7598Y51427D01*
G01X7613Y51424D01*
G01X7629Y51422D01*
G01X7644Y51424D01*
G01X7658Y51427D01*
G01X7671Y51432D01*
G01X7684Y51439D01*
G01X7696Y51447D01*
G01X7706Y51458D01*
G01X7715Y51469D01*
G01X7722Y51482D01*
G01X7727Y51495D01*
G01X7730Y51510D01*
G01X7731Y51524D01*
G01X7729Y51541D01*
G01X7725Y51558D01*
G01X7714Y51594D01*
G01X7705Y51631D01*
G01X7698Y51669D01*
G01X7694Y51706D01*
G01X7693Y51745D01*
G01X7694Y51778D01*
G01X7697Y51812D01*
G01X7702Y51845D01*
G01X7709Y51879D01*
G01X7718Y51911D01*
G01X7729Y51943D01*
G01X7742Y51974D01*
G01X7757Y52005D01*
G01X7774Y52034D01*
G01X7792Y52063D01*
G01X7804Y52085D01*
G01X7842Y52188D01*
G01X7846Y52206D01*
G01X7848Y52223D01*
G01X7848Y52844D01*
G01X7847Y52860D01*
G01X7843Y52876D01*
G01X7837Y52890D01*
G01X7829Y52904D01*
G01X7818Y52916D01*
G01X5966Y54768D01*
G01X5946Y54789D01*
G01X5928Y54812D01*
G01X5912Y54836D01*
G01X5897Y54861D01*
G01X5884Y54887D01*
G01X5873Y54914D01*
G01X5863Y54941D01*
G01X5856Y54969D01*
G01X5851Y54998D01*
G01X5848Y55027D01*
G01X5847Y55056D01*
G01X5848Y55085D01*
G01X5851Y55114D01*
G01X5856Y55142D01*
G01X5863Y55170D01*
G01X5873Y55198D01*
G01X5884Y55225D01*
G01X5897Y55251D01*
G01X5912Y55275D01*
G01X5928Y55299D01*
G01X5946Y55322D01*
G01X5966Y55343D01*
G01X5987Y55363D01*
G01X6010Y55381D01*
G01X6034Y55398D01*
G01X6059Y55412D01*
G01X6085Y55425D01*
G01X6111Y55437D01*
G01X6139Y55446D01*
G01X6167Y55453D01*
G01X6196Y55458D01*
G01X6225Y55461D01*
G01X6254Y55462D01*
G01X6283Y55461D01*
G01X6311Y55458D01*
G01X6340Y55453D01*
G01X6368Y55446D01*
G01X6396Y55437D01*
G01X6422Y55425D01*
G01X6448Y55412D01*
G01X6473Y55398D01*
G01X6497Y55381D01*
G01X6520Y55363D01*
G01X6541Y55343D01*
G01X8542Y53342D01*
G01X8562Y53321D01*
G01X8580Y53298D01*
G01X8597Y53274D01*
G01X8611Y53250D01*
G01X8624Y53224D01*
G01X8635Y53197D01*
G01X8645Y53169D01*
G01X8652Y53141D01*
G01X8657Y53113D01*
G01X8660Y53084D01*
G01X8661Y53055D01*
G01X8661Y52223D01*
G01X8663Y52206D01*
G01X8667Y52188D01*
G01X8705Y52085D01*
G01X8717Y52063D01*
G01X8736Y52033D01*
G01X8753Y52003D01*
G01X8768Y51971D01*
G01X8781Y51939D01*
G01X8792Y51906D01*
G01X8797Y51892D01*
G01X8804Y51880D01*
G01X8813Y51868D01*
G01X8823Y51858D01*
G01X8835Y51849D01*
G01X8847Y51842D01*
G01X8861Y51837D01*
G01X8875Y51834D01*
G01X8890Y51833D01*
G01X8904Y51834D01*
G01X8918Y51837D01*
G01X8932Y51842D01*
G01X8944Y51849D01*
G01X8956Y51858D01*
G01X8966Y51868D01*
G01X8975Y51880D01*
G01X8982Y51892D01*
G01X8987Y51906D01*
G01X8998Y51938D01*
G01X9010Y51970D01*
G01X9025Y52001D01*
G01X9042Y52031D01*
G01X9060Y52060D01*
G01X9080Y52087D01*
G01X9102Y52114D01*
G01X9125Y52139D01*
G01X9150Y52162D01*
G01X9176Y52184D01*
G01X9203Y52205D01*
G01X9232Y52224D01*
G01X9292Y52256D01*
G01X9324Y52269D01*
G01X9356Y52280D01*
G01X9389Y52289D01*
G01X9422Y52296D01*
G01X9456Y52302D01*
G01X9490Y52305D01*
G01X9525Y52306D01*
G01X9560Y52305D01*
G01X9596Y52301D01*
G01X9632Y52296D01*
G01X9667Y52288D01*
G01X9701Y52277D01*
G01X9735Y52265D01*
G01X9768Y52250D01*
G01X9800Y52234D01*
G01X9831Y52215D01*
G01X9860Y52194D01*
G01X9888Y52172D01*
G01X9915Y52148D01*
G01X9940Y52122D01*
G01X9963Y52095D01*
G01X9974Y52084D01*
G01X9985Y52074D01*
G01X9999Y52067D01*
G01X10013Y52061D01*
G01X10027Y52058D01*
G01X10043Y52056D01*
G01X10057Y52057D01*
G01X10071Y52061D01*
G01X10085Y52066D01*
G01X10098Y52073D01*
G01X10109Y52081D01*
G01X10119Y52092D01*
G01X10128Y52103D01*
G01X10135Y52116D01*
G01X10140Y52129D01*
G01X10143Y52144D01*
G01X10144Y52158D01*
G01X10143Y52175D01*
G01X10138Y52192D01*
G01X10127Y52228D01*
G01X10118Y52266D01*
G01X10111Y52303D01*
G01X10107Y52341D01*
G01X10106Y52380D01*
G01X10107Y52413D01*
G01X10110Y52447D01*
G01X10115Y52481D01*
G01X10122Y52514D01*
G01X10132Y52547D01*
G01X10143Y52579D01*
G01X10156Y52610D01*
G01X10170Y52640D01*
G01X10187Y52670D01*
G01X10206Y52698D01*
G01X10226Y52726D01*
G01X10247Y52752D01*
G01X10295Y52800D01*
G01X10321Y52821D01*
G01X10349Y52841D01*
G01X10377Y52860D01*
G01X10407Y52877D01*
G01X10437Y52891D01*
G01X10468Y52904D01*
G01X10500Y52915D01*
G01X10533Y52925D01*
G01X10566Y52932D01*
G01X10600Y52937D01*
G01X10634Y52940D01*
G01X10668Y52941D01*
G01X10701Y52940D01*
G01X10735Y52937D01*
G01X10769Y52932D01*
G01X10802Y52925D01*
G01X10835Y52915D01*
G01X10867Y52904D01*
G01X10898Y52891D01*
G01X10928Y52877D01*
G01X10958Y52860D01*
G01X10986Y52841D01*
G01X11014Y52821D01*
G01X11040Y52800D01*
G01X11088Y52752D01*
G01X11109Y52726D01*
G01X11129Y52698D01*
G01X11148Y52670D01*
G01X11165Y52640D01*
G01X11179Y52610D01*
G01X11192Y52579D01*
G01X11203Y52547D01*
G01X11213Y52514D01*
G01X11220Y52481D01*
G01X11225Y52447D01*
G01X11228Y52413D01*
G01X11229Y52380D01*
G01X11228Y52346D01*
G01X11225Y52312D01*
G01X11220Y52279D01*
G01X11213Y52245D01*
G01X11204Y52213D01*
G01X11193Y52181D01*
G01X11180Y52150D01*
G01X11165Y52119D01*
G01X11148Y52090D01*
G01X11130Y52061D01*
G01X11118Y52039D01*
G01X11080Y51936D01*
G01X11076Y51918D01*
G01X11074Y51901D01*
G01X11074Y47383D01*
G01X11075Y47367D01*
G01X11079Y47352D01*
G01X11085Y47337D01*
G01X11093Y47323D01*
G01X11104Y47311D01*
G01X14235Y44180D01*
G01X14247Y44169D01*
G01X14261Y44161D01*
G01X14276Y44155D01*
G01X14291Y44151D01*
G01X14307Y44150D01*
G01X24809Y44150D01*
G01X24824Y44151D01*
G01X24838Y44154D01*
G01X24851Y44159D01*
G01X24864Y44166D01*
G01X24876Y44175D01*
G01X24886Y44185D01*
G01X24895Y44197D01*
G01X24902Y44209D01*
G01X24907Y44223D01*
G01X24910Y44237D01*
G01X24911Y44252D01*
G01X24909Y44269D01*
G01X24905Y44285D01*
G01X24898Y44301D01*
G01X24888Y44315D01*
G01X24876Y44328D01*
G01X24858Y44345D01*
G01X19482Y49721D01*
G01X19468Y49733D01*
G01X19452Y49742D01*
G01X19353Y49788D01*
G01X19329Y49795D01*
G01X19296Y49803D01*
G01X19263Y49812D01*
G01X19231Y49823D01*
G01X19200Y49836D01*
G01X19169Y49851D01*
G01X19140Y49867D01*
G01X19111Y49886D01*
G01X19084Y49906D01*
G01X19058Y49928D01*
G01X19033Y49951D01*
G01X19010Y49976D01*
G01X18988Y50002D01*
G01X18968Y50029D01*
G01X18950Y50057D01*
G01X18933Y50087D01*
G01X18919Y50117D01*
G01X18906Y50149D01*
G01X18895Y50181D01*
G01X18885Y50213D01*
G01X18878Y50246D01*
G01X18873Y50280D01*
G01X18870Y50314D01*
G01X18869Y50348D01*
G01X18870Y50381D01*
G01X18873Y50415D01*
G01X18878Y50449D01*
G01X18885Y50482D01*
G01X18895Y50515D01*
G01X18906Y50547D01*
G01X18919Y50578D01*
G01X18933Y50608D01*
G01X18950Y50638D01*
G01X18969Y50666D01*
G01X18989Y50694D01*
G01X19010Y50720D01*
G01X19058Y50768D01*
G01X19084Y50789D01*
G01X19112Y50809D01*
G01X19140Y50828D01*
G01X19170Y50845D01*
G01X19200Y50859D01*
G01X19231Y50872D01*
G01X19263Y50883D01*
G01X19296Y50893D01*
G01X19329Y50900D01*
G01X19363Y50905D01*
G01X19397Y50908D01*
G01X19431Y50909D01*
G01X19464Y50908D01*
G01X19498Y50905D01*
G01X19532Y50900D01*
G01X19565Y50893D01*
G01X19597Y50883D01*
G01X19629Y50872D01*
G01X19661Y50859D01*
G01X19691Y50845D01*
G01X19721Y50828D01*
G01X19749Y50810D01*
G01X19776Y50790D01*
G01X19802Y50768D01*
G01X19827Y50745D01*
G01X19850Y50720D01*
G01X19872Y50694D01*
G01X19892Y50667D01*
G01X19911Y50638D01*
G01X19927Y50609D01*
G01X19942Y50578D01*
G01X19955Y50547D01*
G01X19966Y50515D01*
G01X19975Y50482D01*
G01X19983Y50449D01*
G01X19990Y50425D01*
G01X20036Y50326D01*
G01X20045Y50310D01*
G01X20057Y50296D01*
G01X25284Y45069D01*
G01X25296Y45058D01*
G01X25310Y45050D01*
G01X25325Y45044D01*
G01X25340Y45040D01*
G01X25356Y45039D01*
G01X26205Y45039D01*
G01X26219Y45040D01*
G01X26233Y45043D01*
G01X26247Y45048D01*
G01X26260Y45055D01*
G01X26271Y45064D01*
G01X26282Y45074D01*
G01X26290Y45086D01*
G01X26297Y45098D01*
G01X26302Y45112D01*
G01X26305Y45126D01*
G01X26306Y45141D01*
G01X26305Y45157D01*
G01X26301Y45172D01*
G01X26295Y45187D01*
G01X26287Y45200D01*
G01X26277Y45212D01*
G01X20752Y50737D01*
G01X20738Y50749D01*
G01X20722Y50758D01*
G01X20623Y50804D01*
G01X20599Y50811D01*
G01X20566Y50819D01*
G01X20533Y50828D01*
G01X20501Y50839D01*
G01X20470Y50852D01*
G01X20439Y50867D01*
G01X20410Y50883D01*
G01X20381Y50902D01*
G01X20354Y50922D01*
G01X20328Y50944D01*
G01X20303Y50967D01*
G01X20280Y50992D01*
G01X20258Y51018D01*
G01X20238Y51045D01*
G01X20220Y51073D01*
G01X20203Y51103D01*
G01X20189Y51133D01*
G01X20176Y51165D01*
G01X20165Y51197D01*
G01X20155Y51229D01*
G01X20148Y51262D01*
G01X20143Y51296D01*
G01X20140Y51330D01*
G01X20139Y51364D01*
G01X20140Y51397D01*
G01X20143Y51431D01*
G01X20148Y51465D01*
G01X20155Y51498D01*
G01X20165Y51531D01*
G01X20176Y51563D01*
G01X20189Y51594D01*
G01X20203Y51624D01*
G01X20220Y51654D01*
G01X20239Y51682D01*
G01X20259Y51710D01*
G01X20280Y51736D01*
G01X20328Y51784D01*
G01X20354Y51805D01*
G01X20382Y51825D01*
G01X20410Y51844D01*
G01X20440Y51861D01*
G01X20470Y51875D01*
G01X20501Y51888D01*
G01X20533Y51899D01*
G01X20566Y51909D01*
G01X20599Y51916D01*
G01X20633Y51921D01*
G01X20667Y51924D01*
G01X20701Y51925D01*
G01X20734Y51924D01*
G01X20768Y51921D01*
G01X20802Y51916D01*
G01X20835Y51909D01*
G01X20867Y51899D01*
G01X20899Y51888D01*
G01X20931Y51875D01*
G01X20961Y51861D01*
G01X20991Y51844D01*
G01X21019Y51826D01*
G01X21046Y51806D01*
G01X21072Y51784D01*
G01X21097Y51761D01*
G01X21120Y51736D01*
G01X21142Y51710D01*
G01X21162Y51683D01*
G01X21181Y51654D01*
G01X21197Y51625D01*
G01X21212Y51594D01*
G01X21225Y51563D01*
G01X21236Y51531D01*
G01X21245Y51498D01*
G01X21253Y51465D01*
G01X21260Y51441D01*
G01X21306Y51342D01*
G01X21315Y51326D01*
G01X21327Y51312D01*
G01X26808Y45831D01*
G01X26820Y45820D01*
G01X26834Y45812D01*
G01X26849Y45806D01*
G01X26864Y45802D01*
G01X26880Y45801D01*
G01X28223Y45801D01*
G01X28240Y45803D01*
G01X28258Y45807D01*
G01X28361Y45845D01*
G01X28383Y45857D01*
G01X28412Y45875D01*
G01X28441Y45892D01*
G01X28472Y45907D01*
G01X28503Y45920D01*
G01X28535Y45931D01*
G01X28567Y45940D01*
G01X28601Y45947D01*
G01X28634Y45952D01*
G01X28668Y45955D01*
G01X28702Y45956D01*
G01X28735Y45955D01*
G01X28769Y45952D01*
G01X28803Y45947D01*
G01X28836Y45940D01*
G01X28869Y45930D01*
G01X28901Y45919D01*
G01X28932Y45906D01*
G01X28962Y45892D01*
G01X28992Y45875D01*
G01X29020Y45856D01*
G01X29048Y45836D01*
G01X29074Y45815D01*
G01X29122Y45767D01*
G01X29143Y45741D01*
G01X29163Y45713D01*
G01X29182Y45685D01*
G01X29199Y45655D01*
G01X29213Y45625D01*
G01X29226Y45594D01*
G01X29237Y45562D01*
G01X29247Y45529D01*
G01X29254Y45496D01*
G01X29259Y45462D01*
G01X29262Y45428D01*
G01X29263Y45395D01*
G01X29261Y45351D01*
G01X29256Y45307D01*
G01X29248Y45264D01*
G01X29245Y45241D01*
G01X29246Y45226D01*
G01X29249Y45212D01*
G01X29254Y45198D01*
G01X29261Y45185D01*
G01X29270Y45173D01*
G01X29281Y45163D01*
G01X29293Y45154D01*
G01X29306Y45147D01*
G01X29337Y45133D01*
G01X29367Y45116D01*
G01X29396Y45098D01*
G01X29424Y45078D01*
G01X29451Y45056D01*
G01X29476Y45033D01*
G01X29499Y45008D01*
G01X29522Y44982D01*
G01X29542Y44955D01*
G01X29561Y44926D01*
G01X29578Y44896D01*
G01X29593Y44865D01*
G01X29607Y44834D01*
G01X29618Y44801D01*
G01X29627Y44768D01*
G01X29634Y44735D01*
G01X29640Y44701D01*
G01X29643Y44667D01*
G01X29644Y44633D01*
G01X29643Y44598D01*
G01X29640Y44564D01*
G01X29634Y44530D01*
G01X29627Y44496D01*
G01X29618Y44463D01*
G01X29606Y44431D01*
G01X29593Y44399D01*
G01X29578Y44369D01*
G01X29561Y44339D01*
G01X29542Y44310D01*
G01X29534Y44297D01*
G01X29528Y44282D01*
G01X29525Y44267D01*
G01X29524Y44252D01*
G01X29525Y44237D01*
G01X29528Y44223D01*
G01X29533Y44209D01*
G01X29540Y44197D01*
G01X29548Y44185D01*
G01X29559Y44175D01*
G01X29570Y44166D01*
G01X29583Y44159D01*
G01X29596Y44154D01*
G01X29611Y44151D01*
G01X29625Y44150D01*
G01X31652Y44150D01*
G01X31669Y44152D01*
G01X31687Y44156D01*
G01X31790Y44194D01*
G01X31812Y44206D01*
G01X31841Y44224D01*
G01X31870Y44241D01*
G01X31901Y44256D01*
G01X31932Y44269D01*
G01X31964Y44280D01*
G01X31996Y44289D01*
G01X32030Y44296D01*
G01X32063Y44301D01*
G01X32097Y44304D01*
G01X32131Y44305D01*
G01X32164Y44304D01*
G01X32198Y44301D01*
G01X32232Y44296D01*
G01X32265Y44289D01*
G01X32298Y44279D01*
G01X32330Y44268D01*
G01X32361Y44255D01*
G01X32391Y44241D01*
G01X32421Y44224D01*
G01X32449Y44205D01*
G01X32477Y44185D01*
G01X32503Y44164D01*
G01X32551Y44116D01*
G01X32572Y44090D01*
G01X32592Y44062D01*
G01X32611Y44034D01*
G01X32628Y44004D01*
G01X32642Y43974D01*
G01X32655Y43943D01*
G01X32666Y43911D01*
G01X32676Y43878D01*
G01X32683Y43845D01*
G01X32688Y43811D01*
G01X32691Y43777D01*
G01X32692Y43744D01*
G01X32691Y43706D01*
G01X32687Y43668D01*
G01X32680Y43631D01*
G01X32672Y43594D01*
G01X32660Y43558D01*
G01X32656Y43542D01*
G01X32655Y43525D01*
G01X32656Y43509D01*
G01X32660Y43494D01*
G01X32666Y43479D01*
G01X32674Y43465D01*
G01X32684Y43453D01*
G01X32696Y43443D01*
G01X32710Y43435D01*
G01X32725Y43426D01*
G01X32742Y43418D01*
G01X32759Y43413D01*
G01X32778Y43412D01*
G01X32796Y43413D01*
G01X32813Y43418D01*
G01X32830Y43426D01*
G01X32843Y43433D01*
G01X32856Y43442D01*
G01X32868Y43452D01*
G01X32878Y43464D01*
G01X32886Y43478D01*
G01X32996Y43697D01*
G01X33002Y43712D01*
G01X33005Y43727D01*
G01X33007Y43742D01*
G01X33007Y51140D01*
G01X33005Y51156D01*
G01X33002Y51172D01*
G01X32996Y51186D01*
G01X32987Y51200D01*
G01X32977Y51212D01*
G01X27971Y56219D01*
G01X27955Y56231D01*
G01X27436Y56574D01*
G01X27391Y56601D01*
G01X27353Y56627D01*
G01X27315Y56655D01*
G01X27279Y56684D01*
G01X27245Y56715D01*
G01X27211Y56747D01*
G01X27180Y56781D01*
G01X27150Y56816D01*
G01X27121Y56853D01*
G01X27094Y56891D01*
G01X27069Y56930D01*
G01X27046Y56970D01*
G01X27025Y57011D01*
G01X27005Y57054D01*
G01X26988Y57096D01*
G01X26972Y57140D01*
G01X26959Y57185D01*
G01X26947Y57230D01*
G01X26938Y57275D01*
G01X26930Y57321D01*
G01X26925Y57367D01*
G01X26922Y57413D01*
G01X26921Y57460D01*
G01X26922Y57505D01*
G01X26925Y57551D01*
G01X26930Y57596D01*
G01X26937Y57641D01*
G01X26946Y57686D01*
G01X26958Y57730D01*
G01X26971Y57774D01*
G01X26986Y57817D01*
G01X27003Y57860D01*
G01X27022Y57901D01*
G01X27043Y57942D01*
G01X27065Y57982D01*
G01X27089Y58021D01*
G01X27115Y58058D01*
G01X27143Y58095D01*
G01X27172Y58130D01*
G01X27203Y58163D01*
G01X27236Y58196D01*
G01X27269Y58227D01*
G01X27304Y58256D01*
G01X27341Y58284D01*
G01X27378Y58310D01*
G01X27417Y58334D01*
G01X27457Y58356D01*
G01X27498Y58377D01*
G01X27539Y58396D01*
G01X27582Y58413D01*
G01X27625Y58428D01*
G01X27669Y58441D01*
G01X27713Y58453D01*
G01X27758Y58462D01*
G01X27803Y58469D01*
G01X27848Y58474D01*
G01X27894Y58477D01*
G01X27940Y58478D01*
G01X27985Y58477D01*
G01X28031Y58474D01*
G01X28076Y58469D01*
G01X28121Y58462D01*
G01X28166Y58453D01*
G01X28210Y58441D01*
G01X28254Y58428D01*
G01X28297Y58413D01*
G01X28340Y58396D01*
G01X28381Y58377D01*
G01X28422Y58356D01*
G01X28462Y58334D01*
G01X28501Y58310D01*
G01X28538Y58284D01*
G01X28575Y58256D01*
G01X28610Y58227D01*
G01X28643Y58196D01*
G01X28676Y58163D01*
G01X28707Y58130D01*
G01X28736Y58095D01*
G01X28764Y58058D01*
G01X28790Y58021D01*
G01X28814Y57982D01*
G01X28836Y57942D01*
G01X28857Y57901D01*
G01X28876Y57860D01*
G01X28893Y57817D01*
G01X28908Y57774D01*
G01X28921Y57730D01*
G01X28933Y57686D01*
G01X28942Y57641D01*
G01X28949Y57596D01*
G01X28954Y57551D01*
G01X28957Y57505D01*
G01X28958Y57460D01*
G01X28957Y57412D01*
G01X28954Y57365D01*
G01X28948Y57318D01*
G01X28940Y57271D01*
G01X28931Y57225D01*
G01X28919Y57179D01*
G01X28905Y57134D01*
G01X28888Y57089D01*
G01X28886Y57083D01*
G01X28752Y56666D01*
G01X28748Y56650D01*
G01X28747Y56634D01*
G01X28748Y56618D01*
G01X28752Y56603D01*
G01X28758Y56588D01*
G01X28766Y56575D01*
G01X28776Y56562D01*
G01X33701Y51638D01*
G01X33720Y51617D01*
G01X33739Y51594D01*
G01X33755Y51571D01*
G01X33770Y51546D01*
G01X33783Y51520D01*
G01X33794Y51493D01*
G01X33803Y51465D01*
G01X33810Y51437D01*
G01X33816Y51409D01*
G01X33819Y51380D01*
G01X33820Y51351D01*
G01X33820Y43740D01*
G01X33821Y43724D01*
G01X33825Y43709D01*
G01X33830Y43694D01*
G01X33939Y43478D01*
G01X33947Y43464D01*
G01X33957Y43452D01*
G01X33969Y43442D01*
G01X33982Y43433D01*
G01X33995Y43426D01*
G01X34012Y43418D01*
G01X34029Y43413D01*
G01X34048Y43412D01*
G01X34066Y43413D01*
G01X34083Y43418D01*
G01X34100Y43426D01*
G01X34113Y43433D01*
G01X34126Y43442D01*
G01X34138Y43452D01*
G01X34148Y43464D01*
G01X34156Y43478D01*
G01X34266Y43697D01*
G01X34272Y43712D01*
G01X34275Y43727D01*
G01X34277Y43742D01*
G01X34277Y52283D01*
G01X34275Y52299D01*
G01X34272Y52315D01*
G01X34266Y52329D01*
G01X34257Y52343D01*
G01X34247Y52355D01*
G01X30192Y56410D01*
G01X30172Y56432D01*
G01X30153Y56455D01*
G01X30137Y56479D01*
G01X30127Y56492D01*
G01X30116Y56502D01*
G01X30104Y56511D01*
G01X30090Y56518D01*
G01X30047Y56537D01*
G01X30006Y56558D01*
G01X29966Y56580D01*
G01X29926Y56604D01*
G01X29888Y56630D01*
G01X29851Y56658D01*
G01X29816Y56687D01*
G01X29781Y56718D01*
G01X29748Y56750D01*
G01X29717Y56784D01*
G01X29687Y56819D01*
G01X29659Y56856D01*
G01X29633Y56894D01*
G01X29608Y56933D01*
G01X29585Y56973D01*
G01X29564Y57014D01*
G01X29544Y57056D01*
G01X29527Y57098D01*
G01X29512Y57142D01*
G01X29498Y57186D01*
G01X29487Y57231D01*
G01X29478Y57276D01*
G01X29470Y57321D01*
G01X29465Y57367D01*
G01X29462Y57413D01*
G01X29461Y57460D01*
G01X29462Y57505D01*
G01X29465Y57551D01*
G01X29470Y57596D01*
G01X29477Y57641D01*
G01X29486Y57686D01*
G01X29498Y57730D01*
G01X29511Y57774D01*
G01X29526Y57817D01*
G01X29543Y57860D01*
G01X29562Y57901D01*
G01X29583Y57942D01*
G01X29605Y57982D01*
G01X29629Y58021D01*
G01X29655Y58058D01*
G01X29683Y58095D01*
G01X29712Y58130D01*
G01X29743Y58163D01*
G01X29776Y58196D01*
G01X29809Y58227D01*
G01X29844Y58256D01*
G01X29881Y58284D01*
G01X29918Y58310D01*
G01X29957Y58334D01*
G01X29997Y58356D01*
G01X30038Y58377D01*
G01X30079Y58396D01*
G01X30122Y58413D01*
G01X30165Y58428D01*
G01X30209Y58441D01*
G01X30253Y58453D01*
G01X30298Y58462D01*
G01X30343Y58469D01*
G01X30388Y58474D01*
G01X30434Y58477D01*
G01X30480Y58478D01*
G01X30525Y58477D01*
G01X30571Y58474D01*
G01X30616Y58469D01*
G01X30661Y58462D01*
G01X30706Y58453D01*
G01X30750Y58441D01*
G01X30794Y58428D01*
G01X30837Y58413D01*
G01X30880Y58396D01*
G01X30921Y58377D01*
G01X30962Y58356D01*
G01X31002Y58334D01*
G01X31041Y58310D01*
G01X31078Y58284D01*
G01X31115Y58256D01*
G01X31150Y58227D01*
G01X31183Y58196D01*
G01X31216Y58163D01*
G01X31247Y58130D01*
G01X31276Y58095D01*
G01X31304Y58058D01*
G01X31330Y58021D01*
G01X31354Y57982D01*
G01X31376Y57942D01*
G01X31397Y57901D01*
G01X31416Y57860D01*
G01X31433Y57817D01*
G01X31448Y57774D01*
G01X31461Y57730D01*
G01X31473Y57686D01*
G01X31482Y57641D01*
G01X31489Y57596D01*
G01X31494Y57551D01*
G01X31497Y57505D01*
G01X31498Y57460D01*
G01X31497Y57414D01*
G01X31494Y57368D01*
G01X31489Y57322D01*
G01X31481Y57277D01*
G01X31472Y57231D01*
G01X31461Y57187D01*
G01X31448Y57143D01*
G01X31432Y57100D01*
G01X31415Y57057D01*
G01X31396Y57015D01*
G01X31375Y56974D01*
G01X31352Y56934D01*
G01X31328Y56895D01*
G01X31301Y56858D01*
G01X31273Y56821D01*
G01X31244Y56786D01*
G01X31212Y56752D01*
G01X31180Y56720D01*
G01X31169Y56708D01*
G01X31160Y56694D01*
G01X31153Y56679D01*
G01X31149Y56663D01*
G01X31148Y56646D01*
G01X31149Y56630D01*
G01X31153Y56615D01*
G01X31159Y56600D01*
G01X31167Y56586D01*
G01X31178Y56574D01*
G01X34971Y52781D01*
G01X34990Y52760D01*
G01X35009Y52737D01*
G01X35025Y52714D01*
G01X35040Y52689D01*
G01X35053Y52663D01*
G01X35064Y52636D01*
G01X35073Y52608D01*
G01X35080Y52580D01*
G01X35086Y52552D01*
G01X35089Y52523D01*
G01X35090Y52494D01*
G01X35090Y43740D01*
G01X35091Y43724D01*
G01X35095Y43709D01*
G01X35100Y43694D01*
G01X35209Y43478D01*
G01X35217Y43464D01*
G01X35227Y43452D01*
G01X35239Y43442D01*
G01X35252Y43433D01*
G01X35265Y43426D01*
G01X35282Y43418D01*
G01X35299Y43413D01*
G01X35318Y43412D01*
G01X35336Y43413D01*
G01X35353Y43418D01*
G01X35370Y43426D01*
G01X35390Y43437D01*
G01X35412Y43446D01*
G01X35434Y43454D01*
G01X35456Y43459D01*
G01X35479Y43462D01*
G01X35503Y43463D01*
G01X35598Y43463D01*
G01X35614Y43464D01*
G01X35630Y43468D01*
G01X35645Y43474D01*
G01X35658Y43483D01*
G01X35670Y43493D01*
G01X35681Y43505D01*
G01X35689Y43519D01*
G01X35777Y43696D01*
G01X35783Y43710D01*
G01X35787Y43725D01*
G01X35788Y43741D01*
G01X35788Y44408D01*
G01X35786Y44425D01*
G01X35782Y44443D01*
G01X35744Y44546D01*
G01X35732Y44568D01*
G01X35714Y44597D01*
G01X35697Y44626D01*
G01X35682Y44657D01*
G01X35669Y44688D01*
G01X35658Y44720D01*
G01X35649Y44752D01*
G01X35642Y44786D01*
G01X35637Y44819D01*
G01X35634Y44853D01*
G01X35633Y44887D01*
G01X35634Y44920D01*
G01X35637Y44954D01*
G01X35642Y44988D01*
G01X35649Y45021D01*
G01X35659Y45054D01*
G01X35670Y45086D01*
G01X35683Y45117D01*
G01X35697Y45147D01*
G01X35714Y45177D01*
G01X35733Y45205D01*
G01X35753Y45233D01*
G01X35774Y45259D01*
G01X35822Y45307D01*
G01X35848Y45328D01*
G01X35876Y45348D01*
G01X35904Y45367D01*
G01X35934Y45384D01*
G01X35964Y45398D01*
G01X35995Y45411D01*
G01X36027Y45422D01*
G01X36060Y45432D01*
G01X36093Y45439D01*
G01X36127Y45444D01*
G01X36161Y45447D01*
G01X36195Y45448D01*
G01X36228Y45447D01*
G01X36262Y45444D01*
G01X36296Y45439D01*
G01X36329Y45432D01*
G01X36362Y45422D01*
G01X36394Y45411D01*
G01X36425Y45398D01*
G01X36455Y45384D01*
G01X36485Y45367D01*
G01X36513Y45348D01*
G01X36541Y45328D01*
G01X36567Y45307D01*
G01X36615Y45259D01*
G01X36636Y45233D01*
G01X36656Y45205D01*
G01X36675Y45177D01*
G01X36692Y45147D01*
G01X36706Y45117D01*
G01X36719Y45086D01*
G01X36730Y45054D01*
G01X36740Y45021D01*
G01X36747Y44988D01*
G01X36752Y44954D01*
G01X36755Y44920D01*
G01X36756Y44887D01*
G01X36755Y44853D01*
G01X36752Y44819D01*
G01X36747Y44786D01*
G01X36740Y44752D01*
G01X36731Y44720D01*
G01X36720Y44688D01*
G01X36707Y44657D01*
G01X36692Y44626D01*
G01X36675Y44597D01*
G01X36657Y44568D01*
G01X36645Y44546D01*
G01X36607Y44443D01*
G01X36603Y44425D01*
G01X36601Y44408D01*
G01X36601Y43680D01*
G01X36602Y43667D01*
G01X36617Y43547D01*
G01X36620Y43533D01*
G01X36625Y43519D01*
G01X36632Y43506D01*
G01X36641Y43495D01*
G01X36651Y43484D01*
G01X36663Y43475D01*
G01X36675Y43468D01*
G01X36689Y43463D01*
G01X36703Y43460D01*
G01X36718Y43459D01*
G01X36733Y43460D01*
G01X36773Y43463D01*
G01X36868Y43463D01*
G01X36884Y43464D01*
G01X36900Y43468D01*
G01X36915Y43474D01*
G01X36928Y43483D01*
G01X36940Y43493D01*
G01X36951Y43505D01*
G01X36959Y43519D01*
G01X37047Y43696D01*
G01X37053Y43710D01*
G01X37057Y43725D01*
G01X37058Y43741D01*
G01X37058Y44027D01*
G01X37056Y44044D01*
G01X37052Y44062D01*
G01X37014Y44165D01*
G01X37002Y44187D01*
G01X36984Y44216D01*
G01X36967Y44245D01*
G01X36952Y44276D01*
G01X36939Y44307D01*
G01X36928Y44339D01*
G01X36919Y44371D01*
G01X36912Y44405D01*
G01X36907Y44438D01*
G01X36904Y44472D01*
G01X36903Y44506D01*
G01X36904Y44539D01*
G01X36907Y44573D01*
G01X36912Y44607D01*
G01X36919Y44640D01*
G01X36929Y44673D01*
G01X36940Y44705D01*
G01X36953Y44736D01*
G01X36967Y44766D01*
G01X36984Y44796D01*
G01X37003Y44824D01*
G01X37023Y44852D01*
G01X37044Y44878D01*
G01X37092Y44926D01*
G01X37118Y44947D01*
G01X37146Y44967D01*
G01X37174Y44986D01*
G01X37204Y45003D01*
G01X37234Y45017D01*
G01X37265Y45030D01*
G01X37297Y45041D01*
G01X37330Y45051D01*
G01X37363Y45058D01*
G01X37397Y45063D01*
G01X37431Y45066D01*
G01X37465Y45067D01*
G01X37498Y45066D01*
G01X37532Y45063D01*
G01X37566Y45058D01*
G01X37599Y45051D01*
G01X37632Y45041D01*
G01X37664Y45030D01*
G01X37695Y45017D01*
G01X37725Y45003D01*
G01X37755Y44986D01*
G01X37783Y44967D01*
G01X37811Y44947D01*
G01X37837Y44926D01*
G01X37885Y44878D01*
G01X37906Y44852D01*
G01X37926Y44824D01*
G01X37945Y44796D01*
G01X37962Y44766D01*
G01X37976Y44736D01*
G01X37989Y44705D01*
G01X38000Y44673D01*
G01X38010Y44640D01*
G01X38017Y44607D01*
G01X38022Y44573D01*
G01X38025Y44539D01*
G01X38026Y44506D01*
G01X38025Y44472D01*
G01X38022Y44438D01*
G01X38017Y44405D01*
G01X38010Y44371D01*
G01X38001Y44339D01*
G01X37990Y44307D01*
G01X37977Y44276D01*
G01X37962Y44245D01*
G01X37945Y44216D01*
G01X37927Y44187D01*
G01X37915Y44165D01*
G01X37877Y44062D01*
G01X37873Y44044D01*
G01X37871Y44027D01*
G01X37871Y43680D01*
G01X37872Y43667D01*
G01X37887Y43547D01*
G01X37890Y43533D01*
G01X37895Y43519D01*
G01X37902Y43506D01*
G01X37911Y43495D01*
G01X37921Y43484D01*
G01X37933Y43475D01*
G01X37945Y43468D01*
G01X37959Y43463D01*
G01X37973Y43460D01*
G01X37988Y43459D01*
G01X38003Y43460D01*
G01X38043Y43463D01*
G01X38816Y43463D01*
G01X38833Y43464D01*
G01X38850Y43469D01*
G01X38866Y43476D01*
G01X38880Y43485D01*
G01X39215Y43755D01*
G01X39223Y43762D01*
G01X39441Y43981D01*
G01X39452Y43993D01*
G01X39460Y44007D01*
G01X39466Y44021D01*
G01X39470Y44037D01*
G01X39471Y44053D01*
G01X39471Y47329D01*
G01X39469Y47346D01*
G01X39465Y47364D01*
G01X39427Y47467D01*
G01X39415Y47489D01*
G01X39397Y47518D01*
G01X39380Y47547D01*
G01X39365Y47578D01*
G01X39352Y47609D01*
G01X39341Y47641D01*
G01X39332Y47673D01*
G01X39325Y47707D01*
G01X39320Y47740D01*
G01X39317Y47774D01*
G01X39316Y47808D01*
G01X39317Y47841D01*
G01X39320Y47875D01*
G01X39325Y47909D01*
G01X39332Y47942D01*
G01X39342Y47975D01*
G01X39353Y48007D01*
G01X39366Y48038D01*
G01X39380Y48068D01*
G01X39397Y48098D01*
G01X39416Y48126D01*
G01X39436Y48154D01*
G01X39457Y48180D01*
G01X39505Y48228D01*
G01X39531Y48249D01*
G01X39559Y48269D01*
G01X39587Y48288D01*
G01X39617Y48305D01*
G01X39647Y48319D01*
G01X39678Y48332D01*
G01X39710Y48343D01*
G01X39743Y48353D01*
G01X39776Y48360D01*
G01X39810Y48365D01*
G01X39844Y48368D01*
G01X39878Y48369D01*
G01X39911Y48368D01*
G01X39945Y48365D01*
G01X39979Y48360D01*
G01X40012Y48353D01*
G01X40045Y48343D01*
G01X40077Y48332D01*
G01X40108Y48319D01*
G01X40138Y48305D01*
G01X40168Y48288D01*
G01X40196Y48269D01*
G01X40224Y48249D01*
G01X40250Y48228D01*
G01X40298Y48180D01*
G01X40319Y48154D01*
G01X40339Y48126D01*
G01X40358Y48098D01*
G01X40375Y48068D01*
G01X40389Y48038D01*
G01X40402Y48007D01*
G01X40413Y47975D01*
G01X40423Y47942D01*
G01X40430Y47909D01*
G01X40435Y47875D01*
G01X40438Y47841D01*
G01X40439Y47808D01*
G01X40438Y47774D01*
G01X40435Y47740D01*
G01X40430Y47707D01*
G01X40423Y47673D01*
G01X40414Y47641D01*
G01X40403Y47609D01*
G01X40390Y47578D01*
G01X40375Y47547D01*
G01X40358Y47518D01*
G01X40340Y47489D01*
G01X40328Y47467D01*
G01X40290Y47364D01*
G01X40286Y47346D01*
G01X40284Y47329D01*
G01X40284Y43843D01*
G01X40283Y43812D01*
G01X40279Y43782D01*
G01X40274Y43752D01*
G01X40266Y43722D01*
G01X40256Y43693D01*
G01X40243Y43665D01*
G01X40229Y43638D01*
G01X40205Y43599D01*
G01X40199Y43585D01*
G01X40196Y43570D01*
G01X40195Y43555D01*
G01X40196Y43540D01*
G01X40199Y43525D01*
G01X40205Y43511D01*
G01X40212Y43498D01*
G01X40221Y43486D01*
G01X40232Y43476D01*
G01X40245Y43467D01*
G01X40258Y43461D01*
G01X40272Y43456D01*
G01X40298Y43449D01*
G01X40322Y43439D01*
G01X40345Y43426D01*
G01X40362Y43418D01*
G01X40379Y43413D01*
G01X40398Y43412D01*
G01X40416Y43413D01*
G01X40433Y43418D01*
G01X40450Y43426D01*
G01X40470Y43437D01*
G01X40492Y43446D01*
G01X40514Y43454D01*
G01X40536Y43459D01*
G01X40559Y43462D01*
G01X40583Y43463D01*
G01X40678Y43463D01*
G01X40694Y43464D01*
G01X40710Y43468D01*
G01X40725Y43474D01*
G01X40738Y43483D01*
G01X40750Y43493D01*
G01X40761Y43505D01*
G01X40769Y43519D01*
G01X40857Y43696D01*
G01X40863Y43710D01*
G01X40867Y43725D01*
G01X40868Y43741D01*
G01X40868Y49615D01*
G01X40866Y49632D01*
G01X40862Y49650D01*
G01X40824Y49753D01*
G01X40812Y49775D01*
G01X40794Y49804D01*
G01X40777Y49833D01*
G01X40762Y49864D01*
G01X40749Y49895D01*
G01X40738Y49927D01*
G01X40729Y49959D01*
G01X40722Y49993D01*
G01X40717Y50026D01*
G01X40714Y50060D01*
G01X40713Y50094D01*
G01X40714Y50129D01*
G01X40718Y50164D01*
G01X40723Y50199D01*
G01X40731Y50233D01*
G01X40741Y50267D01*
G01X40752Y50300D01*
G01X40766Y50332D01*
G01X40782Y50364D01*
G01X40800Y50394D01*
G01X40820Y50423D01*
G01X40842Y50451D01*
G01X40865Y50477D01*
G01X40890Y50502D01*
G01X40916Y50526D01*
G01X40944Y50547D01*
G01X40973Y50567D01*
G01X41003Y50585D01*
G01X41035Y50601D01*
G01X41067Y50615D01*
G01X41100Y50627D01*
G01X41115Y50633D01*
G01X41129Y50642D01*
G01X41141Y50652D01*
G01X41151Y50664D01*
G01X41159Y50678D01*
G01X41165Y50692D01*
G01X41169Y50708D01*
G01X41170Y50724D01*
G01X41169Y50740D01*
G01X41165Y50755D01*
G01X41159Y50770D01*
G01X41151Y50783D01*
G01X41141Y50796D01*
G01X35706Y56230D01*
G01X35694Y56240D01*
G01X35681Y56248D01*
G01X35142Y56530D01*
G01X35137Y56533D01*
G01X35095Y56553D01*
G01X35054Y56575D01*
G01X35014Y56599D01*
G01X34975Y56625D01*
G01X34938Y56653D01*
G01X34902Y56682D01*
G01X34867Y56713D01*
G01X34833Y56745D01*
G01X34802Y56779D01*
G01X34771Y56814D01*
G01X34743Y56851D01*
G01X34716Y56889D01*
G01X34690Y56928D01*
G01X34667Y56969D01*
G01X34646Y57010D01*
G01X34626Y57052D01*
G01X34608Y57095D01*
G01X34593Y57139D01*
G01X34579Y57184D01*
G01X34567Y57229D01*
G01X34558Y57274D01*
G01X34551Y57320D01*
G01X34545Y57366D01*
G01X34542Y57413D01*
G01X34541Y57460D01*
G01X34542Y57505D01*
G01X34545Y57551D01*
G01X34550Y57596D01*
G01X34557Y57641D01*
G01X34566Y57686D01*
G01X34578Y57730D01*
G01X34591Y57774D01*
G01X34606Y57817D01*
G01X34623Y57860D01*
G01X34642Y57901D01*
G01X34663Y57942D01*
G01X34685Y57982D01*
G01X34709Y58021D01*
G01X34735Y58058D01*
G01X34763Y58095D01*
G01X34792Y58130D01*
G01X34823Y58163D01*
G01X34856Y58196D01*
G01X34889Y58227D01*
G01X34924Y58256D01*
G01X34961Y58284D01*
G01X34998Y58310D01*
G01X35037Y58334D01*
G01X35077Y58356D01*
G01X35118Y58377D01*
G01X35159Y58396D01*
G01X35202Y58413D01*
G01X35245Y58428D01*
G01X35289Y58441D01*
G01X35333Y58453D01*
G01X35378Y58462D01*
G01X35423Y58469D01*
G01X35468Y58474D01*
G01X35514Y58477D01*
G01X35560Y58478D01*
G01X35605Y58477D01*
G01X35651Y58474D01*
G01X35696Y58469D01*
G01X35741Y58462D01*
G01X35786Y58453D01*
G01X35830Y58441D01*
G01X35874Y58428D01*
G01X35917Y58413D01*
G01X35960Y58396D01*
G01X36001Y58377D01*
G01X36042Y58356D01*
G01X36082Y58334D01*
G01X36121Y58310D01*
G01X36158Y58284D01*
G01X36195Y58256D01*
G01X36230Y58227D01*
G01X36263Y58196D01*
G01X36296Y58163D01*
G01X36327Y58130D01*
G01X36356Y58095D01*
G01X36384Y58058D01*
G01X36410Y58021D01*
G01X36434Y57982D01*
G01X36456Y57942D01*
G01X36477Y57901D01*
G01X36496Y57860D01*
G01X36513Y57817D01*
G01X36528Y57774D01*
G01X36541Y57730D01*
G01X36553Y57686D01*
G01X36562Y57641D01*
G01X36569Y57596D01*
G01X36574Y57551D01*
G01X36577Y57505D01*
G01X36578Y57460D01*
G01X36577Y57412D01*
G01X36574Y57365D01*
G01X36568Y57318D01*
G01X36560Y57271D01*
G01X36551Y57224D01*
G01X36539Y57179D01*
G01X36537Y57173D01*
G01X36433Y56720D01*
G01X36431Y56697D01*
G01X36432Y56681D01*
G01X36436Y56666D01*
G01X36442Y56651D01*
G01X36450Y56638D01*
G01X36460Y56626D01*
G01X37520Y55566D01*
G01X37532Y55556D01*
G01X37545Y55548D01*
G01X37560Y55542D01*
G01X37575Y55538D01*
G01X37591Y55537D01*
G01X37606Y55538D01*
G01X37620Y55541D01*
G01X37634Y55546D01*
G01X37646Y55553D01*
G01X37658Y55561D01*
G01X37668Y55572D01*
G01X37677Y55583D01*
G01X37684Y55596D01*
G01X37689Y55610D01*
G01X37692Y55624D01*
G01X37693Y55638D01*
G01X37693Y56298D01*
G01X37692Y56315D01*
G01X37687Y56331D01*
G01X37680Y56347D01*
G01X37671Y56361D01*
G01X37332Y56790D01*
G01X37329Y56793D01*
G01X37298Y56830D01*
G01X37269Y56869D01*
G01X37242Y56909D01*
G01X37217Y56951D01*
G01X37194Y56993D01*
G01X37173Y57037D01*
G01X37154Y57081D01*
G01X37137Y57127D01*
G01X37122Y57173D01*
G01X37110Y57220D01*
G01X37099Y57267D01*
G01X37091Y57315D01*
G01X37086Y57363D01*
G01X37082Y57411D01*
G01X37081Y57460D01*
G01X37082Y57505D01*
G01X37085Y57551D01*
G01X37090Y57596D01*
G01X37097Y57641D01*
G01X37106Y57686D01*
G01X37118Y57730D01*
G01X37131Y57774D01*
G01X37146Y57817D01*
G01X37163Y57860D01*
G01X37182Y57901D01*
G01X37203Y57942D01*
G01X37225Y57982D01*
G01X37249Y58021D01*
G01X37275Y58058D01*
G01X37303Y58095D01*
G01X37332Y58130D01*
G01X37363Y58163D01*
G01X37396Y58196D01*
G01X37429Y58227D01*
G01X37464Y58256D01*
G01X37501Y58284D01*
G01X37538Y58310D01*
G01X37577Y58334D01*
G01X37617Y58356D01*
G01X37658Y58377D01*
G01X37699Y58396D01*
G01X37742Y58413D01*
G01X37785Y58428D01*
G01X37829Y58441D01*
G01X37873Y58453D01*
G01X37918Y58462D01*
G01X37963Y58469D01*
G01X38008Y58474D01*
G01X38054Y58477D01*
G01X38100Y58478D01*
G01X38145Y58477D01*
G01X38191Y58474D01*
G01X38236Y58469D01*
G01X38281Y58462D01*
G01X38326Y58453D01*
G01X38370Y58441D01*
G01X38414Y58428D01*
G01X38457Y58413D01*
G01X38500Y58396D01*
G01X38541Y58377D01*
G01X38582Y58356D01*
G01X38622Y58334D01*
G01X38661Y58310D01*
G01X38698Y58284D01*
G01X38735Y58256D01*
G01X38770Y58227D01*
G01X38803Y58196D01*
G01X38836Y58163D01*
G01X38867Y58130D01*
G01X38896Y58095D01*
G01X38924Y58058D01*
G01X38950Y58021D01*
G01X38974Y57982D01*
G01X38996Y57942D01*
G01X39017Y57901D01*
G01X39036Y57860D01*
G01X39053Y57817D01*
G01X39068Y57774D01*
G01X39081Y57730D01*
G01X39093Y57686D01*
G01X39102Y57641D01*
G01X39109Y57596D01*
G01X39114Y57551D01*
G01X39117Y57505D01*
G01X39118Y57460D01*
G01X39117Y57411D01*
G01X39113Y57363D01*
G01X39108Y57315D01*
G01X39100Y57267D01*
G01X39089Y57220D01*
G01X39077Y57173D01*
G01X39062Y57127D01*
G01X39045Y57081D01*
G01X39026Y57037D01*
G01X39005Y56993D01*
G01X38982Y56951D01*
G01X38957Y56909D01*
G01X38930Y56869D01*
G01X38901Y56830D01*
G01X38870Y56793D01*
G01X38867Y56790D01*
G01X38528Y56361D01*
G01X38519Y56347D01*
G01X38512Y56331D01*
G01X38507Y56315D01*
G01X38506Y56298D01*
G01X38506Y55765D01*
G01X38507Y55749D01*
G01X38511Y55734D01*
G01X38517Y55719D01*
G01X38525Y55705D01*
G01X38536Y55693D01*
G01X40441Y53788D01*
G01X40453Y53778D01*
G01X40466Y53770D01*
G01X40481Y53764D01*
G01X40496Y53760D01*
G01X40512Y53759D01*
G01X40527Y53760D01*
G01X40541Y53763D01*
G01X40555Y53768D01*
G01X40567Y53775D01*
G01X40579Y53783D01*
G01X40589Y53794D01*
G01X40598Y53805D01*
G01X40605Y53818D01*
G01X40610Y53832D01*
G01X40613Y53846D01*
G01X40614Y53860D01*
G01X40614Y58603D01*
G01X40615Y58632D01*
G01X40618Y58660D01*
G01X40623Y58689D01*
G01X40630Y58717D01*
G01X40640Y58745D01*
G01X40651Y58771D01*
G01X40664Y58797D01*
G01X40678Y58822D01*
G01X40695Y58846D01*
G01X40713Y58869D01*
G01X40733Y58890D01*
G01X40987Y59144D01*
G01X41008Y59164D01*
G01X41031Y59182D01*
G01X41055Y59199D01*
G01X41080Y59213D01*
G01X41106Y59226D01*
G01X41132Y59237D01*
G01X41160Y59247D01*
G01X41188Y59254D01*
G01X41217Y59259D01*
G01X41245Y59262D01*
G01X41275Y59263D01*
G01X44323Y59263D01*
G01X44352Y59262D01*
G01X44380Y59259D01*
G01X44409Y59254D01*
G01X44437Y59247D01*
G01X44465Y59237D01*
G01X44491Y59226D01*
G01X44517Y59213D01*
G01X44542Y59199D01*
G01X44566Y59182D01*
G01X44589Y59164D01*
G01X44610Y59144D01*
G01X45185Y58569D01*
G01X45198Y58558D01*
G01X45213Y58549D01*
G01X45229Y58543D01*
G01X45245Y58539D01*
G01X45788Y58476D01*
G01X45793Y58475D01*
G01X45839Y58471D01*
G01X45885Y58465D01*
G01X45930Y58456D01*
G01X45975Y58445D01*
G01X46020Y58433D01*
G01X46064Y58418D01*
G01X46107Y58402D01*
G01X46149Y58383D01*
G01X46191Y58363D01*
G01X46231Y58340D01*
G01X46271Y58316D01*
G01X46309Y58290D01*
G01X46346Y58263D01*
G01X46382Y58233D01*
G01X46416Y58202D01*
G01X46449Y58170D01*
G01X46481Y58136D01*
G01X46511Y58101D01*
G01X46539Y58064D01*
G01X46566Y58027D01*
G01X46590Y57988D01*
G01X46614Y57947D01*
G01X46635Y57906D01*
G01X46654Y57864D01*
G01X46672Y57821D01*
G01X46687Y57778D01*
G01X46700Y57734D01*
G01X46712Y57689D01*
G01X46721Y57644D01*
G01X46729Y57598D01*
G01X46734Y57552D01*
G01X46737Y57506D01*
G01X46738Y57460D01*
G01X46737Y57414D01*
G01X46734Y57368D01*
G01X46729Y57323D01*
G01X46722Y57278D01*
G01X46713Y57233D01*
G01X46701Y57189D01*
G01X46688Y57145D01*
G01X46673Y57102D01*
G01X46656Y57059D01*
G01X46637Y57018D01*
G01X46616Y56977D01*
G01X46594Y56937D01*
G01X46570Y56898D01*
G01X46544Y56861D01*
G01X46516Y56824D01*
G01X46487Y56789D01*
G01X46456Y56756D01*
G01X46423Y56723D01*
G01X46390Y56692D01*
G01X46355Y56663D01*
G01X46318Y56635D01*
G01X46281Y56609D01*
G01X46242Y56585D01*
G01X46202Y56563D01*
G01X46161Y56542D01*
G01X46120Y56523D01*
G01X46077Y56506D01*
G01X46034Y56491D01*
G01X45990Y56478D01*
G01X45946Y56466D01*
G01X45901Y56457D01*
G01X45856Y56450D01*
G01X45811Y56445D01*
G01X45765Y56442D01*
G01X45720Y56441D01*
G01X45673Y56442D01*
G01X45627Y56445D01*
G01X45581Y56450D01*
G01X45536Y56458D01*
G01X45490Y56467D01*
G01X45445Y56479D01*
G01X45401Y56492D01*
G01X45358Y56507D01*
G01X45315Y56525D01*
G01X45273Y56544D01*
G01X45232Y56565D01*
G01X45191Y56589D01*
G01X45152Y56613D01*
G01X45115Y56640D01*
G01X45078Y56668D01*
G01X45043Y56698D01*
G01X45009Y56730D01*
G01X44977Y56763D01*
G01X44946Y56797D01*
G01X44916Y56833D01*
G01X44889Y56870D01*
G01X44863Y56908D01*
G01X44839Y56948D01*
G01X44816Y56988D01*
G01X44796Y57030D01*
G01X44777Y57072D01*
G01X44761Y57115D01*
G01X44746Y57159D01*
G01X44734Y57204D01*
G01X44723Y57249D01*
G01X44714Y57294D01*
G01X44708Y57340D01*
G01X44704Y57386D01*
G01X44703Y57391D01*
G01X44640Y57934D01*
G01X44636Y57950D01*
G01X44630Y57966D01*
G01X44621Y57981D01*
G01X44610Y57994D01*
G01X44184Y58420D01*
G01X44172Y58431D01*
G01X44158Y58439D01*
G01X44143Y58445D01*
G01X44128Y58449D01*
G01X44112Y58450D01*
G01X43861Y58450D01*
G01X43847Y58449D01*
G01X43833Y58446D01*
G01X43819Y58441D01*
G01X43806Y58434D01*
G01X43795Y58425D01*
G01X43784Y58415D01*
G01X43776Y58403D01*
G01X43769Y58391D01*
G01X43764Y58377D01*
G01X43761Y58363D01*
G01X43760Y58348D01*
G01X43761Y58333D01*
G01X43764Y58318D01*
G01X43770Y58303D01*
G01X43778Y58290D01*
G01X43788Y58278D01*
G01X43799Y58268D01*
G01X43836Y58238D01*
G01X43871Y58208D01*
G01X43904Y58175D01*
G01X43936Y58141D01*
G01X43967Y58106D01*
G01X43996Y58069D01*
G01X44023Y58031D01*
G01X44048Y57992D01*
G01X44071Y57952D01*
G01X44093Y57910D01*
G01X44113Y57868D01*
G01X44130Y57825D01*
G01X44146Y57781D01*
G01X44160Y57736D01*
G01X44171Y57691D01*
G01X44181Y57645D01*
G01X44188Y57599D01*
G01X44194Y57553D01*
G01X44197Y57506D01*
G01X44198Y57460D01*
G01X44197Y57413D01*
G01X44194Y57367D01*
G01X44189Y57321D01*
G01X44181Y57276D01*
G01X44172Y57230D01*
G01X44160Y57185D01*
G01X44147Y57141D01*
G01X44132Y57098D01*
G01X44114Y57055D01*
G01X44095Y57013D01*
G01X44074Y56972D01*
G01X44050Y56931D01*
G01X44026Y56893D01*
G01X43999Y56855D01*
G01X43971Y56818D01*
G01X43941Y56783D01*
G01X43909Y56749D01*
G01X43876Y56717D01*
G01X43842Y56686D01*
G01X43806Y56656D01*
G01X43769Y56629D01*
G01X43731Y56603D01*
G01X43691Y56579D01*
G01X43651Y56556D01*
G01X43609Y56536D01*
G01X43567Y56517D01*
G01X43524Y56501D01*
G01X43480Y56486D01*
G01X43435Y56474D01*
G01X43390Y56463D01*
G01X43345Y56454D01*
G01X43299Y56448D01*
G01X43253Y56444D01*
G01X43248Y56443D01*
G01X42705Y56380D01*
G01X42689Y56376D01*
G01X42673Y56370D01*
G01X42658Y56361D01*
G01X42645Y56350D01*
G01X42473Y56178D01*
G01X42462Y56166D01*
G01X42454Y56152D01*
G01X42448Y56137D01*
G01X42444Y56122D01*
G01X42443Y56106D01*
G01X42443Y55842D01*
G01X42444Y55828D01*
G01X42447Y55814D01*
G01X42452Y55800D01*
G01X42459Y55787D01*
G01X42468Y55776D01*
G01X42478Y55766D01*
G01X42490Y55757D01*
G01X42502Y55750D01*
G01X42516Y55745D01*
G01X42530Y55742D01*
G01X42545Y55741D01*
G01X42560Y55742D01*
G01X42575Y55745D01*
G01X42589Y55751D01*
G01X42602Y55759D01*
G01X42642Y55785D01*
G01X42682Y55809D01*
G01X42724Y55831D01*
G01X42767Y55851D01*
G01X42810Y55869D01*
G01X42855Y55885D01*
G01X42900Y55899D01*
G01X42946Y55911D01*
G01X42992Y55921D01*
G01X43038Y55928D01*
G01X43085Y55934D01*
G01X43132Y55937D01*
G01X43180Y55938D01*
G01X43226Y55937D01*
G01X43272Y55934D01*
G01X43318Y55929D01*
G01X43363Y55921D01*
G01X43409Y55912D01*
G01X43454Y55900D01*
G01X43498Y55887D01*
G01X43541Y55872D01*
G01X43584Y55854D01*
G01X43626Y55835D01*
G01X43667Y55814D01*
G01X43708Y55790D01*
G01X43747Y55766D01*
G01X43784Y55739D01*
G01X43821Y55711D01*
G01X43856Y55681D01*
G01X43890Y55649D01*
G01X43922Y55616D01*
G01X43953Y55582D01*
G01X43983Y55546D01*
G01X44010Y55509D01*
G01X44036Y55471D01*
G01X44060Y55431D01*
G01X44083Y55391D01*
G01X44103Y55349D01*
G01X44122Y55307D01*
G01X44138Y55264D01*
G01X44153Y55220D01*
G01X44165Y55175D01*
G01X44176Y55130D01*
G01X44185Y55085D01*
G01X44191Y55039D01*
G01X44195Y54993D01*
G01X44196Y54988D01*
G01X44259Y54445D01*
G01X44263Y54429D01*
G01X44269Y54413D01*
G01X44278Y54398D01*
G01X44289Y54385D01*
G01X45985Y52689D01*
G01X45997Y52678D01*
G01X46011Y52670D01*
G01X46026Y52664D01*
G01X46041Y52660D01*
G01X46057Y52659D01*
G01X46398Y52659D01*
G01X46412Y52660D01*
G01X46426Y52663D01*
G01X46440Y52668D01*
G01X46453Y52675D01*
G01X46464Y52684D01*
G01X46475Y52694D01*
G01X46483Y52706D01*
G01X46490Y52718D01*
G01X46495Y52732D01*
G01X46498Y52746D01*
G01X46499Y52761D01*
G01X46498Y52777D01*
G01X46494Y52792D01*
G01X46488Y52807D01*
G01X46480Y52820D01*
G01X46470Y52832D01*
G01X45625Y53677D01*
G01X45618Y53683D01*
G01X45130Y54088D01*
G01X45125Y54093D01*
G01X45088Y54120D01*
G01X45053Y54150D01*
G01X45019Y54180D01*
G01X44986Y54213D01*
G01X44955Y54247D01*
G01X44925Y54282D01*
G01X44897Y54318D01*
G01X44871Y54356D01*
G01X44847Y54395D01*
G01X44824Y54435D01*
G01X44803Y54475D01*
G01X44784Y54517D01*
G01X44767Y54560D01*
G01X44751Y54603D01*
G01X44738Y54647D01*
G01X44727Y54692D01*
G01X44717Y54737D01*
G01X44710Y54782D01*
G01X44705Y54828D01*
G01X44702Y54874D01*
G01X44701Y54920D01*
G01X44702Y54965D01*
G01X44705Y55011D01*
G01X44710Y55056D01*
G01X44717Y55101D01*
G01X44726Y55146D01*
G01X44738Y55190D01*
G01X44751Y55234D01*
G01X44766Y55277D01*
G01X44783Y55320D01*
G01X44802Y55361D01*
G01X44823Y55402D01*
G01X44845Y55442D01*
G01X44869Y55481D01*
G01X44895Y55518D01*
G01X44923Y55555D01*
G01X44952Y55590D01*
G01X44983Y55623D01*
G01X45016Y55656D01*
G01X45049Y55687D01*
G01X45084Y55716D01*
G01X45121Y55744D01*
G01X45158Y55770D01*
G01X45197Y55794D01*
G01X45237Y55816D01*
G01X45278Y55837D01*
G01X45319Y55856D01*
G01X45362Y55873D01*
G01X45405Y55888D01*
G01X45449Y55901D01*
G01X45493Y55913D01*
G01X45538Y55922D01*
G01X45583Y55929D01*
G01X45628Y55934D01*
G01X45674Y55937D01*
G01X45720Y55938D01*
G01X45765Y55937D01*
G01X45811Y55934D01*
G01X45856Y55929D01*
G01X45901Y55922D01*
G01X45946Y55913D01*
G01X45990Y55901D01*
G01X46034Y55888D01*
G01X46077Y55873D01*
G01X46120Y55856D01*
G01X46161Y55837D01*
G01X46202Y55816D01*
G01X46242Y55794D01*
G01X46281Y55770D01*
G01X46318Y55744D01*
G01X46355Y55716D01*
G01X46390Y55687D01*
G01X46423Y55656D01*
G01X46456Y55623D01*
G01X46487Y55590D01*
G01X46516Y55555D01*
G01X46544Y55518D01*
G01X46570Y55481D01*
G01X46594Y55442D01*
G01X46616Y55402D01*
G01X46637Y55361D01*
G01X46656Y55320D01*
G01X46673Y55277D01*
G01X46688Y55234D01*
G01X46701Y55190D01*
G01X46713Y55146D01*
G01X46722Y55101D01*
G01X46729Y55056D01*
G01X46734Y55011D01*
G01X46737Y54965D01*
G01X46738Y54920D01*
G01X46737Y54872D01*
G01X46734Y54824D01*
G01X46728Y54777D01*
G01X46720Y54730D01*
G01X46710Y54683D01*
G01X46698Y54637D01*
G01X46684Y54591D01*
G01X46667Y54546D01*
G01X46649Y54502D01*
G01X46628Y54459D01*
G01X46625Y54453D01*
G01X46466Y54076D01*
G01X46460Y54056D01*
G01X46458Y54036D01*
G01X46459Y54020D01*
G01X46463Y54005D01*
G01X46469Y53990D01*
G01X46477Y53976D01*
G01X46488Y53964D01*
G01X47255Y53197D01*
G01X47267Y53186D01*
G01X47281Y53178D01*
G01X47296Y53172D01*
G01X47311Y53168D01*
G01X47327Y53167D01*
G01X49065Y53167D01*
G01X49079Y53168D01*
G01X49093Y53171D01*
G01X49107Y53176D01*
G01X49120Y53183D01*
G01X49131Y53192D01*
G01X49142Y53202D01*
G01X49150Y53214D01*
G01X49157Y53226D01*
G01X49162Y53240D01*
G01X49165Y53254D01*
G01X49166Y53269D01*
G01X49165Y53285D01*
G01X49161Y53300D01*
G01X49155Y53315D01*
G01X49147Y53328D01*
G01X49137Y53340D01*
G01X48706Y53771D01*
G01X48695Y53781D01*
G01X48682Y53789D01*
G01X48669Y53795D01*
G01X48655Y53799D01*
G01X48103Y53913D01*
G01X48098Y53914D01*
G01X48053Y53922D01*
G01X48008Y53933D01*
G01X47963Y53945D01*
G01X47919Y53960D01*
G01X47875Y53976D01*
G01X47833Y53995D01*
G01X47791Y54015D01*
G01X47751Y54037D01*
G01X47711Y54061D01*
G01X47672Y54087D01*
G01X47635Y54115D01*
G01X47599Y54144D01*
G01X47564Y54175D01*
G01X47531Y54207D01*
G01X47500Y54241D01*
G01X47470Y54277D01*
G01X47441Y54313D01*
G01X47414Y54351D01*
G01X47389Y54390D01*
G01X47366Y54430D01*
G01X47345Y54472D01*
G01X47325Y54514D01*
G01X47308Y54557D01*
G01X47292Y54600D01*
G01X47279Y54645D01*
G01X47267Y54690D01*
G01X47258Y54735D01*
G01X47250Y54781D01*
G01X47245Y54827D01*
G01X47242Y54873D01*
G01X47241Y54920D01*
G01X47242Y54965D01*
G01X47245Y55011D01*
G01X47250Y55056D01*
G01X47257Y55101D01*
G01X47266Y55146D01*
G01X47278Y55190D01*
G01X47291Y55234D01*
G01X47306Y55277D01*
G01X47323Y55320D01*
G01X47342Y55361D01*
G01X47363Y55402D01*
G01X47385Y55442D01*
G01X47409Y55481D01*
G01X47435Y55518D01*
G01X47463Y55555D01*
G01X47492Y55590D01*
G01X47523Y55623D01*
G01X47556Y55656D01*
G01X47589Y55687D01*
G01X47624Y55716D01*
G01X47661Y55744D01*
G01X47698Y55770D01*
G01X47737Y55794D01*
G01X47777Y55816D01*
G01X47818Y55837D01*
G01X47859Y55856D01*
G01X47902Y55873D01*
G01X47945Y55888D01*
G01X47989Y55901D01*
G01X48033Y55913D01*
G01X48078Y55922D01*
G01X48123Y55929D01*
G01X48168Y55934D01*
G01X48214Y55937D01*
G01X48260Y55938D01*
G01X48305Y55937D01*
G01X48351Y55934D01*
G01X48396Y55929D01*
G01X48441Y55922D01*
G01X48486Y55913D01*
G01X48530Y55901D01*
G01X48574Y55888D01*
G01X48617Y55873D01*
G01X48660Y55856D01*
G01X48701Y55837D01*
G01X48742Y55816D01*
G01X48782Y55794D01*
G01X48821Y55770D01*
G01X48858Y55744D01*
G01X48895Y55716D01*
G01X48930Y55687D01*
G01X48963Y55656D01*
G01X48996Y55623D01*
G01X49027Y55590D01*
G01X49056Y55555D01*
G01X49084Y55518D01*
G01X49110Y55481D01*
G01X49134Y55442D01*
G01X49156Y55402D01*
G01X49177Y55361D01*
G01X49196Y55320D01*
G01X49213Y55277D01*
G01X49228Y55234D01*
G01X49241Y55190D01*
G01X49253Y55146D01*
G01X49262Y55101D01*
G01X49269Y55056D01*
G01X49274Y55011D01*
G01X49277Y54965D01*
G01X49278Y54920D01*
G01X49278Y54900D01*
G01X49294Y54372D01*
G01X49296Y54357D01*
G01X49300Y54342D01*
G01X49306Y54328D01*
G01X49314Y54315D01*
G01X49324Y54303D01*
G01X49922Y53705D01*
G01X49934Y53694D01*
G01X49948Y53686D01*
G01X49963Y53680D01*
G01X49978Y53676D01*
G01X49994Y53675D01*
G01X50571Y53675D01*
G01X50586Y53676D01*
G01X50600Y53679D01*
G01X50614Y53684D01*
G01X50626Y53691D01*
G01X50638Y53700D01*
G01X50648Y53710D01*
G01X50657Y53722D01*
G01X50664Y53734D01*
G01X50669Y53748D01*
G01X50672Y53762D01*
G01X50673Y53777D01*
G01X50672Y53792D01*
G01X50668Y53808D01*
G01X50662Y53822D01*
G01X50654Y53836D01*
G01X50644Y53848D01*
G01X50632Y53858D01*
G01X50618Y53867D01*
G01X50382Y53990D01*
G01X50377Y53993D01*
G01X50335Y54013D01*
G01X50294Y54035D01*
G01X50254Y54059D01*
G01X50216Y54085D01*
G01X50178Y54113D01*
G01X50142Y54142D01*
G01X50107Y54173D01*
G01X50073Y54205D01*
G01X50042Y54239D01*
G01X50011Y54274D01*
G01X49983Y54311D01*
G01X49956Y54349D01*
G01X49930Y54388D01*
G01X49907Y54429D01*
G01X49886Y54470D01*
G01X49866Y54512D01*
G01X49848Y54555D01*
G01X49833Y54599D01*
G01X49819Y54644D01*
G01X49807Y54689D01*
G01X49798Y54734D01*
G01X49791Y54780D01*
G01X49785Y54826D01*
G01X49782Y54873D01*
G01X49781Y54920D01*
G01X49782Y54965D01*
G01X49785Y55011D01*
G01X49790Y55056D01*
G01X49797Y55101D01*
G01X49806Y55146D01*
G01X49818Y55190D01*
G01X49831Y55234D01*
G01X49846Y55277D01*
G01X49863Y55320D01*
G01X49882Y55361D01*
G01X49903Y55402D01*
G01X49925Y55442D01*
G01X49949Y55481D01*
G01X49975Y55518D01*
G01X50003Y55555D01*
G01X50032Y55590D01*
G01X50063Y55623D01*
G01X50096Y55656D01*
G01X50129Y55687D01*
G01X50164Y55716D01*
G01X50201Y55744D01*
G01X50238Y55770D01*
G01X50277Y55794D01*
G01X50317Y55816D01*
G01X50358Y55837D01*
G01X50399Y55856D01*
G01X50442Y55873D01*
G01X50485Y55888D01*
G01X50529Y55901D01*
G01X50573Y55913D01*
G01X50618Y55922D01*
G01X50663Y55929D01*
G01X50708Y55934D01*
G01X50754Y55937D01*
G01X50800Y55938D01*
G01X50845Y55937D01*
G01X50891Y55934D01*
G01X50936Y55929D01*
G01X50981Y55922D01*
G01X51026Y55913D01*
G01X51070Y55901D01*
G01X51114Y55888D01*
G01X51157Y55873D01*
G01X51200Y55856D01*
G01X51241Y55837D01*
G01X51282Y55816D01*
G01X51322Y55794D01*
G01X51361Y55770D01*
G01X51398Y55744D01*
G01X51435Y55716D01*
G01X51470Y55687D01*
G01X51503Y55656D01*
G01X51536Y55623D01*
G01X51567Y55590D01*
G01X51596Y55555D01*
G01X51624Y55518D01*
G01X51650Y55481D01*
G01X51674Y55442D01*
G01X51696Y55402D01*
G01X51717Y55361D01*
G01X51736Y55320D01*
G01X51753Y55277D01*
G01X51768Y55234D01*
G01X51781Y55190D01*
G01X51793Y55146D01*
G01X51802Y55101D01*
G01X51809Y55056D01*
G01X51814Y55011D01*
G01X51817Y54965D01*
G01X51818Y54920D01*
G01X51817Y54872D01*
G01X51814Y54825D01*
G01X51808Y54778D01*
G01X51800Y54731D01*
G01X51791Y54684D01*
G01X51779Y54639D01*
G01X51777Y54633D01*
G01X51702Y54307D01*
G01X51700Y54285D01*
G01X51701Y54270D01*
G01X51704Y54256D01*
G01X51709Y54242D01*
G01X51716Y54230D01*
G01X51725Y54218D01*
G01X51735Y54208D01*
G01X51747Y54199D01*
G01X51759Y54192D01*
G01X51773Y54187D01*
G01X51787Y54184D01*
G01X51801Y54183D01*
G01X52417Y54183D01*
G01X52431Y54184D01*
G01X52445Y54187D01*
G01X52459Y54192D01*
G01X52472Y54199D01*
G01X52483Y54208D01*
G01X52493Y54218D01*
G01X52502Y54230D01*
G01X52509Y54242D01*
G01X52514Y54256D01*
G01X52517Y54270D01*
G01X52518Y54285D01*
G01X52517Y54300D01*
G01X52514Y54315D01*
G01X52508Y54329D01*
G01X52500Y54342D01*
G01X52475Y54382D01*
G01X52451Y54422D01*
G01X52428Y54464D01*
G01X52408Y54507D01*
G01X52390Y54550D01*
G01X52374Y54595D01*
G01X52360Y54640D01*
G01X52348Y54686D01*
G01X52338Y54732D01*
G01X52331Y54778D01*
G01X52325Y54825D01*
G01X52322Y54872D01*
G01X52321Y54920D01*
G01X52322Y54965D01*
G01X52325Y55011D01*
G01X52330Y55056D01*
G01X52337Y55101D01*
G01X52346Y55146D01*
G01X52358Y55190D01*
G01X52371Y55234D01*
G01X52386Y55277D01*
G01X52403Y55320D01*
G01X52422Y55361D01*
G01X52443Y55402D01*
G01X52465Y55442D01*
G01X52489Y55481D01*
G01X52515Y55518D01*
G01X52543Y55555D01*
G01X52572Y55590D01*
G01X52603Y55623D01*
G01X52636Y55656D01*
G01X52669Y55687D01*
G01X52704Y55716D01*
G01X52741Y55744D01*
G01X52778Y55770D01*
G01X52817Y55794D01*
G01X52857Y55816D01*
G01X52898Y55837D01*
G01X52939Y55856D01*
G01X52982Y55873D01*
G01X53025Y55888D01*
G01X53069Y55901D01*
G01X53113Y55913D01*
G01X53158Y55922D01*
G01X53203Y55929D01*
G01X53248Y55934D01*
G01X53294Y55937D01*
G01X53340Y55938D01*
G01X53385Y55937D01*
G01X53431Y55934D01*
G01X53477Y55929D01*
G01X53522Y55922D01*
G01X53567Y55912D01*
G01X53612Y55901D01*
G01X53656Y55888D01*
G01X53699Y55872D01*
G01X53742Y55855D01*
G01X53784Y55836D01*
G01X53824Y55815D01*
G01X53864Y55792D01*
G01X53903Y55768D01*
G01X53941Y55742D01*
G01X53977Y55714D01*
G01X54012Y55684D01*
G01X54046Y55653D01*
G01X54079Y55620D01*
G01X54109Y55586D01*
G01X54139Y55551D01*
G01X54166Y55514D01*
G01X54171Y55509D01*
G01X54576Y55021D01*
G01X54582Y55014D01*
G01X56929Y52667D01*
G01X56949Y52646D01*
G01X56967Y52623D01*
G01X56984Y52599D01*
G01X56998Y52574D01*
G01X57011Y52548D01*
G01X57022Y52522D01*
G01X57032Y52494D01*
G01X57039Y52466D01*
G01X57044Y52437D01*
G01X57047Y52409D01*
G01X57048Y52380D01*
G01X57048Y51080D01*
G01X57050Y51063D01*
G01X57054Y51045D01*
G01X57092Y50942D01*
G01X57104Y50920D01*
G01X57122Y50891D01*
G01X57139Y50862D01*
G01X57154Y50831D01*
G01X57167Y50800D01*
G01X57178Y50768D01*
G01X57187Y50736D01*
G01X57194Y50702D01*
G01X57199Y50669D01*
G01X57202Y50635D01*
G01X57203Y50602D01*
G01X57202Y50567D01*
G01X57198Y50532D01*
G01X57193Y50497D01*
G01X57185Y50463D01*
G01X57176Y50429D01*
G01X57164Y50396D01*
G01X57150Y50364D01*
G01X57134Y50333D01*
G01X57117Y50303D01*
G01X57097Y50274D01*
G01X57076Y50246D01*
G01X57053Y50220D01*
G01X57028Y50195D01*
G01X57002Y50171D01*
G01X56992Y50161D01*
G01X56983Y50149D01*
G01X56976Y50137D01*
G01X56970Y50123D01*
G01X56967Y50108D01*
G01X56966Y50094D01*
G01X56967Y50079D01*
G01X56970Y50065D01*
G01X56975Y50051D01*
G01X56982Y50039D01*
G01X56991Y50027D01*
G01X57001Y50017D01*
G01X57013Y50008D01*
G01X57025Y50001D01*
G01X57039Y49996D01*
G01X57053Y49993D01*
G01X57068Y49992D01*
G01X59182Y49992D01*
G01X59211Y49991D01*
G01X59239Y49988D01*
G01X59268Y49983D01*
G01X59296Y49976D01*
G01X59324Y49966D01*
G01X59350Y49955D01*
G01X59376Y49942D01*
G01X59401Y49928D01*
G01X59425Y49911D01*
G01X59448Y49893D01*
G01X59469Y49873D01*
G01X60993Y48349D01*
G01X61010Y48331D01*
G01X61023Y48319D01*
G01X61037Y48309D01*
G01X61053Y48302D01*
G01X61069Y48298D01*
G01X61086Y48296D01*
G01X61101Y48297D01*
G01X61115Y48300D01*
G01X61129Y48305D01*
G01X61141Y48312D01*
G01X61153Y48321D01*
G01X61163Y48331D01*
G01X61172Y48343D01*
G01X61179Y48356D01*
G01X61184Y48369D01*
G01X61187Y48383D01*
G01X61188Y48398D01*
G01X61188Y51534D01*
G01X61187Y51550D01*
G01X61183Y51565D01*
G01X61177Y51580D01*
G01X61169Y51594D01*
G01X61158Y51606D01*
G01X56414Y56350D01*
G01X56401Y56361D01*
G01X56386Y56370D01*
G01X56370Y56376D01*
G01X56354Y56380D01*
G01X55811Y56443D01*
G01X55806Y56444D01*
G01X55760Y56448D01*
G01X55714Y56454D01*
G01X55669Y56463D01*
G01X55624Y56474D01*
G01X55579Y56486D01*
G01X55535Y56501D01*
G01X55492Y56517D01*
G01X55450Y56536D01*
G01X55408Y56556D01*
G01X55368Y56579D01*
G01X55328Y56603D01*
G01X55290Y56629D01*
G01X55253Y56656D01*
G01X55217Y56686D01*
G01X55183Y56717D01*
G01X55150Y56749D01*
G01X55118Y56783D01*
G01X55088Y56818D01*
G01X55060Y56855D01*
G01X55033Y56893D01*
G01X55009Y56931D01*
G01X54985Y56972D01*
G01X54964Y57013D01*
G01X54945Y57055D01*
G01X54927Y57098D01*
G01X54912Y57141D01*
G01X54899Y57185D01*
G01X54887Y57230D01*
G01X54878Y57276D01*
G01X54870Y57321D01*
G01X54865Y57367D01*
G01X54862Y57413D01*
G01X54861Y57460D01*
G01X54862Y57505D01*
G01X54865Y57551D01*
G01X54870Y57596D01*
G01X54877Y57641D01*
G01X54886Y57686D01*
G01X54898Y57730D01*
G01X54911Y57774D01*
G01X54926Y57817D01*
G01X54943Y57860D01*
G01X54962Y57901D01*
G01X54983Y57942D01*
G01X55005Y57982D01*
G01X55029Y58021D01*
G01X55055Y58058D01*
G01X55083Y58095D01*
G01X55112Y58130D01*
G01X55143Y58163D01*
G01X55176Y58196D01*
G01X55209Y58227D01*
G01X55244Y58256D01*
G01X55281Y58284D01*
G01X55318Y58310D01*
G01X55357Y58334D01*
G01X55397Y58356D01*
G01X55438Y58377D01*
G01X55479Y58396D01*
G01X55522Y58413D01*
G01X55565Y58428D01*
G01X55609Y58441D01*
G01X55653Y58453D01*
G01X55698Y58462D01*
G01X55743Y58469D01*
G01X55788Y58474D01*
G01X55834Y58477D01*
G01X55880Y58478D01*
G01X55926Y58477D01*
G01X55972Y58474D01*
G01X56018Y58469D01*
G01X56063Y58461D01*
G01X56109Y58452D01*
G01X56154Y58440D01*
G01X56198Y58427D01*
G01X56241Y58412D01*
G01X56284Y58394D01*
G01X56326Y58375D01*
G01X56367Y58354D01*
G01X56408Y58330D01*
G01X56447Y58306D01*
G01X56484Y58279D01*
G01X56521Y58251D01*
G01X56556Y58221D01*
G01X56590Y58189D01*
G01X56622Y58156D01*
G01X56653Y58122D01*
G01X56683Y58086D01*
G01X56710Y58049D01*
G01X56736Y58011D01*
G01X56760Y57971D01*
G01X56783Y57931D01*
G01X56803Y57889D01*
G01X56822Y57847D01*
G01X56838Y57804D01*
G01X56853Y57760D01*
G01X56865Y57715D01*
G01X56876Y57670D01*
G01X56885Y57625D01*
G01X56891Y57579D01*
G01X56895Y57533D01*
G01X56896Y57528D01*
G01X56959Y56985D01*
G01X56963Y56969D01*
G01X56969Y56953D01*
G01X56978Y56938D01*
G01X56989Y56925D01*
G01X61882Y52032D01*
G01X61902Y52011D01*
G01X61920Y51988D01*
G01X61937Y51964D01*
G01X61951Y51939D01*
G01X61964Y51913D01*
G01X61975Y51887D01*
G01X61985Y51859D01*
G01X61992Y51831D01*
G01X61997Y51802D01*
G01X62000Y51774D01*
G01X62001Y51745D01*
G01X62001Y45732D01*
G01X62002Y45718D01*
G01X62005Y45704D01*
G01X62010Y45690D01*
G01X62017Y45677D01*
G01X62026Y45666D01*
G01X62036Y45655D01*
G01X62048Y45647D01*
G01X62060Y45640D01*
G01X62074Y45635D01*
G01X62088Y45632D01*
G01X62103Y45631D01*
G01X62119Y45632D01*
G01X62134Y45636D01*
G01X62149Y45642D01*
G01X62162Y45650D01*
G01X62174Y45660D01*
G01X62831Y46317D01*
G01X62852Y46337D01*
G01X62875Y46355D01*
G01X62899Y46372D01*
G01X62924Y46386D01*
G01X62950Y46399D01*
G01X62976Y46410D01*
G01X63004Y46420D01*
G01X63032Y46427D01*
G01X63061Y46432D01*
G01X63089Y46435D01*
G01X63119Y46436D01*
G01X63910Y46436D01*
G01X63927Y46438D01*
G01X63945Y46442D01*
G01X64048Y46480D01*
G01X64070Y46492D01*
G01X64099Y46510D01*
G01X64128Y46527D01*
G01X64159Y46542D01*
G01X64190Y46555D01*
G01X64222Y46566D01*
G01X64254Y46575D01*
G01X64288Y46582D01*
G01X64321Y46587D01*
G01X64355Y46590D01*
G01X64389Y46591D01*
G01X64422Y46590D01*
G01X64456Y46587D01*
G01X64490Y46582D01*
G01X64523Y46575D01*
G01X64556Y46565D01*
G01X64588Y46554D01*
G01X64619Y46541D01*
G01X64649Y46527D01*
G01X64679Y46510D01*
G01X64707Y46491D01*
G01X64735Y46471D01*
G01X64761Y46450D01*
G01X64809Y46402D01*
G01X64830Y46376D01*
G01X64850Y46348D01*
G01X64869Y46320D01*
G01X64886Y46290D01*
G01X64900Y46260D01*
G01X64913Y46229D01*
G01X64924Y46197D01*
G01X64934Y46164D01*
G01X64941Y46131D01*
G01X64946Y46097D01*
G01X64949Y46063D01*
G01X64950Y46030D01*
G01X64949Y45996D01*
G01X64946Y45962D01*
G01X64941Y45928D01*
G01X64934Y45895D01*
G01X64924Y45863D01*
G01X64913Y45830D01*
G01X64900Y45799D01*
G01X64886Y45769D01*
G01X64869Y45739D01*
G01X64850Y45711D01*
G01X64830Y45683D01*
G01X64809Y45657D01*
G01X64761Y45609D01*
G01X64735Y45588D01*
G01X64707Y45568D01*
G01X64679Y45549D01*
G01X64649Y45532D01*
G01X64619Y45518D01*
G01X64588Y45505D01*
G01X64556Y45494D01*
G01X64523Y45484D01*
G01X64490Y45477D01*
G01X64456Y45472D01*
G01X64422Y45469D01*
G01X64389Y45468D01*
G01X64355Y45469D01*
G01X64321Y45472D01*
G01X64288Y45477D01*
G01X64254Y45484D01*
G01X64222Y45493D01*
G01X64190Y45504D01*
G01X64159Y45517D01*
G01X64128Y45532D01*
G01X64099Y45549D01*
G01X64070Y45567D01*
G01X64048Y45579D01*
G01X63945Y45617D01*
G01X63927Y45621D01*
G01X63910Y45623D01*
G01X63329Y45623D01*
G01X63313Y45622D01*
G01X63298Y45618D01*
G01X63283Y45612D01*
G01X63269Y45604D01*
G01X63257Y45593D01*
G01X62757Y45093D01*
G01X62747Y45081D01*
G01X62738Y45068D01*
G01X62732Y45054D01*
G01X62729Y45039D01*
G01X62727Y45024D01*
G01X62712Y45022D01*
G01X62697Y45019D01*
G01X62683Y45013D01*
G01X62670Y45004D01*
G01X62658Y44994D01*
G01X62031Y44367D01*
G01X62020Y44355D01*
G01X62012Y44341D01*
G01X62006Y44326D01*
G01X62002Y44311D01*
G01X62001Y44295D01*
G01X62001Y43333D01*
G01X62003Y43316D01*
G01X62007Y43298D01*
G01X62045Y43195D01*
G01X62057Y43173D01*
G01X62075Y43144D01*
G01X62092Y43115D01*
G01X62107Y43084D01*
G01X62120Y43053D01*
G01X62131Y43021D01*
G01X62140Y42989D01*
G01X62147Y42955D01*
G01X62152Y42922D01*
G01X62155Y42888D01*
G01X62156Y42855D01*
G01X62155Y42821D01*
G01X62152Y42787D01*
G01X62147Y42753D01*
G01X62140Y42720D01*
G01X62130Y42688D01*
G01X62119Y42655D01*
G01X62106Y42624D01*
G01X62092Y42594D01*
G01X62075Y42564D01*
G01X62056Y42536D01*
G01X62036Y42508D01*
G01X62015Y42482D01*
G01X61967Y42434D01*
G01X61941Y42413D01*
G01X61913Y42393D01*
G01X61885Y42374D01*
G01X61855Y42357D01*
G01X61825Y42343D01*
G01X61794Y42330D01*
G01X61762Y42319D01*
G01X61729Y42309D01*
G01X61696Y42302D01*
G01X61662Y42297D01*
G01X61628Y42294D01*
G01X61595Y42293D01*
G01X61560Y42294D01*
G01X61526Y42297D01*
G01X61492Y42303D01*
G01X61458Y42310D01*
G01X61425Y42319D01*
G01X61393Y42331D01*
G01X61361Y42344D01*
G01X61331Y42359D01*
G01X61301Y42376D01*
G01X61272Y42395D01*
G01X61259Y42403D01*
G01X61244Y42409D01*
G01X61229Y42412D01*
G01X61214Y42413D01*
G01X61199Y42412D01*
G01X61185Y42409D01*
G01X61171Y42404D01*
G01X61159Y42397D01*
G01X61147Y42389D01*
G01X61137Y42378D01*
G01X61128Y42367D01*
G01X61121Y42354D01*
G01X61116Y42341D01*
G01X61113Y42326D01*
G01X61112Y42312D01*
G01X61112Y39299D01*
G01X61111Y39270D01*
G01X61108Y39241D01*
G01X61103Y39212D01*
G01X61096Y39184D01*
G01X61086Y39156D01*
G01X61075Y39130D01*
G01X61062Y39104D01*
G01X61048Y39079D01*
G01X61031Y39055D01*
G01X61013Y39032D01*
G01X60993Y39011D01*
G01X59364Y37382D01*
G01X59353Y37370D01*
G01X59345Y37356D01*
G01X59339Y37341D01*
G01X59335Y37326D01*
G01X59334Y37310D01*
G01X59334Y36187D01*
G01X59335Y36173D01*
G01X59338Y36159D01*
G01X59343Y36145D01*
G01X59350Y36132D01*
G01X59359Y36121D01*
G01X59369Y36111D01*
G01X59381Y36102D01*
G01X59393Y36095D01*
G01X59407Y36090D01*
G01X59421Y36087D01*
G01X59436Y36086D01*
G01X59450Y36087D01*
G01X59464Y36090D01*
G01X59478Y36095D01*
G01X59490Y36102D01*
G01X59502Y36110D01*
G01X59512Y36121D01*
G01X59521Y36132D01*
G01X59528Y36145D01*
G01X59533Y36158D01*
G01X59544Y36191D01*
G01X59557Y36222D01*
G01X59571Y36253D01*
G01X59588Y36283D01*
G01X59606Y36312D01*
G01X59626Y36340D01*
G01X59648Y36366D01*
G01X59671Y36391D01*
G01X59696Y36415D01*
G01X59722Y36437D01*
G01X59749Y36457D01*
G01X59778Y36476D01*
G01X59808Y36493D01*
G01X59838Y36508D01*
G01X59870Y36521D01*
G01X59902Y36532D01*
G01X59935Y36541D01*
G01X59969Y36548D01*
G01X60002Y36554D01*
G01X60036Y36557D01*
G01X60071Y36558D01*
G01X60104Y36557D01*
G01X60138Y36554D01*
G01X60171Y36549D01*
G01X60205Y36542D01*
G01X60237Y36533D01*
G01X60269Y36522D01*
G01X60300Y36509D01*
G01X60331Y36494D01*
G01X60360Y36477D01*
G01X60389Y36459D01*
G01X60411Y36447D01*
G01X60514Y36409D01*
G01X60532Y36405D01*
G01X60549Y36403D01*
G01X62123Y36403D01*
G01X62152Y36402D01*
G01X62181Y36399D01*
G01X62209Y36394D01*
G01X62237Y36387D01*
G01X62265Y36377D01*
G01X62292Y36366D01*
G01X62318Y36353D01*
G01X62343Y36339D01*
G01X62366Y36322D01*
G01X62389Y36304D01*
G01X62410Y36284D01*
G01X62586Y36108D01*
G01X62598Y36098D01*
G01X63094Y35734D01*
G01X63108Y35725D01*
G01X63123Y35719D01*
G01X63138Y35715D01*
G01X63154Y35714D01*
G01X63637Y35714D01*
G01X63660Y35713D01*
G01X63684Y35710D01*
G01X63707Y35704D01*
G01X63729Y35697D01*
G01X63751Y35687D01*
G01X63772Y35676D01*
G01X63791Y35662D01*
G01X63810Y35647D01*
G01X63826Y35630D01*
G01X63842Y35612D01*
G01X63855Y35593D01*
G01X63866Y35572D01*
G01X63876Y35550D01*
G01X63884Y35528D01*
G01X63889Y35505D01*
G01X63892Y35481D01*
G01X63893Y35458D01*
G01X63893Y34757D01*
G01X63892Y34734D01*
G01X63889Y34711D01*
G01X63884Y34688D01*
G01X63876Y34666D01*
G01X63867Y34645D01*
G01X63856Y34624D01*
G01X63843Y34605D01*
G01X63828Y34587D01*
G01X63812Y34570D01*
G01X63794Y34555D01*
G01X63775Y34541D01*
G01X63755Y34530D01*
G01X63733Y34520D01*
G01X63711Y34512D01*
G01X63696Y34506D01*
G01X63682Y34498D01*
G01X63669Y34487D01*
G01X63659Y34474D01*
G01X63650Y34460D01*
G01X63479Y34118D01*
G01X63473Y34104D01*
G01X63470Y34089D01*
G01X63468Y34073D01*
G01X63468Y27444D01*
G01X63470Y27428D01*
G01X63473Y27413D01*
G01X63479Y27398D01*
G01X63488Y27385D01*
G01X63498Y27373D01*
G01X64421Y26450D01*
G01X64433Y26439D01*
G01X64447Y26431D01*
G01X64461Y26425D01*
G01X64477Y26421D01*
G01X64493Y26420D01*
G01X83185Y26420D01*
G01X83217Y26419D01*
G01X83249Y26415D01*
G01X83282Y26410D01*
G01X83313Y26402D01*
G01X83344Y26391D01*
G01X83374Y26379D01*
G01X83403Y26364D01*
G01X83431Y26348D01*
G01X83458Y26329D01*
G01X83483Y26309D01*
G01X83507Y26286D01*
G01X84523Y25270D01*
G01X84546Y25246D01*
G01X84566Y25221D01*
G01X84585Y25194D01*
G01X84601Y25166D01*
G01X84616Y25137D01*
G01X84628Y25107D01*
G01X84639Y25076D01*
G01X84647Y25045D01*
G01X84652Y25012D01*
G01X84656Y24980D01*
G01X84657Y24948D01*
G01X84657Y18090D01*
G01X84656Y18057D01*
G01X84652Y18025D01*
G01X84647Y17992D01*
G01X84639Y17961D01*
G01X84628Y17930D01*
G01X84616Y17900D01*
G01X84601Y17871D01*
G01X84585Y17843D01*
G01X84566Y17816D01*
G01X84546Y17791D01*
G01X84523Y17767D01*
G01X82607Y15850D01*
G01X82596Y15838D01*
G01X82588Y15824D01*
G01X82582Y15810D01*
G01X82578Y15794D01*
G01X82577Y15778D01*
G01X82578Y15764D01*
G01X82581Y15749D01*
G01X82586Y15736D01*
G01X82593Y15723D01*
G01X82602Y15712D01*
G01X82612Y15701D01*
G01X82623Y15693D01*
G01X82636Y15686D01*
G01X82650Y15681D01*
G01X82664Y15678D01*
G01X82678Y15677D01*
G01X89641Y15677D01*
G01X89656Y15678D01*
G01X89670Y15681D01*
G01X89684Y15686D01*
G01X89696Y15693D01*
G01X89708Y15701D01*
G01X89718Y15712D01*
G01X89727Y15723D01*
G01X89734Y15736D01*
G01X89739Y15749D01*
G01X89742Y15764D01*
G01X89743Y15778D01*
G01X89743Y55004D01*
G01X89742Y55103D01*
G01X89739Y55202D01*
G01X89733Y55301D01*
G01X89726Y55400D01*
G01X89717Y55499D01*
G01X89705Y55598D01*
G01X89692Y55696D01*
G01X89676Y55794D01*
G01X89658Y55892D01*
G01X89639Y55989D01*
G01X89617Y56086D01*
G01X89593Y56183D01*
G01X89567Y56278D01*
G01X89540Y56374D01*
G01X89510Y56469D01*
G01X89478Y56563D01*
G01X89444Y56656D01*
G01X89409Y56749D01*
G01X89371Y56841D01*
G01X89332Y56932D01*
G01X89290Y57022D01*
G01X89247Y57111D01*
G01X89202Y57200D01*
G01X89155Y57287D01*
G01X89106Y57374D01*
G01X89055Y57459D01*
G01X89003Y57543D01*
G01X88949Y57627D01*
G01X88893Y57709D01*
G01X88836Y57790D01*
G01X88776Y57869D01*
G01X88715Y57948D01*
G01X88653Y58025D01*
G01X88589Y58101D01*
G01X88523Y58175D01*
G01X88456Y58248D01*
G01X88387Y58320D01*
G01X88317Y58390D01*
G01X88245Y58459D01*
G01X88172Y58526D01*
G01X88098Y58592D01*
G01X88022Y58656D01*
G01X87944Y58718D01*
G01X87866Y58779D01*
G01X87786Y58838D01*
G01X87705Y58896D01*
G01X87623Y58951D01*
G01X87540Y59005D01*
G01X87456Y59058D01*
G01X87370Y59108D01*
G01X87284Y59157D01*
G01X87196Y59204D01*
G01X87108Y59249D01*
G01X87018Y59292D01*
G01X86928Y59333D01*
G01X86837Y59373D01*
G01X86745Y59410D01*
G01X86652Y59446D01*
G01X86559Y59479D01*
G01X86465Y59511D01*
G01X86370Y59541D01*
G01X86274Y59568D01*
G01X86178Y59594D01*
G01X86082Y59618D01*
G01X85985Y59639D01*
G01X85888Y59659D01*
G01X85790Y59677D01*
G01X85692Y59692D01*
G01X85594Y59706D01*
G01X85495Y59717D01*
G01X85396Y59726D01*
G01X85297Y59734D01*
G01X85198Y59739D01*
G01X85099Y59742D01*
G01X85000Y59743D01*
G01X18690Y59743D01*
G01X18674Y59742D01*
G01X18658Y59738D01*
G01X18644Y59732D01*
G01X18630Y59724D01*
G01X18618Y59713D01*
G01X13590Y54685D01*
G01X13571Y54668D01*
G01X13551Y54653D01*
G01X13529Y54640D01*
G01X13506Y54629D01*
G01X13483Y54621D01*
G01X13458Y54615D01*
G01X13433Y54611D01*
G01X13408Y54610D01*
G01X13383Y54611D01*
G01X13358Y54615D01*
G01X13334Y54621D01*
G01X13310Y54629D01*
G01X13287Y54640D01*
G01X13266Y54653D01*
G01X13245Y54668D01*
G01X13227Y54685D01*
G01X8198Y59713D01*
G01X8186Y59724D01*
G01X8173Y59732D01*
G01X8158Y59738D01*
G01X8142Y59742D01*
G01X8126Y59743D01*
G37*

%LPC*%
G36*
G01X80551Y45701D02*
G01X80518Y45702D01*
G01X80480Y45701D01*
G01X80443Y45697D01*
G01X80407Y45691D01*
G01X80371Y45682D01*
G01X80335Y45671D01*
G01X80300Y45658D01*
G01X80266Y45643D01*
G01X80234Y45625D01*
G01X80216Y45617D01*
G01X80196Y45612D01*
G01X80092Y45598D01*
G01X80079Y45597D01*
G01X69723Y45597D01*
G01X69690Y45596D01*
G01X69658Y45592D01*
G01X69625Y45587D01*
G01X69594Y45579D01*
G01X69563Y45568D01*
G01X69533Y45556D01*
G01X69504Y45541D01*
G01X69476Y45525D01*
G01X69449Y45506D01*
G01X69424Y45486D01*
G01X69400Y45463D01*
G01X65476Y41540D01*
G01X65464Y41530D01*
G01X65451Y41521D01*
G01X65436Y41515D01*
G01X65421Y41512D01*
G01X65405Y41510D01*
G01X65390Y41511D01*
G01X65376Y41514D01*
G01X65362Y41520D01*
G01X65350Y41526D01*
G01X65338Y41535D01*
G01X65328Y41545D01*
G01X65319Y41557D01*
G01X65312Y41570D01*
G01X65307Y41583D01*
G01X65304Y41598D01*
G01X65303Y41612D01*
G01X65303Y43773D01*
G01X65305Y43790D01*
G01X65309Y43808D01*
G01X65347Y43911D01*
G01X65359Y43933D01*
G01X65377Y43962D01*
G01X65394Y43991D01*
G01X65409Y44022D01*
G01X65422Y44053D01*
G01X65433Y44085D01*
G01X65442Y44117D01*
G01X65449Y44151D01*
G01X65454Y44184D01*
G01X65457Y44218D01*
G01X65458Y44252D01*
G01X65457Y44285D01*
G01X65454Y44319D01*
G01X65449Y44353D01*
G01X65442Y44386D01*
G01X65432Y44419D01*
G01X65421Y44451D01*
G01X65408Y44482D01*
G01X65394Y44512D01*
G01X65377Y44542D01*
G01X65358Y44570D01*
G01X65338Y44598D01*
G01X65317Y44624D01*
G01X65269Y44672D01*
G01X65243Y44693D01*
G01X65215Y44713D01*
G01X65187Y44732D01*
G01X65157Y44749D01*
G01X65127Y44763D01*
G01X65096Y44776D01*
G01X65064Y44787D01*
G01X65031Y44797D01*
G01X64998Y44804D01*
G01X64964Y44809D01*
G01X64930Y44812D01*
G01X64897Y44813D01*
G01X64863Y44812D01*
G01X64829Y44809D01*
G01X64795Y44804D01*
G01X64762Y44797D01*
G01X64729Y44787D01*
G01X64697Y44776D01*
G01X64666Y44763D01*
G01X64636Y44749D01*
G01X64606Y44732D01*
G01X64578Y44713D01*
G01X64550Y44693D01*
G01X64524Y44672D01*
G01X64476Y44624D01*
G01X64455Y44598D01*
G01X64435Y44570D01*
G01X64416Y44542D01*
G01X64399Y44512D01*
G01X64385Y44482D01*
G01X64372Y44451D01*
G01X64361Y44419D01*
G01X64351Y44386D01*
G01X64344Y44353D01*
G01X64339Y44319D01*
G01X64336Y44285D01*
G01X64335Y44252D01*
G01X64336Y44218D01*
G01X64339Y44184D01*
G01X64344Y44151D01*
G01X64351Y44117D01*
G01X64360Y44085D01*
G01X64371Y44053D01*
G01X64384Y44022D01*
G01X64399Y43991D01*
G01X64416Y43962D01*
G01X64434Y43933D01*
G01X64446Y43911D01*
G01X64484Y43808D01*
G01X64488Y43790D01*
G01X64490Y43773D01*
G01X64490Y41902D01*
G01X64489Y41888D01*
G01X64486Y41874D01*
G01X64481Y41860D01*
G01X64474Y41847D01*
G01X64465Y41836D01*
G01X64455Y41826D01*
G01X64443Y41817D01*
G01X64431Y41810D01*
G01X64417Y41805D01*
G01X64403Y41802D01*
G01X64388Y41801D01*
G01X64374Y41802D01*
G01X64360Y41805D01*
G01X64346Y41810D01*
G01X64334Y41817D01*
G01X64322Y41825D01*
G01X64312Y41836D01*
G01X64303Y41847D01*
G01X64296Y41860D01*
G01X64291Y41873D01*
G01X64280Y41906D01*
G01X64267Y41937D01*
G01X64253Y41968D01*
G01X64236Y41998D01*
G01X64218Y42027D01*
G01X64198Y42055D01*
G01X64176Y42081D01*
G01X64153Y42106D01*
G01X64128Y42130D01*
G01X64102Y42152D01*
G01X64075Y42172D01*
G01X64046Y42191D01*
G01X64016Y42208D01*
G01X63986Y42223D01*
G01X63954Y42236D01*
G01X63922Y42247D01*
G01X63889Y42256D01*
G01X63855Y42264D01*
G01X63831Y42271D01*
G01X63732Y42317D01*
G01X63716Y42326D01*
G01X63702Y42338D01*
G01X63682Y42358D01*
G01X63671Y42370D01*
G01X63663Y42384D01*
G01X63657Y42399D01*
G01X63653Y42414D01*
G01X63652Y42430D01*
G01X63652Y44027D01*
G01X63654Y44044D01*
G01X63658Y44062D01*
G01X63696Y44165D01*
G01X63708Y44187D01*
G01X63726Y44216D01*
G01X63743Y44245D01*
G01X63758Y44276D01*
G01X63771Y44307D01*
G01X63782Y44339D01*
G01X63791Y44371D01*
G01X63798Y44405D01*
G01X63803Y44438D01*
G01X63806Y44472D01*
G01X63807Y44506D01*
G01X63806Y44539D01*
G01X63803Y44573D01*
G01X63798Y44607D01*
G01X63791Y44640D01*
G01X63781Y44673D01*
G01X63770Y44705D01*
G01X63757Y44736D01*
G01X63743Y44766D01*
G01X63726Y44796D01*
G01X63707Y44824D01*
G01X63687Y44852D01*
G01X63666Y44878D01*
G01X63618Y44926D01*
G01X63592Y44947D01*
G01X63564Y44967D01*
G01X63536Y44986D01*
G01X63506Y45003D01*
G01X63476Y45017D01*
G01X63445Y45030D01*
G01X63413Y45041D01*
G01X63380Y45051D01*
G01X63347Y45058D01*
G01X63313Y45063D01*
G01X63279Y45066D01*
G01X63246Y45067D01*
G01X63211Y45066D01*
G01X63176Y45063D01*
G01X63142Y45057D01*
G01X63108Y45050D01*
G01X63075Y45040D01*
G01X63042Y45029D01*
G01X63010Y45015D01*
G01X62979Y45000D01*
G01X62949Y44982D01*
G01X62920Y44963D01*
G01X62892Y44942D01*
G01X62879Y44933D01*
G01X62864Y44926D01*
G01X62848Y44921D01*
G01X62832Y44919D01*
G01X62830Y44903D01*
G01X62825Y44887D01*
G01X62818Y44872D01*
G01X62809Y44859D01*
G01X62788Y44831D01*
G01X62769Y44802D01*
G01X62751Y44772D01*
G01X62736Y44741D01*
G01X62722Y44709D01*
G01X62711Y44676D01*
G01X62701Y44643D01*
G01X62694Y44609D01*
G01X62688Y44575D01*
G01X62685Y44540D01*
G01X62684Y44506D01*
G01X62685Y44472D01*
G01X62688Y44438D01*
G01X62693Y44405D01*
G01X62700Y44371D01*
G01X62709Y44339D01*
G01X62720Y44307D01*
G01X62733Y44276D01*
G01X62748Y44245D01*
G01X62765Y44216D01*
G01X62783Y44187D01*
G01X62795Y44165D01*
G01X62833Y44062D01*
G01X62837Y44044D01*
G01X62839Y44027D01*
G01X62839Y42220D01*
G01X62840Y42191D01*
G01X62843Y42162D01*
G01X62848Y42133D01*
G01X62855Y42105D01*
G01X62865Y42077D01*
G01X62876Y42051D01*
G01X62889Y42025D01*
G01X62903Y42000D01*
G01X62920Y41976D01*
G01X62938Y41953D01*
G01X62958Y41932D01*
G01X63127Y41763D01*
G01X63139Y41749D01*
G01X63148Y41733D01*
G01X63194Y41634D01*
G01X63201Y41610D01*
G01X63209Y41576D01*
G01X63218Y41543D01*
G01X63229Y41511D01*
G01X63242Y41479D01*
G01X63257Y41449D01*
G01X63274Y41419D01*
G01X63293Y41390D01*
G01X63314Y41363D01*
G01X63336Y41337D01*
G01X63359Y41312D01*
G01X63384Y41289D01*
G01X63411Y41267D01*
G01X63438Y41247D01*
G01X63467Y41229D01*
G01X63497Y41212D01*
G01X63528Y41197D01*
G01X63560Y41185D01*
G01X63592Y41174D01*
G01X63606Y41169D01*
G01X63618Y41162D01*
G01X63630Y41153D01*
G01X63640Y41143D01*
G01X63649Y41131D01*
G01X63656Y41119D01*
G01X63661Y41105D01*
G01X63664Y41091D01*
G01X63665Y41077D01*
G01X63664Y41062D01*
G01X63661Y41048D01*
G01X63656Y41034D01*
G01X63649Y41022D01*
G01X63640Y41010D01*
G01X63630Y41000D01*
G01X63618Y40991D01*
G01X63606Y40984D01*
G01X63592Y40979D01*
G01X63560Y40968D01*
G01X63528Y40956D01*
G01X63497Y40941D01*
G01X63467Y40924D01*
G01X63438Y40906D01*
G01X63411Y40886D01*
G01X63384Y40864D01*
G01X63359Y40841D01*
G01X63336Y40816D01*
G01X63314Y40790D01*
G01X63293Y40763D01*
G01X63274Y40734D01*
G01X63242Y40674D01*
G01X63229Y40642D01*
G01X63218Y40610D01*
G01X63209Y40577D01*
G01X63202Y40544D01*
G01X63196Y40510D01*
G01X63193Y40476D01*
G01X63192Y40442D01*
G01X63193Y40408D01*
G01X63196Y40374D01*
G01X63201Y40340D01*
G01X63208Y40307D01*
G01X63218Y40275D01*
G01X63229Y40243D01*
G01X63242Y40211D01*
G01X63256Y40181D01*
G01X63273Y40151D01*
G01X63291Y40123D01*
G01X63311Y40096D01*
G01X63333Y40070D01*
G01X63356Y40045D01*
G01X63381Y40022D01*
G01X63407Y40000D01*
G01X63434Y39980D01*
G01X63463Y39961D01*
G01X63492Y39945D01*
G01X63523Y39930D01*
G01X63554Y39917D01*
G01X63586Y39906D01*
G01X63618Y39897D01*
G01X63652Y39890D01*
G01X63685Y39884D01*
G01X63719Y39881D01*
G01X63734Y39879D01*
G01X63749Y39875D01*
G01X63762Y39868D01*
G01X63775Y39860D01*
G01X63786Y39849D01*
G01X63796Y39837D01*
G01X63804Y39824D01*
G01X63809Y39810D01*
G01X63813Y39795D01*
G01X63814Y39780D01*
G01X63812Y39762D01*
G01X63807Y39721D01*
G01X63805Y39680D01*
G01X63805Y39111D01*
G01X63804Y39097D01*
G01X63801Y39083D01*
G01X63796Y39069D01*
G01X63789Y39056D01*
G01X63780Y39045D01*
G01X63770Y39035D01*
G01X63758Y39026D01*
G01X63746Y39019D01*
G01X63732Y39014D01*
G01X63718Y39011D01*
G01X63703Y39010D01*
G01X63684Y39012D01*
G01X63661Y39015D01*
G01X63637Y39016D01*
G01X62387Y39016D01*
G01X62359Y39015D01*
G01X62332Y39010D01*
G01X62305Y39003D01*
G01X62279Y38992D01*
G01X62280Y38993D01*
G01X62278Y38992D01*
G01X61902Y38825D01*
G01X61882Y38818D01*
G01X61861Y38816D01*
G01X61595Y38816D01*
G01X61565Y38815D01*
G01X61537Y38812D01*
G01X61508Y38807D01*
G01X61480Y38799D01*
G01X61452Y38790D01*
G01X61425Y38779D01*
G01X61399Y38766D01*
G01X61374Y38751D01*
G01X61351Y38740D01*
G01X61276Y38715D01*
G01X61258Y38711D01*
G01X61224Y38705D01*
G01X61191Y38696D01*
G01X61157Y38686D01*
G01X61125Y38674D01*
G01X61093Y38659D01*
G01X61062Y38643D01*
G01X61033Y38625D01*
G01X61004Y38605D01*
G01X60977Y38583D01*
G01X60951Y38560D01*
G01X60927Y38535D01*
G01X60904Y38509D01*
G01X60883Y38481D01*
G01X60864Y38452D01*
G01X60847Y38422D01*
G01X60831Y38391D01*
G01X60817Y38359D01*
G01X60806Y38327D01*
G01X60796Y38293D01*
G01X60789Y38259D01*
G01X60783Y38225D01*
G01X60780Y38190D01*
G01X60779Y38156D01*
G01X60780Y38122D01*
G01X60783Y38088D01*
G01X60788Y38054D01*
G01X60795Y38021D01*
G01X60805Y37989D01*
G01X60816Y37956D01*
G01X60829Y37925D01*
G01X60843Y37895D01*
G01X60860Y37865D01*
G01X60879Y37837D01*
G01X60899Y37809D01*
G01X60920Y37783D01*
G01X60968Y37735D01*
G01X60994Y37714D01*
G01X61022Y37694D01*
G01X61050Y37675D01*
G01X61080Y37658D01*
G01X61110Y37644D01*
G01X61141Y37631D01*
G01X61173Y37620D01*
G01X61206Y37610D01*
G01X61239Y37603D01*
G01X61273Y37598D01*
G01X61307Y37595D01*
G01X61341Y37594D01*
G01X61375Y37595D01*
G01X61410Y37599D01*
G01X61445Y37604D01*
G01X61479Y37611D01*
G01X61512Y37621D01*
G01X61545Y37633D01*
G01X61578Y37647D01*
G01X61609Y37662D01*
G01X61639Y37680D01*
G01X61668Y37700D01*
G01X61696Y37721D01*
G01X61722Y37744D01*
G01X61747Y37768D01*
G01X61770Y37794D01*
G01X61792Y37822D01*
G01X61812Y37851D01*
G01X61830Y37880D01*
G01X61846Y37911D01*
G01X61854Y37926D01*
G01X61865Y37938D01*
G01X61877Y37949D01*
G01X61891Y37957D01*
G01X61906Y37964D01*
G01X61921Y37968D01*
G01X61938Y37969D01*
G01X61959Y37967D01*
G01X61979Y37960D01*
G01X62278Y37827D01*
G01X62277Y37828D01*
G01X62279Y37827D01*
G01X62305Y37816D01*
G01X62332Y37809D01*
G01X62359Y37804D01*
G01X62387Y37803D01*
G01X63637Y37803D01*
G01X63668Y37805D01*
G01X63699Y37811D01*
G01X63701Y37811D01*
G01X63703Y37812D01*
G01X64258Y37950D01*
G01X64279Y37953D01*
G01X64311Y37956D01*
G01X64344Y37960D01*
G01X64376Y37968D01*
G01X64408Y37977D01*
G01X64438Y37989D01*
G01X64468Y38002D01*
G01X64497Y38018D01*
G01X64513Y38026D01*
G01X64531Y38031D01*
G01X64549Y38033D01*
G01X64564Y38032D01*
G01X64578Y38029D01*
G01X64592Y38024D01*
G01X64604Y38017D01*
G01X64616Y38008D01*
G01X64626Y37998D01*
G01X64635Y37986D01*
G01X64642Y37974D01*
G01X64647Y37960D01*
G01X64650Y37946D01*
G01X64651Y37931D01*
G01X64649Y37914D01*
G01X64645Y37897D01*
G01X64636Y37868D01*
G01X64631Y37839D01*
G01X64630Y37810D01*
G01X64630Y37110D01*
G01X64631Y37086D01*
G01X64634Y37063D01*
G01X64639Y37040D01*
G01X64647Y37018D01*
G01X64656Y36996D01*
G01X64667Y36976D01*
G01X64680Y36956D01*
G01X64695Y36938D01*
G01X64712Y36921D01*
G01X64730Y36906D01*
G01X64749Y36893D01*
G01X64769Y36881D01*
G01X64790Y36872D01*
G01X64813Y36864D01*
G01X64835Y36858D01*
G01X64850Y36854D01*
G01X64864Y36847D01*
G01X64877Y36839D01*
G01X64889Y36829D01*
G01X64898Y36817D01*
G01X64906Y36803D01*
G01X64912Y36789D01*
G01X64916Y36774D01*
G01X64917Y36759D01*
G01X64916Y36743D01*
G01X64912Y36728D01*
G01X64906Y36714D01*
G01X64898Y36700D01*
G01X64889Y36688D01*
G01X64877Y36678D01*
G01X64864Y36670D01*
G01X64850Y36663D01*
G01X64835Y36659D01*
G01X64813Y36653D01*
G01X64790Y36645D01*
G01X64769Y36636D01*
G01X64749Y36624D01*
G01X64730Y36611D01*
G01X64712Y36596D01*
G01X64695Y36579D01*
G01X64680Y36561D01*
G01X64667Y36541D01*
G01X64656Y36521D01*
G01X64647Y36499D01*
G01X64639Y36477D01*
G01X64634Y36454D01*
G01X64631Y36431D01*
G01X64630Y36407D01*
G01X64630Y35707D01*
G01X64631Y35684D01*
G01X64634Y35660D01*
G01X64639Y35637D01*
G01X64647Y35615D01*
G01X64657Y35593D01*
G01X64668Y35572D01*
G01X64681Y35553D01*
G01X64697Y35535D01*
G01X64713Y35518D01*
G01X64732Y35503D01*
G01X64751Y35489D01*
G01X64772Y35478D01*
G01X64794Y35468D01*
G01X64816Y35461D01*
G01X64839Y35455D01*
G01X64863Y35452D01*
G01X64886Y35451D01*
G01X65087Y35451D01*
G01X65114Y35447D01*
G01X65591Y35314D01*
G01X65607Y35308D01*
G01X65622Y35299D01*
G01X65635Y35288D01*
G01X65707Y35216D01*
G01X65730Y35194D01*
G01X65756Y35174D01*
G01X65783Y35155D01*
G01X65811Y35139D01*
G01X65840Y35124D01*
G01X65870Y35112D01*
G01X65901Y35101D01*
G01X65932Y35093D01*
G01X65964Y35087D01*
G01X65997Y35084D01*
G01X66029Y35083D01*
G01X66310Y35083D01*
G01X66326Y35082D01*
G01X66341Y35078D01*
G01X66356Y35072D01*
G01X66708Y34896D01*
G01X66721Y34888D01*
G01X66732Y34879D01*
G01X66742Y34868D01*
G01X66750Y34856D01*
G01X66757Y34843D01*
G01X66768Y34819D01*
G01X66781Y34797D01*
G01X66797Y34776D01*
G01X66815Y34756D01*
G01X66835Y34739D01*
G01X66846Y34729D01*
G01X66855Y34717D01*
G01X66863Y34704D01*
G01X66868Y34689D01*
G01X66872Y34675D01*
G01X66873Y34659D01*
G01X66872Y34645D01*
G01X66869Y34631D01*
G01X66864Y34617D01*
G01X66857Y34605D01*
G01X66848Y34593D01*
G01X66838Y34583D01*
G01X66826Y34574D01*
G01X66814Y34567D01*
G01X66800Y34562D01*
G01X66786Y34559D01*
G01X66771Y34558D01*
G01X66754Y34559D01*
G01X66737Y34564D01*
G01X66228Y34747D01*
G01X66229Y34747D01*
G01X66226Y34748D01*
G01X66204Y34755D01*
G01X66182Y34760D01*
G01X66159Y34763D01*
G01X66136Y34764D01*
G01X64886Y34764D01*
G01X64863Y34763D01*
G01X64839Y34760D01*
G01X64816Y34754D01*
G01X64794Y34747D01*
G01X64772Y34737D01*
G01X64751Y34726D01*
G01X64732Y34712D01*
G01X64713Y34697D01*
G01X64697Y34680D01*
G01X64681Y34662D01*
G01X64668Y34643D01*
G01X64657Y34622D01*
G01X64647Y34600D01*
G01X64639Y34578D01*
G01X64634Y34555D01*
G01X64631Y34531D01*
G01X64630Y34508D01*
G01X64630Y33808D01*
G01X64631Y33784D01*
G01X64634Y33760D01*
G01X64639Y33737D01*
G01X64647Y33715D01*
G01X64657Y33693D01*
G01X64668Y33672D01*
G01X64681Y33653D01*
G01X64697Y33635D01*
G01X64713Y33618D01*
G01X64732Y33603D01*
G01X64751Y33589D01*
G01X64772Y33578D01*
G01X64794Y33568D01*
G01X64816Y33561D01*
G01X64839Y33555D01*
G01X64863Y33552D01*
G01X64886Y33551D01*
G01X66136Y33551D01*
G01X66175Y33554D01*
G01X66176Y33554D01*
G01X66747Y33634D01*
G01X66761Y33635D01*
G01X69723Y33635D01*
G01X69755Y33636D01*
G01X69787Y33640D01*
G01X69820Y33645D01*
G01X69851Y33653D01*
G01X69882Y33664D01*
G01X69912Y33676D01*
G01X69941Y33691D01*
G01X69969Y33707D01*
G01X69996Y33726D01*
G01X70021Y33746D01*
G01X70045Y33769D01*
G01X70415Y34139D01*
G01X70427Y34149D01*
G01X71128Y34663D01*
G01X71141Y34672D01*
G01X71156Y34678D01*
G01X71172Y34682D01*
G01X71188Y34683D01*
G01X71943Y34683D01*
G01X71966Y34684D01*
G01X71990Y34687D01*
G01X72013Y34693D01*
G01X72035Y34700D01*
G01X72057Y34710D01*
G01X72078Y34721D01*
G01X72097Y34735D01*
G01X72115Y34750D01*
G01X72132Y34767D01*
G01X72147Y34785D01*
G01X72161Y34804D01*
G01X72172Y34825D01*
G01X72182Y34847D01*
G01X72189Y34869D01*
G01X72195Y34892D01*
G01X72198Y34916D01*
G01X72199Y34939D01*
G01X72199Y35946D01*
G01X72200Y35961D01*
G01X72203Y35975D01*
G01X72208Y35989D01*
G01X72215Y36001D01*
G01X72224Y36013D01*
G01X72234Y36023D01*
G01X72246Y36032D01*
G01X72258Y36039D01*
G01X72272Y36044D01*
G01X72286Y36047D01*
G01X72301Y36048D01*
G01X77031Y36048D01*
G01X77044Y36047D01*
G01X77148Y36033D01*
G01X77168Y36029D01*
G01X77186Y36020D01*
G01X77218Y36002D01*
G01X77252Y35987D01*
G01X77287Y35974D01*
G01X77323Y35963D01*
G01X77359Y35954D01*
G01X77395Y35948D01*
G01X77432Y35944D01*
G01X77470Y35943D01*
G01X77503Y35944D01*
G01X77537Y35947D01*
G01X77571Y35952D01*
G01X77604Y35959D01*
G01X77637Y35969D01*
G01X77669Y35980D01*
G01X77700Y35993D01*
G01X77730Y36007D01*
G01X77760Y36024D01*
G01X77788Y36043D01*
G01X77816Y36063D01*
G01X77842Y36084D01*
G01X77890Y36132D01*
G01X77911Y36158D01*
G01X77931Y36186D01*
G01X77950Y36214D01*
G01X77967Y36244D01*
G01X77981Y36274D01*
G01X77994Y36305D01*
G01X78005Y36338D01*
G01X78015Y36370D01*
G01X78022Y36403D01*
G01X78027Y36437D01*
G01X78030Y36471D01*
G01X78031Y36505D01*
G01X78030Y36539D01*
G01X78027Y36573D01*
G01X78022Y36606D01*
G01X78014Y36640D01*
G01X78005Y36673D01*
G01X77994Y36705D01*
G01X77981Y36736D01*
G01X77966Y36767D01*
G01X77949Y36797D01*
G01X77930Y36825D01*
G01X77910Y36853D01*
G01X77888Y36879D01*
G01X77864Y36904D01*
G01X77839Y36927D01*
G01X77813Y36948D01*
G01X77785Y36969D01*
G01X77757Y36987D01*
G01X77727Y37003D01*
G01X77696Y37018D01*
G01X77683Y37025D01*
G01X77671Y37034D01*
G01X77661Y37044D01*
G01X77652Y37056D01*
G01X77645Y37068D01*
G01X77640Y37082D01*
G01X77636Y37096D01*
G01X77635Y37111D01*
G01X77637Y37128D01*
G01X77641Y37144D01*
G01X77648Y37160D01*
G01X77657Y37174D01*
G01X77677Y37201D01*
G01X77696Y37230D01*
G01X77712Y37259D01*
G01X77727Y37290D01*
G01X77740Y37321D01*
G01X77751Y37353D01*
G01X77760Y37386D01*
G01X77768Y37419D01*
G01X77773Y37453D01*
G01X77776Y37487D01*
G01X77777Y37521D01*
G01X77776Y37554D01*
G01X77773Y37588D01*
G01X77768Y37622D01*
G01X77761Y37655D01*
G01X77751Y37688D01*
G01X77740Y37720D01*
G01X77727Y37751D01*
G01X77713Y37781D01*
G01X77696Y37811D01*
G01X77677Y37839D01*
G01X77657Y37867D01*
G01X77636Y37893D01*
G01X77588Y37941D01*
G01X77562Y37962D01*
G01X77534Y37982D01*
G01X77506Y38001D01*
G01X77476Y38018D01*
G01X77446Y38032D01*
G01X77415Y38045D01*
G01X77383Y38056D01*
G01X77350Y38066D01*
G01X77317Y38073D01*
G01X77283Y38078D01*
G01X77249Y38081D01*
G01X77216Y38082D01*
G01X77178Y38081D01*
G01X77141Y38077D01*
G01X77105Y38071D01*
G01X77069Y38062D01*
G01X77033Y38051D01*
G01X76998Y38038D01*
G01X76964Y38023D01*
G01X76932Y38005D01*
G01X76914Y37997D01*
G01X76894Y37992D01*
G01X76790Y37978D01*
G01X76777Y37977D01*
G01X72296Y37977D01*
G01X72281Y37978D01*
G01X72267Y37981D01*
G01X72253Y37986D01*
G01X72241Y37993D01*
G01X72229Y38002D01*
G01X72219Y38012D01*
G01X72210Y38024D01*
G01X72203Y38036D01*
G01X72198Y38050D01*
G01X72195Y38064D01*
G01X72194Y38079D01*
G01X72195Y38096D01*
G01X72199Y38139D01*
G01X72199Y39339D01*
G01X72198Y39363D01*
G01X72195Y39387D01*
G01X72189Y39410D01*
G01X72182Y39432D01*
G01X72172Y39454D01*
G01X72161Y39475D01*
G01X72147Y39494D01*
G01X72132Y39512D01*
G01X72115Y39529D01*
G01X72097Y39544D01*
G01X72078Y39558D01*
G01X72057Y39569D01*
G01X72035Y39579D01*
G01X72013Y39586D01*
G01X71990Y39592D01*
G01X71966Y39595D01*
G01X71943Y39596D01*
G01X71010Y39596D01*
G01X70994Y39597D01*
G01X70978Y39601D01*
G01X70963Y39607D01*
G01X70950Y39616D01*
G01X70250Y40129D01*
G01X70238Y40139D01*
G01X69868Y40510D01*
G01X69844Y40533D01*
G01X69818Y40553D01*
G01X69792Y40572D01*
G01X69763Y40588D01*
G01X69734Y40603D01*
G01X69704Y40615D01*
G01X69673Y40626D01*
G01X69642Y40634D01*
G01X69610Y40639D01*
G01X69577Y40643D01*
G01X69545Y40644D01*
G01X66802Y40644D01*
G01X66769Y40643D01*
G01X66737Y40639D01*
G01X66704Y40634D01*
G01X66673Y40626D01*
G01X66642Y40615D01*
G01X66612Y40603D01*
G01X66583Y40588D01*
G01X66555Y40572D01*
G01X66528Y40553D01*
G01X66503Y40533D01*
G01X66479Y40510D01*
G01X66279Y40310D01*
G01X66270Y40303D01*
G01X65875Y39988D01*
G01X65861Y39979D01*
G01X65846Y39972D01*
G01X65829Y39967D01*
G01X65812Y39966D01*
G01X65439Y39966D01*
G01X65424Y39967D01*
G01X65410Y39970D01*
G01X65397Y39975D01*
G01X65384Y39982D01*
G01X65372Y39991D01*
G01X65362Y40001D01*
G01X65353Y40013D01*
G01X65347Y40025D01*
G01X65341Y40039D01*
G01X65338Y40053D01*
G01X65337Y40068D01*
G01X65339Y40084D01*
G01X65342Y40099D01*
G01X65348Y40114D01*
G01X65357Y40127D01*
G01X65367Y40139D01*
G01X69882Y44654D01*
G01X69894Y44665D01*
G01X69908Y44673D01*
G01X69922Y44679D01*
G01X69938Y44683D01*
G01X69954Y44684D01*
G01X80079Y44684D01*
G01X80092Y44683D01*
G01X80196Y44669D01*
G01X80216Y44665D01*
G01X80234Y44656D01*
G01X80266Y44638D01*
G01X80300Y44623D01*
G01X80335Y44610D01*
G01X80371Y44599D01*
G01X80407Y44590D01*
G01X80443Y44584D01*
G01X80480Y44580D01*
G01X80518Y44579D01*
G01X80551Y44580D01*
G01X80585Y44583D01*
G01X80619Y44588D01*
G01X80652Y44595D01*
G01X80685Y44605D01*
G01X80717Y44616D01*
G01X80748Y44629D01*
G01X80778Y44643D01*
G01X80808Y44660D01*
G01X80836Y44679D01*
G01X80864Y44699D01*
G01X80890Y44720D01*
G01X80938Y44768D01*
G01X80959Y44794D01*
G01X80979Y44822D01*
G01X80998Y44850D01*
G01X81015Y44880D01*
G01X81029Y44910D01*
G01X81042Y44941D01*
G01X81053Y44974D01*
G01X81063Y45006D01*
G01X81070Y45039D01*
G01X81075Y45073D01*
G01X81078Y45107D01*
G01X81079Y45141D01*
G01X81078Y45174D01*
G01X81075Y45208D01*
G01X81070Y45242D01*
G01X81063Y45275D01*
G01X81053Y45308D01*
G01X81042Y45340D01*
G01X81029Y45371D01*
G01X81015Y45401D01*
G01X80998Y45431D01*
G01X80979Y45459D01*
G01X80959Y45487D01*
G01X80938Y45513D01*
G01X80890Y45561D01*
G01X80864Y45582D01*
G01X80836Y45602D01*
G01X80808Y45621D01*
G01X80778Y45638D01*
G01X80748Y45652D01*
G01X80717Y45665D01*
G01X80685Y45676D01*
G01X80652Y45686D01*
G01X80619Y45693D01*
G01X80585Y45698D01*
G01X80551Y45701D01*
G37*
G36*
G01X58466Y58477D02*
G01X58420Y58478D01*
G01X58374Y58477D01*
G01X58328Y58474D01*
G01X58283Y58469D01*
G01X58238Y58462D01*
G01X58193Y58453D01*
G01X58149Y58441D01*
G01X58105Y58428D01*
G01X58062Y58413D01*
G01X58019Y58396D01*
G01X57978Y58377D01*
G01X57937Y58356D01*
G01X57897Y58334D01*
G01X57858Y58310D01*
G01X57821Y58284D01*
G01X57784Y58256D01*
G01X57749Y58227D01*
G01X57716Y58196D01*
G01X57683Y58163D01*
G01X57652Y58130D01*
G01X57623Y58095D01*
G01X57595Y58058D01*
G01X57569Y58021D01*
G01X57545Y57982D01*
G01X57523Y57942D01*
G01X57502Y57901D01*
G01X57483Y57860D01*
G01X57466Y57817D01*
G01X57451Y57774D01*
G01X57438Y57730D01*
G01X57426Y57686D01*
G01X57417Y57641D01*
G01X57410Y57596D01*
G01X57405Y57551D01*
G01X57402Y57505D01*
G01X57401Y57460D01*
G01X57402Y57413D01*
G01X57405Y57367D01*
G01X57410Y57321D01*
G01X57418Y57276D01*
G01X57427Y57230D01*
G01X57439Y57185D01*
G01X57452Y57141D01*
G01X57467Y57098D01*
G01X57485Y57055D01*
G01X57504Y57013D01*
G01X57525Y56972D01*
G01X57549Y56931D01*
G01X57573Y56893D01*
G01X57600Y56855D01*
G01X57628Y56818D01*
G01X57658Y56783D01*
G01X57690Y56749D01*
G01X57723Y56717D01*
G01X57757Y56686D01*
G01X57793Y56656D01*
G01X57830Y56629D01*
G01X57868Y56603D01*
G01X57908Y56579D01*
G01X57948Y56556D01*
G01X57990Y56536D01*
G01X58032Y56517D01*
G01X58075Y56501D01*
G01X58119Y56486D01*
G01X58164Y56474D01*
G01X58209Y56463D01*
G01X58254Y56454D01*
G01X58300Y56448D01*
G01X58346Y56444D01*
G01X58351Y56443D01*
G01X58894Y56380D01*
G01X58910Y56376D01*
G01X58926Y56370D01*
G01X58941Y56361D01*
G01X58954Y56350D01*
G01X67254Y48050D01*
G01X67265Y48038D01*
G01X67273Y48024D01*
G01X67279Y48009D01*
G01X67283Y47994D01*
G01X67284Y47978D01*
G01X67284Y46508D01*
G01X67282Y46491D01*
G01X67278Y46473D01*
G01X67240Y46370D01*
G01X67228Y46348D01*
G01X67210Y46319D01*
G01X67193Y46290D01*
G01X67178Y46259D01*
G01X67165Y46228D01*
G01X67154Y46196D01*
G01X67145Y46164D01*
G01X67138Y46130D01*
G01X67133Y46097D01*
G01X67130Y46063D01*
G01X67129Y46030D01*
G01X67130Y45996D01*
G01X67133Y45962D01*
G01X67138Y45928D01*
G01X67145Y45895D01*
G01X67155Y45863D01*
G01X67166Y45830D01*
G01X67179Y45799D01*
G01X67193Y45769D01*
G01X67210Y45739D01*
G01X67229Y45711D01*
G01X67249Y45683D01*
G01X67270Y45657D01*
G01X67318Y45609D01*
G01X67344Y45588D01*
G01X67372Y45568D01*
G01X67400Y45549D01*
G01X67430Y45532D01*
G01X67460Y45518D01*
G01X67491Y45505D01*
G01X67523Y45494D01*
G01X67556Y45484D01*
G01X67589Y45477D01*
G01X67623Y45472D01*
G01X67657Y45469D01*
G01X67691Y45468D01*
G01X67724Y45469D01*
G01X67758Y45472D01*
G01X67792Y45477D01*
G01X67825Y45484D01*
G01X67858Y45494D01*
G01X67890Y45505D01*
G01X67921Y45518D01*
G01X67951Y45532D01*
G01X67981Y45549D01*
G01X68009Y45568D01*
G01X68037Y45588D01*
G01X68063Y45609D01*
G01X68111Y45657D01*
G01X68132Y45683D01*
G01X68152Y45711D01*
G01X68171Y45739D01*
G01X68188Y45769D01*
G01X68202Y45799D01*
G01X68215Y45830D01*
G01X68226Y45863D01*
G01X68236Y45895D01*
G01X68243Y45928D01*
G01X68248Y45962D01*
G01X68251Y45996D01*
G01X68252Y46030D01*
G01X68251Y46063D01*
G01X68248Y46097D01*
G01X68243Y46130D01*
G01X68236Y46164D01*
G01X68227Y46196D01*
G01X68216Y46228D01*
G01X68203Y46259D01*
G01X68188Y46290D01*
G01X68171Y46319D01*
G01X68153Y46348D01*
G01X68141Y46370D01*
G01X68103Y46473D01*
G01X68099Y46491D01*
G01X68097Y46508D01*
G01X68097Y48189D01*
G01X68096Y48218D01*
G01X68093Y48246D01*
G01X68088Y48275D01*
G01X68081Y48303D01*
G01X68071Y48331D01*
G01X68060Y48357D01*
G01X68047Y48383D01*
G01X68033Y48408D01*
G01X68016Y48432D01*
G01X67998Y48455D01*
G01X67978Y48476D01*
G01X59529Y56925D01*
G01X59518Y56938D01*
G01X59509Y56953D01*
G01X59503Y56969D01*
G01X59499Y56985D01*
G01X59436Y57528D01*
G01X59435Y57533D01*
G01X59431Y57579D01*
G01X59425Y57625D01*
G01X59416Y57670D01*
G01X59405Y57715D01*
G01X59393Y57760D01*
G01X59378Y57804D01*
G01X59362Y57847D01*
G01X59343Y57889D01*
G01X59323Y57931D01*
G01X59300Y57971D01*
G01X59276Y58011D01*
G01X59250Y58049D01*
G01X59223Y58086D01*
G01X59193Y58122D01*
G01X59162Y58156D01*
G01X59130Y58189D01*
G01X59096Y58221D01*
G01X59061Y58251D01*
G01X59024Y58279D01*
G01X58987Y58306D01*
G01X58948Y58330D01*
G01X58907Y58354D01*
G01X58866Y58375D01*
G01X58824Y58394D01*
G01X58781Y58412D01*
G01X58738Y58427D01*
G01X58694Y58440D01*
G01X58649Y58452D01*
G01X58603Y58461D01*
G01X58558Y58469D01*
G01X58512Y58474D01*
G01X58466Y58477D01*
G37*
G36*
G01X75217Y43796D02*
G01X75184Y43797D01*
G01X75150Y43796D01*
G01X75116Y43793D01*
G01X75082Y43788D01*
G01X75049Y43781D01*
G01X75016Y43771D01*
G01X74984Y43760D01*
G01X74953Y43747D01*
G01X74923Y43733D01*
G01X74893Y43716D01*
G01X74865Y43697D01*
G01X74837Y43677D01*
G01X74811Y43656D01*
G01X74763Y43608D01*
G01X74742Y43582D01*
G01X74722Y43554D01*
G01X74703Y43526D01*
G01X74686Y43496D01*
G01X74672Y43466D01*
G01X74659Y43435D01*
G01X74648Y43403D01*
G01X74638Y43370D01*
G01X74631Y43337D01*
G01X74626Y43303D01*
G01X74623Y43269D01*
G01X74622Y43236D01*
G01X74623Y43202D01*
G01X74626Y43168D01*
G01X74631Y43134D01*
G01X74638Y43101D01*
G01X74648Y43069D01*
G01X74659Y43037D01*
G01X74672Y43005D01*
G01X74686Y42975D01*
G01X74703Y42945D01*
G01X74721Y42917D01*
G01X74742Y42889D01*
G01X74763Y42863D01*
G01X74786Y42839D01*
G01X74811Y42815D01*
G01X74837Y42794D01*
G01X74846Y42786D01*
G01X75425Y42207D01*
G01X75449Y42184D01*
G01X75475Y42162D01*
G01X75502Y42142D01*
G01X75531Y42124D01*
G01X75560Y42108D01*
G01X75590Y42093D01*
G01X75621Y42080D01*
G01X75653Y42069D01*
G01X75685Y42060D01*
G01X75718Y42053D01*
G01X75751Y42048D01*
G01X75785Y42045D01*
G01X75819Y42044D01*
G01X79097Y42044D01*
G01X79112Y42043D01*
G01X79126Y42040D01*
G01X79140Y42035D01*
G01X79152Y42028D01*
G01X79164Y42019D01*
G01X79174Y42009D01*
G01X79183Y41997D01*
G01X79190Y41985D01*
G01X79195Y41971D01*
G01X79198Y41957D01*
G01X79199Y41942D01*
G01X79199Y35380D01*
G01X79198Y35364D01*
G01X79194Y35349D01*
G01X79188Y35334D01*
G01X79180Y35320D01*
G01X79169Y35308D01*
G01X73266Y29405D01*
G01X73243Y29381D01*
G01X73221Y29355D01*
G01X73201Y29328D01*
G01X73183Y29299D01*
G01X73167Y29270D01*
G01X73152Y29240D01*
G01X73139Y29209D01*
G01X73128Y29177D01*
G01X73119Y29145D01*
G01X73112Y29112D01*
G01X73107Y29079D01*
G01X73104Y29045D01*
G01X73103Y29012D01*
G01X73103Y27313D01*
G01X73102Y27301D01*
G01X73099Y27267D01*
G01X73098Y27234D01*
G01X73099Y27200D01*
G01X73102Y27166D01*
G01X73107Y27132D01*
G01X73114Y27099D01*
G01X73124Y27067D01*
G01X73135Y27034D01*
G01X73148Y27003D01*
G01X73162Y26973D01*
G01X73179Y26943D01*
G01X73198Y26915D01*
G01X73218Y26887D01*
G01X73239Y26861D01*
G01X73287Y26813D01*
G01X73313Y26792D01*
G01X73341Y26772D01*
G01X73369Y26753D01*
G01X73399Y26736D01*
G01X73429Y26722D01*
G01X73460Y26709D01*
G01X73492Y26698D01*
G01X73525Y26688D01*
G01X73558Y26681D01*
G01X73592Y26676D01*
G01X73626Y26673D01*
G01X73660Y26672D01*
G01X73693Y26673D01*
G01X73727Y26676D01*
G01X73761Y26681D01*
G01X73794Y26688D01*
G01X73827Y26698D01*
G01X73859Y26709D01*
G01X73890Y26722D01*
G01X73920Y26736D01*
G01X73950Y26753D01*
G01X73978Y26772D01*
G01X74006Y26792D01*
G01X74032Y26813D01*
G01X74080Y26861D01*
G01X74101Y26887D01*
G01X74121Y26915D01*
G01X74140Y26943D01*
G01X74157Y26973D01*
G01X74171Y27003D01*
G01X74184Y27034D01*
G01X74195Y27067D01*
G01X74205Y27099D01*
G01X74212Y27132D01*
G01X74217Y27166D01*
G01X74220Y27200D01*
G01X74221Y27234D01*
G01X74220Y27267D01*
G01X74217Y27301D01*
G01X74216Y27313D01*
G01X74216Y28739D01*
G01X74217Y28755D01*
G01X74221Y28770D01*
G01X74227Y28785D01*
G01X74235Y28799D01*
G01X74246Y28811D01*
G01X80149Y34714D01*
G01X80172Y34738D01*
G01X80194Y34764D01*
G01X80214Y34791D01*
G01X80232Y34820D01*
G01X80248Y34849D01*
G01X80263Y34879D01*
G01X80276Y34910D01*
G01X80287Y34942D01*
G01X80296Y34974D01*
G01X80303Y35007D01*
G01X80308Y35040D01*
G01X80311Y35074D01*
G01X80312Y35108D01*
G01X80312Y42521D01*
G01X80313Y42533D01*
G01X80316Y42567D01*
G01X80317Y42601D01*
G01X80316Y42634D01*
G01X80313Y42668D01*
G01X80308Y42702D01*
G01X80301Y42735D01*
G01X80291Y42768D01*
G01X80280Y42800D01*
G01X80267Y42831D01*
G01X80253Y42861D01*
G01X80236Y42891D01*
G01X80217Y42919D01*
G01X80197Y42947D01*
G01X80176Y42973D01*
G01X80128Y43021D01*
G01X80102Y43042D01*
G01X80074Y43062D01*
G01X80046Y43081D01*
G01X80016Y43098D01*
G01X79986Y43112D01*
G01X79955Y43125D01*
G01X79923Y43136D01*
G01X79890Y43146D01*
G01X79857Y43153D01*
G01X79823Y43158D01*
G01X79789Y43161D01*
G01X79756Y43162D01*
G01X79722Y43161D01*
G01X79688Y43158D01*
G01X79676Y43157D01*
G01X76091Y43157D01*
G01X76075Y43158D01*
G01X76060Y43162D01*
G01X76045Y43168D01*
G01X76031Y43176D01*
G01X76019Y43187D01*
G01X75633Y43573D01*
G01X75625Y43582D01*
G01X75604Y43608D01*
G01X75580Y43633D01*
G01X75556Y43656D01*
G01X75530Y43677D01*
G01X75502Y43698D01*
G01X75474Y43716D01*
G01X75444Y43733D01*
G01X75414Y43747D01*
G01X75382Y43760D01*
G01X75350Y43771D01*
G01X75318Y43781D01*
G01X75285Y43788D01*
G01X75251Y43793D01*
G01X75217Y43796D01*
G37*
G36*
G01X64376Y58834D02*
G01X64326Y58835D01*
G01X64275Y58834D01*
G01X64224Y58831D01*
G01X64174Y58826D01*
G01X64124Y58819D01*
G01X64074Y58810D01*
G01X64025Y58799D01*
G01X63976Y58785D01*
G01X63928Y58770D01*
G01X63880Y58753D01*
G01X63833Y58734D01*
G01X63787Y58714D01*
G01X63742Y58691D01*
G01X63697Y58667D01*
G01X63654Y58641D01*
G01X63612Y58613D01*
G01X63571Y58583D01*
G01X63531Y58552D01*
G01X63492Y58519D01*
G01X63455Y58485D01*
G01X63419Y58449D01*
G01X63385Y58412D01*
G01X63352Y58373D01*
G01X63321Y58333D01*
G01X63291Y58292D01*
G01X63263Y58250D01*
G01X63237Y58207D01*
G01X63213Y58162D01*
G01X63190Y58117D01*
G01X63170Y58071D01*
G01X63151Y58024D01*
G01X63134Y57976D01*
G01X63119Y57928D01*
G01X63105Y57879D01*
G01X63094Y57830D01*
G01X63085Y57780D01*
G01X63078Y57730D01*
G01X63073Y57680D01*
G01X63070Y57629D01*
G01X63069Y57579D01*
G01X63069Y56579D01*
G01X63070Y56528D01*
G01X63073Y56477D01*
G01X63078Y56427D01*
G01X63085Y56377D01*
G01X63094Y56327D01*
G01X63105Y56278D01*
G01X63119Y56229D01*
G01X63134Y56181D01*
G01X63151Y56133D01*
G01X63170Y56086D01*
G01X63190Y56040D01*
G01X63213Y55995D01*
G01X63237Y55950D01*
G01X63263Y55907D01*
G01X63291Y55865D01*
G01X63321Y55824D01*
G01X63352Y55784D01*
G01X63385Y55745D01*
G01X63419Y55708D01*
G01X63455Y55672D01*
G01X63492Y55638D01*
G01X63531Y55605D01*
G01X63571Y55574D01*
G01X63612Y55544D01*
G01X63654Y55516D01*
G01X63697Y55490D01*
G01X63742Y55466D01*
G01X63787Y55443D01*
G01X63833Y55423D01*
G01X63880Y55404D01*
G01X63928Y55387D01*
G01X63976Y55372D01*
G01X64025Y55358D01*
G01X64074Y55347D01*
G01X64124Y55338D01*
G01X64174Y55331D01*
G01X64224Y55326D01*
G01X64275Y55323D01*
G01X64326Y55322D01*
G01X64376Y55323D01*
G01X64427Y55326D01*
G01X64477Y55331D01*
G01X64527Y55338D01*
G01X64577Y55347D01*
G01X64626Y55358D01*
G01X64675Y55372D01*
G01X64723Y55387D01*
G01X64771Y55404D01*
G01X64818Y55423D01*
G01X64864Y55443D01*
G01X64909Y55466D01*
G01X64954Y55490D01*
G01X64997Y55516D01*
G01X65039Y55544D01*
G01X65080Y55574D01*
G01X65120Y55605D01*
G01X65159Y55638D01*
G01X65196Y55672D01*
G01X65232Y55708D01*
G01X65266Y55745D01*
G01X65299Y55784D01*
G01X65330Y55824D01*
G01X65360Y55865D01*
G01X65388Y55907D01*
G01X65414Y55950D01*
G01X65438Y55995D01*
G01X65461Y56040D01*
G01X65481Y56086D01*
G01X65500Y56133D01*
G01X65517Y56181D01*
G01X65532Y56229D01*
G01X65546Y56278D01*
G01X65557Y56327D01*
G01X65566Y56377D01*
G01X65573Y56427D01*
G01X65578Y56477D01*
G01X65581Y56528D01*
G01X65582Y56579D01*
G01X65582Y57579D01*
G01X65581Y57629D01*
G01X65578Y57680D01*
G01X65573Y57730D01*
G01X65566Y57780D01*
G01X65557Y57830D01*
G01X65546Y57879D01*
G01X65532Y57928D01*
G01X65517Y57976D01*
G01X65500Y58024D01*
G01X65481Y58071D01*
G01X65461Y58117D01*
G01X65438Y58162D01*
G01X65414Y58207D01*
G01X65388Y58250D01*
G01X65360Y58292D01*
G01X65330Y58333D01*
G01X65299Y58373D01*
G01X65266Y58412D01*
G01X65232Y58449D01*
G01X65196Y58485D01*
G01X65159Y58519D01*
G01X65120Y58552D01*
G01X65080Y58583D01*
G01X65039Y58613D01*
G01X64997Y58641D01*
G01X64954Y58667D01*
G01X64909Y58691D01*
G01X64864Y58714D01*
G01X64818Y58734D01*
G01X64771Y58753D01*
G01X64723Y58770D01*
G01X64675Y58785D01*
G01X64626Y58799D01*
G01X64577Y58810D01*
G01X64527Y58819D01*
G01X64477Y58826D01*
G01X64427Y58831D01*
G01X64376Y58834D01*
G37*
G36*
G01X68376Y58834D02*
G01X68326Y58835D01*
G01X68275Y58834D01*
G01X68224Y58831D01*
G01X68174Y58826D01*
G01X68124Y58819D01*
G01X68074Y58810D01*
G01X68025Y58799D01*
G01X67976Y58785D01*
G01X67928Y58770D01*
G01X67880Y58753D01*
G01X67833Y58734D01*
G01X67787Y58714D01*
G01X67742Y58691D01*
G01X67697Y58667D01*
G01X67654Y58641D01*
G01X67612Y58613D01*
G01X67571Y58583D01*
G01X67531Y58552D01*
G01X67492Y58519D01*
G01X67455Y58485D01*
G01X67419Y58449D01*
G01X67385Y58412D01*
G01X67352Y58373D01*
G01X67321Y58333D01*
G01X67291Y58292D01*
G01X67263Y58250D01*
G01X67237Y58207D01*
G01X67213Y58162D01*
G01X67190Y58117D01*
G01X67170Y58071D01*
G01X67151Y58024D01*
G01X67134Y57976D01*
G01X67119Y57928D01*
G01X67105Y57879D01*
G01X67094Y57830D01*
G01X67085Y57780D01*
G01X67078Y57730D01*
G01X67073Y57680D01*
G01X67070Y57629D01*
G01X67069Y57579D01*
G01X67069Y56579D01*
G01X67070Y56528D01*
G01X67073Y56477D01*
G01X67078Y56427D01*
G01X67085Y56377D01*
G01X67094Y56327D01*
G01X67105Y56278D01*
G01X67119Y56229D01*
G01X67134Y56181D01*
G01X67151Y56133D01*
G01X67170Y56086D01*
G01X67190Y56040D01*
G01X67213Y55995D01*
G01X67237Y55950D01*
G01X67263Y55907D01*
G01X67291Y55865D01*
G01X67321Y55824D01*
G01X67352Y55784D01*
G01X67385Y55745D01*
G01X67419Y55708D01*
G01X67455Y55672D01*
G01X67492Y55638D01*
G01X67531Y55605D01*
G01X67571Y55574D01*
G01X67612Y55544D01*
G01X67654Y55516D01*
G01X67697Y55490D01*
G01X67742Y55466D01*
G01X67787Y55443D01*
G01X67833Y55423D01*
G01X67880Y55404D01*
G01X67928Y55387D01*
G01X67976Y55372D01*
G01X68025Y55358D01*
G01X68074Y55347D01*
G01X68124Y55338D01*
G01X68174Y55331D01*
G01X68224Y55326D01*
G01X68275Y55323D01*
G01X68326Y55322D01*
G01X68376Y55323D01*
G01X68427Y55326D01*
G01X68477Y55331D01*
G01X68527Y55338D01*
G01X68577Y55347D01*
G01X68626Y55358D01*
G01X68675Y55372D01*
G01X68723Y55387D01*
G01X68771Y55404D01*
G01X68818Y55423D01*
G01X68864Y55443D01*
G01X68909Y55466D01*
G01X68954Y55490D01*
G01X68997Y55516D01*
G01X69039Y55544D01*
G01X69080Y55574D01*
G01X69120Y55605D01*
G01X69159Y55638D01*
G01X69196Y55672D01*
G01X69232Y55708D01*
G01X69266Y55745D01*
G01X69299Y55784D01*
G01X69330Y55824D01*
G01X69360Y55865D01*
G01X69388Y55907D01*
G01X69414Y55950D01*
G01X69438Y55995D01*
G01X69461Y56040D01*
G01X69481Y56086D01*
G01X69500Y56133D01*
G01X69517Y56181D01*
G01X69532Y56229D01*
G01X69546Y56278D01*
G01X69557Y56327D01*
G01X69566Y56377D01*
G01X69573Y56427D01*
G01X69578Y56477D01*
G01X69581Y56528D01*
G01X69582Y56579D01*
G01X69582Y57579D01*
G01X69581Y57629D01*
G01X69578Y57680D01*
G01X69573Y57730D01*
G01X69566Y57780D01*
G01X69557Y57830D01*
G01X69546Y57879D01*
G01X69532Y57928D01*
G01X69517Y57976D01*
G01X69500Y58024D01*
G01X69481Y58071D01*
G01X69461Y58117D01*
G01X69438Y58162D01*
G01X69414Y58207D01*
G01X69388Y58250D01*
G01X69360Y58292D01*
G01X69330Y58333D01*
G01X69299Y58373D01*
G01X69266Y58412D01*
G01X69232Y58449D01*
G01X69196Y58485D01*
G01X69159Y58519D01*
G01X69120Y58552D01*
G01X69080Y58583D01*
G01X69039Y58613D01*
G01X68997Y58641D01*
G01X68954Y58667D01*
G01X68909Y58691D01*
G01X68864Y58714D01*
G01X68818Y58734D01*
G01X68771Y58753D01*
G01X68723Y58770D01*
G01X68675Y58785D01*
G01X68626Y58799D01*
G01X68577Y58810D01*
G01X68527Y58819D01*
G01X68477Y58826D01*
G01X68427Y58831D01*
G01X68376Y58834D01*
G37*
G36*
G01X88407Y28009D02*
G01X87108Y28009D01*
G01X87067Y28008D01*
G01X87026Y28005D01*
G01X86986Y28000D01*
G01X86946Y27993D01*
G01X86906Y27983D01*
G01X86867Y27972D01*
G01X86828Y27959D01*
G01X86790Y27944D01*
G01X86753Y27927D01*
G01X86717Y27908D01*
G01X86681Y27887D01*
G01X86647Y27865D01*
G01X86614Y27840D01*
G01X86583Y27815D01*
G01X86552Y27787D01*
G01X86523Y27758D01*
G01X86496Y27728D01*
G01X86470Y27696D01*
G01X86446Y27663D01*
G01X86424Y27629D01*
G01X86403Y27594D01*
G01X86384Y27558D01*
G01X86367Y27521D01*
G01X86352Y27483D01*
G01X86338Y27444D01*
G01X86327Y27405D01*
G01X86318Y27365D01*
G01X86311Y27325D01*
G01X86306Y27284D01*
G01X86303Y27244D01*
G01X86301Y27203D01*
G01X86303Y27162D01*
G01X86306Y27121D01*
G01X86311Y27081D01*
G01X86318Y27040D01*
G01X86327Y27001D01*
G01X86338Y26961D01*
G01X86352Y26923D01*
G01X86367Y26885D01*
G01X86384Y26848D01*
G01X86403Y26811D01*
G01X86424Y26776D01*
G01X86446Y26742D01*
G01X86470Y26709D01*
G01X86496Y26677D01*
G01X86523Y26647D01*
G01X86552Y26618D01*
G01X86583Y26591D01*
G01X86614Y26565D01*
G01X86647Y26541D01*
G01X86681Y26518D01*
G01X86717Y26498D01*
G01X86753Y26479D01*
G01X86790Y26462D01*
G01X86828Y26446D01*
G01X86867Y26433D01*
G01X86906Y26422D01*
G01X86946Y26413D01*
G01X86986Y26405D01*
G01X87026Y26400D01*
G01X87067Y26397D01*
G01X87108Y26396D01*
G01X88407Y26396D01*
G01X88448Y26397D01*
G01X88488Y26400D01*
G01X88529Y26405D01*
G01X88569Y26413D01*
G01X88609Y26422D01*
G01X88648Y26433D01*
G01X88687Y26446D01*
G01X88725Y26462D01*
G01X88762Y26479D01*
G01X88798Y26498D01*
G01X88834Y26518D01*
G01X88868Y26541D01*
G01X88901Y26565D01*
G01X88932Y26591D01*
G01X88963Y26618D01*
G01X88991Y26647D01*
G01X89019Y26677D01*
G01X89045Y26709D01*
G01X89069Y26742D01*
G01X89091Y26776D01*
G01X89112Y26811D01*
G01X89131Y26848D01*
G01X89148Y26885D01*
G01X89163Y26923D01*
G01X89176Y26961D01*
G01X89188Y27001D01*
G01X89197Y27040D01*
G01X89204Y27081D01*
G01X89209Y27121D01*
G01X89212Y27162D01*
G01X89213Y27203D01*
G01X89212Y27244D01*
G01X89209Y27284D01*
G01X89204Y27325D01*
G01X89197Y27365D01*
G01X89188Y27405D01*
G01X89176Y27444D01*
G01X89163Y27483D01*
G01X89148Y27521D01*
G01X89131Y27558D01*
G01X89112Y27594D01*
G01X89091Y27629D01*
G01X89069Y27663D01*
G01X89045Y27696D01*
G01X89019Y27728D01*
G01X88991Y27758D01*
G01X88963Y27787D01*
G01X88932Y27815D01*
G01X88901Y27840D01*
G01X88868Y27865D01*
G01X88834Y27887D01*
G01X88798Y27908D01*
G01X88762Y27927D01*
G01X88725Y27944D01*
G01X88687Y27959D01*
G01X88648Y27972D01*
G01X88609Y27983D01*
G01X88569Y27993D01*
G01X88529Y28000D01*
G01X88488Y28005D01*
G01X88448Y28008D01*
G01X88407Y28009D01*
G37*
G36*
G01X88407Y33659D02*
G01X87108Y33659D01*
G01X87067Y33658D01*
G01X87026Y33655D01*
G01X86986Y33650D01*
G01X86946Y33643D01*
G01X86906Y33633D01*
G01X86866Y33622D01*
G01X86828Y33609D01*
G01X86790Y33594D01*
G01X86753Y33577D01*
G01X86716Y33558D01*
G01X86681Y33537D01*
G01X86647Y33515D01*
G01X86614Y33490D01*
G01X86583Y33465D01*
G01X86552Y33437D01*
G01X86523Y33408D01*
G01X86496Y33378D01*
G01X86470Y33346D01*
G01X86446Y33313D01*
G01X86423Y33279D01*
G01X86403Y33244D01*
G01X86384Y33208D01*
G01X86367Y33171D01*
G01X86352Y33133D01*
G01X86338Y33094D01*
G01X86327Y33055D01*
G01X86318Y33015D01*
G01X86311Y32975D01*
G01X86305Y32934D01*
G01X86302Y32893D01*
G01X86301Y32853D01*
G01X86302Y32812D01*
G01X86305Y32771D01*
G01X86311Y32730D01*
G01X86318Y32690D01*
G01X86327Y32650D01*
G01X86338Y32611D01*
G01X86352Y32572D01*
G01X86367Y32535D01*
G01X86384Y32497D01*
G01X86403Y32461D01*
G01X86423Y32426D01*
G01X86446Y32392D01*
G01X86470Y32359D01*
G01X86496Y32327D01*
G01X86523Y32297D01*
G01X86552Y32268D01*
G01X86583Y32241D01*
G01X86614Y32215D01*
G01X86647Y32191D01*
G01X86681Y32168D01*
G01X86716Y32147D01*
G01X86753Y32128D01*
G01X86790Y32111D01*
G01X86828Y32096D01*
G01X86866Y32083D01*
G01X86906Y32072D01*
G01X86946Y32063D01*
G01X86986Y32055D01*
G01X87026Y32050D01*
G01X87067Y32047D01*
G01X87108Y32046D01*
G01X88407Y32046D01*
G01X88448Y32047D01*
G01X88488Y32050D01*
G01X88529Y32055D01*
G01X88569Y32063D01*
G01X88609Y32072D01*
G01X88648Y32083D01*
G01X88687Y32096D01*
G01X88725Y32111D01*
G01X88762Y32128D01*
G01X88798Y32147D01*
G01X88833Y32168D01*
G01X88868Y32191D01*
G01X88900Y32215D01*
G01X88932Y32241D01*
G01X88962Y32268D01*
G01X88991Y32297D01*
G01X89019Y32327D01*
G01X89045Y32359D01*
G01X89069Y32392D01*
G01X89091Y32426D01*
G01X89112Y32461D01*
G01X89131Y32497D01*
G01X89148Y32535D01*
G01X89163Y32572D01*
G01X89176Y32611D01*
G01X89188Y32650D01*
G01X89197Y32690D01*
G01X89204Y32730D01*
G01X89209Y32771D01*
G01X89212Y32812D01*
G01X89213Y32853D01*
G01X89212Y32893D01*
G01X89209Y32934D01*
G01X89204Y32975D01*
G01X89197Y33015D01*
G01X89188Y33055D01*
G01X89176Y33094D01*
G01X89163Y33133D01*
G01X89148Y33171D01*
G01X89131Y33208D01*
G01X89112Y33244D01*
G01X89091Y33279D01*
G01X89069Y33313D01*
G01X89045Y33346D01*
G01X89019Y33378D01*
G01X88991Y33408D01*
G01X88962Y33437D01*
G01X88932Y33465D01*
G01X88868Y33515D01*
G01X88833Y33537D01*
G01X88798Y33558D01*
G01X88762Y33577D01*
G01X88725Y33594D01*
G01X88687Y33609D01*
G01X88648Y33622D01*
G01X88609Y33633D01*
G01X88569Y33643D01*
G01X88529Y33650D01*
G01X88488Y33655D01*
G01X88448Y33658D01*
G01X88407Y33659D01*
G37*
G36*
G01X50845Y58477D02*
G01X50800Y58478D01*
G01X50754Y58477D01*
G01X50708Y58474D01*
G01X50663Y58469D01*
G01X50618Y58462D01*
G01X50573Y58453D01*
G01X50529Y58441D01*
G01X50485Y58428D01*
G01X50442Y58413D01*
G01X50399Y58396D01*
G01X50358Y58377D01*
G01X50317Y58356D01*
G01X50277Y58334D01*
G01X50238Y58310D01*
G01X50201Y58284D01*
G01X50164Y58256D01*
G01X50129Y58227D01*
G01X50096Y58196D01*
G01X50063Y58163D01*
G01X50032Y58130D01*
G01X50003Y58095D01*
G01X49975Y58058D01*
G01X49949Y58021D01*
G01X49925Y57982D01*
G01X49903Y57942D01*
G01X49882Y57901D01*
G01X49863Y57860D01*
G01X49846Y57817D01*
G01X49831Y57774D01*
G01X49818Y57730D01*
G01X49806Y57686D01*
G01X49797Y57641D01*
G01X49790Y57596D01*
G01X49785Y57551D01*
G01X49782Y57505D01*
G01X49781Y57460D01*
G01X49782Y57414D01*
G01X49785Y57368D01*
G01X49790Y57323D01*
G01X49797Y57278D01*
G01X49806Y57233D01*
G01X49818Y57189D01*
G01X49831Y57145D01*
G01X49846Y57102D01*
G01X49863Y57059D01*
G01X49882Y57018D01*
G01X49903Y56977D01*
G01X49925Y56937D01*
G01X49949Y56898D01*
G01X49975Y56861D01*
G01X50003Y56824D01*
G01X50032Y56789D01*
G01X50063Y56756D01*
G01X50096Y56723D01*
G01X50129Y56692D01*
G01X50164Y56663D01*
G01X50201Y56635D01*
G01X50238Y56609D01*
G01X50277Y56585D01*
G01X50317Y56563D01*
G01X50358Y56542D01*
G01X50399Y56523D01*
G01X50442Y56506D01*
G01X50485Y56491D01*
G01X50529Y56478D01*
G01X50573Y56466D01*
G01X50618Y56457D01*
G01X50663Y56450D01*
G01X50708Y56445D01*
G01X50754Y56442D01*
G01X50800Y56441D01*
G01X50845Y56442D01*
G01X50891Y56445D01*
G01X50936Y56450D01*
G01X50981Y56457D01*
G01X51026Y56466D01*
G01X51070Y56478D01*
G01X51114Y56491D01*
G01X51157Y56506D01*
G01X51200Y56523D01*
G01X51241Y56542D01*
G01X51282Y56563D01*
G01X51322Y56585D01*
G01X51361Y56609D01*
G01X51398Y56635D01*
G01X51435Y56663D01*
G01X51470Y56692D01*
G01X51503Y56723D01*
G01X51536Y56756D01*
G01X51567Y56789D01*
G01X51596Y56824D01*
G01X51624Y56861D01*
G01X51650Y56898D01*
G01X51674Y56937D01*
G01X51696Y56977D01*
G01X51717Y57018D01*
G01X51736Y57059D01*
G01X51753Y57102D01*
G01X51768Y57145D01*
G01X51781Y57189D01*
G01X51793Y57233D01*
G01X51802Y57278D01*
G01X51809Y57323D01*
G01X51814Y57368D01*
G01X51817Y57414D01*
G01X51818Y57460D01*
G01X51817Y57505D01*
G01X51814Y57551D01*
G01X51809Y57596D01*
G01X51802Y57641D01*
G01X51793Y57686D01*
G01X51781Y57730D01*
G01X51768Y57774D01*
G01X51753Y57817D01*
G01X51736Y57860D01*
G01X51717Y57901D01*
G01X51696Y57942D01*
G01X51674Y57982D01*
G01X51650Y58021D01*
G01X51624Y58058D01*
G01X51596Y58095D01*
G01X51567Y58130D01*
G01X51536Y58163D01*
G01X51503Y58196D01*
G01X51470Y58227D01*
G01X51435Y58256D01*
G01X51398Y58284D01*
G01X51361Y58310D01*
G01X51322Y58334D01*
G01X51282Y58356D01*
G01X51241Y58377D01*
G01X51200Y58396D01*
G01X51157Y58413D01*
G01X51114Y58428D01*
G01X51070Y58441D01*
G01X51026Y58453D01*
G01X50981Y58462D01*
G01X50936Y58469D01*
G01X50891Y58474D01*
G01X50845Y58477D01*
G37*
G36*
G01X76245Y58477D02*
G01X76200Y58478D01*
G01X76154Y58477D01*
G01X76108Y58474D01*
G01X76063Y58469D01*
G01X76018Y58462D01*
G01X75973Y58453D01*
G01X75929Y58441D01*
G01X75885Y58428D01*
G01X75842Y58413D01*
G01X75799Y58396D01*
G01X75758Y58377D01*
G01X75717Y58356D01*
G01X75677Y58334D01*
G01X75638Y58310D01*
G01X75601Y58284D01*
G01X75564Y58256D01*
G01X75529Y58227D01*
G01X75496Y58196D01*
G01X75463Y58163D01*
G01X75432Y58130D01*
G01X75403Y58095D01*
G01X75375Y58058D01*
G01X75349Y58021D01*
G01X75325Y57982D01*
G01X75303Y57942D01*
G01X75282Y57901D01*
G01X75263Y57860D01*
G01X75246Y57817D01*
G01X75231Y57774D01*
G01X75218Y57730D01*
G01X75206Y57686D01*
G01X75197Y57641D01*
G01X75190Y57596D01*
G01X75185Y57551D01*
G01X75182Y57505D01*
G01X75181Y57460D01*
G01X75182Y57414D01*
G01X75185Y57368D01*
G01X75190Y57323D01*
G01X75197Y57278D01*
G01X75206Y57233D01*
G01X75218Y57189D01*
G01X75231Y57145D01*
G01X75246Y57102D01*
G01X75263Y57059D01*
G01X75282Y57018D01*
G01X75303Y56977D01*
G01X75325Y56937D01*
G01X75349Y56898D01*
G01X75375Y56861D01*
G01X75403Y56824D01*
G01X75432Y56789D01*
G01X75463Y56756D01*
G01X75496Y56723D01*
G01X75529Y56692D01*
G01X75564Y56663D01*
G01X75601Y56635D01*
G01X75638Y56609D01*
G01X75677Y56585D01*
G01X75717Y56563D01*
G01X75758Y56542D01*
G01X75799Y56523D01*
G01X75842Y56506D01*
G01X75885Y56491D01*
G01X75929Y56478D01*
G01X75973Y56466D01*
G01X76018Y56457D01*
G01X76063Y56450D01*
G01X76108Y56445D01*
G01X76154Y56442D01*
G01X76200Y56441D01*
G01X76245Y56442D01*
G01X76291Y56445D01*
G01X76336Y56450D01*
G01X76381Y56457D01*
G01X76426Y56466D01*
G01X76470Y56478D01*
G01X76514Y56491D01*
G01X76557Y56506D01*
G01X76600Y56523D01*
G01X76641Y56542D01*
G01X76682Y56563D01*
G01X76722Y56585D01*
G01X76761Y56609D01*
G01X76798Y56635D01*
G01X76835Y56663D01*
G01X76870Y56692D01*
G01X76903Y56723D01*
G01X76936Y56756D01*
G01X76967Y56789D01*
G01X76996Y56824D01*
G01X77024Y56861D01*
G01X77050Y56898D01*
G01X77074Y56937D01*
G01X77096Y56977D01*
G01X77117Y57018D01*
G01X77136Y57059D01*
G01X77153Y57102D01*
G01X77168Y57145D01*
G01X77181Y57189D01*
G01X77193Y57233D01*
G01X77202Y57278D01*
G01X77209Y57323D01*
G01X77214Y57368D01*
G01X77217Y57414D01*
G01X77218Y57460D01*
G01X77217Y57505D01*
G01X77214Y57551D01*
G01X77209Y57596D01*
G01X77202Y57641D01*
G01X77193Y57686D01*
G01X77181Y57730D01*
G01X77168Y57774D01*
G01X77153Y57817D01*
G01X77136Y57860D01*
G01X77117Y57901D01*
G01X77096Y57942D01*
G01X77074Y57982D01*
G01X77050Y58021D01*
G01X77024Y58058D01*
G01X76996Y58095D01*
G01X76967Y58130D01*
G01X76936Y58163D01*
G01X76903Y58196D01*
G01X76870Y58227D01*
G01X76835Y58256D01*
G01X76798Y58284D01*
G01X76761Y58310D01*
G01X76722Y58334D01*
G01X76682Y58356D01*
G01X76641Y58377D01*
G01X76600Y58396D01*
G01X76557Y58413D01*
G01X76514Y58428D01*
G01X76470Y58441D01*
G01X76426Y58453D01*
G01X76381Y58462D01*
G01X76336Y58469D01*
G01X76291Y58474D01*
G01X76245Y58477D01*
G37*
G36*
G01X53385Y58477D02*
G01X53340Y58478D01*
G01X53294Y58477D01*
G01X53248Y58474D01*
G01X53203Y58469D01*
G01X53158Y58462D01*
G01X53113Y58453D01*
G01X53069Y58441D01*
G01X53025Y58428D01*
G01X52982Y58413D01*
G01X52939Y58396D01*
G01X52898Y58377D01*
G01X52857Y58356D01*
G01X52817Y58334D01*
G01X52778Y58310D01*
G01X52741Y58284D01*
G01X52704Y58256D01*
G01X52669Y58227D01*
G01X52636Y58196D01*
G01X52603Y58163D01*
G01X52572Y58130D01*
G01X52543Y58095D01*
G01X52515Y58058D01*
G01X52489Y58021D01*
G01X52465Y57982D01*
G01X52443Y57942D01*
G01X52422Y57901D01*
G01X52403Y57860D01*
G01X52386Y57817D01*
G01X52371Y57774D01*
G01X52358Y57730D01*
G01X52346Y57686D01*
G01X52337Y57641D01*
G01X52330Y57596D01*
G01X52325Y57551D01*
G01X52322Y57505D01*
G01X52321Y57460D01*
G01X52322Y57414D01*
G01X52325Y57368D01*
G01X52330Y57323D01*
G01X52337Y57278D01*
G01X52346Y57233D01*
G01X52358Y57189D01*
G01X52371Y57145D01*
G01X52386Y57102D01*
G01X52403Y57059D01*
G01X52422Y57018D01*
G01X52443Y56977D01*
G01X52465Y56937D01*
G01X52489Y56898D01*
G01X52515Y56861D01*
G01X52543Y56824D01*
G01X52572Y56789D01*
G01X52603Y56756D01*
G01X52636Y56723D01*
G01X52669Y56692D01*
G01X52704Y56663D01*
G01X52741Y56635D01*
G01X52778Y56609D01*
G01X52817Y56585D01*
G01X52857Y56563D01*
G01X52898Y56542D01*
G01X52939Y56523D01*
G01X52982Y56506D01*
G01X53025Y56491D01*
G01X53069Y56478D01*
G01X53113Y56466D01*
G01X53158Y56457D01*
G01X53203Y56450D01*
G01X53248Y56445D01*
G01X53294Y56442D01*
G01X53340Y56441D01*
G01X53385Y56442D01*
G01X53431Y56445D01*
G01X53476Y56450D01*
G01X53521Y56457D01*
G01X53566Y56466D01*
G01X53610Y56478D01*
G01X53654Y56491D01*
G01X53697Y56506D01*
G01X53740Y56523D01*
G01X53781Y56542D01*
G01X53822Y56563D01*
G01X53862Y56585D01*
G01X53901Y56609D01*
G01X53938Y56635D01*
G01X53975Y56663D01*
G01X54010Y56692D01*
G01X54043Y56723D01*
G01X54076Y56756D01*
G01X54107Y56789D01*
G01X54136Y56824D01*
G01X54164Y56861D01*
G01X54190Y56898D01*
G01X54214Y56937D01*
G01X54236Y56977D01*
G01X54257Y57018D01*
G01X54276Y57059D01*
G01X54293Y57102D01*
G01X54308Y57145D01*
G01X54321Y57189D01*
G01X54333Y57233D01*
G01X54342Y57278D01*
G01X54349Y57323D01*
G01X54354Y57368D01*
G01X54357Y57414D01*
G01X54358Y57460D01*
G01X54357Y57505D01*
G01X54354Y57551D01*
G01X54349Y57596D01*
G01X54342Y57641D01*
G01X54333Y57686D01*
G01X54321Y57730D01*
G01X54308Y57774D01*
G01X54293Y57817D01*
G01X54276Y57860D01*
G01X54257Y57901D01*
G01X54236Y57942D01*
G01X54214Y57982D01*
G01X54190Y58021D01*
G01X54164Y58058D01*
G01X54136Y58095D01*
G01X54107Y58130D01*
G01X54076Y58163D01*
G01X54043Y58196D01*
G01X54010Y58227D01*
G01X53975Y58256D01*
G01X53938Y58284D01*
G01X53901Y58310D01*
G01X53862Y58334D01*
G01X53822Y58356D01*
G01X53781Y58377D01*
G01X53740Y58396D01*
G01X53697Y58413D01*
G01X53654Y58428D01*
G01X53610Y58441D01*
G01X53566Y58453D01*
G01X53521Y58462D01*
G01X53476Y58469D01*
G01X53431Y58474D01*
G01X53385Y58477D01*
G37*
G36*
G01X78785Y58477D02*
G01X78740Y58478D01*
G01X78694Y58477D01*
G01X78648Y58474D01*
G01X78603Y58469D01*
G01X78558Y58462D01*
G01X78513Y58453D01*
G01X78469Y58441D01*
G01X78425Y58428D01*
G01X78382Y58413D01*
G01X78339Y58396D01*
G01X78298Y58377D01*
G01X78257Y58356D01*
G01X78217Y58334D01*
G01X78178Y58310D01*
G01X78141Y58284D01*
G01X78104Y58256D01*
G01X78069Y58227D01*
G01X78036Y58196D01*
G01X78003Y58163D01*
G01X77972Y58130D01*
G01X77943Y58095D01*
G01X77915Y58058D01*
G01X77889Y58021D01*
G01X77865Y57982D01*
G01X77843Y57942D01*
G01X77822Y57901D01*
G01X77803Y57860D01*
G01X77786Y57817D01*
G01X77771Y57774D01*
G01X77758Y57730D01*
G01X77746Y57686D01*
G01X77737Y57641D01*
G01X77730Y57596D01*
G01X77725Y57551D01*
G01X77722Y57505D01*
G01X77721Y57460D01*
G01X77722Y57414D01*
G01X77725Y57368D01*
G01X77730Y57323D01*
G01X77737Y57278D01*
G01X77746Y57233D01*
G01X77758Y57189D01*
G01X77771Y57145D01*
G01X77786Y57102D01*
G01X77803Y57059D01*
G01X77822Y57018D01*
G01X77843Y56977D01*
G01X77865Y56937D01*
G01X77889Y56898D01*
G01X77915Y56861D01*
G01X77943Y56824D01*
G01X77972Y56789D01*
G01X78003Y56756D01*
G01X78036Y56723D01*
G01X78069Y56692D01*
G01X78104Y56663D01*
G01X78141Y56635D01*
G01X78178Y56609D01*
G01X78217Y56585D01*
G01X78257Y56563D01*
G01X78298Y56542D01*
G01X78339Y56523D01*
G01X78382Y56506D01*
G01X78425Y56491D01*
G01X78469Y56478D01*
G01X78513Y56466D01*
G01X78558Y56457D01*
G01X78603Y56450D01*
G01X78648Y56445D01*
G01X78694Y56442D01*
G01X78740Y56441D01*
G01X78785Y56442D01*
G01X78831Y56445D01*
G01X78876Y56450D01*
G01X78921Y56457D01*
G01X78966Y56466D01*
G01X79010Y56478D01*
G01X79054Y56491D01*
G01X79097Y56506D01*
G01X79140Y56523D01*
G01X79181Y56542D01*
G01X79222Y56563D01*
G01X79262Y56585D01*
G01X79301Y56609D01*
G01X79338Y56635D01*
G01X79375Y56663D01*
G01X79410Y56692D01*
G01X79443Y56723D01*
G01X79476Y56756D01*
G01X79507Y56789D01*
G01X79536Y56824D01*
G01X79564Y56861D01*
G01X79590Y56898D01*
G01X79614Y56937D01*
G01X79636Y56977D01*
G01X79657Y57018D01*
G01X79676Y57059D01*
G01X79693Y57102D01*
G01X79708Y57145D01*
G01X79721Y57189D01*
G01X79733Y57233D01*
G01X79742Y57278D01*
G01X79749Y57323D01*
G01X79754Y57368D01*
G01X79757Y57414D01*
G01X79758Y57460D01*
G01X79757Y57505D01*
G01X79754Y57551D01*
G01X79749Y57596D01*
G01X79742Y57641D01*
G01X79733Y57686D01*
G01X79721Y57730D01*
G01X79708Y57774D01*
G01X79693Y57817D01*
G01X79676Y57860D01*
G01X79657Y57901D01*
G01X79636Y57942D01*
G01X79614Y57982D01*
G01X79590Y58021D01*
G01X79564Y58058D01*
G01X79536Y58095D01*
G01X79507Y58130D01*
G01X79476Y58163D01*
G01X79443Y58196D01*
G01X79410Y58227D01*
G01X79375Y58256D01*
G01X79338Y58284D01*
G01X79301Y58310D01*
G01X79262Y58334D01*
G01X79222Y58356D01*
G01X79181Y58377D01*
G01X79140Y58396D01*
G01X79097Y58413D01*
G01X79054Y58428D01*
G01X79010Y58441D01*
G01X78966Y58453D01*
G01X78921Y58462D01*
G01X78876Y58469D01*
G01X78831Y58474D01*
G01X78785Y58477D01*
G37*
G36*
G01X48305Y58477D02*
G01X48260Y58478D01*
G01X48214Y58477D01*
G01X48168Y58474D01*
G01X48123Y58469D01*
G01X48078Y58462D01*
G01X48033Y58453D01*
G01X47989Y58441D01*
G01X47945Y58428D01*
G01X47902Y58413D01*
G01X47859Y58396D01*
G01X47818Y58377D01*
G01X47777Y58356D01*
G01X47737Y58334D01*
G01X47698Y58310D01*
G01X47661Y58284D01*
G01X47624Y58256D01*
G01X47589Y58227D01*
G01X47556Y58196D01*
G01X47523Y58163D01*
G01X47492Y58130D01*
G01X47463Y58095D01*
G01X47435Y58058D01*
G01X47409Y58021D01*
G01X47385Y57982D01*
G01X47363Y57942D01*
G01X47342Y57901D01*
G01X47323Y57860D01*
G01X47306Y57817D01*
G01X47291Y57774D01*
G01X47278Y57730D01*
G01X47266Y57686D01*
G01X47257Y57641D01*
G01X47250Y57596D01*
G01X47245Y57551D01*
G01X47242Y57505D01*
G01X47241Y57460D01*
G01X47242Y57414D01*
G01X47245Y57368D01*
G01X47250Y57323D01*
G01X47257Y57278D01*
G01X47266Y57233D01*
G01X47278Y57189D01*
G01X47291Y57145D01*
G01X47306Y57102D01*
G01X47323Y57059D01*
G01X47342Y57018D01*
G01X47363Y56977D01*
G01X47385Y56937D01*
G01X47409Y56898D01*
G01X47435Y56861D01*
G01X47463Y56824D01*
G01X47492Y56789D01*
G01X47523Y56756D01*
G01X47556Y56723D01*
G01X47589Y56692D01*
G01X47624Y56663D01*
G01X47661Y56635D01*
G01X47698Y56609D01*
G01X47737Y56585D01*
G01X47777Y56563D01*
G01X47818Y56542D01*
G01X47859Y56523D01*
G01X47902Y56506D01*
G01X47945Y56491D01*
G01X47989Y56478D01*
G01X48033Y56466D01*
G01X48078Y56457D01*
G01X48123Y56450D01*
G01X48168Y56445D01*
G01X48214Y56442D01*
G01X48260Y56441D01*
G01X48305Y56442D01*
G01X48351Y56445D01*
G01X48396Y56450D01*
G01X48441Y56457D01*
G01X48486Y56466D01*
G01X48530Y56478D01*
G01X48574Y56491D01*
G01X48617Y56506D01*
G01X48660Y56523D01*
G01X48701Y56542D01*
G01X48742Y56563D01*
G01X48782Y56585D01*
G01X48821Y56609D01*
G01X48858Y56635D01*
G01X48895Y56663D01*
G01X48930Y56692D01*
G01X48963Y56723D01*
G01X48996Y56756D01*
G01X49027Y56789D01*
G01X49056Y56824D01*
G01X49084Y56861D01*
G01X49110Y56898D01*
G01X49134Y56937D01*
G01X49156Y56977D01*
G01X49177Y57018D01*
G01X49196Y57059D01*
G01X49213Y57102D01*
G01X49228Y57145D01*
G01X49241Y57189D01*
G01X49253Y57233D01*
G01X49262Y57278D01*
G01X49269Y57323D01*
G01X49274Y57368D01*
G01X49277Y57414D01*
G01X49278Y57460D01*
G01X49277Y57505D01*
G01X49274Y57551D01*
G01X49269Y57596D01*
G01X49262Y57641D01*
G01X49253Y57686D01*
G01X49241Y57730D01*
G01X49228Y57774D01*
G01X49213Y57817D01*
G01X49196Y57860D01*
G01X49177Y57901D01*
G01X49156Y57942D01*
G01X49134Y57982D01*
G01X49110Y58021D01*
G01X49084Y58058D01*
G01X49056Y58095D01*
G01X49027Y58130D01*
G01X48996Y58163D01*
G01X48963Y58196D01*
G01X48930Y58227D01*
G01X48895Y58256D01*
G01X48858Y58284D01*
G01X48821Y58310D01*
G01X48782Y58334D01*
G01X48742Y58356D01*
G01X48701Y58377D01*
G01X48660Y58396D01*
G01X48617Y58413D01*
G01X48574Y58428D01*
G01X48530Y58441D01*
G01X48486Y58453D01*
G01X48441Y58462D01*
G01X48396Y58469D01*
G01X48351Y58474D01*
G01X48305Y58477D01*
G37*
G36*
G01X85691Y28583D02*
G01X85657Y28584D01*
G01X85624Y28583D01*
G01X85590Y28580D01*
G01X85557Y28575D01*
G01X85524Y28568D01*
G01X85492Y28559D01*
G01X85460Y28548D01*
G01X85429Y28535D01*
G01X85399Y28520D01*
G01X85370Y28504D01*
G01X85341Y28486D01*
G01X85314Y28466D01*
G01X85288Y28444D01*
G01X85264Y28421D01*
G01X85241Y28397D01*
G01X85219Y28371D01*
G01X85199Y28344D01*
G01X85181Y28315D01*
G01X85165Y28286D01*
G01X85150Y28256D01*
G01X85137Y28225D01*
G01X85126Y28193D01*
G01X85117Y28161D01*
G01X85110Y28128D01*
G01X85105Y28095D01*
G01X85102Y28061D01*
G01X85101Y28028D01*
G01X85102Y27994D01*
G01X85105Y27960D01*
G01X85110Y27927D01*
G01X85117Y27894D01*
G01X85126Y27862D01*
G01X85137Y27830D01*
G01X85150Y27799D01*
G01X85165Y27769D01*
G01X85181Y27740D01*
G01X85199Y27711D01*
G01X85219Y27684D01*
G01X85241Y27658D01*
G01X85264Y27634D01*
G01X85288Y27611D01*
G01X85314Y27589D01*
G01X85341Y27569D01*
G01X85370Y27551D01*
G01X85399Y27535D01*
G01X85429Y27520D01*
G01X85460Y27507D01*
G01X85492Y27496D01*
G01X85524Y27487D01*
G01X85557Y27480D01*
G01X85590Y27475D01*
G01X85624Y27472D01*
G01X85657Y27471D01*
G01X85691Y27472D01*
G01X85725Y27475D01*
G01X85758Y27480D01*
G01X85791Y27487D01*
G01X85823Y27496D01*
G01X85855Y27507D01*
G01X85886Y27520D01*
G01X85916Y27535D01*
G01X85945Y27551D01*
G01X85974Y27569D01*
G01X86001Y27589D01*
G01X86027Y27611D01*
G01X86051Y27634D01*
G01X86074Y27658D01*
G01X86096Y27684D01*
G01X86115Y27711D01*
G01X86134Y27740D01*
G01X86150Y27769D01*
G01X86165Y27799D01*
G01X86178Y27830D01*
G01X86189Y27862D01*
G01X86198Y27894D01*
G01X86205Y27927D01*
G01X86210Y27960D01*
G01X86213Y27994D01*
G01X86214Y28028D01*
G01X86213Y28061D01*
G01X86210Y28095D01*
G01X86205Y28128D01*
G01X86198Y28161D01*
G01X86189Y28193D01*
G01X86178Y28225D01*
G01X86165Y28256D01*
G01X86150Y28286D01*
G01X86134Y28315D01*
G01X86115Y28344D01*
G01X86096Y28371D01*
G01X86074Y28397D01*
G01X86051Y28421D01*
G01X86027Y28444D01*
G01X86001Y28466D01*
G01X85974Y28486D01*
G01X85945Y28504D01*
G01X85916Y28520D01*
G01X85886Y28535D01*
G01X85855Y28548D01*
G01X85823Y28559D01*
G01X85791Y28568D01*
G01X85758Y28575D01*
G01X85725Y28580D01*
G01X85691Y28583D01*
G37*
G36*
G01X85691Y32583D02*
G01X85657Y32584D01*
G01X85624Y32583D01*
G01X85590Y32580D01*
G01X85557Y32575D01*
G01X85524Y32568D01*
G01X85492Y32559D01*
G01X85460Y32548D01*
G01X85429Y32535D01*
G01X85399Y32520D01*
G01X85370Y32504D01*
G01X85341Y32486D01*
G01X85314Y32466D01*
G01X85288Y32444D01*
G01X85264Y32421D01*
G01X85241Y32397D01*
G01X85219Y32371D01*
G01X85199Y32344D01*
G01X85181Y32315D01*
G01X85165Y32286D01*
G01X85150Y32256D01*
G01X85137Y32225D01*
G01X85126Y32193D01*
G01X85117Y32161D01*
G01X85110Y32128D01*
G01X85105Y32095D01*
G01X85102Y32061D01*
G01X85101Y32028D01*
G01X85102Y31994D01*
G01X85105Y31960D01*
G01X85110Y31927D01*
G01X85117Y31894D01*
G01X85126Y31862D01*
G01X85137Y31830D01*
G01X85150Y31799D01*
G01X85165Y31769D01*
G01X85181Y31740D01*
G01X85199Y31711D01*
G01X85219Y31684D01*
G01X85241Y31658D01*
G01X85264Y31634D01*
G01X85288Y31611D01*
G01X85314Y31589D01*
G01X85341Y31569D01*
G01X85370Y31551D01*
G01X85399Y31535D01*
G01X85429Y31520D01*
G01X85460Y31507D01*
G01X85492Y31496D01*
G01X85524Y31487D01*
G01X85557Y31480D01*
G01X85590Y31475D01*
G01X85624Y31472D01*
G01X85657Y31471D01*
G01X85691Y31472D01*
G01X85725Y31475D01*
G01X85758Y31480D01*
G01X85791Y31487D01*
G01X85823Y31496D01*
G01X85855Y31507D01*
G01X85886Y31520D01*
G01X85916Y31535D01*
G01X85945Y31551D01*
G01X85974Y31569D01*
G01X86001Y31589D01*
G01X86027Y31611D01*
G01X86051Y31634D01*
G01X86074Y31658D01*
G01X86096Y31684D01*
G01X86115Y31711D01*
G01X86134Y31740D01*
G01X86150Y31769D01*
G01X86165Y31799D01*
G01X86178Y31830D01*
G01X86189Y31862D01*
G01X86198Y31894D01*
G01X86205Y31927D01*
G01X86210Y31960D01*
G01X86213Y31994D01*
G01X86214Y32028D01*
G01X86213Y32061D01*
G01X86210Y32095D01*
G01X86205Y32128D01*
G01X86198Y32161D01*
G01X86189Y32193D01*
G01X86178Y32225D01*
G01X86165Y32256D01*
G01X86150Y32286D01*
G01X86134Y32315D01*
G01X86115Y32344D01*
G01X86096Y32371D01*
G01X86074Y32397D01*
G01X86051Y32421D01*
G01X86027Y32444D01*
G01X86001Y32466D01*
G01X85974Y32486D01*
G01X85945Y32504D01*
G01X85916Y32520D01*
G01X85886Y32535D01*
G01X85855Y32548D01*
G01X85823Y32559D01*
G01X85791Y32568D01*
G01X85758Y32575D01*
G01X85725Y32580D01*
G01X85691Y32583D01*
G37*

%LPD*%
G36*
G01X54145Y28605D02*
G01X51917Y28605D01*
G01X51903Y28604D01*
G01X51888Y28601D01*
G01X51875Y28596D01*
G01X51862Y28589D01*
G01X51851Y28580D01*
G01X51840Y28570D01*
G01X51832Y28558D01*
G01X51825Y28546D01*
G01X51820Y28532D01*
G01X51817Y28518D01*
G01X51816Y28503D01*
G01X51816Y23678D01*
G01X51337Y24156D01*
G01X51325Y24166D01*
G01X51312Y24174D01*
G01X51297Y24181D01*
G01X51281Y24184D01*
G01X51265Y24186D01*
G01X49765Y24186D01*
G01X49751Y24184D01*
G01X49737Y24181D01*
G01X49723Y24176D01*
G01X49710Y24169D01*
G01X49699Y24161D01*
G01X49689Y24150D01*
G01X49680Y24139D01*
G01X49673Y24126D01*
G01X49668Y24113D01*
G01X49665Y24098D01*
G01X49664Y24084D01*
G01X49665Y24068D01*
G01X49669Y24052D01*
G01X49675Y24037D01*
G01X49683Y24024D01*
G01X49740Y23946D01*
G01X49750Y23935D01*
G01X53109Y20575D01*
G01X53123Y20562D01*
G01X53140Y20553D01*
G01X53690Y20316D01*
G01X53695Y20314D01*
G01X53738Y20297D01*
G01X53779Y20278D01*
G01X53820Y20257D01*
G01X53860Y20235D01*
G01X53899Y20211D01*
G01X53937Y20185D01*
G01X53973Y20157D01*
G01X54008Y20128D01*
G01X54042Y20097D01*
G01X54075Y20065D01*
G01X54106Y20031D01*
G01X54135Y19996D01*
G01X54163Y19959D01*
G01X54189Y19922D01*
G01X54213Y19883D01*
G01X54236Y19843D01*
G01X54257Y19802D01*
G01X54276Y19761D01*
G01X54293Y19718D01*
G01X54308Y19675D01*
G01X54321Y19631D01*
G01X54332Y19587D01*
G01X54342Y19542D01*
G01X54349Y19496D01*
G01X54354Y19451D01*
G01X54357Y19405D01*
G01X54358Y19360D01*
G01X54357Y19311D01*
G01X54353Y19262D01*
G01X54348Y19214D01*
G01X54339Y19166D01*
G01X54329Y19118D01*
G01X54328Y19112D01*
G01X54218Y18496D01*
G01X54216Y18478D01*
G01X54216Y15778D01*
G01X54217Y15764D01*
G01X54220Y15749D01*
G01X54225Y15736D01*
G01X54232Y15723D01*
G01X54241Y15712D01*
G01X54251Y15701D01*
G01X54263Y15693D01*
G01X54275Y15686D01*
G01X54289Y15681D01*
G01X54303Y15678D01*
G01X54318Y15677D01*
G01X58742Y15677D01*
G01X58757Y15678D01*
G01X58771Y15681D01*
G01X58784Y15686D01*
G01X58797Y15693D01*
G01X58809Y15701D01*
G01X58819Y15712D01*
G01X58828Y15723D01*
G01X58835Y15736D01*
G01X58840Y15749D01*
G01X58843Y15764D01*
G01X58844Y15778D01*
G01X58843Y15794D01*
G01X58839Y15810D01*
G01X58833Y15824D01*
G01X58824Y15838D01*
G01X58814Y15850D01*
G01X56414Y18250D01*
G01X56401Y18261D01*
G01X56386Y18270D01*
G01X56370Y18276D01*
G01X56354Y18280D01*
G01X55811Y18343D01*
G01X55806Y18344D01*
G01X55760Y18348D01*
G01X55714Y18354D01*
G01X55669Y18363D01*
G01X55624Y18374D01*
G01X55579Y18386D01*
G01X55535Y18401D01*
G01X55492Y18417D01*
G01X55450Y18436D01*
G01X55408Y18456D01*
G01X55368Y18479D01*
G01X55328Y18503D01*
G01X55290Y18529D01*
G01X55253Y18556D01*
G01X55217Y18586D01*
G01X55183Y18617D01*
G01X55150Y18649D01*
G01X55118Y18683D01*
G01X55088Y18718D01*
G01X55060Y18755D01*
G01X55033Y18793D01*
G01X55009Y18831D01*
G01X54985Y18872D01*
G01X54964Y18913D01*
G01X54945Y18955D01*
G01X54927Y18998D01*
G01X54912Y19041D01*
G01X54899Y19085D01*
G01X54887Y19130D01*
G01X54878Y19176D01*
G01X54870Y19221D01*
G01X54865Y19267D01*
G01X54862Y19313D01*
G01X54861Y19360D01*
G01X54862Y19405D01*
G01X54865Y19451D01*
G01X54870Y19496D01*
G01X54877Y19541D01*
G01X54886Y19586D01*
G01X54898Y19630D01*
G01X54911Y19674D01*
G01X54926Y19717D01*
G01X54943Y19759D01*
G01X54961Y19801D01*
G01X54982Y19841D01*
G01X55005Y19881D01*
G01X55029Y19920D01*
G01X55055Y19957D01*
G01X55082Y19993D01*
G01X55112Y20029D01*
G01X55142Y20062D01*
G01X55174Y20095D01*
G01X55208Y20125D01*
G01X55243Y20155D01*
G01X55279Y20182D01*
G01X55317Y20208D01*
G01X55355Y20233D01*
G01X55395Y20255D01*
G01X55436Y20276D01*
G01X55477Y20295D01*
G01X55519Y20312D01*
G01X55562Y20327D01*
G01X55606Y20341D01*
G01X55650Y20352D01*
G01X55695Y20361D01*
G01X55740Y20368D01*
G01X55785Y20374D01*
G01X55831Y20377D01*
G01X55842Y20378D01*
G01X56150Y20429D01*
G01X56165Y20433D01*
G01X56180Y20439D01*
G01X56193Y20448D01*
G01X56206Y20458D01*
G01X56216Y20470D01*
G01X56224Y20484D01*
G01X56230Y20498D01*
G01X56234Y20514D01*
G01X56235Y20529D01*
G01X56235Y26515D01*
G01X56234Y26531D01*
G01X56230Y26546D01*
G01X56224Y26561D01*
G01X56216Y26575D01*
G01X56205Y26587D01*
G01X54217Y28575D01*
G01X54205Y28586D01*
G01X54191Y28594D01*
G01X54176Y28600D01*
G01X54161Y28604D01*
G01X54145Y28605D01*
G37*

%LPD*%
G54D10*
G01X10668Y52380D02*
G01X10668Y47173D01*
G01X14097Y43744D01*
G01X32131Y43744D01*
G01X48387Y45268D02*
G01X48641Y45268D01*
G01X49022Y45649D01*
G01X57531Y45649D01*
G01X32143Y42456D02*
G01X31490Y43109D01*
G01X30734Y43109D01*
G01X27940Y57460D02*
G01X27940Y56825D01*
G01X33413Y51351D01*
G01X33413Y42456D01*
G01X43180Y57460D02*
G01X42037Y56317D01*
G01X42037Y54285D01*
G01X47383Y48938D01*
G01X47383Y42456D01*
G01X50152Y34092D02*
G01X51181Y34092D01*
G01X54229Y37140D01*
G01X54229Y43744D01*
G01X50152Y32822D02*
G01X51181Y32822D01*
G01X54991Y36632D01*
G01X54991Y43744D01*
G01X50152Y31552D02*
G01X51308Y31552D01*
G01X55880Y36124D01*
G01X55880Y43744D01*
G01X53340Y43744D02*
G01X53340Y37394D01*
G01X51308Y35362D01*
G01X50152Y35362D01*
G01X11557Y48697D02*
G01X11684Y48824D01*
G01X11684Y53396D01*
G54D13*
G01X11684Y53396D02*
G01X23876Y53396D01*
G01X23876Y50475D01*
G01X24892Y50475D01*
G54D10*
G01X70104Y45903D02*
G01X71882Y47681D01*
G01X73406Y47681D01*
G01X64897Y44252D02*
G01X64897Y41585D01*
G01X63754Y40442D01*
G01X61595Y42855D02*
G01X61595Y44506D01*
G01X63119Y46030D01*
G01X64389Y46030D01*
G01X63246Y44506D02*
G01X63246Y42220D01*
G01X63754Y41712D01*
G54D12*
G01X80518Y45141D02*
G01X69723Y45141D01*
G01X64262Y39680D01*
G01X64262Y38410D01*
G01X63012Y38410D01*
G54D10*
G01X48387Y46284D02*
G01X58039Y46284D01*
G01X59182Y45141D01*
G01X59182Y41077D01*
G01X48387Y47046D02*
G01X59182Y47046D01*
G01X59817Y46411D01*
G01X59817Y40569D01*
G01X59182Y39934D01*
G01X59182Y39426D01*
G01X48387Y49586D02*
G01X59182Y49586D01*
G01X60706Y48062D01*
G01X60706Y39299D01*
G01X58928Y37521D01*
G01X58928Y31933D01*
G01X48387Y47858D02*
G01X48463Y47935D01*
G01X58674Y47935D01*
G01X48387Y48722D02*
G01X48412Y48697D01*
G01X58674Y48697D01*
G01X20701Y51364D02*
G01X26670Y45395D01*
G01X28702Y45395D01*
G01X35560Y57460D02*
G01X35560Y56952D01*
G01X43573Y48938D01*
G01X43573Y42456D01*
G01X53340Y54920D02*
G01X54102Y54920D01*
G01X56642Y52380D01*
G01X56642Y50602D01*
G01X19431Y50348D02*
G01X25146Y44633D01*
G01X29083Y44633D01*
G01X43180Y54920D02*
G01X45847Y52253D01*
G01X52324Y52253D01*
G01X53340Y51237D01*
G01X53340Y50602D01*
G01X54229Y50602D02*
G01X54229Y51110D01*
G01X52578Y52761D01*
G01X47117Y52761D01*
G01X45720Y54158D01*
G01X45720Y54920D01*
G01X54991Y50602D02*
G01X54991Y51110D01*
G01X52832Y53269D01*
G01X49784Y53269D01*
G01X48260Y54793D01*
G01X48260Y54920D01*
G01X55880Y50729D02*
G01X55880Y51110D01*
G01X53213Y53777D01*
G01X51435Y53777D01*
G01X50800Y54412D01*
G01X50800Y54920D01*
G54D13*
G01X49022Y44379D02*
G01X49530Y44887D01*
G01X56515Y44887D01*
G01X56515Y44887D01*
G01X57404Y44125D01*
G01X57404Y44125D02*
G01X57404Y31397D01*
G01X65102Y23698D01*
G01X65102Y23698D01*
G01X66040Y22789D01*
G01X72898Y22916D01*
G54D10*
G01X37223Y42456D02*
G01X37465Y42700D01*
G01X37465Y44506D01*
G54D13*
G01X72898Y22916D02*
G01X73914Y23932D01*
G01X82423Y23932D01*
G54D12*
G01X63012Y35108D02*
G01X63012Y27213D01*
G01X64262Y25964D01*
G01X83185Y25964D01*
G01X84201Y24948D01*
G01X84201Y18090D01*
G01X81788Y15677D01*
G01X80518Y15677D01*
G54D13*
G01X73660Y27234D02*
G01X73660Y29012D01*
G01X79756Y35108D01*
G01X79756Y42601D01*
G01X75184Y43236D02*
G01X75819Y42601D01*
G01X79756Y42601D01*
G01X26924Y21900D02*
G01X27305Y22281D01*
G01X29232Y22281D01*
G01X50152Y27742D02*
G01X51422Y26472D01*
G01X55372Y26472D01*
G54D10*
G01X50152Y29012D02*
G01X54356Y29012D01*
G01X56642Y26726D01*
G01X56642Y19360D01*
G01X55880Y19360D01*
G01X56642Y43716D02*
G01X56642Y34981D01*
G01X51943Y30282D01*
G01X50152Y30282D01*
G01X38100Y57460D02*
G01X38100Y55555D01*
G01X44843Y48811D01*
G01X44843Y42456D01*
G01X45720Y57460D02*
G01X44323Y58857D01*
G01X41275Y58857D01*
G01X41021Y58603D01*
G01X41021Y53650D01*
G01X46113Y48557D01*
G01X46113Y42456D01*
G01X10668Y52380D02*
G01X10668Y51999D01*
G01X8890Y50221D01*
G01X4622Y50221D01*
G01X3380Y51463D01*
G01X4818Y53619D02*
G01X7706Y50729D01*
G01X8509Y50729D01*
G01X9525Y51745D01*
G01X6254Y55056D02*
G01X8255Y53055D01*
G01X8255Y51745D01*
G01X8409Y56492D02*
G01X11505Y53396D01*
G01X11684Y53396D01*
G01X27432Y20757D02*
G01X30711Y20757D01*
G01X32235Y22281D01*
G01X35953Y42456D02*
G01X36195Y42700D01*
G01X36195Y44887D01*
G01X38493Y42456D02*
G01X39878Y43843D01*
G01X39878Y47808D01*
G01X30480Y57460D02*
G01X30480Y56698D01*
G01X34683Y52494D01*
G01X34683Y42456D01*
G01X61341Y38156D02*
G01X61595Y38410D01*
G01X63012Y38410D01*
G01X34683Y24457D02*
G01X34417Y24191D01*
G01X34417Y22789D01*
G01X35953Y24457D02*
G01X35953Y23055D01*
G01X33782Y20884D01*
G01X31877Y20884D01*
G01X30353Y19360D01*
G01X37223Y24457D02*
G01X37223Y23182D01*
G01X33401Y19360D01*
G01X32893Y19360D01*
G01X29232Y22281D02*
G01X31409Y24457D01*
G01X32143Y24457D01*
G01X32235Y22281D02*
G01X33413Y23459D01*
G01X33413Y24457D01*
G01X42303Y42456D02*
G01X42291Y42468D01*
G01X42291Y44633D01*
G01X41033Y42456D02*
G01X41275Y42700D01*
G01X41275Y50094D01*
G01X50673Y40823D02*
G01X50152Y40302D01*
G01X50152Y39172D01*
G01X50152Y37902D02*
G01X50673Y37902D01*
G01X51562Y38791D01*
G01X51562Y39680D01*
G01X52324Y37775D02*
G01X51181Y36632D01*
G01X50152Y36632D01*
G01X63012Y35108D02*
G01X62123Y35997D01*
G01X60071Y35997D01*
G01X48653Y42456D02*
G01X49938Y43744D01*
G01X52451Y43744D01*
G01X58420Y57460D02*
G01X67691Y48189D01*
G01X67691Y46030D01*
G01X55880Y57460D02*
G01X61595Y51745D01*
G01X61595Y42855D01*
G01X38493Y24457D02*
G01X38493Y22420D01*
G01X35433Y19360D01*
G01X39763Y24457D02*
G01X39763Y21150D01*
G01X37973Y19360D01*
G01X40513Y19360D02*
G01X40640Y19487D01*
G01X40640Y22789D01*
G01X41033Y23182D01*
G01X41033Y24457D01*
G01X48653Y24457D02*
G01X53340Y19768D01*
G01X53340Y19360D01*
G01X42303Y24457D02*
G01X42303Y23309D01*
G01X41529Y22535D01*
G01X41529Y21011D01*
G01X43180Y19360D01*
G01X45720Y19360D01*
G01X47383Y24457D02*
G01X47383Y23284D01*
G01X50800Y19868D01*
G01X50800Y19360D01*
G01X48260Y19360D02*
G01X47244Y20376D01*
G01X47244Y22535D01*
G01X46113Y23665D01*
G01X46113Y24457D01*
G01X44843Y24457D02*
G01X44843Y22776D01*
G01X45720Y21900D01*
G01X43573Y24457D02*
G01X43180Y24064D01*
G01X43180Y21900D01*
G01X45631Y13772D02*
G01X50800Y18940D01*
G01X50800Y19360D01*
G01X53340Y19360D02*
G01X53809Y18890D01*
G01X53809Y13772D01*
G01X30264Y13772D02*
G01X33058Y16566D01*
G01X45847Y16566D01*
G01X48260Y18979D01*
G01X48260Y19360D01*
G01X14770Y13899D02*
G01X18326Y17455D01*
G01X44958Y17455D01*
G01X45720Y18217D01*
G01X45720Y19360D01*
G01X55880Y19360D02*
G01X61468Y13772D01*
G01X69176Y13772D01*
G54D11*
G01X70777Y13772D02*
G01X71755Y13772D01*
G01X72771Y12756D01*
G01X55410Y13772D02*
G01X56769Y13772D01*
G01X57404Y13137D01*
G01X57404Y12756D01*
G01X44030Y13772D02*
G01X43053Y13772D01*
G01X42037Y12756D01*
G01X13169Y13899D02*
G01X12446Y13899D01*
G01X11303Y12756D01*
G01X28663Y13772D02*
G01X27686Y13772D01*
G01X26670Y12756D01*
G54D12*
G01X65511Y34158D02*
G01X65577Y34092D01*
G01X69723Y34092D01*
G01X70993Y35362D01*
G01X70993Y35539D01*
G01X70993Y35539D02*
G01X71958Y36505D01*
G01X77470Y36505D01*
G01X67945Y38740D02*
G01X69164Y37521D01*
G01X77216Y37521D01*
G01X70993Y38740D02*
G01X69545Y40188D01*
G01X66802Y40188D01*
G01X65973Y39359D01*
G01X65511Y39359D01*
G01X65511Y37460D02*
G01X66791Y38740D01*
G01X67945Y38740D01*
G01X65511Y36057D02*
G01X66029Y35539D01*
G01X67945Y35539D01*
G36*
G01X71943Y38140D02*
G01X71943Y39340D01*
G01X70042Y39340D01*
G01X70042Y38140D01*
G01X71943Y38140D01*
G37*
G36*
G01X71943Y34939D02*
G01X71943Y36139D01*
G01X70042Y36139D01*
G01X70042Y34939D01*
G01X71943Y34939D01*
G37*
G36*
G01X66994Y36139D02*
G01X66994Y34939D01*
G01X68895Y34939D01*
G01X68895Y36139D01*
G01X66994Y36139D01*
G37*
G36*
G01X66994Y39340D02*
G01X66994Y38140D01*
G01X68895Y38140D01*
G01X68895Y39340D01*
G01X66994Y39340D01*
G37*
G36*
G01X63637Y38059D02*
G01X63637Y38760D01*
G01X62387Y38760D01*
G01X62387Y38059D01*
G01X63637Y38059D01*
G37*
G36*
G01X66136Y37110D02*
G01X66136Y37810D01*
G01X64886Y37810D01*
G01X64886Y37110D01*
G01X66136Y37110D01*
G37*
G36*
G01X66136Y39009D02*
G01X66136Y39709D01*
G01X64886Y39709D01*
G01X64886Y39009D01*
G01X66136Y39009D01*
G37*
G36*
G01X63637Y34757D02*
G01X63637Y35458D01*
G01X62387Y35458D01*
G01X62387Y34757D01*
G01X63637Y34757D01*
G37*
G36*
G01X66136Y33808D02*
G01X66136Y34508D01*
G01X64886Y34508D01*
G01X64886Y33808D01*
G01X66136Y33808D01*
G37*
G36*
G01X66136Y35707D02*
G01X66136Y36407D01*
G01X64886Y36407D01*
G01X64886Y35707D01*
G01X66136Y35707D01*
G37*
G36*
G01X28533Y21581D02*
G01X29933Y21581D01*
G01X29933Y22981D01*
G01X28533Y22981D01*
G01X28533Y21581D01*
G37*
G36*
G01X31533Y21581D02*
G01X32933Y21581D01*
G01X32933Y22981D01*
G01X31533Y22981D01*
G01X31533Y21581D01*
G37*
G36*
G01X13669Y14449D02*
G01X12669Y14449D01*
G01X12669Y13348D01*
G01X13669Y13348D01*
G01X13669Y14449D01*
G37*
G36*
G01X15269Y14449D02*
G01X14269Y14449D01*
G01X14269Y13348D01*
G01X15269Y13348D01*
G01X15269Y14449D01*
G37*
G36*
G01X29163Y14322D02*
G01X28163Y14322D01*
G01X28163Y13221D01*
G01X29163Y13221D01*
G01X29163Y14322D01*
G37*
G36*
G01X30763Y14322D02*
G01X29763Y14322D01*
G01X29763Y13221D01*
G01X30763Y13221D01*
G01X30763Y14322D01*
G37*
G36*
G01X44530Y14322D02*
G01X43530Y14322D01*
G01X43530Y13221D01*
G01X44530Y13221D01*
G01X44530Y14322D01*
G37*
G36*
G01X46130Y14322D02*
G01X45130Y14322D01*
G01X45130Y13221D01*
G01X46130Y13221D01*
G01X46130Y14322D01*
G37*
G36*
G01X54910Y13221D02*
G01X55910Y13221D01*
G01X55910Y14322D01*
G01X54910Y14322D01*
G01X54910Y13221D01*
G37*
G36*
G01X53310Y13221D02*
G01X54310Y13221D01*
G01X54310Y14322D01*
G01X53310Y14322D01*
G01X53310Y13221D01*
G37*
G36*
G01X70277Y13221D02*
G01X71277Y13221D01*
G01X71277Y14322D01*
G01X70277Y14322D01*
G01X70277Y13221D01*
G37*
G36*
G01X68677Y13221D02*
G01X69677Y13221D01*
G01X69677Y14322D01*
G01X68677Y14322D01*
G01X68677Y13221D01*
G37*
G54D38*
G01X32142Y24457D03*
G01X33412Y24457D03*
G01X34682Y24457D03*
G01X35952Y24457D03*
G01X37222Y24457D03*
G01X38492Y24457D03*
G01X39762Y24457D03*
G01X41032Y24457D03*
G01X42302Y24457D03*
G01X43572Y24457D03*
G01X44842Y24457D03*
G01X46112Y24457D03*
G01X47382Y24457D03*
G01X48652Y24457D03*
G54D39*
G01X50153Y27742D03*
G01X50153Y29012D03*
G01X50153Y30282D03*
G01X50153Y31552D03*
G01X50153Y32822D03*
G01X50153Y34092D03*
G01X50153Y35362D03*
G01X50153Y36632D03*
G01X50153Y37902D03*
G01X50153Y39172D03*
G54D38*
G01X48652Y42456D03*
G01X47382Y42456D03*
G01X46112Y42456D03*
G01X44842Y42456D03*
G01X43572Y42456D03*
G01X42302Y42456D03*
G01X41032Y42456D03*
G01X39762Y42456D03*
G01X38492Y42456D03*
G01X37222Y42456D03*
G01X35952Y42456D03*
G01X34682Y42456D03*
G01X33412Y42456D03*
G01X32142Y42456D03*
G36*
G01X12065Y13518D02*
G01X10541Y13518D01*
G01X10541Y11994D01*
G01X12065Y11994D01*
G01X12065Y13518D01*
G37*
G36*
G01X27432Y13518D02*
G01X25908Y13518D01*
G01X25908Y11994D01*
G01X27432Y11994D01*
G01X27432Y13518D01*
G37*
G36*
G01X42799Y13518D02*
G01X41275Y13518D01*
G01X41275Y11994D01*
G01X42799Y11994D01*
G01X42799Y13518D01*
G37*
G36*
G01X58166Y13518D02*
G01X56642Y13518D01*
G01X56642Y11994D01*
G01X58166Y11994D01*
G01X58166Y13518D01*
G37*
G36*
G01X73533Y13518D02*
G01X72009Y13518D01*
G01X72009Y11994D01*
G01X73533Y11994D01*
G01X73533Y13518D01*
G37*

%LPD*%
G36*
G01X17907Y12756D02*
G01X5207Y12756D01*
G01X5080Y691D01*
G01X5080Y56D01*
G01X17907Y56D01*
G01X17907Y12756D01*
G37*

%LPD*%
G36*
G01X33274Y12756D02*
G01X20574Y12756D01*
G01X20447Y691D01*
G01X20447Y56D01*
G01X33274Y56D01*
G01X33274Y12756D01*
G37*

%LPD*%
G36*
G01X48641Y12756D02*
G01X35941Y12756D01*
G01X35814Y691D01*
G01X35814Y56D01*
G01X48641Y56D01*
G01X48641Y12756D01*
G37*

%LPD*%
G36*
G01X64008Y12756D02*
G01X51308Y12756D01*
G01X51181Y691D01*
G01X51181Y56D01*
G01X64008Y56D01*
G01X64008Y12756D01*
G37*

%LPD*%
G36*
G01X79375Y12756D02*
G01X66675Y12756D01*
G01X66548Y691D01*
G01X66548Y56D01*
G01X79375Y56D01*
G01X79375Y12756D01*
G37*

%LPD*%
G36*
G01X43329Y22937D02*
G01X43030Y22937D01*
G01X42608Y22404D01*
G01X43751Y22404D01*
G01X43329Y22937D01*
G37*

%LPD*%
G36*
G01X45767Y22660D02*
G01X45092Y22739D01*
G01X44880Y22527D01*
G01X44959Y21852D01*
G01X45767Y22660D01*
G37*

%LPD*%
G36*
G01X31051Y56955D02*
G01X29908Y56955D01*
G01X30330Y56697D01*
G01X30629Y56697D01*
G01X31051Y56955D01*
G37*

%LPD*%
G36*
G01X28440Y56536D02*
G01X28646Y57173D01*
G01X27567Y56795D01*
G01X28126Y56426D01*
G01X28440Y56536D01*
G37*

%LPD*%
G36*
G01X56719Y56832D02*
G01X56640Y57507D01*
G01X55832Y56699D01*
G01X56507Y56620D01*
G01X56719Y56832D01*
G37*

%LPD*%
G36*
G01X59259Y56832D02*
G01X59180Y57507D01*
G01X58372Y56699D01*
G01X59047Y56620D01*
G01X59259Y56832D01*
G37*

%LPD*%
G36*
G01X38671Y56955D02*
G01X37528Y56955D01*
G01X37950Y56422D01*
G01X38249Y56422D01*
G01X38671Y56955D01*
G37*

%LPD*%
G36*
G01X36139Y56584D02*
G01X36289Y57241D01*
G01X35251Y56763D01*
G01X35848Y56450D01*
G01X36139Y56584D01*
G37*

%LPD*%
G36*
G01X31192Y19987D02*
G01X30980Y20199D01*
G01X30305Y20120D01*
G01X31113Y19312D01*
G01X31192Y19987D01*
G37*

%LPD*%
G36*
G01X33768Y19939D02*
G01X33111Y20089D01*
G01X33589Y19051D01*
G01X33902Y19648D01*
G01X33768Y19939D01*
G37*

%LPD*%
G36*
G01X36272Y19987D02*
G01X36060Y20199D01*
G01X35385Y20120D01*
G01X36193Y19312D01*
G01X36272Y19987D01*
G37*

%LPD*%
G36*
G01X38812Y19987D02*
G01X38600Y20199D01*
G01X37925Y20120D01*
G01X38733Y19312D01*
G01X38812Y19987D01*
G37*

%LPD*%
G36*
G01X40789Y20371D02*
G01X40490Y20408D01*
G01X40007Y19930D01*
G01X41141Y19790D01*
G01X40789Y20371D01*
G37*

%LPD*%
G36*
G01X45215Y18788D02*
G01X45215Y19931D01*
G01X44682Y19510D01*
G01X44682Y19210D01*
G01X45215Y18788D01*
G37*

%LPD*%
G36*
G01X46291Y18855D02*
G01X45148Y18855D01*
G01X45570Y18322D01*
G01X45869Y18322D01*
G01X46291Y18855D01*
G37*

%LPD*%
G36*
G01X48307Y20120D02*
G01X47632Y20199D01*
G01X47420Y19987D01*
G01X47499Y19312D01*
G01X48307Y20120D01*
G37*

%LPD*%
G36*
G01X48503Y18637D02*
G01X47513Y19208D01*
G01X47607Y18538D01*
G01X47876Y18383D01*
G01X48503Y18637D01*
G37*

%LPD*%
G36*
G01X51108Y20056D02*
G01X50511Y20369D01*
G01X50220Y20235D01*
G01X50070Y19578D01*
G01X51108Y20056D01*
G37*

%LPD*%
G36*
G01X51062Y18644D02*
G01X50057Y19188D01*
G01X50168Y18521D01*
G01X50444Y18373D01*
G01X51062Y18644D01*
G37*

%LPD*%
G36*
G01X53598Y20076D02*
G01X52977Y20344D01*
G01X52703Y20194D01*
G01X52596Y19526D01*
G01X53598Y20076D01*
G37*

%LPD*%
G36*
G01X53960Y18511D02*
G01X54077Y19169D01*
G01X53058Y18651D01*
G01X53660Y18358D01*
G01X53960Y18511D01*
G37*

%LPD*%
G36*
G01X56791Y19901D02*
G01X56492Y20226D01*
G01X55862Y20121D01*
G01X56638Y19282D01*
G01X56791Y19901D01*
G37*

%LPD*%
G36*
G01X56719Y18732D02*
G01X56640Y19407D01*
G01X55832Y18599D01*
G01X56507Y18520D01*
G01X56719Y18732D01*
G37*

%LPD*%
G36*
G01X54389Y54844D02*
G01X53965Y55355D01*
G01X53694Y54245D01*
G01X54306Y54503D01*
G01X54389Y54844D01*
G37*

%LPD*%
G36*
G01X51379Y54044D02*
G01X51529Y54701D01*
G01X50491Y54223D01*
G01X51088Y53910D01*
G01X51379Y54044D01*
G37*

%LPD*%
G36*
G01X49042Y54222D02*
G01X49021Y54901D01*
G01X48146Y54166D01*
G01X48812Y54028D01*
G01X49042Y54222D01*
G37*

%LPD*%
G36*
G01X46136Y53953D02*
G01X46394Y54565D01*
G01X45284Y54294D01*
G01X45795Y53870D01*
G01X46136Y53953D01*
G37*

%LPD*%
G36*
G01X44019Y54292D02*
G01X43940Y54967D01*
G01X43132Y54159D01*
G01X43807Y54080D01*
G01X44019Y54292D01*
G37*

%LPD*%
G36*
G01X45767Y58220D02*
G01X45092Y58299D01*
G01X44880Y58087D01*
G01X44959Y57412D01*
G01X45767Y58220D01*
G37*

%LPD*%
G36*
G01X43227Y56699D02*
G01X42419Y57507D01*
G01X42340Y56832D01*
G01X42552Y56620D01*
G01X43227Y56699D01*
G37*

%LPD*%
G36*
G01X11833Y49043D02*
G01X11534Y49140D01*
G01X11401Y48958D01*
G01X11836Y48818D01*
G01X11833Y49043D01*
G37*

%LPD*%
G36*
G01X73204Y47452D02*
G01X73204Y47909D01*
G01X72991Y47831D01*
G01X72991Y47531D01*
G01X73204Y47452D01*
G37*

%LPD*%
G36*
G01X70503Y46090D02*
G01X70291Y46302D01*
G01X70084Y46207D01*
G01X70408Y45883D01*
G01X70503Y46090D01*
G37*

%LPD*%
G36*
G01X63773Y42016D02*
G01X63566Y42111D01*
G01X63354Y41899D01*
G01X63449Y41692D01*
G01X63773Y42016D01*
G37*

%LPD*%
G36*
G01X64153Y40629D02*
G01X63941Y40841D01*
G01X63734Y40746D01*
G01X64058Y40422D01*
G01X64153Y40629D01*
G37*

%LPD*%
G36*
G01X65125Y44050D02*
G01X64668Y44050D01*
G01X64747Y43837D01*
G01X65046Y43837D01*
G01X65125Y44050D01*
G37*

%LPD*%
G36*
G01X63474Y44304D02*
G01X63017Y44304D01*
G01X63096Y44091D01*
G01X63395Y44091D01*
G01X63474Y44304D01*
G37*

%LPD*%
G36*
G01X64187Y45801D02*
G01X64187Y46258D01*
G01X63974Y46180D01*
G01X63974Y45880D01*
G01X64187Y45801D01*
G37*

%LPD*%
G36*
G01X58472Y48468D02*
G01X58472Y48925D01*
G01X58259Y48847D01*
G01X58259Y48547D01*
G01X58472Y48468D01*
G37*

%LPD*%
G36*
G01X58472Y47706D02*
G01X58472Y48163D01*
G01X58259Y48085D01*
G01X58259Y47785D01*
G01X58472Y47706D01*
G37*

%LPD*%
G36*
G01X48766Y48085D02*
G01X48543Y48120D01*
G01X48627Y47671D01*
G01X48822Y47785D01*
G01X48766Y48085D01*
G37*

%LPD*%
G36*
G01X48810Y48847D02*
G01X48602Y48938D01*
G01X48574Y48481D01*
G01X48791Y48547D01*
G01X48810Y48847D01*
G37*

%LPD*%
G36*
G01X28881Y44404D02*
G01X28881Y44861D01*
G01X28668Y44783D01*
G01X28668Y44483D01*
G01X28881Y44404D01*
G37*

%LPD*%
G36*
G01X28500Y45166D02*
G01X28500Y45623D01*
G01X28287Y45545D01*
G01X28287Y45245D01*
G01X28500Y45166D01*
G37*

%LPD*%
G36*
G01X19830Y50160D02*
G01X19735Y50367D01*
G01X19411Y50043D01*
G01X19618Y49948D01*
G01X19830Y50160D01*
G37*

%LPD*%
G36*
G01X21100Y51176D02*
G01X21005Y51383D01*
G01X20681Y51059D01*
G01X20888Y50964D01*
G01X21100Y51176D01*
G37*

%LPD*%
G36*
G01X59331Y41491D02*
G01X59032Y41491D01*
G01X58953Y41278D01*
G01X59410Y41278D01*
G01X59331Y41491D01*
G37*

%LPD*%
G36*
G01X59331Y39840D02*
G01X59032Y39840D01*
G01X58953Y39627D01*
G01X59410Y39627D01*
G01X59331Y39840D01*
G37*

%LPD*%
G36*
G01X57329Y45420D02*
G01X57329Y45877D01*
G01X57116Y45799D01*
G01X57116Y45499D01*
G01X57329Y45420D01*
G37*

%LPD*%
G36*
G01X48832Y46134D02*
G01X48713Y46434D01*
G01X48490Y46418D01*
G01X48658Y45993D01*
G01X48832Y46134D01*
G37*

%LPD*%
G36*
G01X48780Y47196D02*
G01X48559Y47246D01*
G01X48615Y46793D01*
G01X48817Y46896D01*
G01X48780Y47196D01*
G37*

%LPD*%
G36*
G01X56791Y51017D02*
G01X56492Y51017D01*
G01X56413Y50803D01*
G01X56870Y50803D01*
G01X56791Y51017D01*
G37*

%LPD*%
G36*
G01X56029Y51016D02*
G01X55730Y51016D01*
G01X55651Y50803D01*
G01X56108Y50803D01*
G01X56029Y51016D01*
G37*

%LPD*%
G36*
G01X55140Y51016D02*
G01X54841Y51016D01*
G01X54762Y50803D01*
G01X55219Y50803D01*
G01X55140Y51016D01*
G37*

%LPD*%
G36*
G01X54378Y51016D02*
G01X54079Y51016D01*
G01X54000Y50803D01*
G01X54457Y50803D01*
G01X54378Y51016D01*
G37*

%LPD*%
G36*
G01X56870Y43514D02*
G01X56413Y43514D01*
G01X56492Y43301D01*
G01X56791Y43301D01*
G01X56870Y43514D01*
G37*

%LPD*%
G36*
G01X56108Y43514D02*
G01X55651Y43514D01*
G01X55730Y43301D01*
G01X56029Y43301D01*
G01X56108Y43514D01*
G37*

%LPD*%
G36*
G01X55219Y43514D02*
G01X54762Y43514D01*
G01X54841Y43301D01*
G01X55140Y43301D01*
G01X55219Y43514D01*
G37*

%LPD*%
G36*
G01X54457Y43514D02*
G01X54000Y43514D01*
G01X54079Y43301D01*
G01X54378Y43301D01*
G01X54457Y43514D01*
G37*

%LPD*%
G36*
G01X53568Y43514D02*
G01X53111Y43514D01*
G01X53190Y43301D01*
G01X53489Y43301D01*
G01X53568Y43514D01*
G37*

%LPD*%
G36*
G01X53489Y51016D02*
G01X53190Y51016D01*
G01X53111Y50803D01*
G01X53568Y50803D01*
G01X53489Y51016D01*
G37*

%LPD*%
G36*
G01X36423Y44685D02*
G01X35966Y44685D01*
G01X36045Y44472D01*
G01X36344Y44472D01*
G01X36423Y44685D01*
G37*

%LPD*%
G36*
G01X37693Y44304D02*
G01X37236Y44304D01*
G01X37315Y44091D01*
G01X37614Y44091D01*
G01X37693Y44304D01*
G37*

%LPD*%
G36*
G01X82221Y24160D02*
G01X82008Y24232D01*
G01X82008Y23632D01*
G01X82221Y23703D01*
G01X82221Y24160D01*
G37*

%LPD*%
G36*
G01X49527Y44460D02*
G01X49103Y44884D01*
G01X49002Y44683D01*
G01X49326Y44359D01*
G01X49527Y44460D01*
G37*

%LPD*%
G36*
G01X31929Y43515D02*
G01X31929Y43972D01*
G01X31716Y43894D01*
G01X31716Y43594D01*
G01X31929Y43515D01*
G37*

%LPD*%
G36*
G01X59077Y32347D02*
G01X58778Y32347D01*
G01X58699Y32134D01*
G01X59156Y32134D01*
G01X59077Y32347D01*
G37*

%LPD*%
G36*
G01X48801Y49736D02*
G01X48588Y49814D01*
G01X48588Y49357D01*
G01X48801Y49436D01*
G01X48801Y49736D01*
G37*

%LPD*%
G36*
G01X73959Y27648D02*
G01X73360Y27648D01*
G01X73431Y27435D01*
G01X73888Y27435D01*
G01X73959Y27648D01*
G37*

%LPD*%
G36*
G01X79984Y42399D02*
G01X79527Y42399D01*
G01X79456Y42186D01*
G01X80055Y42186D01*
G01X79984Y42399D01*
G37*

%LPD*%
G36*
G01X79554Y42829D02*
G01X79341Y42901D01*
G01X79341Y42301D01*
G01X79554Y42372D01*
G01X79554Y42829D01*
G37*

%LPD*%
G36*
G01X75689Y43154D02*
G01X75488Y43255D01*
G01X75164Y42931D01*
G01X75265Y42730D01*
G01X75689Y43154D01*
G37*

%LPD*%
G36*
G01X27429Y21981D02*
G01X27005Y22405D01*
G01X26904Y22204D01*
G01X27228Y21880D01*
G01X27429Y21981D01*
G37*

%LPD*%
G36*
G01X55170Y26700D02*
G01X54957Y26772D01*
G01X54957Y26172D01*
G01X55170Y26243D01*
G01X55170Y26700D01*
G37*

%LPD*%
G36*
G01X10896Y52178D02*
G01X10439Y52178D01*
G01X10518Y51965D01*
G01X10817Y51965D01*
G01X10896Y52178D01*
G37*

%LPD*%
G36*
G01X10896Y52178D02*
G01X10439Y52178D01*
G01X10518Y51999D01*
G01X10817Y51999D01*
G01X10896Y52178D01*
G37*

%LPD*%
G36*
G01X9544Y51440D02*
G01X9220Y51764D01*
G01X9125Y51557D01*
G01X9337Y51345D01*
G01X9544Y51440D01*
G37*

%LPD*%
G36*
G01X8404Y52159D02*
G01X8105Y52159D01*
G01X8026Y51946D01*
G01X8483Y51946D01*
G01X8404Y52159D01*
G37*

%LPD*%
G36*
G01X11912Y53194D02*
G01X11455Y53194D01*
G01X11534Y52981D01*
G01X11833Y52981D01*
G01X11912Y53194D01*
G37*

%LPD*%
G36*
G01X12098Y53096D02*
G01X12098Y53696D01*
G01X11885Y53624D01*
G01X11885Y53167D01*
G01X12098Y53096D01*
G37*

%LPD*%
G36*
G01X11609Y53691D02*
G01X11387Y53726D01*
G01X11243Y53446D01*
G01X11399Y53285D01*
G01X11609Y53691D01*
G37*

%LPD*%
G36*
G01X24690Y50703D02*
G01X24477Y50775D01*
G01X24477Y50175D01*
G01X24690Y50246D01*
G01X24690Y50703D01*
G37*

%LPD*%
G36*
G01X27846Y20907D02*
G01X27633Y20985D01*
G01X27633Y20528D01*
G01X27846Y20607D01*
G01X27846Y20907D01*
G37*

%LPD*%
G36*
G01X40106Y47606D02*
G01X39649Y47606D01*
G01X39728Y47393D01*
G01X40027Y47393D01*
G01X40106Y47606D01*
G37*

%LPD*%
G36*
G01X61701Y38303D02*
G01X61488Y38516D01*
G01X61321Y38460D01*
G01X61645Y38136D01*
G01X61701Y38303D01*
G37*

%LPD*%
G36*
G01X34566Y23203D02*
G01X34267Y23203D01*
G01X34188Y22990D01*
G01X34645Y22990D01*
G01X34566Y23203D01*
G37*

%LPD*%
G36*
G01X48833Y45248D02*
G01X48723Y45562D01*
G01X48501Y45550D01*
G01X48652Y45119D01*
G01X48833Y45248D01*
G37*

%LPD*%
G36*
G01X42519Y44431D02*
G01X42062Y44431D01*
G01X42141Y44218D01*
G01X42440Y44218D01*
G01X42519Y44431D01*
G37*

%LPD*%
G36*
G01X41503Y49892D02*
G01X41046Y49892D01*
G01X41125Y49679D01*
G01X41424Y49679D01*
G01X41503Y49892D01*
G37*

%LPD*%
G36*
G01X50692Y40518D02*
G01X50368Y40842D01*
G01X50273Y40635D01*
G01X50485Y40423D01*
G01X50692Y40518D01*
G37*

%LPD*%
G36*
G01X51790Y39478D02*
G01X51333Y39478D01*
G01X51412Y39265D01*
G01X51711Y39265D01*
G01X51790Y39478D01*
G37*

%LPD*%
G36*
G01X52343Y37470D02*
G01X52019Y37794D01*
G01X51924Y37587D01*
G01X52136Y37375D01*
G01X52343Y37470D01*
G37*

%LPD*%
G36*
G01X60485Y36147D02*
G01X60272Y36225D01*
G01X60272Y35768D01*
G01X60485Y35847D01*
G01X60485Y36147D01*
G37*

%LPD*%
G36*
G01X52249Y43515D02*
G01X52249Y43972D01*
G01X52036Y43894D01*
G01X52036Y43594D01*
G01X52249Y43515D01*
G37*

%LPD*%
G36*
G01X61744Y43269D02*
G01X61445Y43269D01*
G01X61366Y43056D01*
G01X61823Y43056D01*
G01X61744Y43269D01*
G37*

%LPD*%
G36*
G01X61744Y43269D02*
G01X61445Y43269D01*
G01X61366Y43056D01*
G01X61823Y43056D01*
G01X61744Y43269D01*
G37*

%LPD*%
G36*
G01X67840Y46444D02*
G01X67541Y46444D01*
G01X67462Y46231D01*
G01X67919Y46231D01*
G01X67840Y46444D01*
G37*

%LPD*%
G36*
G01X80316Y44912D02*
G01X80316Y45369D01*
G01X80103Y45341D01*
G01X80103Y44941D01*
G01X80316Y44912D01*
G37*

%LPD*%
G36*
G01X80932Y15877D02*
G01X80719Y15905D01*
G01X80719Y15448D01*
G01X80932Y15477D01*
G01X80932Y15877D01*
G37*

%LPD*%
G36*
G01X77014Y37292D02*
G01X77014Y37749D01*
G01X76801Y37721D01*
G01X76801Y37321D01*
G01X77014Y37292D01*
G37*

%LPD*%
G36*
G01X77268Y36276D02*
G01X77268Y36733D01*
G01X77055Y36705D01*
G01X77055Y36305D01*
G01X77268Y36276D01*
G37*

%LPD*%
G36*
G01X70075Y39940D02*
G01X69510Y39940D01*
G01X70042Y39340D01*
G01X70892Y39340D01*
G01X70075Y39940D01*
G37*

%LPD*%
G36*
G01X71070Y34939D02*
G01X70070Y34939D01*
G01X69688Y34339D01*
G01X70253Y34339D01*
G01X71070Y34939D01*
G37*

%LPD*%
G36*
G01X72099Y36363D02*
G01X71675Y36505D01*
G01X71093Y36139D01*
G01X71943Y36139D01*
G01X72099Y36363D01*
G37*

%LPD*%
G36*
G01X66994Y35039D02*
G01X66994Y36039D01*
G01X66394Y35739D01*
G01X66394Y35339D01*
G01X66994Y35039D01*
G37*

%LPD*%
G36*
G01X68895Y38140D02*
G01X68045Y38140D01*
G01X68862Y37540D01*
G01X69427Y37540D01*
G01X68895Y38140D01*
G37*

%LPD*%
G36*
G01X66994Y38240D02*
G01X66994Y39240D01*
G01X66791Y38940D01*
G01X66791Y38540D01*
G01X66994Y38240D01*
G37*

%LPD*%
G36*
G01X64237Y38610D02*
G01X63637Y38760D01*
G01X63637Y38060D01*
G01X64237Y38210D01*
G01X64237Y38610D01*
G37*

%LPD*%
G36*
G01X62387Y38060D02*
G01X62387Y38760D01*
G01X61937Y38560D01*
G01X61937Y38260D01*
G01X62387Y38060D01*
G37*

%LPD*%
G36*
G01X66722Y38387D02*
G01X66164Y38395D01*
G01X65136Y37810D01*
G01X66136Y37795D01*
G01X66722Y38387D01*
G37*

%LPD*%
G36*
G01X66571Y39674D02*
G01X66446Y40115D01*
G01X65937Y39709D01*
G01X66136Y39009D01*
G01X66571Y39674D01*
G37*

%LPD*%
G36*
G01X63512Y34758D02*
G01X62512Y34758D01*
G01X62812Y34158D01*
G01X63212Y34158D01*
G01X63512Y34758D01*
G37*

%LPD*%
G36*
G01X62424Y35908D02*
G01X62000Y35908D01*
G01X62387Y35458D01*
G01X63037Y35458D01*
G01X62424Y35908D01*
G37*

%LPD*%
G36*
G01X66736Y34292D02*
G01X66136Y34508D01*
G01X66136Y33808D01*
G01X66736Y33892D01*
G01X66736Y34292D01*
G37*

%LPD*%
G36*
G01X66171Y35681D02*
G01X66136Y35721D01*
G01X65136Y35707D01*
G01X65750Y35536D01*
G01X66171Y35681D01*
G37*

%LPD*%
G36*
G01X28533Y21581D02*
G01X28533Y22980D01*
G01X27633Y22581D01*
G01X27633Y21981D01*
G01X28533Y21581D01*
G37*

%LPD*%
G36*
G01X30093Y22927D02*
G01X29881Y23140D01*
G01X29403Y22980D01*
G01X29933Y22450D01*
G01X30093Y22927D01*
G37*

%LPD*%
G36*
G01X32064Y21581D02*
G01X31533Y22111D01*
G01X31374Y21633D01*
G01X31586Y21421D01*
G01X32064Y21581D01*
G37*

%LPD*%
G36*
G01X33093Y22927D02*
G01X32880Y23140D01*
G01X32403Y22980D01*
G01X32933Y22450D01*
G01X33093Y22927D01*
G37*

%LPD*%
G36*
G01X12669Y13581D02*
G01X12669Y14216D01*
G01X12446Y14026D01*
G01X12446Y13772D01*
G01X12669Y13581D01*
G37*

%LPD*%
G36*
G01X15453Y14370D02*
G01X15291Y14632D01*
G01X14875Y14448D01*
G01X15269Y13811D01*
G01X15453Y14370D01*
G37*

%LPD*%
G36*
G01X28163Y13454D02*
G01X28163Y14089D01*
G01X27782Y13899D01*
G01X27782Y13645D01*
G01X28163Y13454D01*
G37*

%LPD*%
G36*
G01X30947Y14243D02*
G01X30785Y14505D01*
G01X30369Y14321D01*
G01X30763Y13684D01*
G01X30947Y14243D01*
G37*

%LPD*%
G36*
G01X43530Y13454D02*
G01X43530Y14089D01*
G01X43149Y13899D01*
G01X43149Y13645D01*
G01X43530Y13454D01*
G37*

%LPD*%
G36*
G01X46314Y14243D02*
G01X46152Y14505D01*
G01X45736Y14321D01*
G01X46130Y13684D01*
G01X46314Y14243D01*
G37*

%LPD*%
G36*
G01X56291Y13899D02*
G01X55910Y14089D01*
G01X55910Y13454D01*
G01X56291Y13645D01*
G01X56291Y13899D01*
G37*

%LPD*%
G36*
G01X53960Y14771D02*
G01X53660Y14771D01*
G01X53435Y14321D01*
G01X54185Y14321D01*
G01X53960Y14771D01*
G37*

%LPD*%
G36*
G01X71658Y13899D02*
G01X71277Y14089D01*
G01X71277Y13454D01*
G01X71658Y13645D01*
G01X71658Y13899D01*
G37*

%LPD*%
G36*
G01X68677Y13397D02*
G01X68677Y14147D01*
G01X68227Y13922D01*
G01X68227Y13622D01*
G01X68677Y13397D01*
G37*

%LPD*%
G36*
G01X31692Y24081D02*
G01X31692Y24831D01*
G01X31410Y24606D01*
G01X31410Y24306D01*
G01X31692Y24081D01*
G37*

%LPD*%
G36*
G01X33788Y23707D02*
G01X33038Y23707D01*
G01X33263Y23459D01*
G01X33563Y23459D01*
G01X33788Y23707D01*
G37*

%LPD*%
G36*
G01X34792Y23706D02*
G01X34232Y23706D01*
G01X34267Y23256D01*
G01X34566Y23256D01*
G01X34792Y23706D01*
G37*

%LPD*%
G36*
G01X36328Y23706D02*
G01X35578Y23706D01*
G01X35803Y23256D01*
G01X36103Y23256D01*
G01X36328Y23706D01*
G37*

%LPD*%
G36*
G01X37598Y23706D02*
G01X36848Y23706D01*
G01X37073Y23256D01*
G01X37373Y23256D01*
G01X37598Y23706D01*
G37*

%LPD*%
G36*
G01X38868Y23706D02*
G01X38118Y23706D01*
G01X38343Y23256D01*
G01X38643Y23256D01*
G01X38868Y23706D01*
G37*

%LPD*%
G36*
G01X40138Y23706D02*
G01X39388Y23706D01*
G01X39613Y23256D01*
G01X39913Y23256D01*
G01X40138Y23706D01*
G37*

%LPD*%
G36*
G01X41408Y23706D02*
G01X40658Y23706D01*
G01X40883Y23256D01*
G01X41183Y23256D01*
G01X41408Y23706D01*
G37*

%LPD*%
G36*
G01X42678Y23706D02*
G01X41928Y23706D01*
G01X42153Y23308D01*
G01X42453Y23308D01*
G01X42678Y23706D01*
G37*

%LPD*%
G36*
G01X45218Y23706D02*
G01X44468Y23706D01*
G01X44693Y23256D01*
G01X44993Y23256D01*
G01X45218Y23706D01*
G37*

%LPD*%
G36*
G01X46488Y23706D02*
G01X45738Y23706D01*
G01X45963Y23666D01*
G01X46263Y23666D01*
G01X46488Y23706D01*
G37*

%LPD*%
G36*
G01X47758Y23706D02*
G01X47008Y23706D01*
G01X47233Y23285D01*
G01X47533Y23285D01*
G01X47758Y23706D01*
G37*

%LPD*%
G36*
G01X49552Y23769D02*
G01X49102Y24382D01*
G01X49102Y23706D01*
G01X49552Y23344D01*
G01X49552Y23769D01*
G37*

%LPD*%
G36*
G01X51353Y29162D02*
G01X50903Y29387D01*
G01X50903Y28637D01*
G01X51353Y28862D01*
G01X51353Y29162D01*
G37*

%LPD*%
G36*
G01X51353Y30432D02*
G01X50903Y30657D01*
G01X50903Y29907D01*
G01X51353Y30132D01*
G01X51353Y30432D01*
G37*

%LPD*%
G36*
G01X51308Y31702D02*
G01X50903Y31927D01*
G01X50903Y31177D01*
G01X51308Y31402D01*
G01X51308Y31702D01*
G37*

%LPD*%
G36*
G01X51181Y32972D02*
G01X50903Y33197D01*
G01X50903Y32447D01*
G01X51181Y32672D01*
G01X51181Y32972D01*
G37*

%LPD*%
G36*
G01X51181Y34242D02*
G01X50903Y34467D01*
G01X50903Y33717D01*
G01X51181Y33942D01*
G01X51181Y34242D01*
G37*

%LPD*%
G36*
G01X51308Y35512D02*
G01X50903Y35737D01*
G01X50903Y34987D01*
G01X51308Y35212D01*
G01X51308Y35512D01*
G37*

%LPD*%
G36*
G01X51181Y36782D02*
G01X50903Y37007D01*
G01X50903Y36257D01*
G01X51181Y36482D01*
G01X51181Y36782D01*
G37*

%LPD*%
G36*
G01X51353Y38369D02*
G01X51353Y38794D01*
G01X50903Y38352D01*
G01X50903Y37757D01*
G01X51353Y38369D01*
G37*

%LPD*%
G36*
G01X50303Y40072D02*
G01X50003Y40072D01*
G01X49778Y39622D01*
G01X50528Y39622D01*
G01X50303Y40072D01*
G37*

%LPD*%
G36*
G01X49552Y43144D02*
G01X49552Y43569D01*
G01X49102Y43207D01*
G01X49102Y42531D01*
G01X49552Y43144D01*
G37*

%LPD*%
G36*
G01X47533Y43657D02*
G01X47233Y43657D01*
G01X47008Y43207D01*
G01X47758Y43207D01*
G01X47533Y43657D01*
G37*

%LPD*%
G36*
G01X46263Y43657D02*
G01X45963Y43657D01*
G01X45738Y43207D01*
G01X46488Y43207D01*
G01X46263Y43657D01*
G37*

%LPD*%
G36*
G01X44993Y43657D02*
G01X44693Y43657D01*
G01X44468Y43207D01*
G01X45218Y43207D01*
G01X44993Y43657D01*
G37*

%LPD*%
G36*
G01X43723Y43657D02*
G01X43423Y43657D01*
G01X43198Y43207D01*
G01X43948Y43207D01*
G01X43723Y43657D01*
G37*

%LPD*%
G36*
G01X42440Y43657D02*
G01X42141Y43657D01*
G01X41915Y43207D01*
G01X42666Y43207D01*
G01X42440Y43657D01*
G37*

%LPD*%
G36*
G01X41424Y43657D02*
G01X41125Y43657D01*
G01X40899Y43207D01*
G01X41482Y43207D01*
G01X41424Y43657D01*
G37*

%LPD*%
G36*
G01X39392Y43144D02*
G01X39392Y43569D01*
G01X38942Y43207D01*
G01X38942Y42531D01*
G01X39392Y43144D01*
G37*

%LPD*%
G36*
G01X37614Y43657D02*
G01X37315Y43657D01*
G01X37089Y43207D01*
G01X37672Y43207D01*
G01X37614Y43657D01*
G37*

%LPD*%
G36*
G01X36344Y43657D02*
G01X36045Y43657D01*
G01X35819Y43207D01*
G01X36402Y43207D01*
G01X36344Y43657D01*
G37*

%LPD*%
G36*
G01X34833Y43657D02*
G01X34533Y43657D01*
G01X34308Y43207D01*
G01X35058Y43207D01*
G01X34833Y43657D01*
G37*

%LPD*%
G36*
G01X33563Y43657D02*
G01X33263Y43657D01*
G01X33038Y43207D01*
G01X33788Y43207D01*
G01X33563Y43657D01*
G37*

%LPD*%
G36*
G01X31692Y43207D02*
G01X31596Y43215D01*
G01X31490Y42896D01*
G01X31692Y42532D01*
G01X31692Y43207D01*
G37*
G54D32*
G01X84963Y4628D03*
G54D33*
G01X43180Y21900D03*
G01X45720Y21900D03*
G01X30480Y57460D03*
G01X27940Y57460D03*
G01X76200Y57460D03*
G01X78740Y57460D03*
G01X55880Y57460D03*
G01X58420Y57460D03*
G01X38100Y57460D03*
G01X35560Y57460D03*
G01X30353Y19360D03*
G01X32893Y19360D03*
G01X35433Y19360D03*
G01X37973Y19360D03*
G01X40513Y19360D03*
G01X45720Y19360D03*
G01X48260Y19360D03*
G01X50800Y19360D03*
G01X53340Y19360D03*
G01X55880Y19360D03*
G01X53340Y54920D03*
G01X50800Y54920D03*
G01X48260Y54920D03*
G01X45720Y54920D03*
G01X43180Y54920D03*
G01X53340Y57460D03*
G01X50800Y57460D03*
G01X48260Y57460D03*
G01X45720Y57460D03*
G01X43180Y57460D03*
G54D17*
G01X11557Y48697D03*
G01X73406Y47681D03*
G01X70104Y45903D03*
G01X63754Y41712D03*
G01X63754Y40442D03*
G01X64897Y44252D03*
G01X63246Y44506D03*
G01X64389Y46030D03*
G01X58674Y48697D03*
G01X58674Y47935D03*
G01X48387Y47858D03*
G01X48387Y48722D03*
G01X29083Y44633D03*
G01X28702Y45395D03*
G01X19431Y50348D03*
G01X20701Y51364D03*
G01X59182Y41077D03*
G01X59182Y39426D03*
G01X57531Y45649D03*
G01X48387Y46131D03*
G01X48387Y46995D03*
G01X56642Y50602D03*
G01X55880Y50602D03*
G01X54991Y50602D03*
G01X54229Y50602D03*
G01X56642Y43716D03*
G01X55880Y43716D03*
G01X54991Y43716D03*
G01X54229Y43716D03*
G01X53340Y43716D03*
G01X53340Y50602D03*
G01X36195Y44887D03*
G01X37465Y44506D03*
G01X82423Y23932D03*
G01X49022Y44379D03*
G01X32131Y43744D03*
G01X58928Y31933D03*
G01X48387Y49586D03*
G01X73660Y27234D03*
G01X79756Y42601D03*
G01X75184Y43236D03*
G01X26924Y21900D03*
G01X55372Y26472D03*
G01X10668Y52380D03*
G01X9525Y51745D03*
G01X8255Y51745D03*
G01X11684Y53396D03*
G01X24892Y50475D03*
G01X27432Y20757D03*
G01X39878Y47808D03*
G01X61341Y38156D03*
G01X34417Y22789D03*
G01X48387Y45268D03*
G01X42291Y44633D03*
G01X41275Y50094D03*
G01X50673Y40823D03*
G01X51562Y39680D03*
G01X52324Y37775D03*
G01X60071Y35997D03*
G01X52451Y43744D03*
G01X61595Y42855D03*
G01X67691Y46030D03*
G01X80518Y45141D03*
G01X80518Y15677D03*
G01X77216Y37521D03*
G01X77470Y36505D03*
G01X31877Y54031D03*
G54D34*
G01X87108Y32852D02*
G01X88408Y32852D01*
G01X87108Y27203D02*
G01X88408Y27203D01*
G54D35*
G01X68326Y57579D02*
G01X68326Y56579D01*
G01X64326Y57579D02*
G01X64326Y56579D01*
M00*
M02*
